ISO-10303-21;
HEADER;
/* Generated by software containing ST-Developer
 * from STEP Tools, Inc. (www.steptools.com) 
 */
/* OPTION: using custom renumber hook */

FILE_DESCRIPTION(
/* description */ ('STEP AP242 Edition 2',
'CAx-IF Rec.Pracs.---Representation and Presentation of Product Manufa
cturing Information (PMI)---4.0---2014-10-13',
'CAx-IF Rec.Pracs.---3D Tessellated Geometry---0.4---2014-09-14','2;1',
'CAx-IF Rec.Pracs.---User Defined Attributes---1.5---2016-08-15'),
/* implementation_level */ '2;1');

FILE_NAME(
/* name */ 'Rectangle with band - Part 2',
/* time_stamp */ '2026-07-28T21:00:43Z',
/* author */ (''),
/* organization */ (''),
/* preprocessor_version */ 'ST-DEVELOPER v20',
/* originating_system */ 'ONSHAPE BY PTC INC, 1.218',
/* authorisation */ '  ');

FILE_SCHEMA (('AP242_MANAGED_MODEL_BASED_3D_ENGINEERING_MIM_LF { 1 0 10303 442 3 1 4 }'));
ENDSEC;

DATA;
#10=SHAPE_REPRESENTATION_RELATIONSHIP('','',#533,#11);
#11=ADVANCED_BREP_SHAPE_REPRESENTATION('',(#531),#855);
#12=CYLINDRICAL_SURFACE('',#541,0.0119499999999991);
#13=CYLINDRICAL_SURFACE('',#546,0.0119499999999991);
#14=CYLINDRICAL_SURFACE('',#558,0.0111499999999987);
#15=CYLINDRICAL_SURFACE('',#567,0.0111499999999991);
#16=CIRCLE('',#536,0.0119499999999991);
#17=CIRCLE('',#537,0.0119499999999991);
#18=CIRCLE('',#538,0.0111499999999991);
#19=CIRCLE('',#539,0.0111499999999987);
#20=CIRCLE('',#542,0.0119499999999991);
#21=CIRCLE('',#547,0.0119499999999991);
#22=CIRCLE('',#559,0.0111499999999987);
#23=CIRCLE('',#568,0.0111499999999991);
#24=ORIENTED_EDGE('',*,*,#168,.T.);
#25=ORIENTED_EDGE('',*,*,#169,.T.);
#26=ORIENTED_EDGE('',*,*,#170,.T.);
#27=ORIENTED_EDGE('',*,*,#171,.T.);
#28=ORIENTED_EDGE('',*,*,#172,.T.);
#29=ORIENTED_EDGE('',*,*,#173,.F.);
#30=ORIENTED_EDGE('',*,*,#174,.T.);
#31=ORIENTED_EDGE('',*,*,#175,.T.);
#32=ORIENTED_EDGE('',*,*,#176,.F.);
#33=ORIENTED_EDGE('',*,*,#177,.F.);
#34=ORIENTED_EDGE('',*,*,#178,.T.);
#35=ORIENTED_EDGE('',*,*,#179,.T.);
#36=ORIENTED_EDGE('',*,*,#180,.F.);
#37=ORIENTED_EDGE('',*,*,#181,.T.);
#38=ORIENTED_EDGE('',*,*,#182,.T.);
#39=ORIENTED_EDGE('',*,*,#183,.F.);
#40=ORIENTED_EDGE('',*,*,#184,.F.);
#41=ORIENTED_EDGE('',*,*,#185,.T.);
#42=ORIENTED_EDGE('',*,*,#186,.F.);
#43=ORIENTED_EDGE('',*,*,#187,.F.);
#44=ORIENTED_EDGE('',*,*,#188,.F.);
#45=ORIENTED_EDGE('',*,*,#189,.F.);
#46=ORIENTED_EDGE('',*,*,#190,.F.);
#47=ORIENTED_EDGE('',*,*,#191,.F.);
#48=ORIENTED_EDGE('',*,*,#192,.F.);
#49=ORIENTED_EDGE('',*,*,#168,.F.);
#50=ORIENTED_EDGE('',*,*,#193,.T.);
#51=ORIENTED_EDGE('',*,*,#194,.T.);
#52=ORIENTED_EDGE('',*,*,#195,.T.);
#53=ORIENTED_EDGE('',*,*,#196,.F.);
#54=ORIENTED_EDGE('',*,*,#174,.F.);
#55=ORIENTED_EDGE('',*,*,#197,.T.);
#56=ORIENTED_EDGE('',*,*,#198,.F.);
#57=ORIENTED_EDGE('',*,*,#197,.F.);
#58=ORIENTED_EDGE('',*,*,#173,.T.);
#59=ORIENTED_EDGE('',*,*,#199,.T.);
#60=ORIENTED_EDGE('',*,*,#172,.F.);
#61=ORIENTED_EDGE('',*,*,#200,.T.);
#62=ORIENTED_EDGE('',*,*,#201,.T.);
#63=ORIENTED_EDGE('',*,*,#199,.F.);
#64=ORIENTED_EDGE('',*,*,#202,.T.);
#65=ORIENTED_EDGE('',*,*,#193,.F.);
#66=ORIENTED_EDGE('',*,*,#179,.F.);
#67=ORIENTED_EDGE('',*,*,#203,.T.);
#68=ORIENTED_EDGE('',*,*,#204,.T.);
#69=ORIENTED_EDGE('',*,*,#203,.F.);
#70=ORIENTED_EDGE('',*,*,#178,.F.);
#71=ORIENTED_EDGE('',*,*,#205,.T.);
#72=ORIENTED_EDGE('',*,*,#206,.F.);
#73=ORIENTED_EDGE('',*,*,#205,.F.);
#74=ORIENTED_EDGE('',*,*,#177,.T.);
#75=ORIENTED_EDGE('',*,*,#207,.T.);
#76=ORIENTED_EDGE('',*,*,#208,.F.);
#77=ORIENTED_EDGE('',*,*,#207,.F.);
#78=ORIENTED_EDGE('',*,*,#176,.T.);
#79=ORIENTED_EDGE('',*,*,#209,.T.);
#80=ORIENTED_EDGE('',*,*,#210,.T.);
#81=ORIENTED_EDGE('',*,*,#209,.F.);
#82=ORIENTED_EDGE('',*,*,#175,.F.);
#83=ORIENTED_EDGE('',*,*,#196,.T.);
#84=ORIENTED_EDGE('',*,*,#211,.F.);
#85=ORIENTED_EDGE('',*,*,#194,.F.);
#86=ORIENTED_EDGE('',*,*,#202,.F.);
#87=ORIENTED_EDGE('',*,*,#204,.F.);
#88=ORIENTED_EDGE('',*,*,#206,.T.);
#89=ORIENTED_EDGE('',*,*,#208,.T.);
#90=ORIENTED_EDGE('',*,*,#210,.F.);
#91=ORIENTED_EDGE('',*,*,#195,.F.);
#92=ORIENTED_EDGE('',*,*,#198,.T.);
#93=ORIENTED_EDGE('',*,*,#201,.F.);
#94=ORIENTED_EDGE('',*,*,#212,.F.);
#95=ORIENTED_EDGE('',*,*,#213,.F.);
#96=ORIENTED_EDGE('',*,*,#192,.T.);
#97=ORIENTED_EDGE('',*,*,#211,.T.);
#98=ORIENTED_EDGE('',*,*,#214,.F.);
#99=ORIENTED_EDGE('',*,*,#169,.F.);
#100=ORIENTED_EDGE('',*,*,#215,.T.);
#101=ORIENTED_EDGE('',*,*,#212,.T.);
#102=ORIENTED_EDGE('',*,*,#200,.F.);
#103=ORIENTED_EDGE('',*,*,#171,.F.);
#104=ORIENTED_EDGE('',*,*,#214,.T.);
#105=ORIENTED_EDGE('',*,*,#213,.T.);
#106=ORIENTED_EDGE('',*,*,#215,.F.);
#107=ORIENTED_EDGE('',*,*,#170,.F.);
#108=ORIENTED_EDGE('',*,*,#216,.T.);
#109=ORIENTED_EDGE('',*,*,#217,.T.);
#110=ORIENTED_EDGE('',*,*,#218,.F.);
#111=ORIENTED_EDGE('',*,*,#181,.F.);
#112=ORIENTED_EDGE('',*,*,#218,.T.);
#113=ORIENTED_EDGE('',*,*,#219,.T.);
#114=ORIENTED_EDGE('',*,*,#220,.F.);
#115=ORIENTED_EDGE('',*,*,#182,.F.);
#116=ORIENTED_EDGE('',*,*,#183,.T.);
#117=ORIENTED_EDGE('',*,*,#220,.T.);
#118=ORIENTED_EDGE('',*,*,#221,.F.);
#119=ORIENTED_EDGE('',*,*,#222,.F.);
#120=ORIENTED_EDGE('',*,*,#184,.T.);
#121=ORIENTED_EDGE('',*,*,#222,.T.);
#122=ORIENTED_EDGE('',*,*,#223,.F.);
#123=ORIENTED_EDGE('',*,*,#224,.F.);
#124=ORIENTED_EDGE('',*,*,#224,.T.);
#125=ORIENTED_EDGE('',*,*,#225,.T.);
#126=ORIENTED_EDGE('',*,*,#226,.F.);
#127=ORIENTED_EDGE('',*,*,#185,.F.);
#128=ORIENTED_EDGE('',*,*,#186,.T.);
#129=ORIENTED_EDGE('',*,*,#226,.T.);
#130=ORIENTED_EDGE('',*,*,#227,.F.);
#131=ORIENTED_EDGE('',*,*,#228,.F.);
#132=ORIENTED_EDGE('',*,*,#187,.T.);
#133=ORIENTED_EDGE('',*,*,#228,.T.);
#134=ORIENTED_EDGE('',*,*,#229,.F.);
#135=ORIENTED_EDGE('',*,*,#230,.F.);
#136=ORIENTED_EDGE('',*,*,#188,.T.);
#137=ORIENTED_EDGE('',*,*,#230,.T.);
#138=ORIENTED_EDGE('',*,*,#231,.F.);
#139=ORIENTED_EDGE('',*,*,#232,.F.);
#140=ORIENTED_EDGE('',*,*,#189,.T.);
#141=ORIENTED_EDGE('',*,*,#232,.T.);
#142=ORIENTED_EDGE('',*,*,#233,.F.);
#143=ORIENTED_EDGE('',*,*,#234,.F.);
#144=ORIENTED_EDGE('',*,*,#190,.T.);
#145=ORIENTED_EDGE('',*,*,#234,.T.);
#146=ORIENTED_EDGE('',*,*,#235,.F.);
#147=ORIENTED_EDGE('',*,*,#236,.F.);
#148=ORIENTED_EDGE('',*,*,#191,.T.);
#149=ORIENTED_EDGE('',*,*,#236,.T.);
#150=ORIENTED_EDGE('',*,*,#237,.F.);
#151=ORIENTED_EDGE('',*,*,#238,.F.);
#152=ORIENTED_EDGE('',*,*,#180,.T.);
#153=ORIENTED_EDGE('',*,*,#238,.T.);
#154=ORIENTED_EDGE('',*,*,#239,.F.);
#155=ORIENTED_EDGE('',*,*,#216,.F.);
#156=ORIENTED_EDGE('',*,*,#217,.F.);
#157=ORIENTED_EDGE('',*,*,#239,.T.);
#158=ORIENTED_EDGE('',*,*,#237,.T.);
#159=ORIENTED_EDGE('',*,*,#235,.T.);
#160=ORIENTED_EDGE('',*,*,#233,.T.);
#161=ORIENTED_EDGE('',*,*,#231,.T.);
#162=ORIENTED_EDGE('',*,*,#229,.T.);
#163=ORIENTED_EDGE('',*,*,#227,.T.);
#164=ORIENTED_EDGE('',*,*,#225,.F.);
#165=ORIENTED_EDGE('',*,*,#223,.T.);
#166=ORIENTED_EDGE('',*,*,#221,.T.);
#167=ORIENTED_EDGE('',*,*,#219,.F.);
#168=EDGE_CURVE('',#240,#241,#288,.T.);
#169=EDGE_CURVE('',#241,#242,#289,.T.);
#170=EDGE_CURVE('',#242,#243,#290,.T.);
#171=EDGE_CURVE('',#243,#244,#291,.T.);
#172=EDGE_CURVE('',#244,#245,#292,.T.);
#173=EDGE_CURVE('',#246,#245,#293,.T.);
#174=EDGE_CURVE('',#246,#247,#16,.F.);
#175=EDGE_CURVE('',#247,#248,#294,.T.);
#176=EDGE_CURVE('',#249,#248,#295,.T.);
#177=EDGE_CURVE('',#250,#249,#296,.T.);
#178=EDGE_CURVE('',#250,#251,#17,.F.);
#179=EDGE_CURVE('',#251,#240,#297,.T.);
#180=EDGE_CURVE('',#252,#253,#18,.F.);
#181=EDGE_CURVE('',#252,#254,#298,.T.);
#182=EDGE_CURVE('',#254,#255,#299,.T.);
#183=EDGE_CURVE('',#256,#255,#300,.T.);
#184=EDGE_CURVE('',#257,#256,#19,.F.);
#185=EDGE_CURVE('',#257,#258,#301,.T.);
#186=EDGE_CURVE('',#259,#258,#302,.T.);
#187=EDGE_CURVE('',#260,#259,#303,.T.);
#188=EDGE_CURVE('',#261,#260,#304,.T.);
#189=EDGE_CURVE('',#262,#261,#305,.T.);
#190=EDGE_CURVE('',#263,#262,#306,.T.);
#191=EDGE_CURVE('',#253,#263,#307,.T.);
#192=EDGE_CURVE('',#241,#264,#308,.T.);
#193=EDGE_CURVE('',#240,#265,#309,.T.);
#194=EDGE_CURVE('',#265,#264,#310,.T.);
#195=EDGE_CURVE('',#266,#267,#20,.F.);
#196=EDGE_CURVE('',#247,#267,#311,.T.);
#197=EDGE_CURVE('',#246,#266,#312,.T.);
#198=EDGE_CURVE('',#266,#268,#313,.T.);
#199=EDGE_CURVE('',#245,#268,#314,.T.);
#200=EDGE_CURVE('',#244,#269,#315,.T.);
#201=EDGE_CURVE('',#269,#268,#316,.T.);
#202=EDGE_CURVE('',#270,#265,#317,.T.);
#203=EDGE_CURVE('',#251,#270,#318,.T.);
#204=EDGE_CURVE('',#271,#270,#21,.F.);
#205=EDGE_CURVE('',#250,#271,#319,.T.);
#206=EDGE_CURVE('',#271,#272,#320,.T.);
#207=EDGE_CURVE('',#249,#272,#321,.T.);
#208=EDGE_CURVE('',#272,#273,#322,.T.);
#209=EDGE_CURVE('',#248,#273,#323,.T.);
#210=EDGE_CURVE('',#267,#273,#324,.T.);
#211=EDGE_CURVE('',#264,#274,#325,.T.);
#212=EDGE_CURVE('',#275,#269,#326,.T.);
#213=EDGE_CURVE('',#274,#275,#327,.T.);
#214=EDGE_CURVE('',#242,#274,#328,.T.);
#215=EDGE_CURVE('',#243,#275,#329,.T.);
#216=EDGE_CURVE('',#252,#276,#330,.T.);
#217=EDGE_CURVE('',#276,#277,#331,.T.);
#218=EDGE_CURVE('',#254,#277,#332,.T.);
#219=EDGE_CURVE('',#277,#278,#333,.T.);
#220=EDGE_CURVE('',#255,#278,#334,.T.);
#221=EDGE_CURVE('',#279,#278,#335,.T.);
#222=EDGE_CURVE('',#256,#279,#336,.T.);
#223=EDGE_CURVE('',#280,#279,#22,.T.);
#224=EDGE_CURVE('',#257,#280,#337,.T.);
#225=EDGE_CURVE('',#280,#281,#338,.T.);
#226=EDGE_CURVE('',#258,#281,#339,.T.);
#227=EDGE_CURVE('',#282,#281,#340,.T.);
#228=EDGE_CURVE('',#259,#282,#341,.T.);
#229=EDGE_CURVE('',#283,#282,#342,.T.);
#230=EDGE_CURVE('',#260,#283,#343,.T.);
#231=EDGE_CURVE('',#284,#283,#344,.T.);
#232=EDGE_CURVE('',#261,#284,#345,.T.);
#233=EDGE_CURVE('',#285,#284,#346,.T.);
#234=EDGE_CURVE('',#262,#285,#347,.T.);
#235=EDGE_CURVE('',#286,#285,#348,.T.);
#236=EDGE_CURVE('',#263,#286,#349,.T.);
#237=EDGE_CURVE('',#287,#286,#350,.T.);
#238=EDGE_CURVE('',#253,#287,#351,.T.);
#239=EDGE_CURVE('',#276,#287,#23,.T.);
#240=VERTEX_POINT('',#709);
#241=VERTEX_POINT('',#710);
#242=VERTEX_POINT('',#712);
#243=VERTEX_POINT('',#714);
#244=VERTEX_POINT('',#716);
#245=VERTEX_POINT('',#718);
#246=VERTEX_POINT('',#720);
#247=VERTEX_POINT('',#722);
#248=VERTEX_POINT('',#724);
#249=VERTEX_POINT('',#726);
#250=VERTEX_POINT('',#728);
#251=VERTEX_POINT('',#730);
#252=VERTEX_POINT('',#733);
#253=VERTEX_POINT('',#734);
#254=VERTEX_POINT('',#736);
#255=VERTEX_POINT('',#738);
#256=VERTEX_POINT('',#740);
#257=VERTEX_POINT('',#742);
#258=VERTEX_POINT('',#744);
#259=VERTEX_POINT('',#746);
#260=VERTEX_POINT('',#748);
#261=VERTEX_POINT('',#750);
#262=VERTEX_POINT('',#752);
#263=VERTEX_POINT('',#754);
#264=VERTEX_POINT('',#758);
#265=VERTEX_POINT('',#760);
#266=VERTEX_POINT('',#764);
#267=VERTEX_POINT('',#765);
#268=VERTEX_POINT('',#770);
#269=VERTEX_POINT('',#774);
#270=VERTEX_POINT('',#778);
#271=VERTEX_POINT('',#782);
#272=VERTEX_POINT('',#786);
#273=VERTEX_POINT('',#790);
#274=VERTEX_POINT('',#796);
#275=VERTEX_POINT('',#798);
#276=VERTEX_POINT('',#807);
#277=VERTEX_POINT('',#809);
#278=VERTEX_POINT('',#813);
#279=VERTEX_POINT('',#817);
#280=VERTEX_POINT('',#821);
#281=VERTEX_POINT('',#825);
#282=VERTEX_POINT('',#829);
#283=VERTEX_POINT('',#833);
#284=VERTEX_POINT('',#837);
#285=VERTEX_POINT('',#841);
#286=VERTEX_POINT('',#845);
#287=VERTEX_POINT('',#849);
#288=LINE('',#708,#352);
#289=LINE('',#711,#353);
#290=LINE('',#713,#354);
#291=LINE('',#715,#355);
#292=LINE('',#717,#356);
#293=LINE('',#719,#357);
#294=LINE('',#723,#358);
#295=LINE('',#725,#359);
#296=LINE('',#727,#360);
#297=LINE('',#731,#361);
#298=LINE('',#735,#362);
#299=LINE('',#737,#363);
#300=LINE('',#739,#364);
#301=LINE('',#743,#365);
#302=LINE('',#745,#366);
#303=LINE('',#747,#367);
#304=LINE('',#749,#368);
#305=LINE('',#751,#369);
#306=LINE('',#753,#370);
#307=LINE('',#755,#371);
#308=LINE('',#757,#372);
#309=LINE('',#759,#373);
#310=LINE('',#761,#374);
#311=LINE('',#766,#375);
#312=LINE('',#767,#376);
#313=LINE('',#769,#377);
#314=LINE('',#771,#378);
#315=LINE('',#773,#379);
#316=LINE('',#775,#380);
#317=LINE('',#777,#381);
#318=LINE('',#779,#382);
#319=LINE('',#783,#383);
#320=LINE('',#785,#384);
#321=LINE('',#787,#385);
#322=LINE('',#789,#386);
#323=LINE('',#791,#387);
#324=LINE('',#793,#388);
#325=LINE('',#795,#389);
#326=LINE('',#797,#390);
#327=LINE('',#799,#391);
#328=LINE('',#801,#392);
#329=LINE('',#803,#393);
#330=LINE('',#806,#394);
#331=LINE('',#808,#395);
#332=LINE('',#810,#396);
#333=LINE('',#812,#397);
#334=LINE('',#814,#398);
#335=LINE('',#816,#399);
#336=LINE('',#818,#400);
#337=LINE('',#822,#401);
#338=LINE('',#824,#402);
#339=LINE('',#826,#403);
#340=LINE('',#828,#404);
#341=LINE('',#830,#405);
#342=LINE('',#832,#406);
#343=LINE('',#834,#407);
#344=LINE('',#836,#408);
#345=LINE('',#838,#409);
#346=LINE('',#840,#410);
#347=LINE('',#842,#411);
#348=LINE('',#844,#412);
#349=LINE('',#846,#413);
#350=LINE('',#848,#414);
#351=LINE('',#850,#415);
#352=VECTOR('',#574,1.);
#353=VECTOR('',#575,1.);
#354=VECTOR('',#576,1.);
#355=VECTOR('',#577,1.);
#356=VECTOR('',#578,1.);
#357=VECTOR('',#579,1.);
#358=VECTOR('',#582,1.);
#359=VECTOR('',#583,1.);
#360=VECTOR('',#584,1.);
#361=VECTOR('',#587,1.);
#362=VECTOR('',#590,1.);
#363=VECTOR('',#591,1.);
#364=VECTOR('',#592,1.);
#365=VECTOR('',#595,1.);
#366=VECTOR('',#596,1.);
#367=VECTOR('',#597,1.);
#368=VECTOR('',#598,1.);
#369=VECTOR('',#599,1.);
#370=VECTOR('',#600,1.);
#371=VECTOR('',#601,1.);
#372=VECTOR('',#604,1.);
#373=VECTOR('',#605,1.);
#374=VECTOR('',#606,1.);
#375=VECTOR('',#611,1.);
#376=VECTOR('',#612,1.);
#377=VECTOR('',#615,1.);
#378=VECTOR('',#616,1.);
#379=VECTOR('',#619,1.);
#380=VECTOR('',#620,1.);
#381=VECTOR('',#623,1.);
#382=VECTOR('',#624,1.);
#383=VECTOR('',#629,1.);
#384=VECTOR('',#632,1.);
#385=VECTOR('',#633,1.);
#386=VECTOR('',#636,1.);
#387=VECTOR('',#637,1.);
#388=VECTOR('',#640,1.);
#389=VECTOR('',#643,1.);
#390=VECTOR('',#644,1.);
#391=VECTOR('',#645,1.);
#392=VECTOR('',#648,1.);
#393=VECTOR('',#651,1.);
#394=VECTOR('',#656,1.);
#395=VECTOR('',#657,1.);
#396=VECTOR('',#658,1.);
#397=VECTOR('',#661,1.);
#398=VECTOR('',#662,1.);
#399=VECTOR('',#665,1.);
#400=VECTOR('',#666,1.);
#401=VECTOR('',#671,1.);
#402=VECTOR('',#674,1.);
#403=VECTOR('',#675,1.);
#404=VECTOR('',#678,1.);
#405=VECTOR('',#679,1.);
#406=VECTOR('',#682,1.);
#407=VECTOR('',#683,1.);
#408=VECTOR('',#686,1.);
#409=VECTOR('',#687,1.);
#410=VECTOR('',#690,1.);
#411=VECTOR('',#691,1.);
#412=VECTOR('',#694,1.);
#413=VECTOR('',#695,1.);
#414=VECTOR('',#698,1.);
#415=VECTOR('',#699,1.);
#416=EDGE_LOOP('',(#24,#25,#26,#27,#28,#29,#30,#31,#32,#33,#34,#35));
#417=EDGE_LOOP('',(#36,#37,#38,#39,#40,#41,#42,#43,#44,#45,#46,#47));
#418=EDGE_LOOP('',(#48,#49,#50,#51));
#419=EDGE_LOOP('',(#52,#53,#54,#55));
#420=EDGE_LOOP('',(#56,#57,#58,#59));
#421=EDGE_LOOP('',(#60,#61,#62,#63));
#422=EDGE_LOOP('',(#64,#65,#66,#67));
#423=EDGE_LOOP('',(#68,#69,#70,#71));
#424=EDGE_LOOP('',(#72,#73,#74,#75));
#425=EDGE_LOOP('',(#76,#77,#78,#79));
#426=EDGE_LOOP('',(#80,#81,#82,#83));
#427=EDGE_LOOP('',(#84,#85,#86,#87,#88,#89,#90,#91,#92,#93,#94,#95));
#428=EDGE_LOOP('',(#96,#97,#98,#99));
#429=EDGE_LOOP('',(#100,#101,#102,#103));
#430=EDGE_LOOP('',(#104,#105,#106,#107));
#431=EDGE_LOOP('',(#108,#109,#110,#111));
#432=EDGE_LOOP('',(#112,#113,#114,#115));
#433=EDGE_LOOP('',(#116,#117,#118,#119));
#434=EDGE_LOOP('',(#120,#121,#122,#123));
#435=EDGE_LOOP('',(#124,#125,#126,#127));
#436=EDGE_LOOP('',(#128,#129,#130,#131));
#437=EDGE_LOOP('',(#132,#133,#134,#135));
#438=EDGE_LOOP('',(#136,#137,#138,#139));
#439=EDGE_LOOP('',(#140,#141,#142,#143));
#440=EDGE_LOOP('',(#144,#145,#146,#147));
#441=EDGE_LOOP('',(#148,#149,#150,#151));
#442=EDGE_LOOP('',(#152,#153,#154,#155));
#443=EDGE_LOOP('',(#156,#157,#158,#159,#160,#161,#162,#163,#164,#165,#166,
#167));
#444=FACE_BOUND('',#416,.T.);
#445=FACE_BOUND('',#417,.T.);
#446=FACE_BOUND('',#418,.T.);
#447=FACE_BOUND('',#419,.T.);
#448=FACE_BOUND('',#420,.T.);
#449=FACE_BOUND('',#421,.T.);
#450=FACE_BOUND('',#422,.T.);
#451=FACE_BOUND('',#423,.T.);
#452=FACE_BOUND('',#424,.T.);
#453=FACE_BOUND('',#425,.T.);
#454=FACE_BOUND('',#426,.T.);
#455=FACE_BOUND('',#427,.T.);
#456=FACE_BOUND('',#428,.T.);
#457=FACE_BOUND('',#429,.T.);
#458=FACE_BOUND('',#430,.T.);
#459=FACE_BOUND('',#431,.T.);
#460=FACE_BOUND('',#432,.T.);
#461=FACE_BOUND('',#433,.T.);
#462=FACE_BOUND('',#434,.T.);
#463=FACE_BOUND('',#435,.T.);
#464=FACE_BOUND('',#436,.T.);
#465=FACE_BOUND('',#437,.T.);
#466=FACE_BOUND('',#438,.T.);
#467=FACE_BOUND('',#439,.T.);
#468=FACE_BOUND('',#440,.T.);
#469=FACE_BOUND('',#441,.T.);
#470=FACE_BOUND('',#442,.T.);
#471=FACE_BOUND('',#443,.T.);
#472=PLANE('',#535);
#473=PLANE('',#540);
#474=PLANE('',#543);
#475=PLANE('',#544);
#476=PLANE('',#545);
#477=PLANE('',#548);
#478=PLANE('',#549);
#479=PLANE('',#550);
#480=PLANE('',#551);
#481=PLANE('',#552);
#482=PLANE('',#553);
#483=PLANE('',#554);
#484=PLANE('',#555);
#485=PLANE('',#556);
#486=PLANE('',#557);
#487=PLANE('',#560);
#488=PLANE('',#561);
#489=PLANE('',#562);
#490=PLANE('',#563);
#491=PLANE('',#564);
#492=PLANE('',#565);
#493=PLANE('',#566);
#494=PLANE('',#569);
#495=ADVANCED_FACE('',(#444,#445),#472,.F.);
#496=ADVANCED_FACE('',(#446),#473,.F.);
#497=ADVANCED_FACE('',(#447),#12,.T.);
#498=ADVANCED_FACE('',(#448),#474,.T.);
#499=ADVANCED_FACE('',(#449),#475,.F.);
#500=ADVANCED_FACE('',(#450),#476,.F.);
#501=ADVANCED_FACE('',(#451),#13,.T.);
#502=ADVANCED_FACE('',(#452),#477,.T.);
#503=ADVANCED_FACE('',(#453),#478,.T.);
#504=ADVANCED_FACE('',(#454),#479,.F.);
#505=ADVANCED_FACE('',(#455),#480,.T.);
#506=ADVANCED_FACE('',(#456),#481,.F.);
#507=ADVANCED_FACE('',(#457),#482,.F.);
#508=ADVANCED_FACE('',(#458),#483,.F.);
#509=ADVANCED_FACE('',(#459),#484,.F.);
#510=ADVANCED_FACE('',(#460),#485,.F.);
#511=ADVANCED_FACE('',(#461),#486,.T.);
#512=ADVANCED_FACE('',(#462),#14,.F.);
#513=ADVANCED_FACE('',(#463),#487,.F.);
#514=ADVANCED_FACE('',(#464),#488,.T.);
#515=ADVANCED_FACE('',(#465),#489,.T.);
#516=ADVANCED_FACE('',(#466),#490,.T.);
#517=ADVANCED_FACE('',(#467),#491,.T.);
#518=ADVANCED_FACE('',(#468),#492,.T.);
#519=ADVANCED_FACE('',(#469),#493,.T.);
#520=ADVANCED_FACE('',(#470),#15,.F.);
#521=ADVANCED_FACE('',(#471),#494,.F.);
#522=CLOSED_SHELL('',(#495,#496,#497,#498,#499,#500,#501,#502,#503,#504,
#505,#506,#507,#508,#509,#510,#511,#512,#513,#514,#515,#516,#517,#518,#519,
#520,#521));
#523=STYLED_ITEM('',(#524),#531);
#524=PRESENTATION_STYLE_ASSIGNMENT((#525));
#525=SURFACE_STYLE_USAGE(.BOTH.,#526);
#526=SURFACE_SIDE_STYLE('',(#527));
#527=SURFACE_STYLE_FILL_AREA(#528);
#528=FILL_AREA_STYLE('',(#529));
#529=FILL_AREA_STYLE_COLOUR('',#530);
#530=COLOUR_RGB('',0.647058823529412,0.647058823529412,0.647058823529412);
#531=MANIFOLD_SOLID_BREP('Part 2',#522);
#532=SHAPE_DEFINITION_REPRESENTATION(#860,#533);
#533=SHAPE_REPRESENTATION('Part 2',(#534),#855);
#534=AXIS2_PLACEMENT_3D('',#706,#570,#571);
#535=AXIS2_PLACEMENT_3D('',#707,#572,#573);
#536=AXIS2_PLACEMENT_3D('',#721,#580,#581);
#537=AXIS2_PLACEMENT_3D('',#729,#585,#586);
#538=AXIS2_PLACEMENT_3D('',#732,#588,#589);
#539=AXIS2_PLACEMENT_3D('',#741,#593,#594);
#540=AXIS2_PLACEMENT_3D('',#756,#602,#603);
#541=AXIS2_PLACEMENT_3D('',#762,#607,#608);
#542=AXIS2_PLACEMENT_3D('',#763,#609,#610);
#543=AXIS2_PLACEMENT_3D('',#768,#613,#614);
#544=AXIS2_PLACEMENT_3D('',#772,#617,#618);
#545=AXIS2_PLACEMENT_3D('',#776,#621,#622);
#546=AXIS2_PLACEMENT_3D('',#780,#625,#626);
#547=AXIS2_PLACEMENT_3D('',#781,#627,#628);
#548=AXIS2_PLACEMENT_3D('',#784,#630,#631);
#549=AXIS2_PLACEMENT_3D('',#788,#634,#635);
#550=AXIS2_PLACEMENT_3D('',#792,#638,#639);
#551=AXIS2_PLACEMENT_3D('',#794,#641,#642);
#552=AXIS2_PLACEMENT_3D('',#800,#646,#647);
#553=AXIS2_PLACEMENT_3D('',#802,#649,#650);
#554=AXIS2_PLACEMENT_3D('',#804,#652,#653);
#555=AXIS2_PLACEMENT_3D('',#805,#654,#655);
#556=AXIS2_PLACEMENT_3D('',#811,#659,#660);
#557=AXIS2_PLACEMENT_3D('',#815,#663,#664);
#558=AXIS2_PLACEMENT_3D('',#819,#667,#668);
#559=AXIS2_PLACEMENT_3D('',#820,#669,#670);
#560=AXIS2_PLACEMENT_3D('',#823,#672,#673);
#561=AXIS2_PLACEMENT_3D('',#827,#676,#677);
#562=AXIS2_PLACEMENT_3D('',#831,#680,#681);
#563=AXIS2_PLACEMENT_3D('',#835,#684,#685);
#564=AXIS2_PLACEMENT_3D('',#839,#688,#689);
#565=AXIS2_PLACEMENT_3D('',#843,#692,#693);
#566=AXIS2_PLACEMENT_3D('',#847,#696,#697);
#567=AXIS2_PLACEMENT_3D('',#851,#700,#701);
#568=AXIS2_PLACEMENT_3D('',#852,#702,#703);
#569=AXIS2_PLACEMENT_3D('',#853,#704,#705);
#570=DIRECTION('',(0.,0.,1.));
#571=DIRECTION('',(1.,0.,0.));
#572=DIRECTION('',(0.,-1.22464679914735E-16,-1.));
#573=DIRECTION('',(1.,0.,0.));
#574=DIRECTION('',(0.,1.,-1.22464679914735E-16));
#575=DIRECTION('',(-0.965925826289068,0.258819045102521,-3.16961915143176E-17));
#576=DIRECTION('',(0.,1.,-1.22464679914735E-16));
#577=DIRECTION('',(0.965925826289068,0.258819045102522,-3.16961915143177E-17));
#578=DIRECTION('',(0.,1.,-1.22464679914735E-16));
#579=DIRECTION('',(0.984807753012208,-0.17364817766693,2.12657684957576E-17));
#580=DIRECTION('',(0.,-1.22464679914735E-16,-1.));
#581=DIRECTION('',(1.,0.,0.));
#582=DIRECTION('',(-0.984807753012208,-0.17364817766693,2.12657684957576E-17));
#583=DIRECTION('',(0.,1.,-1.22464679914735E-16));
#584=DIRECTION('',(-0.984807753012208,0.17364817766693,-2.12657684957576E-17));
#585=DIRECTION('',(0.,-1.22464679914735E-16,-1.));
#586=DIRECTION('',(1.,0.,0.));
#587=DIRECTION('',(0.984807753012208,0.17364817766693,-2.12657684957576E-17));
#588=DIRECTION('',(0.,-1.22464679914735E-16,-1.));
#589=DIRECTION('',(1.,0.,0.));
#590=DIRECTION('',(-0.984807753012208,0.173648177666929,-2.12657684957576E-17));
#591=DIRECTION('',(0.,1.,-1.22464679914735E-16));
#592=DIRECTION('',(-0.984807753012208,-0.17364817766693,2.12657684957576E-17));
#593=DIRECTION('',(0.,-1.22464679914735E-16,-1.));
#594=DIRECTION('',(1.,0.,0.));
#595=DIRECTION('',(0.984807753012208,-0.17364817766693,2.12657684957576E-17));
#596=DIRECTION('',(0.,1.,-1.22464679914735E-16));
#597=DIRECTION('',(0.965925826289068,0.258819045102521,-3.16961915143177E-17));
#598=DIRECTION('',(0.,1.,-1.22464679914735E-16));
#599=DIRECTION('',(-0.965925826289068,0.258819045102521,-3.16961915143176E-17));
#600=DIRECTION('',(0.,1.,-1.22464679914735E-16));
#601=DIRECTION('',(0.984807753012208,0.173648177666929,-2.12657684957576E-17));
#602=DIRECTION('',(-1.,0.,0.));
#603=DIRECTION('',(0.,-1.22464679914735E-16,-1.));
#604=DIRECTION('',(0.,-1.22464679914735E-16,-1.));
#605=DIRECTION('',(0.,-1.22464679914735E-16,-1.));
#606=DIRECTION('',(0.,1.,-1.22464679914735E-16));
#607=DIRECTION('',(0.,-1.22464679914735E-16,-1.));
#608=DIRECTION('',(1.,0.,0.));
#609=DIRECTION('',(0.,-1.22464679914735E-16,-1.));
#610=DIRECTION('',(1.,0.,0.));
#611=DIRECTION('',(0.,-1.22464679914735E-16,-1.));
#612=DIRECTION('',(0.,-1.22464679914735E-16,-1.));
#613=DIRECTION('',(0.17364817766693,0.984807753012208,-1.2060416625019E-16));
#614=DIRECTION('',(0.984807753012208,-0.17364817766693,2.12657684957576E-17));
#615=DIRECTION('',(0.984807753012208,-0.17364817766693,2.12657684957576E-17));
#616=DIRECTION('',(0.,-1.22464679914735E-16,-1.));
#617=DIRECTION('',(-1.,0.,0.));
#618=DIRECTION('',(0.,-1.22464679914735E-16,-1.));
#619=DIRECTION('',(0.,-1.22464679914735E-16,-1.));
#620=DIRECTION('',(0.,1.,-1.22464679914735E-16));
#621=DIRECTION('',(-0.173648177666929,0.984807753012208,-1.2060416625019E-16));
#622=DIRECTION('',(0.984807753012208,0.17364817766693,-2.12657684957576E-17));
#623=DIRECTION('',(0.984807753012208,0.17364817766693,-2.12657684957576E-17));
#624=DIRECTION('',(0.,-1.22464679914735E-16,-1.));
#625=DIRECTION('',(0.,-1.22464679914735E-16,-1.));
#626=DIRECTION('',(1.,0.,0.));
#627=DIRECTION('',(0.,-1.22464679914735E-16,-1.));
#628=DIRECTION('',(1.,0.,0.));
#629=DIRECTION('',(0.,-1.22464679914735E-16,-1.));
#630=DIRECTION('',(-0.173648177666929,-0.984807753012208,1.2060416625019E-16));
#631=DIRECTION('',(-0.984807753012208,0.17364817766693,-2.12657684957576E-17));
#632=DIRECTION('',(-0.984807753012208,0.17364817766693,-2.12657684957576E-17));
#633=DIRECTION('',(0.,-1.22464679914735E-16,-1.));
#634=DIRECTION('',(-1.,0.,0.));
#635=DIRECTION('',(0.,-1.22464679914735E-16,-1.));
#636=DIRECTION('',(0.,1.,-1.22464679914735E-16));
#637=DIRECTION('',(0.,-1.22464679914735E-16,-1.));
#638=DIRECTION('',(0.17364817766693,-0.984807753012208,1.2060416625019E-16));
#639=DIRECTION('',(-0.984807753012208,-0.17364817766693,2.12657684957576E-17));
#640=DIRECTION('',(-0.984807753012208,-0.17364817766693,2.12657684957576E-17));
#641=DIRECTION('',(0.,-1.22464679914735E-16,-1.));
#642=DIRECTION('',(1.,0.,0.));
#643=DIRECTION('',(-0.965925826289068,0.258819045102521,-3.16961915143176E-17));
#644=DIRECTION('',(0.965925826289068,0.258819045102522,-3.16961915143177E-17));
#645=DIRECTION('',(0.,1.,-1.22464679914735E-16));
#646=DIRECTION('',(-0.258819045102521,-0.965925826289068,1.18291797137867E-16));
#647=DIRECTION('',(-0.965925826289068,0.258819045102521,-3.16961915143176E-17));
#648=DIRECTION('',(0.,-1.22464679914735E-16,-1.));
#649=DIRECTION('',(-0.258819045102522,0.965925826289068,-1.18291797137867E-16));
#650=DIRECTION('',(0.965925826289068,0.258819045102522,-3.16961915143177E-17));
#651=DIRECTION('',(0.,-1.22464679914735E-16,-1.));
#652=DIRECTION('',(-1.,0.,0.));
#653=DIRECTION('',(0.,-1.22464679914735E-16,-1.));
#654=DIRECTION('',(-0.17364817766693,-0.984807753012208,1.2060416625019E-16));
#655=DIRECTION('',(-0.984807753012208,0.173648177666929,-2.12657684957576E-17));
#656=DIRECTION('',(0.,-1.22464679914735E-16,-1.));
#657=DIRECTION('',(-0.984807753012208,0.173648177666929,-2.12657684957576E-17));
#658=DIRECTION('',(0.,-1.22464679914735E-16,-1.));
#659=DIRECTION('',(-1.,0.,0.));
#660=DIRECTION('',(0.,-1.22464679914735E-16,-1.));
#661=DIRECTION('',(0.,1.,-1.22464679914735E-16));
#662=DIRECTION('',(0.,-1.22464679914735E-16,-1.));
#663=DIRECTION('',(0.17364817766693,-0.984807753012208,1.2060416625019E-16));
#664=DIRECTION('',(-0.984807753012208,-0.17364817766693,2.12657684957576E-17));
#665=DIRECTION('',(-0.984807753012208,-0.17364817766693,2.12657684957576E-17));
#666=DIRECTION('',(0.,-1.22464679914735E-16,-1.));
#667=DIRECTION('',(0.,-1.22464679914735E-16,-1.));
#668=DIRECTION('',(1.,0.,0.));
#669=DIRECTION('',(0.,1.22464679914735E-16,1.));
#670=DIRECTION('',(1.,0.,0.));
#671=DIRECTION('',(0.,-1.22464679914735E-16,-1.));
#672=DIRECTION('',(0.17364817766693,0.984807753012208,-1.2060416625019E-16));
#673=DIRECTION('',(0.984807753012208,-0.17364817766693,2.12657684957576E-17));
#674=DIRECTION('',(0.984807753012208,-0.17364817766693,2.12657684957576E-17));
#675=DIRECTION('',(0.,-1.22464679914735E-16,-1.));
#676=DIRECTION('',(-1.,0.,0.));
#677=DIRECTION('',(0.,-1.22464679914735E-16,-1.));
#678=DIRECTION('',(0.,1.,-1.22464679914735E-16));
#679=DIRECTION('',(0.,-1.22464679914735E-16,-1.));
#680=DIRECTION('',(-0.258819045102521,0.965925826289068,-1.18291797137867E-16));
#681=DIRECTION('',(0.965925826289068,0.258819045102521,-3.16961915143177E-17));
#682=DIRECTION('',(0.965925826289068,0.258819045102521,-3.16961915143177E-17));
#683=DIRECTION('',(0.,-1.22464679914735E-16,-1.));
#684=DIRECTION('',(-1.,0.,0.));
#685=DIRECTION('',(0.,-1.22464679914735E-16,-1.));
#686=DIRECTION('',(0.,1.,-1.22464679914735E-16));
#687=DIRECTION('',(0.,-1.22464679914735E-16,-1.));
#688=DIRECTION('',(-0.258819045102521,-0.965925826289068,1.18291797137867E-16));
#689=DIRECTION('',(-0.965925826289068,0.258819045102521,-3.16961915143176E-17));
#690=DIRECTION('',(-0.965925826289068,0.258819045102521,-3.16961915143176E-17));
#691=DIRECTION('',(0.,-1.22464679914735E-16,-1.));
#692=DIRECTION('',(-1.,0.,0.));
#693=DIRECTION('',(0.,-1.22464679914735E-16,-1.));
#694=DIRECTION('',(0.,1.,-1.22464679914735E-16));
#695=DIRECTION('',(0.,-1.22464679914735E-16,-1.));
#696=DIRECTION('',(-0.173648177666929,0.984807753012208,-1.2060416625019E-16));
#697=DIRECTION('',(0.984807753012208,0.173648177666929,-2.12657684957576E-17));
#698=DIRECTION('',(0.984807753012208,0.173648177666929,-2.12657684957576E-17));
#699=DIRECTION('',(0.,-1.22464679914735E-16,-1.));
#700=DIRECTION('',(0.,-1.22464679914735E-16,-1.));
#701=DIRECTION('',(1.,0.,0.));
#702=DIRECTION('',(0.,1.22464679914735E-16,1.));
#703=DIRECTION('',(1.,0.,0.));
#704=DIRECTION('',(0.,-1.22464679914735E-16,-1.));
#705=DIRECTION('',(1.,0.,0.));
#706=CARTESIAN_POINT('',(0.,0.,0.));
#707=CARTESIAN_POINT('',(0.,-0.0256029594049794,0.0035));
#708=CARTESIAN_POINT('',(0.0119499999999993,-0.025701304055751,0.0035));
#709=CARTESIAN_POINT('',(0.0119499999999993,-0.0356301999975472,0.0035));
#710=CARTESIAN_POINT('',(0.0119499999999993,-0.0281029594049793,0.0035));
#711=CARTESIAN_POINT('',(0.00017549821238793,-0.02494799115971,0.0035));
#712=CARTESIAN_POINT('',(0.00994999999999928,-0.0275670610201171,0.0035));
#713=CARTESIAN_POINT('',(0.00994999999999928,-0.0256029594049794,0.0035));
#714=CARTESIAN_POINT('',(0.00994999999999928,-0.0236388577898416,0.0035));
#715=CARTESIAN_POINT('',(0.000175498212387933,-0.0262579276502486,0.0035));
#716=CARTESIAN_POINT('',(0.0119499999999993,-0.0231029594049794,0.0035));
#717=CARTESIAN_POINT('',(0.0119499999999993,-0.025701304055751,0.0035));
#718=CARTESIAN_POINT('',(0.0119499999999993,-0.0155757188124114,0.0035));
#719=CARTESIAN_POINT('',(0.0020919136488958,-0.013837472210558,0.0035));
#720=CARTESIAN_POINT('',(0.00207509572311977,-0.0138345067564842,0.0035));
#721=CARTESIAN_POINT('',(3.10191806546009E-17,-0.0256029594049798,0.0035));
#722=CARTESIAN_POINT('',(-0.00207509572311977,-0.0138345067564842,0.0035));
#723=CARTESIAN_POINT('',(-0.0020919136488958,-0.013837472210558,0.0035));
#724=CARTESIAN_POINT('',(-0.0119499999999993,-0.0155757188124114,0.0035));
#725=CARTESIAN_POINT('',(-0.0119499999999993,-0.025701304055751,0.0035));
#726=CARTESIAN_POINT('',(-0.0119499999999993,-0.0356301999975472,0.0035));
#727=CARTESIAN_POINT('',(-0.00205827779734358,-0.0373743775075484,0.0035));
#728=CARTESIAN_POINT('',(-0.00207509572311966,-0.0373714120534746,0.0035));
#729=CARTESIAN_POINT('',(2.84064121083094E-17,-0.0256029594049795,0.0035));
#730=CARTESIAN_POINT('',(0.00207509572311966,-0.0373714120534746,0.0035));
#731=CARTESIAN_POINT('',(0.00205827779734358,-0.0373743775075484,0.0035));
#732=CARTESIAN_POINT('',(2.86229373536173E-17,-0.0256029594049796,0.0035));
#733=CARTESIAN_POINT('',(-0.00193617718098608,-0.0365835658510648,0.0035));
#734=CARTESIAN_POINT('',(0.00193617718098614,-0.0365835658510648,0.0035));
#735=CARTESIAN_POINT('',(-0.00193617718098614,-0.0365835658510648,0.0035));
#736=CARTESIAN_POINT('',(-0.0111499999999993,-0.0349589202926054,0.0035));
#737=CARTESIAN_POINT('',(-0.0111499999999993,-0.0256029594049794,0.0035));
#738=CARTESIAN_POINT('',(-0.0111499999999993,-0.0162469985173532,0.0035));
#739=CARTESIAN_POINT('',(-0.00193617718098614,-0.0146223529588939,0.0035));
#740=CARTESIAN_POINT('',(-0.00193617718098614,-0.0146223529588939,0.0035));
#741=CARTESIAN_POINT('',(2.85145171363687E-17,-0.0256029594049796,0.0035));
#742=CARTESIAN_POINT('',(0.00193617718098607,-0.0146223529588946,0.0035));
#743=CARTESIAN_POINT('',(0.00193617718098614,-0.0146223529588939,0.0035));
#744=CARTESIAN_POINT('',(0.0111499999999993,-0.0162469985173532,0.0035));
#745=CARTESIAN_POINT('',(0.0111499999999993,-0.0256029594049794,0.0035));
#746=CARTESIAN_POINT('',(0.0111499999999993,-0.0224890978145962,0.0035));
#747=CARTESIAN_POINT('',(-3.15570236940846E-5,-0.0254851869892174,0.0035));
#748=CARTESIAN_POINT('',(0.00914999999999928,-0.0230249961994584,0.0035));
#749=CARTESIAN_POINT('',(0.00914999999999928,-0.0256029594049794,0.0035));
#750=CARTESIAN_POINT('',(0.00914999999999928,-0.0281809226105003,0.0035));
#751=CARTESIAN_POINT('',(-3.15570236940855E-5,-0.0257207318207413,0.0035));
#752=CARTESIAN_POINT('',(0.0111499999999993,-0.0287168209953625,0.0035));
#753=CARTESIAN_POINT('',(0.0111499999999993,-0.0256029594049794,0.0035));
#754=CARTESIAN_POINT('',(0.0111499999999993,-0.0349589202926054,0.0035));
#755=CARTESIAN_POINT('',(0.00193617718098614,-0.0365835658510648,0.0035));
#756=CARTESIAN_POINT('',(0.0119499999999993,-0.025701304055751,0.0035));
#757=CARTESIAN_POINT('',(0.0119499999999993,-0.0281029594049793,0.0255));
#758=CARTESIAN_POINT('',(0.0119499999999993,-0.0281029594049793,0.0005));
#759=CARTESIAN_POINT('',(0.0119499999999993,-0.0356301999975472,0.0035));
#760=CARTESIAN_POINT('',(0.0119499999999993,-0.0356301999975472,0.0005));
#761=CARTESIAN_POINT('',(0.0119499999999993,-0.025701304055751,0.0005));
#762=CARTESIAN_POINT('',(3.10191806546009E-17,-0.0256029594049798,0.0035));
#763=CARTESIAN_POINT('',(3.10191806546009E-17,-0.0256029594049798,0.0005));
#764=CARTESIAN_POINT('',(0.00207509572311977,-0.0138345067564842,0.0005));
#765=CARTESIAN_POINT('',(-0.00207509572311977,-0.0138345067564842,0.0005));
#766=CARTESIAN_POINT('',(-0.00207509572311977,-0.0138345067564842,0.0035));
#767=CARTESIAN_POINT('',(0.00207509572311977,-0.0138345067564842,0.0035));
#768=CARTESIAN_POINT('',(0.0020919136488958,-0.013837472210558,0.0035));
#769=CARTESIAN_POINT('',(0.0020919136488958,-0.013837472210558,0.0005));
#770=CARTESIAN_POINT('',(0.0119499999999993,-0.0155757188124114,0.0005));
#771=CARTESIAN_POINT('',(0.0119499999999993,-0.0155757188124114,0.0035));
#772=CARTESIAN_POINT('',(0.0119499999999993,-0.025701304055751,0.0035));
#773=CARTESIAN_POINT('',(0.0119499999999993,-0.0231029594049794,0.0255));
#774=CARTESIAN_POINT('',(0.0119499999999993,-0.0231029594049794,0.0005));
#775=CARTESIAN_POINT('',(0.0119499999999993,-0.025701304055751,0.0005));
#776=CARTESIAN_POINT('',(0.00205827779734358,-0.0373743775075484,0.0035));
#777=CARTESIAN_POINT('',(0.00205827779734358,-0.0373743775075484,0.0005));
#778=CARTESIAN_POINT('',(0.00207509572311966,-0.0373714120534746,0.0005));
#779=CARTESIAN_POINT('',(0.00207509572311966,-0.0373714120534746,0.0035));
#780=CARTESIAN_POINT('',(2.84064121083094E-17,-0.0256029594049795,0.0035));
#781=CARTESIAN_POINT('',(2.84064121083094E-17,-0.0256029594049795,0.0005));
#782=CARTESIAN_POINT('',(-0.00207509572311966,-0.0373714120534746,0.0005));
#783=CARTESIAN_POINT('',(-0.00207509572311966,-0.0373714120534746,0.0035));
#784=CARTESIAN_POINT('',(-0.00205827779734358,-0.0373743775075484,0.0035));
#785=CARTESIAN_POINT('',(-0.00205827779734358,-0.0373743775075484,0.0005));
#786=CARTESIAN_POINT('',(-0.0119499999999993,-0.0356301999975472,0.0005));
#787=CARTESIAN_POINT('',(-0.0119499999999993,-0.0356301999975472,0.0035));
#788=CARTESIAN_POINT('',(-0.0119499999999993,-0.025701304055751,0.0035));
#789=CARTESIAN_POINT('',(-0.0119499999999993,-0.025701304055751,0.0005));
#790=CARTESIAN_POINT('',(-0.0119499999999993,-0.0155757188124114,0.0005));
#791=CARTESIAN_POINT('',(-0.0119499999999993,-0.0155757188124114,0.0035));
#792=CARTESIAN_POINT('',(-0.0020919136488958,-0.013837472210558,0.0035));
#793=CARTESIAN_POINT('',(-0.0020919136488958,-0.013837472210558,0.0005));
#794=CARTESIAN_POINT('',(0.,-0.0256029594049794,0.0005));
#795=CARTESIAN_POINT('',(0.0109499999999993,-0.0278350102125482,0.0005));
#796=CARTESIAN_POINT('',(0.00994999999999928,-0.0275670610201171,0.0005));
#797=CARTESIAN_POINT('',(0.0109499999999993,-0.0233709085974105,0.0005));
#798=CARTESIAN_POINT('',(0.00994999999999928,-0.0236388577898416,0.0005));
#799=CARTESIAN_POINT('',(0.00994999999999928,-0.0256029594049794,0.0005));
#800=CARTESIAN_POINT('',(0.0109499999999993,-0.0278350102125482,0.0255));
#801=CARTESIAN_POINT('',(0.00994999999999928,-0.0275670610201171,0.0255));
#802=CARTESIAN_POINT('',(0.0109499999999993,-0.0233709085974105,0.0255));
#803=CARTESIAN_POINT('',(0.00994999999999928,-0.0236388577898416,0.0255));
#804=CARTESIAN_POINT('',(0.00994999999999928,-0.0256029594049794,0.0255));
#805=CARTESIAN_POINT('',(-0.00654308859049268,-0.0357712430718351,0.0261));
#806=CARTESIAN_POINT('',(-0.00193617718098608,-0.0365835658510648,0.0261));
#807=CARTESIAN_POINT('',(-0.00193617718098608,-0.0365835658510648,0.0011));
#808=CARTESIAN_POINT('',(-0.00654308859049268,-0.0357712430718351,0.0011));
#809=CARTESIAN_POINT('',(-0.0111499999999993,-0.0349589202926054,0.0011));
#810=CARTESIAN_POINT('',(-0.0111499999999993,-0.0349589202926054,0.0261));
#811=CARTESIAN_POINT('',(-0.0111499999999993,-0.0256029594049794,0.0261));
#812=CARTESIAN_POINT('',(-0.0111499999999993,-0.0256029594049794,0.0011));
#813=CARTESIAN_POINT('',(-0.0111499999999993,-0.0162469985173532,0.0011));
#814=CARTESIAN_POINT('',(-0.0111499999999993,-0.0162469985173532,0.0261));
#815=CARTESIAN_POINT('',(-0.00654308859049271,-0.0154346757381236,0.0261));
#816=CARTESIAN_POINT('',(-0.00654308859049271,-0.0154346757381236,0.0011));
#817=CARTESIAN_POINT('',(-0.00193617718098614,-0.0146223529588939,0.0011));
#818=CARTESIAN_POINT('',(-0.00193617718098614,-0.0146223529588939,0.0261));
#819=CARTESIAN_POINT('',(2.85145171363687E-17,-0.0256029594049796,0.0261));
#820=CARTESIAN_POINT('',(2.85145171363687E-17,-0.0256029594049796,0.0011));
#821=CARTESIAN_POINT('',(0.00193617718098607,-0.0146223529588946,0.0011));
#822=CARTESIAN_POINT('',(0.00193617718098607,-0.0146223529588946,0.0261));
#823=CARTESIAN_POINT('',(0.00654308859049274,-0.0154346757381236,0.0261));
#824=CARTESIAN_POINT('',(0.00654308859049274,-0.0154346757381236,0.0011));
#825=CARTESIAN_POINT('',(0.0111499999999993,-0.0162469985173532,0.0011));
#826=CARTESIAN_POINT('',(0.0111499999999993,-0.0162469985173532,0.0261));
#827=CARTESIAN_POINT('',(0.0111499999999993,-0.0193680481659747,0.0261));
#828=CARTESIAN_POINT('',(0.0111499999999993,-0.0193680481659747,0.0011));
#829=CARTESIAN_POINT('',(0.0111499999999993,-0.0224890978145962,0.0011));
#830=CARTESIAN_POINT('',(0.0111499999999993,-0.0224890978145962,0.0261));
#831=CARTESIAN_POINT('',(0.0101499999999993,-0.0227570470070273,0.0261));
#832=CARTESIAN_POINT('',(0.0101499999999993,-0.0227570470070273,0.0011));
#833=CARTESIAN_POINT('',(0.00914999999999928,-0.0230249961994584,0.0011));
#834=CARTESIAN_POINT('',(0.00914999999999928,-0.0230249961994584,0.0261));
#835=CARTESIAN_POINT('',(0.00914999999999928,-0.0256029594049794,0.0261));
#836=CARTESIAN_POINT('',(0.00914999999999928,-0.0256029594049794,0.0011));
#837=CARTESIAN_POINT('',(0.00914999999999928,-0.0281809226105003,0.0011));
#838=CARTESIAN_POINT('',(0.00914999999999928,-0.0281809226105003,0.0261));
#839=CARTESIAN_POINT('',(0.0101499999999993,-0.0284488718029314,0.0261));
#840=CARTESIAN_POINT('',(0.0101499999999993,-0.0284488718029314,0.0011));
#841=CARTESIAN_POINT('',(0.0111499999999993,-0.0287168209953625,0.0011));
#842=CARTESIAN_POINT('',(0.0111499999999993,-0.0287168209953625,0.0261));
#843=CARTESIAN_POINT('',(0.0111499999999993,-0.0318378706439839,0.0261));
#844=CARTESIAN_POINT('',(0.0111499999999993,-0.0318378706439839,0.0011));
#845=CARTESIAN_POINT('',(0.0111499999999993,-0.0349589202926054,0.0011));
#846=CARTESIAN_POINT('',(0.0111499999999993,-0.0349589202926054,0.0261));
#847=CARTESIAN_POINT('',(0.00654308859049271,-0.0357712430718351,0.0261));
#848=CARTESIAN_POINT('',(0.00654308859049271,-0.0357712430718351,0.0011));
#849=CARTESIAN_POINT('',(0.00193617718098614,-0.0365835658510648,0.0011));
#850=CARTESIAN_POINT('',(0.00193617718098614,-0.0365835658510648,0.0261));
#851=CARTESIAN_POINT('',(2.86229373536173E-17,-0.0256029594049796,0.0261));
#852=CARTESIAN_POINT('',(2.86229373536173E-17,-0.0256029594049796,0.0011));
#853=CARTESIAN_POINT('',(0.,-0.0256029594049797,0.0011));
#854=MECHANICAL_DESIGN_GEOMETRIC_PRESENTATION_REPRESENTATION('',(#523),
#855);
#855=(
GEOMETRIC_REPRESENTATION_CONTEXT(3)
GLOBAL_UNCERTAINTY_ASSIGNED_CONTEXT((#856))
GLOBAL_UNIT_ASSIGNED_CONTEXT((#859,#858,#857))
REPRESENTATION_CONTEXT('Part 2','TOP_LEVEL_ASSEMBLY_PART')
);
#856=UNCERTAINTY_MEASURE_WITH_UNIT(LENGTH_MEASURE(1.E-8),#859,
'DISTANCE_ACCURACY_VALUE','Maximum Tolerance applied to model');
#857=(
NAMED_UNIT(*)
SI_UNIT($,.STERADIAN.)
SOLID_ANGLE_UNIT()
);
#858=(
NAMED_UNIT(*)
PLANE_ANGLE_UNIT()
SI_UNIT($,.RADIAN.)
);
#859=(
LENGTH_UNIT()
NAMED_UNIT(*)
SI_UNIT($,.METRE.)
);
#860=PRODUCT_DEFINITION_SHAPE('','',#861);
#861=PRODUCT_DEFINITION('','',#863,#862);
#862=PRODUCT_DEFINITION_CONTEXT('',#869,'design');
#863=PRODUCT_DEFINITION_FORMATION_WITH_SPECIFIED_SOURCE('','',#865,
 .NOT_KNOWN.);
#864=PRODUCT_RELATED_PRODUCT_CATEGORY('','',(#865));
#865=PRODUCT('Part 2','Part 2','Part 2',(#867));
#866=PRODUCT_CATEGORY('','');
#867=PRODUCT_CONTEXT('',#869,'mechanical');
#868=APPLICATION_PROTOCOL_DEFINITION('international standard',
'ap242_managed_model_based_3d_engineering',2020,#869);
#869=APPLICATION_CONTEXT('managed model based 3d engineering');
ENDSEC;
END-ISO-10303-21;
