ISO-10303-21;
HEADER;
/* Generated by software containing ST-Developer
 * from STEP Tools, Inc. (www.steptools.com) 
 */
/* OPTION: using custom renumber hook */

FILE_DESCRIPTION(
/* description */ ('STEP AP242 Edition 2',
'CAx-IF Rec.Pracs.---Representation and Presentation of Product Manufa
cturing Information (PMI)---4.0---2014-10-13',
'CAx-IF Rec.Pracs.---3D Tessellated Geometry---0.4---2014-09-14','2;1',
'CAx-IF Rec.Pracs.---User Defined Attributes---1.5---2016-08-15'),
/* implementation_level */ '2;1');

FILE_NAME(
/* name */ 'Printed - Part 2',
/* time_stamp */ '2026-07-26T13:28:40Z',
/* author */ (''),
/* organization */ (''),
/* preprocessor_version */ 'ST-DEVELOPER v20',
/* originating_system */ 'ONSHAPE BY PTC INC, 1.218',
/* authorisation */ '  ');

FILE_SCHEMA (('AP242_MANAGED_MODEL_BASED_3D_ENGINEERING_MIM_LF { 1 0 10303 442 3 1 4 }'));
ENDSEC;

DATA;
#10=SHAPE_REPRESENTATION_RELATIONSHIP('','',#441,#11);
#11=ADVANCED_BREP_SHAPE_REPRESENTATION('',(#439),#731);
#12=CYLINDRICAL_SURFACE('',#454,0.0037);
#13=CYLINDRICAL_SURFACE('',#457,0.0037);
#14=CYLINDRICAL_SURFACE('',#460,0.0037);
#15=CYLINDRICAL_SURFACE('',#463,0.0037);
#16=CYLINDRICAL_SURFACE('',#469,0.0029);
#17=CYLINDRICAL_SURFACE('',#472,0.0029);
#18=CYLINDRICAL_SURFACE('',#475,0.0029);
#19=CYLINDRICAL_SURFACE('',#478,0.0029);
#20=CIRCLE('',#444,0.0037);
#21=CIRCLE('',#445,0.0037);
#22=CIRCLE('',#446,0.0037);
#23=CIRCLE('',#447,0.0037);
#24=CIRCLE('',#448,0.0029);
#25=CIRCLE('',#449,0.0029);
#26=CIRCLE('',#450,0.0029);
#27=CIRCLE('',#451,0.0029);
#28=CIRCLE('',#455,0.0037);
#29=CIRCLE('',#458,0.0037);
#30=CIRCLE('',#461,0.0037);
#31=CIRCLE('',#464,0.0037);
#32=CIRCLE('',#470,0.0029);
#33=CIRCLE('',#473,0.0029);
#34=CIRCLE('',#476,0.0029);
#35=CIRCLE('',#479,0.0029);
#36=ORIENTED_EDGE('',*,*,#156,.T.);
#37=ORIENTED_EDGE('',*,*,#157,.T.);
#38=ORIENTED_EDGE('',*,*,#158,.T.);
#39=ORIENTED_EDGE('',*,*,#159,.T.);
#40=ORIENTED_EDGE('',*,*,#160,.T.);
#41=ORIENTED_EDGE('',*,*,#161,.T.);
#42=ORIENTED_EDGE('',*,*,#162,.T.);
#43=ORIENTED_EDGE('',*,*,#163,.T.);
#44=ORIENTED_EDGE('',*,*,#164,.T.);
#45=ORIENTED_EDGE('',*,*,#165,.T.);
#46=ORIENTED_EDGE('',*,*,#166,.F.);
#47=ORIENTED_EDGE('',*,*,#167,.F.);
#48=ORIENTED_EDGE('',*,*,#168,.F.);
#49=ORIENTED_EDGE('',*,*,#169,.F.);
#50=ORIENTED_EDGE('',*,*,#170,.F.);
#51=ORIENTED_EDGE('',*,*,#171,.F.);
#52=ORIENTED_EDGE('',*,*,#172,.F.);
#53=ORIENTED_EDGE('',*,*,#173,.F.);
#54=ORIENTED_EDGE('',*,*,#174,.F.);
#55=ORIENTED_EDGE('',*,*,#175,.F.);
#56=ORIENTED_EDGE('',*,*,#176,.T.);
#57=ORIENTED_EDGE('',*,*,#177,.F.);
#58=ORIENTED_EDGE('',*,*,#156,.F.);
#59=ORIENTED_EDGE('',*,*,#178,.T.);
#60=ORIENTED_EDGE('',*,*,#179,.T.);
#61=ORIENTED_EDGE('',*,*,#178,.F.);
#62=ORIENTED_EDGE('',*,*,#165,.F.);
#63=ORIENTED_EDGE('',*,*,#180,.T.);
#64=ORIENTED_EDGE('',*,*,#181,.T.);
#65=ORIENTED_EDGE('',*,*,#180,.F.);
#66=ORIENTED_EDGE('',*,*,#164,.F.);
#67=ORIENTED_EDGE('',*,*,#182,.T.);
#68=ORIENTED_EDGE('',*,*,#183,.T.);
#69=ORIENTED_EDGE('',*,*,#182,.F.);
#70=ORIENTED_EDGE('',*,*,#163,.F.);
#71=ORIENTED_EDGE('',*,*,#184,.T.);
#72=ORIENTED_EDGE('',*,*,#185,.T.);
#73=ORIENTED_EDGE('',*,*,#184,.F.);
#74=ORIENTED_EDGE('',*,*,#162,.F.);
#75=ORIENTED_EDGE('',*,*,#186,.T.);
#76=ORIENTED_EDGE('',*,*,#187,.T.);
#77=ORIENTED_EDGE('',*,*,#186,.F.);
#78=ORIENTED_EDGE('',*,*,#161,.F.);
#79=ORIENTED_EDGE('',*,*,#188,.T.);
#80=ORIENTED_EDGE('',*,*,#189,.T.);
#81=ORIENTED_EDGE('',*,*,#188,.F.);
#82=ORIENTED_EDGE('',*,*,#160,.F.);
#83=ORIENTED_EDGE('',*,*,#190,.T.);
#84=ORIENTED_EDGE('',*,*,#191,.T.);
#85=ORIENTED_EDGE('',*,*,#190,.F.);
#86=ORIENTED_EDGE('',*,*,#159,.F.);
#87=ORIENTED_EDGE('',*,*,#192,.T.);
#88=ORIENTED_EDGE('',*,*,#193,.T.);
#89=ORIENTED_EDGE('',*,*,#192,.F.);
#90=ORIENTED_EDGE('',*,*,#158,.F.);
#91=ORIENTED_EDGE('',*,*,#194,.T.);
#92=ORIENTED_EDGE('',*,*,#195,.T.);
#93=ORIENTED_EDGE('',*,*,#194,.F.);
#94=ORIENTED_EDGE('',*,*,#157,.F.);
#95=ORIENTED_EDGE('',*,*,#177,.T.);
#96=ORIENTED_EDGE('',*,*,#176,.F.);
#97=ORIENTED_EDGE('',*,*,#179,.F.);
#98=ORIENTED_EDGE('',*,*,#181,.F.);
#99=ORIENTED_EDGE('',*,*,#183,.F.);
#100=ORIENTED_EDGE('',*,*,#185,.F.);
#101=ORIENTED_EDGE('',*,*,#187,.F.);
#102=ORIENTED_EDGE('',*,*,#189,.F.);
#103=ORIENTED_EDGE('',*,*,#191,.F.);
#104=ORIENTED_EDGE('',*,*,#193,.F.);
#105=ORIENTED_EDGE('',*,*,#195,.F.);
#106=ORIENTED_EDGE('',*,*,#166,.T.);
#107=ORIENTED_EDGE('',*,*,#196,.T.);
#108=ORIENTED_EDGE('',*,*,#197,.F.);
#109=ORIENTED_EDGE('',*,*,#198,.F.);
#110=ORIENTED_EDGE('',*,*,#167,.T.);
#111=ORIENTED_EDGE('',*,*,#198,.T.);
#112=ORIENTED_EDGE('',*,*,#199,.F.);
#113=ORIENTED_EDGE('',*,*,#200,.F.);
#114=ORIENTED_EDGE('',*,*,#168,.T.);
#115=ORIENTED_EDGE('',*,*,#200,.T.);
#116=ORIENTED_EDGE('',*,*,#201,.F.);
#117=ORIENTED_EDGE('',*,*,#202,.F.);
#118=ORIENTED_EDGE('',*,*,#169,.T.);
#119=ORIENTED_EDGE('',*,*,#202,.T.);
#120=ORIENTED_EDGE('',*,*,#203,.F.);
#121=ORIENTED_EDGE('',*,*,#204,.F.);
#122=ORIENTED_EDGE('',*,*,#170,.T.);
#123=ORIENTED_EDGE('',*,*,#204,.T.);
#124=ORIENTED_EDGE('',*,*,#205,.F.);
#125=ORIENTED_EDGE('',*,*,#206,.F.);
#126=ORIENTED_EDGE('',*,*,#171,.T.);
#127=ORIENTED_EDGE('',*,*,#206,.T.);
#128=ORIENTED_EDGE('',*,*,#207,.F.);
#129=ORIENTED_EDGE('',*,*,#208,.F.);
#130=ORIENTED_EDGE('',*,*,#172,.T.);
#131=ORIENTED_EDGE('',*,*,#208,.T.);
#132=ORIENTED_EDGE('',*,*,#209,.F.);
#133=ORIENTED_EDGE('',*,*,#210,.F.);
#134=ORIENTED_EDGE('',*,*,#173,.T.);
#135=ORIENTED_EDGE('',*,*,#210,.T.);
#136=ORIENTED_EDGE('',*,*,#211,.F.);
#137=ORIENTED_EDGE('',*,*,#212,.F.);
#138=ORIENTED_EDGE('',*,*,#174,.T.);
#139=ORIENTED_EDGE('',*,*,#212,.T.);
#140=ORIENTED_EDGE('',*,*,#213,.F.);
#141=ORIENTED_EDGE('',*,*,#214,.F.);
#142=ORIENTED_EDGE('',*,*,#175,.T.);
#143=ORIENTED_EDGE('',*,*,#214,.T.);
#144=ORIENTED_EDGE('',*,*,#215,.F.);
#145=ORIENTED_EDGE('',*,*,#196,.F.);
#146=ORIENTED_EDGE('',*,*,#197,.T.);
#147=ORIENTED_EDGE('',*,*,#215,.T.);
#148=ORIENTED_EDGE('',*,*,#213,.T.);
#149=ORIENTED_EDGE('',*,*,#211,.T.);
#150=ORIENTED_EDGE('',*,*,#209,.T.);
#151=ORIENTED_EDGE('',*,*,#207,.T.);
#152=ORIENTED_EDGE('',*,*,#205,.T.);
#153=ORIENTED_EDGE('',*,*,#203,.T.);
#154=ORIENTED_EDGE('',*,*,#201,.T.);
#155=ORIENTED_EDGE('',*,*,#199,.T.);
#156=EDGE_CURVE('',#216,#217,#256,.T.);
#157=EDGE_CURVE('',#217,#218,#257,.T.);
#158=EDGE_CURVE('',#218,#219,#20,.F.);
#159=EDGE_CURVE('',#219,#220,#258,.T.);
#160=EDGE_CURVE('',#220,#221,#21,.F.);
#161=EDGE_CURVE('',#221,#222,#259,.T.);
#162=EDGE_CURVE('',#222,#223,#22,.F.);
#163=EDGE_CURVE('',#223,#224,#260,.T.);
#164=EDGE_CURVE('',#224,#225,#23,.F.);
#165=EDGE_CURVE('',#225,#216,#261,.T.);
#166=EDGE_CURVE('',#226,#227,#262,.T.);
#167=EDGE_CURVE('',#228,#226,#263,.T.);
#168=EDGE_CURVE('',#229,#228,#24,.F.);
#169=EDGE_CURVE('',#230,#229,#264,.T.);
#170=EDGE_CURVE('',#231,#230,#25,.F.);
#171=EDGE_CURVE('',#232,#231,#265,.T.);
#172=EDGE_CURVE('',#233,#232,#26,.F.);
#173=EDGE_CURVE('',#234,#233,#266,.T.);
#174=EDGE_CURVE('',#235,#234,#27,.F.);
#175=EDGE_CURVE('',#227,#235,#267,.T.);
#176=EDGE_CURVE('',#236,#237,#268,.T.);
#177=EDGE_CURVE('',#217,#237,#269,.T.);
#178=EDGE_CURVE('',#216,#236,#270,.T.);
#179=EDGE_CURVE('',#238,#236,#271,.T.);
#180=EDGE_CURVE('',#225,#238,#272,.T.);
#181=EDGE_CURVE('',#239,#238,#28,.F.);
#182=EDGE_CURVE('',#224,#239,#273,.T.);
#183=EDGE_CURVE('',#240,#239,#274,.T.);
#184=EDGE_CURVE('',#223,#240,#275,.T.);
#185=EDGE_CURVE('',#241,#240,#29,.F.);
#186=EDGE_CURVE('',#222,#241,#276,.T.);
#187=EDGE_CURVE('',#242,#241,#277,.T.);
#188=EDGE_CURVE('',#221,#242,#278,.T.);
#189=EDGE_CURVE('',#243,#242,#30,.F.);
#190=EDGE_CURVE('',#220,#243,#279,.T.);
#191=EDGE_CURVE('',#244,#243,#280,.T.);
#192=EDGE_CURVE('',#219,#244,#281,.T.);
#193=EDGE_CURVE('',#245,#244,#31,.F.);
#194=EDGE_CURVE('',#218,#245,#282,.T.);
#195=EDGE_CURVE('',#237,#245,#283,.T.);
#196=EDGE_CURVE('',#227,#246,#284,.T.);
#197=EDGE_CURVE('',#247,#246,#285,.T.);
#198=EDGE_CURVE('',#226,#247,#286,.T.);
#199=EDGE_CURVE('',#248,#247,#287,.T.);
#200=EDGE_CURVE('',#228,#248,#288,.T.);
#201=EDGE_CURVE('',#249,#248,#32,.T.);
#202=EDGE_CURVE('',#229,#249,#289,.T.);
#203=EDGE_CURVE('',#250,#249,#290,.T.);
#204=EDGE_CURVE('',#230,#250,#291,.T.);
#205=EDGE_CURVE('',#251,#250,#33,.T.);
#206=EDGE_CURVE('',#231,#251,#292,.T.);
#207=EDGE_CURVE('',#252,#251,#293,.T.);
#208=EDGE_CURVE('',#232,#252,#294,.T.);
#209=EDGE_CURVE('',#253,#252,#34,.T.);
#210=EDGE_CURVE('',#233,#253,#295,.T.);
#211=EDGE_CURVE('',#254,#253,#296,.T.);
#212=EDGE_CURVE('',#234,#254,#297,.T.);
#213=EDGE_CURVE('',#255,#254,#35,.T.);
#214=EDGE_CURVE('',#235,#255,#298,.T.);
#215=EDGE_CURVE('',#246,#255,#299,.T.);
#216=VERTEX_POINT('',#609);
#217=VERTEX_POINT('',#610);
#218=VERTEX_POINT('',#612);
#219=VERTEX_POINT('',#614);
#220=VERTEX_POINT('',#616);
#221=VERTEX_POINT('',#618);
#222=VERTEX_POINT('',#620);
#223=VERTEX_POINT('',#622);
#224=VERTEX_POINT('',#624);
#225=VERTEX_POINT('',#626);
#226=VERTEX_POINT('',#629);
#227=VERTEX_POINT('',#630);
#228=VERTEX_POINT('',#632);
#229=VERTEX_POINT('',#634);
#230=VERTEX_POINT('',#636);
#231=VERTEX_POINT('',#638);
#232=VERTEX_POINT('',#640);
#233=VERTEX_POINT('',#642);
#234=VERTEX_POINT('',#644);
#235=VERTEX_POINT('',#646);
#236=VERTEX_POINT('',#650);
#237=VERTEX_POINT('',#651);
#238=VERTEX_POINT('',#656);
#239=VERTEX_POINT('',#660);
#240=VERTEX_POINT('',#664);
#241=VERTEX_POINT('',#668);
#242=VERTEX_POINT('',#672);
#243=VERTEX_POINT('',#676);
#244=VERTEX_POINT('',#680);
#245=VERTEX_POINT('',#684);
#246=VERTEX_POINT('',#691);
#247=VERTEX_POINT('',#693);
#248=VERTEX_POINT('',#697);
#249=VERTEX_POINT('',#701);
#250=VERTEX_POINT('',#705);
#251=VERTEX_POINT('',#709);
#252=VERTEX_POINT('',#713);
#253=VERTEX_POINT('',#717);
#254=VERTEX_POINT('',#721);
#255=VERTEX_POINT('',#725);
#256=LINE('',#608,#300);
#257=LINE('',#611,#301);
#258=LINE('',#615,#302);
#259=LINE('',#619,#303);
#260=LINE('',#623,#304);
#261=LINE('',#627,#305);
#262=LINE('',#628,#306);
#263=LINE('',#631,#307);
#264=LINE('',#635,#308);
#265=LINE('',#639,#309);
#266=LINE('',#643,#310);
#267=LINE('',#647,#311);
#268=LINE('',#649,#312);
#269=LINE('',#652,#313);
#270=LINE('',#653,#314);
#271=LINE('',#655,#315);
#272=LINE('',#657,#316);
#273=LINE('',#661,#317);
#274=LINE('',#663,#318);
#275=LINE('',#665,#319);
#276=LINE('',#669,#320);
#277=LINE('',#671,#321);
#278=LINE('',#673,#322);
#279=LINE('',#677,#323);
#280=LINE('',#679,#324);
#281=LINE('',#681,#325);
#282=LINE('',#685,#326);
#283=LINE('',#687,#327);
#284=LINE('',#690,#328);
#285=LINE('',#692,#329);
#286=LINE('',#694,#330);
#287=LINE('',#696,#331);
#288=LINE('',#698,#332);
#289=LINE('',#702,#333);
#290=LINE('',#704,#334);
#291=LINE('',#706,#335);
#292=LINE('',#710,#336);
#293=LINE('',#712,#337);
#294=LINE('',#714,#338);
#295=LINE('',#718,#339);
#296=LINE('',#720,#340);
#297=LINE('',#722,#341);
#298=LINE('',#726,#342);
#299=LINE('',#728,#343);
#300=VECTOR('',#486,1.);
#301=VECTOR('',#487,1.);
#302=VECTOR('',#490,1.);
#303=VECTOR('',#493,1.);
#304=VECTOR('',#496,1.);
#305=VECTOR('',#499,1.);
#306=VECTOR('',#500,1.);
#307=VECTOR('',#501,1.);
#308=VECTOR('',#504,1.);
#309=VECTOR('',#507,1.);
#310=VECTOR('',#510,1.);
#311=VECTOR('',#513,1.);
#312=VECTOR('',#516,1.);
#313=VECTOR('',#517,1.);
#314=VECTOR('',#518,1.);
#315=VECTOR('',#521,1.);
#316=VECTOR('',#522,1.);
#317=VECTOR('',#527,1.);
#318=VECTOR('',#530,1.);
#319=VECTOR('',#531,1.);
#320=VECTOR('',#536,1.);
#321=VECTOR('',#539,1.);
#322=VECTOR('',#540,1.);
#323=VECTOR('',#545,1.);
#324=VECTOR('',#548,1.);
#325=VECTOR('',#549,1.);
#326=VECTOR('',#554,1.);
#327=VECTOR('',#557,1.);
#328=VECTOR('',#562,1.);
#329=VECTOR('',#563,1.);
#330=VECTOR('',#564,1.);
#331=VECTOR('',#567,1.);
#332=VECTOR('',#568,1.);
#333=VECTOR('',#573,1.);
#334=VECTOR('',#576,1.);
#335=VECTOR('',#577,1.);
#336=VECTOR('',#582,1.);
#337=VECTOR('',#585,1.);
#338=VECTOR('',#586,1.);
#339=VECTOR('',#591,1.);
#340=VECTOR('',#594,1.);
#341=VECTOR('',#595,1.);
#342=VECTOR('',#600,1.);
#343=VECTOR('',#603,1.);
#344=EDGE_LOOP('',(#36,#37,#38,#39,#40,#41,#42,#43,#44,#45));
#345=EDGE_LOOP('',(#46,#47,#48,#49,#50,#51,#52,#53,#54,#55));
#346=EDGE_LOOP('',(#56,#57,#58,#59));
#347=EDGE_LOOP('',(#60,#61,#62,#63));
#348=EDGE_LOOP('',(#64,#65,#66,#67));
#349=EDGE_LOOP('',(#68,#69,#70,#71));
#350=EDGE_LOOP('',(#72,#73,#74,#75));
#351=EDGE_LOOP('',(#76,#77,#78,#79));
#352=EDGE_LOOP('',(#80,#81,#82,#83));
#353=EDGE_LOOP('',(#84,#85,#86,#87));
#354=EDGE_LOOP('',(#88,#89,#90,#91));
#355=EDGE_LOOP('',(#92,#93,#94,#95));
#356=EDGE_LOOP('',(#96,#97,#98,#99,#100,#101,#102,#103,#104,#105));
#357=EDGE_LOOP('',(#106,#107,#108,#109));
#358=EDGE_LOOP('',(#110,#111,#112,#113));
#359=EDGE_LOOP('',(#114,#115,#116,#117));
#360=EDGE_LOOP('',(#118,#119,#120,#121));
#361=EDGE_LOOP('',(#122,#123,#124,#125));
#362=EDGE_LOOP('',(#126,#127,#128,#129));
#363=EDGE_LOOP('',(#130,#131,#132,#133));
#364=EDGE_LOOP('',(#134,#135,#136,#137));
#365=EDGE_LOOP('',(#138,#139,#140,#141));
#366=EDGE_LOOP('',(#142,#143,#144,#145));
#367=EDGE_LOOP('',(#146,#147,#148,#149,#150,#151,#152,#153,#154,#155));
#368=FACE_BOUND('',#344,.T.);
#369=FACE_BOUND('',#345,.T.);
#370=FACE_BOUND('',#346,.T.);
#371=FACE_BOUND('',#347,.T.);
#372=FACE_BOUND('',#348,.T.);
#373=FACE_BOUND('',#349,.T.);
#374=FACE_BOUND('',#350,.T.);
#375=FACE_BOUND('',#351,.T.);
#376=FACE_BOUND('',#352,.T.);
#377=FACE_BOUND('',#353,.T.);
#378=FACE_BOUND('',#354,.T.);
#379=FACE_BOUND('',#355,.T.);
#380=FACE_BOUND('',#356,.T.);
#381=FACE_BOUND('',#357,.T.);
#382=FACE_BOUND('',#358,.T.);
#383=FACE_BOUND('',#359,.T.);
#384=FACE_BOUND('',#360,.T.);
#385=FACE_BOUND('',#361,.T.);
#386=FACE_BOUND('',#362,.T.);
#387=FACE_BOUND('',#363,.T.);
#388=FACE_BOUND('',#364,.T.);
#389=FACE_BOUND('',#365,.T.);
#390=FACE_BOUND('',#366,.T.);
#391=FACE_BOUND('',#367,.T.);
#392=PLANE('',#443);
#393=PLANE('',#452);
#394=PLANE('',#453);
#395=PLANE('',#456);
#396=PLANE('',#459);
#397=PLANE('',#462);
#398=PLANE('',#465);
#399=PLANE('',#466);
#400=PLANE('',#467);
#401=PLANE('',#468);
#402=PLANE('',#471);
#403=PLANE('',#474);
#404=PLANE('',#477);
#405=PLANE('',#480);
#406=PLANE('',#481);
#407=ADVANCED_FACE('',(#368,#369),#392,.F.);
#408=ADVANCED_FACE('',(#370),#393,.F.);
#409=ADVANCED_FACE('',(#371),#394,.F.);
#410=ADVANCED_FACE('',(#372),#12,.T.);
#411=ADVANCED_FACE('',(#373),#395,.F.);
#412=ADVANCED_FACE('',(#374),#13,.T.);
#413=ADVANCED_FACE('',(#375),#396,.F.);
#414=ADVANCED_FACE('',(#376),#14,.T.);
#415=ADVANCED_FACE('',(#377),#397,.F.);
#416=ADVANCED_FACE('',(#378),#15,.T.);
#417=ADVANCED_FACE('',(#379),#398,.F.);
#418=ADVANCED_FACE('',(#380),#399,.T.);
#419=ADVANCED_FACE('',(#381),#400,.T.);
#420=ADVANCED_FACE('',(#382),#401,.T.);
#421=ADVANCED_FACE('',(#383),#16,.F.);
#422=ADVANCED_FACE('',(#384),#402,.T.);
#423=ADVANCED_FACE('',(#385),#17,.F.);
#424=ADVANCED_FACE('',(#386),#403,.T.);
#425=ADVANCED_FACE('',(#387),#18,.F.);
#426=ADVANCED_FACE('',(#388),#404,.T.);
#427=ADVANCED_FACE('',(#389),#19,.F.);
#428=ADVANCED_FACE('',(#390),#405,.T.);
#429=ADVANCED_FACE('',(#391),#406,.F.);
#430=CLOSED_SHELL('',(#407,#408,#409,#410,#411,#412,#413,#414,#415,#416,
#417,#418,#419,#420,#421,#422,#423,#424,#425,#426,#427,#428,#429));
#431=STYLED_ITEM('',(#432),#439);
#432=PRESENTATION_STYLE_ASSIGNMENT((#433));
#433=SURFACE_STYLE_USAGE(.BOTH.,#434);
#434=SURFACE_SIDE_STYLE('',(#435));
#435=SURFACE_STYLE_FILL_AREA(#436);
#436=FILL_AREA_STYLE('',(#437));
#437=FILL_AREA_STYLE_COLOUR('',#438);
#438=COLOUR_RGB('',0.901960784313726,0.901960784313726,0.901960784313726);
#439=MANIFOLD_SOLID_BREP('Part 2',#430);
#440=SHAPE_DEFINITION_REPRESENTATION(#736,#441);
#441=SHAPE_REPRESENTATION('Part 2',(#442),#731);
#442=AXIS2_PLACEMENT_3D('',#606,#482,#483);
#443=AXIS2_PLACEMENT_3D('',#607,#484,#485);
#444=AXIS2_PLACEMENT_3D('',#613,#488,#489);
#445=AXIS2_PLACEMENT_3D('',#617,#491,#492);
#446=AXIS2_PLACEMENT_3D('',#621,#494,#495);
#447=AXIS2_PLACEMENT_3D('',#625,#497,#498);
#448=AXIS2_PLACEMENT_3D('',#633,#502,#503);
#449=AXIS2_PLACEMENT_3D('',#637,#505,#506);
#450=AXIS2_PLACEMENT_3D('',#641,#508,#509);
#451=AXIS2_PLACEMENT_3D('',#645,#511,#512);
#452=AXIS2_PLACEMENT_3D('',#648,#514,#515);
#453=AXIS2_PLACEMENT_3D('',#654,#519,#520);
#454=AXIS2_PLACEMENT_3D('',#658,#523,#524);
#455=AXIS2_PLACEMENT_3D('',#659,#525,#526);
#456=AXIS2_PLACEMENT_3D('',#662,#528,#529);
#457=AXIS2_PLACEMENT_3D('',#666,#532,#533);
#458=AXIS2_PLACEMENT_3D('',#667,#534,#535);
#459=AXIS2_PLACEMENT_3D('',#670,#537,#538);
#460=AXIS2_PLACEMENT_3D('',#674,#541,#542);
#461=AXIS2_PLACEMENT_3D('',#675,#543,#544);
#462=AXIS2_PLACEMENT_3D('',#678,#546,#547);
#463=AXIS2_PLACEMENT_3D('',#682,#550,#551);
#464=AXIS2_PLACEMENT_3D('',#683,#552,#553);
#465=AXIS2_PLACEMENT_3D('',#686,#555,#556);
#466=AXIS2_PLACEMENT_3D('',#688,#558,#559);
#467=AXIS2_PLACEMENT_3D('',#689,#560,#561);
#468=AXIS2_PLACEMENT_3D('',#695,#565,#566);
#469=AXIS2_PLACEMENT_3D('',#699,#569,#570);
#470=AXIS2_PLACEMENT_3D('',#700,#571,#572);
#471=AXIS2_PLACEMENT_3D('',#703,#574,#575);
#472=AXIS2_PLACEMENT_3D('',#707,#578,#579);
#473=AXIS2_PLACEMENT_3D('',#708,#580,#581);
#474=AXIS2_PLACEMENT_3D('',#711,#583,#584);
#475=AXIS2_PLACEMENT_3D('',#715,#587,#588);
#476=AXIS2_PLACEMENT_3D('',#716,#589,#590);
#477=AXIS2_PLACEMENT_3D('',#719,#592,#593);
#478=AXIS2_PLACEMENT_3D('',#723,#596,#597);
#479=AXIS2_PLACEMENT_3D('',#724,#598,#599);
#480=AXIS2_PLACEMENT_3D('',#727,#601,#602);
#481=AXIS2_PLACEMENT_3D('',#729,#604,#605);
#482=DIRECTION('',(0.,0.,1.));
#483=DIRECTION('',(1.,0.,0.));
#484=DIRECTION('',(0.,1.22464679914735E-16,-1.));
#485=DIRECTION('',(1.,0.,0.));
#486=DIRECTION('',(1.,0.,0.));
#487=DIRECTION('',(0.809016994374948,0.587785252292473,7.19829327805997E-17));
#488=DIRECTION('',(0.,1.22464679914735E-16,-1.));
#489=DIRECTION('',(1.,0.,0.));
#490=DIRECTION('',(-0.309016994374948,0.951056516295154,1.16470831848909E-16));
#491=DIRECTION('',(0.,1.22464679914735E-16,-1.));
#492=DIRECTION('',(1.,0.,0.));
#493=DIRECTION('',(-1.,0.,0.));
#494=DIRECTION('',(0.,1.22464679914735E-16,-1.));
#495=DIRECTION('',(1.,0.,0.));
#496=DIRECTION('',(-0.309016994374948,-0.951056516295154,-1.16470831848909E-16));
#497=DIRECTION('',(0.,1.22464679914735E-16,-1.));
#498=DIRECTION('',(1.,0.,0.));
#499=DIRECTION('',(0.809016994374948,-0.587785252292473,-7.19829327805997E-17));
#500=DIRECTION('',(1.,0.,0.));
#501=DIRECTION('',(0.809016994374948,-0.587785252292473,-7.19829327805997E-17));
#502=DIRECTION('',(0.,1.22464679914735E-16,-1.));
#503=DIRECTION('',(1.,0.,0.));
#504=DIRECTION('',(-0.309016994374948,-0.951056516295154,-1.16470831848909E-16));
#505=DIRECTION('',(0.,1.22464679914735E-16,-1.));
#506=DIRECTION('',(1.,0.,0.));
#507=DIRECTION('',(-1.,0.,0.));
#508=DIRECTION('',(0.,1.22464679914735E-16,-1.));
#509=DIRECTION('',(1.,0.,0.));
#510=DIRECTION('',(-0.309016994374948,0.951056516295154,1.16470831848909E-16));
#511=DIRECTION('',(0.,1.22464679914735E-16,-1.));
#512=DIRECTION('',(1.,0.,0.));
#513=DIRECTION('',(0.809016994374948,0.587785252292473,7.19829327805997E-17));
#514=DIRECTION('',(0.,1.,1.22464679914735E-16));
#515=DIRECTION('',(0.,-1.22464679914735E-16,1.));
#516=DIRECTION('',(1.,0.,0.));
#517=DIRECTION('',(0.,1.22464679914735E-16,-1.));
#518=DIRECTION('',(0.,1.22464679914735E-16,-1.));
#519=DIRECTION('',(0.587785252292473,0.809016994374948,9.90760072617092E-17));
#520=DIRECTION('',(0.809016994374948,-0.587785252292473,-7.19829327805997E-17));
#521=DIRECTION('',(0.809016994374948,-0.587785252292473,-7.19829327805997E-17));
#522=DIRECTION('',(0.,1.22464679914735E-16,-1.));
#523=DIRECTION('',(0.,1.22464679914735E-16,-1.));
#524=DIRECTION('',(1.,0.,0.));
#525=DIRECTION('',(0.,1.22464679914735E-16,-1.));
#526=DIRECTION('',(1.,0.,0.));
#527=DIRECTION('',(0.,1.22464679914735E-16,-1.));
#528=DIRECTION('',(0.951056516295153,-0.309016994374948,-3.78436673043415E-17));
#529=DIRECTION('',(-0.309016994374948,-0.951056516295154,-1.16470831848909E-16));
#530=DIRECTION('',(-0.309016994374948,-0.951056516295154,-1.16470831848909E-16));
#531=DIRECTION('',(0.,1.22464679914735E-16,-1.));
#532=DIRECTION('',(0.,1.22464679914735E-16,-1.));
#533=DIRECTION('',(1.,0.,0.));
#534=DIRECTION('',(0.,1.22464679914735E-16,-1.));
#535=DIRECTION('',(1.,0.,0.));
#536=DIRECTION('',(0.,1.22464679914735E-16,-1.));
#537=DIRECTION('',(0.,-1.,-1.22464679914735E-16));
#538=DIRECTION('',(0.,1.22464679914735E-16,-1.));
#539=DIRECTION('',(-1.,0.,0.));
#540=DIRECTION('',(0.,1.22464679914735E-16,-1.));
#541=DIRECTION('',(0.,1.22464679914735E-16,-1.));
#542=DIRECTION('',(1.,0.,0.));
#543=DIRECTION('',(0.,1.22464679914735E-16,-1.));
#544=DIRECTION('',(1.,0.,0.));
#545=DIRECTION('',(0.,1.22464679914735E-16,-1.));
#546=DIRECTION('',(-0.951056516295153,-0.309016994374948,-3.78436673043415E-17));
#547=DIRECTION('',(-0.309016994374948,0.951056516295154,1.16470831848909E-16));
#548=DIRECTION('',(-0.309016994374948,0.951056516295154,1.16470831848909E-16));
#549=DIRECTION('',(0.,1.22464679914735E-16,-1.));
#550=DIRECTION('',(0.,1.22464679914735E-16,-1.));
#551=DIRECTION('',(1.,0.,0.));
#552=DIRECTION('',(0.,1.22464679914735E-16,-1.));
#553=DIRECTION('',(1.,0.,0.));
#554=DIRECTION('',(0.,1.22464679914735E-16,-1.));
#555=DIRECTION('',(-0.587785252292473,0.809016994374947,9.90760072617092E-17));
#556=DIRECTION('',(0.809016994374948,0.587785252292473,7.19829327805997E-17));
#557=DIRECTION('',(0.809016994374948,0.587785252292473,7.19829327805997E-17));
#558=DIRECTION('',(0.,1.22464679914735E-16,-1.));
#559=DIRECTION('',(1.,0.,0.));
#560=DIRECTION('',(0.,1.,1.22464679914735E-16));
#561=DIRECTION('',(0.,-1.22464679914735E-16,1.));
#562=DIRECTION('',(0.,1.22464679914735E-16,-1.));
#563=DIRECTION('',(1.,0.,0.));
#564=DIRECTION('',(0.,1.22464679914735E-16,-1.));
#565=DIRECTION('',(0.587785252292473,0.809016994374948,9.90760072617092E-17));
#566=DIRECTION('',(0.809016994374948,-0.587785252292473,-7.19829327805997E-17));
#567=DIRECTION('',(0.809016994374948,-0.587785252292473,-7.19829327805997E-17));
#568=DIRECTION('',(0.,1.22464679914735E-16,-1.));
#569=DIRECTION('',(0.,1.22464679914735E-16,-1.));
#570=DIRECTION('',(1.,0.,0.));
#571=DIRECTION('',(0.,-1.22464679914735E-16,1.));
#572=DIRECTION('',(1.,0.,0.));
#573=DIRECTION('',(0.,1.22464679914735E-16,-1.));
#574=DIRECTION('',(0.951056516295154,-0.309016994374948,-3.78436673043415E-17));
#575=DIRECTION('',(-0.309016994374948,-0.951056516295154,-1.16470831848909E-16));
#576=DIRECTION('',(-0.309016994374948,-0.951056516295154,-1.16470831848909E-16));
#577=DIRECTION('',(0.,1.22464679914735E-16,-1.));
#578=DIRECTION('',(0.,1.22464679914735E-16,-1.));
#579=DIRECTION('',(1.,0.,0.));
#580=DIRECTION('',(0.,-1.22464679914735E-16,1.));
#581=DIRECTION('',(1.,0.,0.));
#582=DIRECTION('',(0.,1.22464679914735E-16,-1.));
#583=DIRECTION('',(0.,-1.,-1.22464679914735E-16));
#584=DIRECTION('',(0.,1.22464679914735E-16,-1.));
#585=DIRECTION('',(-1.,0.,0.));
#586=DIRECTION('',(0.,1.22464679914735E-16,-1.));
#587=DIRECTION('',(0.,1.22464679914735E-16,-1.));
#588=DIRECTION('',(1.,0.,0.));
#589=DIRECTION('',(0.,-1.22464679914735E-16,1.));
#590=DIRECTION('',(1.,0.,0.));
#591=DIRECTION('',(0.,1.22464679914735E-16,-1.));
#592=DIRECTION('',(-0.951056516295154,-0.309016994374948,-3.78436673043415E-17));
#593=DIRECTION('',(-0.309016994374948,0.951056516295154,1.16470831848909E-16));
#594=DIRECTION('',(-0.309016994374948,0.951056516295154,1.16470831848909E-16));
#595=DIRECTION('',(0.,1.22464679914735E-16,-1.));
#596=DIRECTION('',(0.,1.22464679914735E-16,-1.));
#597=DIRECTION('',(1.,0.,0.));
#598=DIRECTION('',(0.,-1.22464679914735E-16,1.));
#599=DIRECTION('',(1.,0.,0.));
#600=DIRECTION('',(0.,1.22464679914735E-16,-1.));
#601=DIRECTION('',(-0.587785252292473,0.809016994374948,9.90760072617092E-17));
#602=DIRECTION('',(0.809016994374948,0.587785252292473,7.19829327805997E-17));
#603=DIRECTION('',(0.809016994374948,0.587785252292473,7.19829327805997E-17));
#604=DIRECTION('',(0.,1.22464679914735E-16,-1.));
#605=DIRECTION('',(1.,0.,0.));
#606=CARTESIAN_POINT('',(0.,0.,0.));
#607=CARTESIAN_POINT('',(0.,-0.0264737804071867,0.0034));
#608=CARTESIAN_POINT('',(-1.7347234759768E-18,-0.0373975608143733,0.0034));
#609=CARTESIAN_POINT('',(-0.0039549667170041,-0.0373975608143733,0.0034));
#610=CARTESIAN_POINT('',(0.0039549667170041,-0.0373975608143733,0.0034));
#611=CARTESIAN_POINT('',(0.00656097366404736,-0.0355041859390689,0.0034));
#612=CARTESIAN_POINT('',(0.011873262096308,-0.0316445824720007,0.0034));
#613=CARTESIAN_POINT('',(0.00969845666282581,-0.0286512195928134,0.0034));
#614=CARTESIAN_POINT('',(0.0132173657731179,-0.0275078567136261,0.0034));
#615=CARTESIAN_POINT('',(0.0116513122508849,-0.0226880395699143,0.0034));
#616=CARTESIAN_POINT('',(0.00951288496633629,-0.0161066371208127,0.0034));
#617=CARTESIAN_POINT('',(0.00599397585604423,-0.01725,0.0034));
#618=CARTESIAN_POINT('',(0.00599397585604423,-0.01355,0.0034));
#619=CARTESIAN_POINT('',(0.,-0.01355,0.0034));
#620=CARTESIAN_POINT('',(-0.00599397585604423,-0.01355,0.0034));
#621=CARTESIAN_POINT('',(-0.00599397585604423,-0.01725,0.0034));
#622=CARTESIAN_POINT('',(-0.00951288496633629,-0.0161066371208127,0.0034));
#623=CARTESIAN_POINT('',(-0.0116513122508849,-0.0226880395699143,0.0034));
#624=CARTESIAN_POINT('',(-0.0132173657731179,-0.0275078567136261,0.0034));
#625=CARTESIAN_POINT('',(-0.00969845666282581,-0.0286512195928134,0.0034));
#626=CARTESIAN_POINT('',(-0.011873262096308,-0.0316445824720007,0.0034));
#627=CARTESIAN_POINT('',(-0.00656097366404736,-0.0355041859390689,0.0034));
#628=CARTESIAN_POINT('',(0.,-0.0365975608143733,0.0034));
#629=CARTESIAN_POINT('',(-0.00369503096001778,-0.0365975608143733,0.0034));
#630=CARTESIAN_POINT('',(0.00369503096001777,-0.0365975608143733,0.0034));
#631=CARTESIAN_POINT('',(-0.00609074546221338,-0.0348569723435689,0.0034));
#632=CARTESIAN_POINT('',(-0.011403033894474,-0.0309973688765007,0.0034));
#633=CARTESIAN_POINT('',(-0.00969845666282581,-0.0286512195928134,0.0034));
#634=CARTESIAN_POINT('',(-0.0124565205600818,-0.0277550703091261,0.0034));
#635=CARTESIAN_POINT('',(-0.0108904670378488,-0.0229352531654144,0.0034));
#636=CARTESIAN_POINT('',(-0.00875203975330017,-0.0163538507163126,0.0034));
#637=CARTESIAN_POINT('',(-0.00599397585604423,-0.01725,0.0034));
#638=CARTESIAN_POINT('',(-0.00599397585604423,-0.01435,0.0034));
#639=CARTESIAN_POINT('',(0.,-0.01435,0.0034));
#640=CARTESIAN_POINT('',(0.00599397585604423,-0.01435,0.0034));
#641=CARTESIAN_POINT('',(0.00599397585604422,-0.01725,0.0034));
#642=CARTESIAN_POINT('',(0.00875203975330018,-0.0163538507163126,0.0034));
#643=CARTESIAN_POINT('',(0.0108904670378488,-0.0229352531654144,0.0034));
#644=CARTESIAN_POINT('',(0.0124565205600818,-0.0277550703091261,0.0034));
#645=CARTESIAN_POINT('',(0.00969845666282581,-0.0286512195928134,0.0034));
#646=CARTESIAN_POINT('',(0.011403033894474,-0.0309973688765007,0.0034));
#647=CARTESIAN_POINT('',(0.00609074546221338,-0.0348569723435689,0.0034));
#648=CARTESIAN_POINT('',(-1.7347234759768E-18,-0.0373975608143733,0.0034));
#649=CARTESIAN_POINT('',(-1.7347234759768E-18,-0.0373975608143733,0.000399999999999994));
#650=CARTESIAN_POINT('',(-0.0039549667170041,-0.0373975608143733,0.000399999999999994));
#651=CARTESIAN_POINT('',(0.0039549667170041,-0.0373975608143733,0.000399999999999994));
#652=CARTESIAN_POINT('',(0.0039549667170041,-0.0373975608143733,0.0034));
#653=CARTESIAN_POINT('',(-0.0039549667170041,-0.0373975608143733,0.0034));
#654=CARTESIAN_POINT('',(-0.00656097366404736,-0.0355041859390689,0.0034));
#655=CARTESIAN_POINT('',(-0.00656097366404736,-0.0355041859390689,0.000399999999999994));
#656=CARTESIAN_POINT('',(-0.011873262096308,-0.0316445824720007,0.0004));
#657=CARTESIAN_POINT('',(-0.011873262096308,-0.0316445824720007,0.0034));
#658=CARTESIAN_POINT('',(-0.00969845666282581,-0.0286512195928134,0.0034));
#659=CARTESIAN_POINT('',(-0.00969845666282581,-0.0286512195928133,0.0004));
#660=CARTESIAN_POINT('',(-0.0132173657731179,-0.0275078567136261,0.0004));
#661=CARTESIAN_POINT('',(-0.0132173657731179,-0.0275078567136261,0.0034));
#662=CARTESIAN_POINT('',(-0.0116513122508849,-0.0226880395699143,0.0034));
#663=CARTESIAN_POINT('',(-0.0116513122508849,-0.0226880395699143,0.0004));
#664=CARTESIAN_POINT('',(-0.00951288496633629,-0.0161066371208127,0.0004));
#665=CARTESIAN_POINT('',(-0.00951288496633629,-0.0161066371208127,0.0034));
#666=CARTESIAN_POINT('',(-0.00599397585604423,-0.01725,0.0034));
#667=CARTESIAN_POINT('',(-0.00599397585604423,-0.01725,0.0004));
#668=CARTESIAN_POINT('',(-0.00599397585604423,-0.01355,0.0004));
#669=CARTESIAN_POINT('',(-0.00599397585604423,-0.01355,0.0034));
#670=CARTESIAN_POINT('',(0.,-0.01355,0.0034));
#671=CARTESIAN_POINT('',(0.,-0.01355,0.0004));
#672=CARTESIAN_POINT('',(0.00599397585604423,-0.01355,0.0004));
#673=CARTESIAN_POINT('',(0.00599397585604423,-0.01355,0.0034));
#674=CARTESIAN_POINT('',(0.00599397585604423,-0.01725,0.0034));
#675=CARTESIAN_POINT('',(0.00599397585604423,-0.01725,0.0004));
#676=CARTESIAN_POINT('',(0.00951288496633629,-0.0161066371208127,0.0004));
#677=CARTESIAN_POINT('',(0.00951288496633629,-0.0161066371208127,0.0034));
#678=CARTESIAN_POINT('',(0.0116513122508849,-0.0226880395699143,0.0034));
#679=CARTESIAN_POINT('',(0.0116513122508849,-0.0226880395699143,0.0004));
#680=CARTESIAN_POINT('',(0.0132173657731179,-0.0275078567136261,0.0004));
#681=CARTESIAN_POINT('',(0.0132173657731179,-0.0275078567136261,0.0034));
#682=CARTESIAN_POINT('',(0.00969845666282581,-0.0286512195928134,0.0034));
#683=CARTESIAN_POINT('',(0.00969845666282581,-0.0286512195928134,0.0004));
#684=CARTESIAN_POINT('',(0.011873262096308,-0.0316445824720007,0.0004));
#685=CARTESIAN_POINT('',(0.011873262096308,-0.0316445824720007,0.0034));
#686=CARTESIAN_POINT('',(0.00656097366404736,-0.0355041859390689,0.0034));
#687=CARTESIAN_POINT('',(0.00656097366404736,-0.0355041859390689,0.000399999999999994));
#688=CARTESIAN_POINT('',(0.,-0.0264737804071867,0.0004));
#689=CARTESIAN_POINT('',(-4.33680868994202E-19,-0.0365975608143733,0.026));
#690=CARTESIAN_POINT('',(0.00369503096001777,-0.0365975608143733,0.026));
#691=CARTESIAN_POINT('',(0.00369503096001777,-0.0365975608143733,0.001));
#692=CARTESIAN_POINT('',(-4.33680868994202E-19,-0.0365975608143733,0.001));
#693=CARTESIAN_POINT('',(-0.00369503096001778,-0.0365975608143733,0.001));
#694=CARTESIAN_POINT('',(-0.00369503096001778,-0.0365975608143733,0.026));
#695=CARTESIAN_POINT('',(-0.00754903242724588,-0.033797464845437,0.026));
#696=CARTESIAN_POINT('',(-0.00754903242724588,-0.033797464845437,0.001));
#697=CARTESIAN_POINT('',(-0.011403033894474,-0.0309973688765007,0.001));
#698=CARTESIAN_POINT('',(-0.011403033894474,-0.0309973688765007,0.026));
#699=CARTESIAN_POINT('',(-0.00969845666282581,-0.0286512195928134,0.026));
#700=CARTESIAN_POINT('',(-0.00969845666282581,-0.0286512195928134,0.001));
#701=CARTESIAN_POINT('',(-0.0124565205600818,-0.0277550703091261,0.001));
#702=CARTESIAN_POINT('',(-0.0124565205600818,-0.0277550703091261,0.026));
#703=CARTESIAN_POINT('',(-0.010604280156691,-0.0220544605127194,0.026));
#704=CARTESIAN_POINT('',(-0.010604280156691,-0.0220544605127194,0.001));
#705=CARTESIAN_POINT('',(-0.00875203975330017,-0.0163538507163126,0.001));
#706=CARTESIAN_POINT('',(-0.00875203975330017,-0.0163538507163126,0.026));
#707=CARTESIAN_POINT('',(-0.00599397585604423,-0.01725,0.026));
#708=CARTESIAN_POINT('',(-0.00599397585604423,-0.01725,0.001));
#709=CARTESIAN_POINT('',(-0.00599397585604423,-0.01435,0.001));
#710=CARTESIAN_POINT('',(-0.00599397585604423,-0.01435,0.026));
#711=CARTESIAN_POINT('',(-8.67361737988404E-19,-0.01435,0.026));
#712=CARTESIAN_POINT('',(-8.67361737988404E-19,-0.01435,0.001));
#713=CARTESIAN_POINT('',(0.00599397585604423,-0.01435,0.001));
#714=CARTESIAN_POINT('',(0.00599397585604423,-0.01435,0.026));
#715=CARTESIAN_POINT('',(0.00599397585604422,-0.01725,0.026));
#716=CARTESIAN_POINT('',(0.00599397585604422,-0.01725,0.001));
#717=CARTESIAN_POINT('',(0.00875203975330018,-0.0163538507163126,0.001));
#718=CARTESIAN_POINT('',(0.00875203975330018,-0.0163538507163126,0.026));
#719=CARTESIAN_POINT('',(0.010604280156691,-0.0220544605127194,0.026));
#720=CARTESIAN_POINT('',(0.010604280156691,-0.0220544605127194,0.001));
#721=CARTESIAN_POINT('',(0.0124565205600818,-0.0277550703091261,0.001));
#722=CARTESIAN_POINT('',(0.0124565205600818,-0.0277550703091261,0.026));
#723=CARTESIAN_POINT('',(0.00969845666282581,-0.0286512195928134,0.026));
#724=CARTESIAN_POINT('',(0.00969845666282581,-0.0286512195928134,0.001));
#725=CARTESIAN_POINT('',(0.011403033894474,-0.0309973688765007,0.001));
#726=CARTESIAN_POINT('',(0.011403033894474,-0.0309973688765007,0.026));
#727=CARTESIAN_POINT('',(0.00754903242724588,-0.033797464845437,0.026));
#728=CARTESIAN_POINT('',(0.00754903242724588,-0.033797464845437,0.001));
#729=CARTESIAN_POINT('',(0.,-0.0254737804071867,0.001));
#730=MECHANICAL_DESIGN_GEOMETRIC_PRESENTATION_REPRESENTATION('',(#431),
#731);
#731=(
GEOMETRIC_REPRESENTATION_CONTEXT(3)
GLOBAL_UNCERTAINTY_ASSIGNED_CONTEXT((#732))
GLOBAL_UNIT_ASSIGNED_CONTEXT((#735,#734,#733))
REPRESENTATION_CONTEXT('Part 2','TOP_LEVEL_ASSEMBLY_PART')
);
#732=UNCERTAINTY_MEASURE_WITH_UNIT(LENGTH_MEASURE(1.E-8),#735,
'DISTANCE_ACCURACY_VALUE','Maximum Tolerance applied to model');
#733=(
NAMED_UNIT(*)
SI_UNIT($,.STERADIAN.)
SOLID_ANGLE_UNIT()
);
#734=(
NAMED_UNIT(*)
PLANE_ANGLE_UNIT()
SI_UNIT($,.RADIAN.)
);
#735=(
LENGTH_UNIT()
NAMED_UNIT(*)
SI_UNIT($,.METRE.)
);
#736=PRODUCT_DEFINITION_SHAPE('','',#737);
#737=PRODUCT_DEFINITION('','',#739,#738);
#738=PRODUCT_DEFINITION_CONTEXT('',#745,'design');
#739=PRODUCT_DEFINITION_FORMATION_WITH_SPECIFIED_SOURCE('','',#741,
 .NOT_KNOWN.);
#740=PRODUCT_RELATED_PRODUCT_CATEGORY('','',(#741));
#741=PRODUCT('Part 2','Part 2','Part 2',(#743));
#742=PRODUCT_CATEGORY('','');
#743=PRODUCT_CONTEXT('',#745,'mechanical');
#744=APPLICATION_PROTOCOL_DEFINITION('international standard',
'ap242_managed_model_based_3d_engineering',2020,#745);
#745=APPLICATION_CONTEXT('managed model based 3d engineering');
ENDSEC;
END-ISO-10303-21;
