ISO-10303-21;
HEADER;
/* Generated by software containing ST-Developer
 * from STEP Tools, Inc. (www.steptools.com) 
 */
/* OPTION: using custom renumber hook */

FILE_DESCRIPTION(
/* description */ ('STEP AP242 Edition 2',
'CAx-IF Rec.Pracs.---Representation and Presentation of Product Manufa
cturing Information (PMI)---4.0---2014-10-13',
'CAx-IF Rec.Pracs.---3D Tessellated Geometry---0.4---2014-09-14','2;1',
'CAx-IF Rec.Pracs.---User Defined Attributes---1.5---2016-08-15'),
/* implementation_level */ '2;1');

FILE_NAME(
/* name */ 'Part Studio 1 - Part 2',
/* time_stamp */ '2026-06-06T20:25:05Z',
/* author */ (''),
/* organization */ (''),
/* preprocessor_version */ 'ST-DEVELOPER v20',
/* originating_system */ 'ONSHAPE BY PTC INC, 1.216',
/* authorisation */ '  ');

FILE_SCHEMA (('AP242_MANAGED_MODEL_BASED_3D_ENGINEERING_MIM_LF { 1 0 10303 442 3 1 4 }'));
ENDSEC;

DATA;
#10=SHAPE_REPRESENTATION_RELATIONSHIP('','',#582,#11);
#11=ADVANCED_BREP_SHAPE_REPRESENTATION('',(#580),#980);
#12=CONICAL_SURFACE('',#632,0.0037,0.785398163397448);
#13=CONICAL_SURFACE('',#635,0.0037,0.785398163397449);
#14=CONICAL_SURFACE('',#636,0.0037,0.785398163397449);
#15=CONICAL_SURFACE('',#639,0.0037,0.78539816339745);
#16=CONICAL_SURFACE('',#640,0.0037,0.785398163397449);
#17=CYLINDRICAL_SURFACE('',#596,0.0037);
#18=CYLINDRICAL_SURFACE('',#599,0.0037);
#19=CYLINDRICAL_SURFACE('',#602,0.0037);
#20=CYLINDRICAL_SURFACE('',#605,0.0037);
#21=CYLINDRICAL_SURFACE('',#608,0.0037);
#22=CYLINDRICAL_SURFACE('',#616,0.0029);
#23=CYLINDRICAL_SURFACE('',#619,0.0029);
#24=CYLINDRICAL_SURFACE('',#622,0.0029);
#25=CYLINDRICAL_SURFACE('',#625,0.0029);
#26=CYLINDRICAL_SURFACE('',#628,0.0029);
#27=CIRCLE('',#585,0.0037);
#28=CIRCLE('',#586,0.0037);
#29=CIRCLE('',#587,0.0037);
#30=CIRCLE('',#588,0.0037);
#31=CIRCLE('',#589,0.0037);
#32=CIRCLE('',#590,0.0029);
#33=CIRCLE('',#591,0.0029);
#34=CIRCLE('',#592,0.0029);
#35=CIRCLE('',#593,0.0029);
#36=CIRCLE('',#594,0.0029);
#37=CIRCLE('',#597,0.0037);
#38=CIRCLE('',#600,0.0037);
#39=CIRCLE('',#603,0.0037);
#40=CIRCLE('',#606,0.0037);
#41=CIRCLE('',#609,0.0037);
#42=CIRCLE('',#611,0.0033);
#43=CIRCLE('',#612,0.0033);
#44=CIRCLE('',#613,0.0033);
#45=CIRCLE('',#614,0.0033);
#46=CIRCLE('',#615,0.0033);
#47=CIRCLE('',#617,0.0029);
#48=CIRCLE('',#620,0.0029);
#49=CIRCLE('',#623,0.0029);
#50=CIRCLE('',#626,0.0029);
#51=CIRCLE('',#629,0.0029);
#52=ORIENTED_EDGE('',*,*,#212,.T.);
#53=ORIENTED_EDGE('',*,*,#213,.T.);
#54=ORIENTED_EDGE('',*,*,#214,.T.);
#55=ORIENTED_EDGE('',*,*,#215,.T.);
#56=ORIENTED_EDGE('',*,*,#216,.T.);
#57=ORIENTED_EDGE('',*,*,#217,.T.);
#58=ORIENTED_EDGE('',*,*,#218,.T.);
#59=ORIENTED_EDGE('',*,*,#219,.T.);
#60=ORIENTED_EDGE('',*,*,#220,.T.);
#61=ORIENTED_EDGE('',*,*,#221,.T.);
#62=ORIENTED_EDGE('',*,*,#222,.F.);
#63=ORIENTED_EDGE('',*,*,#223,.F.);
#64=ORIENTED_EDGE('',*,*,#224,.F.);
#65=ORIENTED_EDGE('',*,*,#225,.F.);
#66=ORIENTED_EDGE('',*,*,#226,.F.);
#67=ORIENTED_EDGE('',*,*,#227,.F.);
#68=ORIENTED_EDGE('',*,*,#228,.F.);
#69=ORIENTED_EDGE('',*,*,#229,.F.);
#70=ORIENTED_EDGE('',*,*,#230,.F.);
#71=ORIENTED_EDGE('',*,*,#231,.F.);
#72=ORIENTED_EDGE('',*,*,#232,.T.);
#73=ORIENTED_EDGE('',*,*,#233,.T.);
#74=ORIENTED_EDGE('',*,*,#234,.F.);
#75=ORIENTED_EDGE('',*,*,#212,.F.);
#76=ORIENTED_EDGE('',*,*,#235,.T.);
#77=ORIENTED_EDGE('',*,*,#236,.T.);
#78=ORIENTED_EDGE('',*,*,#232,.F.);
#79=ORIENTED_EDGE('',*,*,#221,.F.);
#80=ORIENTED_EDGE('',*,*,#237,.T.);
#81=ORIENTED_EDGE('',*,*,#238,.T.);
#82=ORIENTED_EDGE('',*,*,#235,.F.);
#83=ORIENTED_EDGE('',*,*,#220,.F.);
#84=ORIENTED_EDGE('',*,*,#239,.T.);
#85=ORIENTED_EDGE('',*,*,#240,.T.);
#86=ORIENTED_EDGE('',*,*,#237,.F.);
#87=ORIENTED_EDGE('',*,*,#219,.F.);
#88=ORIENTED_EDGE('',*,*,#241,.T.);
#89=ORIENTED_EDGE('',*,*,#242,.T.);
#90=ORIENTED_EDGE('',*,*,#239,.F.);
#91=ORIENTED_EDGE('',*,*,#218,.F.);
#92=ORIENTED_EDGE('',*,*,#243,.T.);
#93=ORIENTED_EDGE('',*,*,#244,.T.);
#94=ORIENTED_EDGE('',*,*,#241,.F.);
#95=ORIENTED_EDGE('',*,*,#217,.F.);
#96=ORIENTED_EDGE('',*,*,#245,.T.);
#97=ORIENTED_EDGE('',*,*,#246,.T.);
#98=ORIENTED_EDGE('',*,*,#243,.F.);
#99=ORIENTED_EDGE('',*,*,#216,.F.);
#100=ORIENTED_EDGE('',*,*,#247,.T.);
#101=ORIENTED_EDGE('',*,*,#248,.T.);
#102=ORIENTED_EDGE('',*,*,#245,.F.);
#103=ORIENTED_EDGE('',*,*,#215,.F.);
#104=ORIENTED_EDGE('',*,*,#249,.T.);
#105=ORIENTED_EDGE('',*,*,#250,.T.);
#106=ORIENTED_EDGE('',*,*,#247,.F.);
#107=ORIENTED_EDGE('',*,*,#214,.F.);
#108=ORIENTED_EDGE('',*,*,#234,.T.);
#109=ORIENTED_EDGE('',*,*,#251,.T.);
#110=ORIENTED_EDGE('',*,*,#249,.F.);
#111=ORIENTED_EDGE('',*,*,#213,.F.);
#112=ORIENTED_EDGE('',*,*,#252,.T.);
#113=ORIENTED_EDGE('',*,*,#253,.T.);
#114=ORIENTED_EDGE('',*,*,#254,.T.);
#115=ORIENTED_EDGE('',*,*,#255,.T.);
#116=ORIENTED_EDGE('',*,*,#256,.T.);
#117=ORIENTED_EDGE('',*,*,#257,.T.);
#118=ORIENTED_EDGE('',*,*,#258,.T.);
#119=ORIENTED_EDGE('',*,*,#259,.T.);
#120=ORIENTED_EDGE('',*,*,#260,.T.);
#121=ORIENTED_EDGE('',*,*,#261,.T.);
#122=ORIENTED_EDGE('',*,*,#222,.T.);
#123=ORIENTED_EDGE('',*,*,#262,.T.);
#124=ORIENTED_EDGE('',*,*,#263,.F.);
#125=ORIENTED_EDGE('',*,*,#264,.F.);
#126=ORIENTED_EDGE('',*,*,#223,.T.);
#127=ORIENTED_EDGE('',*,*,#264,.T.);
#128=ORIENTED_EDGE('',*,*,#265,.F.);
#129=ORIENTED_EDGE('',*,*,#266,.F.);
#130=ORIENTED_EDGE('',*,*,#224,.T.);
#131=ORIENTED_EDGE('',*,*,#266,.T.);
#132=ORIENTED_EDGE('',*,*,#267,.F.);
#133=ORIENTED_EDGE('',*,*,#268,.F.);
#134=ORIENTED_EDGE('',*,*,#225,.T.);
#135=ORIENTED_EDGE('',*,*,#268,.T.);
#136=ORIENTED_EDGE('',*,*,#269,.F.);
#137=ORIENTED_EDGE('',*,*,#270,.F.);
#138=ORIENTED_EDGE('',*,*,#226,.T.);
#139=ORIENTED_EDGE('',*,*,#270,.T.);
#140=ORIENTED_EDGE('',*,*,#271,.F.);
#141=ORIENTED_EDGE('',*,*,#272,.F.);
#142=ORIENTED_EDGE('',*,*,#227,.T.);
#143=ORIENTED_EDGE('',*,*,#272,.T.);
#144=ORIENTED_EDGE('',*,*,#273,.F.);
#145=ORIENTED_EDGE('',*,*,#274,.F.);
#146=ORIENTED_EDGE('',*,*,#228,.T.);
#147=ORIENTED_EDGE('',*,*,#274,.T.);
#148=ORIENTED_EDGE('',*,*,#275,.F.);
#149=ORIENTED_EDGE('',*,*,#276,.F.);
#150=ORIENTED_EDGE('',*,*,#229,.T.);
#151=ORIENTED_EDGE('',*,*,#276,.T.);
#152=ORIENTED_EDGE('',*,*,#277,.F.);
#153=ORIENTED_EDGE('',*,*,#278,.F.);
#154=ORIENTED_EDGE('',*,*,#230,.T.);
#155=ORIENTED_EDGE('',*,*,#278,.T.);
#156=ORIENTED_EDGE('',*,*,#279,.F.);
#157=ORIENTED_EDGE('',*,*,#280,.F.);
#158=ORIENTED_EDGE('',*,*,#231,.T.);
#159=ORIENTED_EDGE('',*,*,#280,.T.);
#160=ORIENTED_EDGE('',*,*,#281,.F.);
#161=ORIENTED_EDGE('',*,*,#262,.F.);
#162=ORIENTED_EDGE('',*,*,#263,.T.);
#163=ORIENTED_EDGE('',*,*,#281,.T.);
#164=ORIENTED_EDGE('',*,*,#279,.T.);
#165=ORIENTED_EDGE('',*,*,#277,.T.);
#166=ORIENTED_EDGE('',*,*,#275,.T.);
#167=ORIENTED_EDGE('',*,*,#273,.T.);
#168=ORIENTED_EDGE('',*,*,#271,.T.);
#169=ORIENTED_EDGE('',*,*,#269,.T.);
#170=ORIENTED_EDGE('',*,*,#267,.T.);
#171=ORIENTED_EDGE('',*,*,#265,.T.);
#172=ORIENTED_EDGE('',*,*,#282,.F.);
#173=ORIENTED_EDGE('',*,*,#258,.F.);
#174=ORIENTED_EDGE('',*,*,#283,.F.);
#175=ORIENTED_EDGE('',*,*,#244,.F.);
#176=ORIENTED_EDGE('',*,*,#283,.T.);
#177=ORIENTED_EDGE('',*,*,#257,.F.);
#178=ORIENTED_EDGE('',*,*,#284,.F.);
#179=ORIENTED_EDGE('',*,*,#242,.F.);
#180=ORIENTED_EDGE('',*,*,#282,.T.);
#181=ORIENTED_EDGE('',*,*,#246,.F.);
#182=ORIENTED_EDGE('',*,*,#285,.F.);
#183=ORIENTED_EDGE('',*,*,#259,.F.);
#184=ORIENTED_EDGE('',*,*,#284,.T.);
#185=ORIENTED_EDGE('',*,*,#256,.F.);
#186=ORIENTED_EDGE('',*,*,#286,.F.);
#187=ORIENTED_EDGE('',*,*,#240,.F.);
#188=ORIENTED_EDGE('',*,*,#285,.T.);
#189=ORIENTED_EDGE('',*,*,#248,.F.);
#190=ORIENTED_EDGE('',*,*,#287,.F.);
#191=ORIENTED_EDGE('',*,*,#260,.F.);
#192=ORIENTED_EDGE('',*,*,#286,.T.);
#193=ORIENTED_EDGE('',*,*,#255,.F.);
#194=ORIENTED_EDGE('',*,*,#288,.F.);
#195=ORIENTED_EDGE('',*,*,#238,.F.);
#196=ORIENTED_EDGE('',*,*,#287,.T.);
#197=ORIENTED_EDGE('',*,*,#250,.F.);
#198=ORIENTED_EDGE('',*,*,#289,.F.);
#199=ORIENTED_EDGE('',*,*,#261,.F.);
#200=ORIENTED_EDGE('',*,*,#288,.T.);
#201=ORIENTED_EDGE('',*,*,#254,.F.);
#202=ORIENTED_EDGE('',*,*,#290,.F.);
#203=ORIENTED_EDGE('',*,*,#236,.F.);
#204=ORIENTED_EDGE('',*,*,#289,.T.);
#205=ORIENTED_EDGE('',*,*,#251,.F.);
#206=ORIENTED_EDGE('',*,*,#291,.F.);
#207=ORIENTED_EDGE('',*,*,#252,.F.);
#208=ORIENTED_EDGE('',*,*,#290,.T.);
#209=ORIENTED_EDGE('',*,*,#253,.F.);
#210=ORIENTED_EDGE('',*,*,#291,.T.);
#211=ORIENTED_EDGE('',*,*,#233,.F.);
#212=EDGE_CURVE('',#292,#293,#342,.T.);
#213=EDGE_CURVE('',#293,#294,#27,.F.);
#214=EDGE_CURVE('',#294,#295,#343,.T.);
#215=EDGE_CURVE('',#295,#296,#28,.F.);
#216=EDGE_CURVE('',#296,#297,#344,.T.);
#217=EDGE_CURVE('',#297,#298,#29,.F.);
#218=EDGE_CURVE('',#298,#299,#345,.T.);
#219=EDGE_CURVE('',#299,#300,#30,.F.);
#220=EDGE_CURVE('',#300,#301,#346,.T.);
#221=EDGE_CURVE('',#301,#292,#31,.F.);
#222=EDGE_CURVE('',#302,#303,#32,.F.);
#223=EDGE_CURVE('',#304,#302,#347,.T.);
#224=EDGE_CURVE('',#305,#304,#33,.F.);
#225=EDGE_CURVE('',#306,#305,#348,.T.);
#226=EDGE_CURVE('',#307,#306,#34,.F.);
#227=EDGE_CURVE('',#308,#307,#349,.T.);
#228=EDGE_CURVE('',#309,#308,#35,.F.);
#229=EDGE_CURVE('',#310,#309,#350,.T.);
#230=EDGE_CURVE('',#311,#310,#36,.F.);
#231=EDGE_CURVE('',#303,#311,#351,.T.);
#232=EDGE_CURVE('',#292,#312,#352,.T.);
#233=EDGE_CURVE('',#312,#313,#353,.T.);
#234=EDGE_CURVE('',#293,#313,#354,.T.);
#235=EDGE_CURVE('',#301,#314,#355,.T.);
#236=EDGE_CURVE('',#314,#312,#37,.F.);
#237=EDGE_CURVE('',#300,#315,#356,.T.);
#238=EDGE_CURVE('',#315,#314,#357,.T.);
#239=EDGE_CURVE('',#299,#316,#358,.T.);
#240=EDGE_CURVE('',#316,#315,#38,.F.);
#241=EDGE_CURVE('',#298,#317,#359,.T.);
#242=EDGE_CURVE('',#317,#316,#360,.T.);
#243=EDGE_CURVE('',#297,#318,#361,.T.);
#244=EDGE_CURVE('',#318,#317,#39,.F.);
#245=EDGE_CURVE('',#296,#319,#362,.T.);
#246=EDGE_CURVE('',#319,#318,#363,.T.);
#247=EDGE_CURVE('',#295,#320,#364,.T.);
#248=EDGE_CURVE('',#320,#319,#40,.F.);
#249=EDGE_CURVE('',#294,#321,#365,.T.);
#250=EDGE_CURVE('',#321,#320,#366,.T.);
#251=EDGE_CURVE('',#313,#321,#41,.F.);
#252=EDGE_CURVE('',#322,#323,#42,.T.);
#253=EDGE_CURVE('',#323,#324,#367,.T.);
#254=EDGE_CURVE('',#324,#325,#43,.T.);
#255=EDGE_CURVE('',#325,#326,#368,.T.);
#256=EDGE_CURVE('',#326,#327,#44,.T.);
#257=EDGE_CURVE('',#327,#328,#369,.T.);
#258=EDGE_CURVE('',#328,#329,#45,.T.);
#259=EDGE_CURVE('',#329,#330,#370,.T.);
#260=EDGE_CURVE('',#330,#331,#46,.T.);
#261=EDGE_CURVE('',#331,#322,#371,.T.);
#262=EDGE_CURVE('',#303,#332,#372,.T.);
#263=EDGE_CURVE('',#333,#332,#47,.T.);
#264=EDGE_CURVE('',#302,#333,#373,.T.);
#265=EDGE_CURVE('',#334,#333,#374,.T.);
#266=EDGE_CURVE('',#304,#334,#375,.T.);
#267=EDGE_CURVE('',#335,#334,#48,.T.);
#268=EDGE_CURVE('',#305,#335,#376,.T.);
#269=EDGE_CURVE('',#336,#335,#377,.T.);
#270=EDGE_CURVE('',#306,#336,#378,.T.);
#271=EDGE_CURVE('',#337,#336,#49,.T.);
#272=EDGE_CURVE('',#307,#337,#379,.T.);
#273=EDGE_CURVE('',#338,#337,#380,.T.);
#274=EDGE_CURVE('',#308,#338,#381,.T.);
#275=EDGE_CURVE('',#339,#338,#50,.T.);
#276=EDGE_CURVE('',#309,#339,#382,.T.);
#277=EDGE_CURVE('',#340,#339,#383,.T.);
#278=EDGE_CURVE('',#310,#340,#384,.T.);
#279=EDGE_CURVE('',#341,#340,#51,.T.);
#280=EDGE_CURVE('',#311,#341,#385,.T.);
#281=EDGE_CURVE('',#332,#341,#386,.T.);
#282=EDGE_CURVE('',#329,#318,#387,.T.);
#283=EDGE_CURVE('',#317,#328,#388,.T.);
#284=EDGE_CURVE('',#316,#327,#389,.T.);
#285=EDGE_CURVE('',#330,#319,#390,.T.);
#286=EDGE_CURVE('',#315,#326,#391,.T.);
#287=EDGE_CURVE('',#331,#320,#392,.T.);
#288=EDGE_CURVE('',#314,#325,#393,.T.);
#289=EDGE_CURVE('',#322,#321,#394,.T.);
#290=EDGE_CURVE('',#312,#324,#395,.T.);
#291=EDGE_CURVE('',#323,#313,#396,.T.);
#292=VERTEX_POINT('',#818);
#293=VERTEX_POINT('',#819);
#294=VERTEX_POINT('',#821);
#295=VERTEX_POINT('',#823);
#296=VERTEX_POINT('',#825);
#297=VERTEX_POINT('',#827);
#298=VERTEX_POINT('',#829);
#299=VERTEX_POINT('',#831);
#300=VERTEX_POINT('',#833);
#301=VERTEX_POINT('',#835);
#302=VERTEX_POINT('',#838);
#303=VERTEX_POINT('',#839);
#304=VERTEX_POINT('',#841);
#305=VERTEX_POINT('',#843);
#306=VERTEX_POINT('',#845);
#307=VERTEX_POINT('',#847);
#308=VERTEX_POINT('',#849);
#309=VERTEX_POINT('',#851);
#310=VERTEX_POINT('',#853);
#311=VERTEX_POINT('',#855);
#312=VERTEX_POINT('',#859);
#313=VERTEX_POINT('',#861);
#314=VERTEX_POINT('',#865);
#315=VERTEX_POINT('',#869);
#316=VERTEX_POINT('',#873);
#317=VERTEX_POINT('',#877);
#318=VERTEX_POINT('',#881);
#319=VERTEX_POINT('',#885);
#320=VERTEX_POINT('',#889);
#321=VERTEX_POINT('',#893);
#322=VERTEX_POINT('',#899);
#323=VERTEX_POINT('',#900);
#324=VERTEX_POINT('',#902);
#325=VERTEX_POINT('',#904);
#326=VERTEX_POINT('',#906);
#327=VERTEX_POINT('',#908);
#328=VERTEX_POINT('',#910);
#329=VERTEX_POINT('',#912);
#330=VERTEX_POINT('',#914);
#331=VERTEX_POINT('',#916);
#332=VERTEX_POINT('',#920);
#333=VERTEX_POINT('',#922);
#334=VERTEX_POINT('',#926);
#335=VERTEX_POINT('',#930);
#336=VERTEX_POINT('',#934);
#337=VERTEX_POINT('',#938);
#338=VERTEX_POINT('',#942);
#339=VERTEX_POINT('',#946);
#340=VERTEX_POINT('',#950);
#341=VERTEX_POINT('',#954);
#342=LINE('',#817,#397);
#343=LINE('',#822,#398);
#344=LINE('',#826,#399);
#345=LINE('',#830,#400);
#346=LINE('',#834,#401);
#347=LINE('',#840,#402);
#348=LINE('',#844,#403);
#349=LINE('',#848,#404);
#350=LINE('',#852,#405);
#351=LINE('',#856,#406);
#352=LINE('',#858,#407);
#353=LINE('',#860,#408);
#354=LINE('',#862,#409);
#355=LINE('',#864,#410);
#356=LINE('',#868,#411);
#357=LINE('',#870,#412);
#358=LINE('',#872,#413);
#359=LINE('',#876,#414);
#360=LINE('',#878,#415);
#361=LINE('',#880,#416);
#362=LINE('',#884,#417);
#363=LINE('',#886,#418);
#364=LINE('',#888,#419);
#365=LINE('',#892,#420);
#366=LINE('',#894,#421);
#367=LINE('',#901,#422);
#368=LINE('',#905,#423);
#369=LINE('',#909,#424);
#370=LINE('',#913,#425);
#371=LINE('',#917,#426);
#372=LINE('',#919,#427);
#373=LINE('',#923,#428);
#374=LINE('',#925,#429);
#375=LINE('',#927,#430);
#376=LINE('',#931,#431);
#377=LINE('',#933,#432);
#378=LINE('',#935,#433);
#379=LINE('',#939,#434);
#380=LINE('',#941,#435);
#381=LINE('',#943,#436);
#382=LINE('',#947,#437);
#383=LINE('',#949,#438);
#384=LINE('',#951,#439);
#385=LINE('',#955,#440);
#386=LINE('',#957,#441);
#387=LINE('',#960,#442);
#388=LINE('',#961,#443);
#389=LINE('',#963,#444);
#390=LINE('',#965,#445);
#391=LINE('',#967,#446);
#392=LINE('',#969,#447);
#393=LINE('',#971,#448);
#394=LINE('',#973,#449);
#395=LINE('',#975,#450);
#396=LINE('',#977,#451);
#397=VECTOR('',#646,1.);
#398=VECTOR('',#649,1.);
#399=VECTOR('',#652,1.);
#400=VECTOR('',#655,1.);
#401=VECTOR('',#658,1.);
#402=VECTOR('',#663,1.);
#403=VECTOR('',#666,1.);
#404=VECTOR('',#669,1.);
#405=VECTOR('',#672,1.);
#406=VECTOR('',#675,1.);
#407=VECTOR('',#678,1.);
#408=VECTOR('',#679,1.);
#409=VECTOR('',#680,1.);
#410=VECTOR('',#683,1.);
#411=VECTOR('',#688,1.);
#412=VECTOR('',#689,1.);
#413=VECTOR('',#692,1.);
#414=VECTOR('',#697,1.);
#415=VECTOR('',#698,1.);
#416=VECTOR('',#701,1.);
#417=VECTOR('',#706,1.);
#418=VECTOR('',#707,1.);
#419=VECTOR('',#710,1.);
#420=VECTOR('',#715,1.);
#421=VECTOR('',#716,1.);
#422=VECTOR('',#725,1.);
#423=VECTOR('',#728,1.);
#424=VECTOR('',#731,1.);
#425=VECTOR('',#734,1.);
#426=VECTOR('',#737,1.);
#427=VECTOR('',#740,1.);
#428=VECTOR('',#743,1.);
#429=VECTOR('',#746,1.);
#430=VECTOR('',#747,1.);
#431=VECTOR('',#752,1.);
#432=VECTOR('',#755,1.);
#433=VECTOR('',#756,1.);
#434=VECTOR('',#761,1.);
#435=VECTOR('',#764,1.);
#436=VECTOR('',#765,1.);
#437=VECTOR('',#770,1.);
#438=VECTOR('',#773,1.);
#439=VECTOR('',#774,1.);
#440=VECTOR('',#779,1.);
#441=VECTOR('',#782,1.);
#442=VECTOR('',#787,1.);
#443=VECTOR('',#788,1.);
#444=VECTOR('',#791,1.);
#445=VECTOR('',#794,1.);
#446=VECTOR('',#797,1.);
#447=VECTOR('',#800,1.);
#448=VECTOR('',#803,1.);
#449=VECTOR('',#806,1.);
#450=VECTOR('',#809,1.);
#451=VECTOR('',#812,1.);
#452=EDGE_LOOP('',(#52,#53,#54,#55,#56,#57,#58,#59,#60,#61));
#453=EDGE_LOOP('',(#62,#63,#64,#65,#66,#67,#68,#69,#70,#71));
#454=EDGE_LOOP('',(#72,#73,#74,#75));
#455=EDGE_LOOP('',(#76,#77,#78,#79));
#456=EDGE_LOOP('',(#80,#81,#82,#83));
#457=EDGE_LOOP('',(#84,#85,#86,#87));
#458=EDGE_LOOP('',(#88,#89,#90,#91));
#459=EDGE_LOOP('',(#92,#93,#94,#95));
#460=EDGE_LOOP('',(#96,#97,#98,#99));
#461=EDGE_LOOP('',(#100,#101,#102,#103));
#462=EDGE_LOOP('',(#104,#105,#106,#107));
#463=EDGE_LOOP('',(#108,#109,#110,#111));
#464=EDGE_LOOP('',(#112,#113,#114,#115,#116,#117,#118,#119,#120,#121));
#465=EDGE_LOOP('',(#122,#123,#124,#125));
#466=EDGE_LOOP('',(#126,#127,#128,#129));
#467=EDGE_LOOP('',(#130,#131,#132,#133));
#468=EDGE_LOOP('',(#134,#135,#136,#137));
#469=EDGE_LOOP('',(#138,#139,#140,#141));
#470=EDGE_LOOP('',(#142,#143,#144,#145));
#471=EDGE_LOOP('',(#146,#147,#148,#149));
#472=EDGE_LOOP('',(#150,#151,#152,#153));
#473=EDGE_LOOP('',(#154,#155,#156,#157));
#474=EDGE_LOOP('',(#158,#159,#160,#161));
#475=EDGE_LOOP('',(#162,#163,#164,#165,#166,#167,#168,#169,#170,#171));
#476=EDGE_LOOP('',(#172,#173,#174,#175));
#477=EDGE_LOOP('',(#176,#177,#178,#179));
#478=EDGE_LOOP('',(#180,#181,#182,#183));
#479=EDGE_LOOP('',(#184,#185,#186,#187));
#480=EDGE_LOOP('',(#188,#189,#190,#191));
#481=EDGE_LOOP('',(#192,#193,#194,#195));
#482=EDGE_LOOP('',(#196,#197,#198,#199));
#483=EDGE_LOOP('',(#200,#201,#202,#203));
#484=EDGE_LOOP('',(#204,#205,#206,#207));
#485=EDGE_LOOP('',(#208,#209,#210,#211));
#486=FACE_BOUND('',#452,.T.);
#487=FACE_BOUND('',#453,.T.);
#488=FACE_BOUND('',#454,.T.);
#489=FACE_BOUND('',#455,.T.);
#490=FACE_BOUND('',#456,.T.);
#491=FACE_BOUND('',#457,.T.);
#492=FACE_BOUND('',#458,.T.);
#493=FACE_BOUND('',#459,.T.);
#494=FACE_BOUND('',#460,.T.);
#495=FACE_BOUND('',#461,.T.);
#496=FACE_BOUND('',#462,.T.);
#497=FACE_BOUND('',#463,.T.);
#498=FACE_BOUND('',#464,.T.);
#499=FACE_BOUND('',#465,.T.);
#500=FACE_BOUND('',#466,.T.);
#501=FACE_BOUND('',#467,.T.);
#502=FACE_BOUND('',#468,.T.);
#503=FACE_BOUND('',#469,.T.);
#504=FACE_BOUND('',#470,.T.);
#505=FACE_BOUND('',#471,.T.);
#506=FACE_BOUND('',#472,.T.);
#507=FACE_BOUND('',#473,.T.);
#508=FACE_BOUND('',#474,.T.);
#509=FACE_BOUND('',#475,.T.);
#510=FACE_BOUND('',#476,.T.);
#511=FACE_BOUND('',#477,.T.);
#512=FACE_BOUND('',#478,.T.);
#513=FACE_BOUND('',#479,.T.);
#514=FACE_BOUND('',#480,.T.);
#515=FACE_BOUND('',#481,.T.);
#516=FACE_BOUND('',#482,.T.);
#517=FACE_BOUND('',#483,.T.);
#518=FACE_BOUND('',#484,.T.);
#519=FACE_BOUND('',#485,.T.);
#520=PLANE('',#584);
#521=PLANE('',#595);
#522=PLANE('',#598);
#523=PLANE('',#601);
#524=PLANE('',#604);
#525=PLANE('',#607);
#526=PLANE('',#610);
#527=PLANE('',#618);
#528=PLANE('',#621);
#529=PLANE('',#624);
#530=PLANE('',#627);
#531=PLANE('',#630);
#532=PLANE('',#631);
#533=PLANE('',#633);
#534=PLANE('',#634);
#535=PLANE('',#637);
#536=PLANE('',#638);
#537=PLANE('',#641);
#538=ADVANCED_FACE('',(#486,#487),#520,.F.);
#539=ADVANCED_FACE('',(#488),#521,.F.);
#540=ADVANCED_FACE('',(#489),#17,.T.);
#541=ADVANCED_FACE('',(#490),#522,.F.);
#542=ADVANCED_FACE('',(#491),#18,.T.);
#543=ADVANCED_FACE('',(#492),#523,.F.);
#544=ADVANCED_FACE('',(#493),#19,.T.);
#545=ADVANCED_FACE('',(#494),#524,.F.);
#546=ADVANCED_FACE('',(#495),#20,.T.);
#547=ADVANCED_FACE('',(#496),#525,.F.);
#548=ADVANCED_FACE('',(#497),#21,.T.);
#549=ADVANCED_FACE('',(#498),#526,.T.);
#550=ADVANCED_FACE('',(#499),#22,.F.);
#551=ADVANCED_FACE('',(#500),#527,.T.);
#552=ADVANCED_FACE('',(#501),#23,.F.);
#553=ADVANCED_FACE('',(#502),#528,.T.);
#554=ADVANCED_FACE('',(#503),#24,.F.);
#555=ADVANCED_FACE('',(#504),#529,.T.);
#556=ADVANCED_FACE('',(#505),#25,.F.);
#557=ADVANCED_FACE('',(#506),#530,.T.);
#558=ADVANCED_FACE('',(#507),#26,.F.);
#559=ADVANCED_FACE('',(#508),#531,.T.);
#560=ADVANCED_FACE('',(#509),#532,.F.);
#561=ADVANCED_FACE('',(#510),#12,.T.);
#562=ADVANCED_FACE('',(#511),#533,.T.);
#563=ADVANCED_FACE('',(#512),#534,.T.);
#564=ADVANCED_FACE('',(#513),#13,.T.);
#565=ADVANCED_FACE('',(#514),#14,.T.);
#566=ADVANCED_FACE('',(#515),#535,.T.);
#567=ADVANCED_FACE('',(#516),#536,.T.);
#568=ADVANCED_FACE('',(#517),#15,.T.);
#569=ADVANCED_FACE('',(#518),#16,.T.);
#570=ADVANCED_FACE('',(#519),#537,.T.);
#571=CLOSED_SHELL('',(#538,#539,#540,#541,#542,#543,#544,#545,#546,#547,
#548,#549,#550,#551,#552,#553,#554,#555,#556,#557,#558,#559,#560,#561,#562,
#563,#564,#565,#566,#567,#568,#569,#570));
#572=STYLED_ITEM('',(#573),#580);
#573=PRESENTATION_STYLE_ASSIGNMENT((#574));
#574=SURFACE_STYLE_USAGE(.BOTH.,#575);
#575=SURFACE_SIDE_STYLE('',(#576));
#576=SURFACE_STYLE_FILL_AREA(#577);
#577=FILL_AREA_STYLE('',(#578));
#578=FILL_AREA_STYLE_COLOUR('',#579);
#579=COLOUR_RGB('',0.901960784313726,0.901960784313726,0.901960784313726);
#580=MANIFOLD_SOLID_BREP('Part 2',#571);
#581=SHAPE_DEFINITION_REPRESENTATION(#985,#582);
#582=SHAPE_REPRESENTATION('Part 2',(#583),#980);
#583=AXIS2_PLACEMENT_3D('',#815,#642,#643);
#584=AXIS2_PLACEMENT_3D('',#816,#644,#645);
#585=AXIS2_PLACEMENT_3D('',#820,#647,#648);
#586=AXIS2_PLACEMENT_3D('',#824,#650,#651);
#587=AXIS2_PLACEMENT_3D('',#828,#653,#654);
#588=AXIS2_PLACEMENT_3D('',#832,#656,#657);
#589=AXIS2_PLACEMENT_3D('',#836,#659,#660);
#590=AXIS2_PLACEMENT_3D('',#837,#661,#662);
#591=AXIS2_PLACEMENT_3D('',#842,#664,#665);
#592=AXIS2_PLACEMENT_3D('',#846,#667,#668);
#593=AXIS2_PLACEMENT_3D('',#850,#670,#671);
#594=AXIS2_PLACEMENT_3D('',#854,#673,#674);
#595=AXIS2_PLACEMENT_3D('',#857,#676,#677);
#596=AXIS2_PLACEMENT_3D('',#863,#681,#682);
#597=AXIS2_PLACEMENT_3D('',#866,#684,#685);
#598=AXIS2_PLACEMENT_3D('',#867,#686,#687);
#599=AXIS2_PLACEMENT_3D('',#871,#690,#691);
#600=AXIS2_PLACEMENT_3D('',#874,#693,#694);
#601=AXIS2_PLACEMENT_3D('',#875,#695,#696);
#602=AXIS2_PLACEMENT_3D('',#879,#699,#700);
#603=AXIS2_PLACEMENT_3D('',#882,#702,#703);
#604=AXIS2_PLACEMENT_3D('',#883,#704,#705);
#605=AXIS2_PLACEMENT_3D('',#887,#708,#709);
#606=AXIS2_PLACEMENT_3D('',#890,#711,#712);
#607=AXIS2_PLACEMENT_3D('',#891,#713,#714);
#608=AXIS2_PLACEMENT_3D('',#895,#717,#718);
#609=AXIS2_PLACEMENT_3D('',#896,#719,#720);
#610=AXIS2_PLACEMENT_3D('',#897,#721,#722);
#611=AXIS2_PLACEMENT_3D('',#898,#723,#724);
#612=AXIS2_PLACEMENT_3D('',#903,#726,#727);
#613=AXIS2_PLACEMENT_3D('',#907,#729,#730);
#614=AXIS2_PLACEMENT_3D('',#911,#732,#733);
#615=AXIS2_PLACEMENT_3D('',#915,#735,#736);
#616=AXIS2_PLACEMENT_3D('',#918,#738,#739);
#617=AXIS2_PLACEMENT_3D('',#921,#741,#742);
#618=AXIS2_PLACEMENT_3D('',#924,#744,#745);
#619=AXIS2_PLACEMENT_3D('',#928,#748,#749);
#620=AXIS2_PLACEMENT_3D('',#929,#750,#751);
#621=AXIS2_PLACEMENT_3D('',#932,#753,#754);
#622=AXIS2_PLACEMENT_3D('',#936,#757,#758);
#623=AXIS2_PLACEMENT_3D('',#937,#759,#760);
#624=AXIS2_PLACEMENT_3D('',#940,#762,#763);
#625=AXIS2_PLACEMENT_3D('',#944,#766,#767);
#626=AXIS2_PLACEMENT_3D('',#945,#768,#769);
#627=AXIS2_PLACEMENT_3D('',#948,#771,#772);
#628=AXIS2_PLACEMENT_3D('',#952,#775,#776);
#629=AXIS2_PLACEMENT_3D('',#953,#777,#778);
#630=AXIS2_PLACEMENT_3D('',#956,#780,#781);
#631=AXIS2_PLACEMENT_3D('',#958,#783,#784);
#632=AXIS2_PLACEMENT_3D('',#959,#785,#786);
#633=AXIS2_PLACEMENT_3D('',#962,#789,#790);
#634=AXIS2_PLACEMENT_3D('',#964,#792,#793);
#635=AXIS2_PLACEMENT_3D('',#966,#795,#796);
#636=AXIS2_PLACEMENT_3D('',#968,#798,#799);
#637=AXIS2_PLACEMENT_3D('',#970,#801,#802);
#638=AXIS2_PLACEMENT_3D('',#972,#804,#805);
#639=AXIS2_PLACEMENT_3D('',#974,#807,#808);
#640=AXIS2_PLACEMENT_3D('',#976,#810,#811);
#641=AXIS2_PLACEMENT_3D('',#978,#813,#814);
#642=DIRECTION('',(0.,0.,1.));
#643=DIRECTION('',(1.,0.,0.));
#644=DIRECTION('',(1.7721322234878E-32,1.22464679914735E-16,-1.));
#645=DIRECTION('',(1.,-2.89411155072895E-16,-1.7721322234878E-32));
#646=DIRECTION('',(0.809016994374947,-0.587785252292473,-7.19829327805997E-17));
#647=DIRECTION('',(1.7721322234878E-32,1.22464679914735E-16,-1.));
#648=DIRECTION('',(1.,-2.89411155072895E-16,-1.7721322234878E-32));
#649=DIRECTION('',(0.809016994374948,0.587785252292473,7.19829327805997E-17));
#650=DIRECTION('',(1.7721322234878E-32,1.22464679914735E-16,-1.));
#651=DIRECTION('',(1.,-2.89411155072895E-16,-1.7721322234878E-32));
#652=DIRECTION('',(-0.309016994374948,0.951056516295154,1.16470831848909E-16));
#653=DIRECTION('',(1.7721322234878E-32,1.22464679914735E-16,-1.));
#654=DIRECTION('',(1.,-2.89411155072895E-16,-1.7721322234878E-32));
#655=DIRECTION('',(-1.,2.89411155072895E-16,1.7721322234878E-32));
#656=DIRECTION('',(1.7721322234878E-32,1.22464679914735E-16,-1.));
#657=DIRECTION('',(1.,-2.89411155072895E-16,-1.7721322234878E-32));
#658=DIRECTION('',(-0.309016994374948,-0.951056516295154,-1.16470831848909E-16));
#659=DIRECTION('',(1.7721322234878E-32,1.22464679914735E-16,-1.));
#660=DIRECTION('',(1.,-2.89411155072895E-16,-1.7721322234878E-32));
#661=DIRECTION('',(1.7721322234878E-32,1.22464679914735E-16,-1.));
#662=DIRECTION('',(1.,-2.89411155072895E-16,-1.7721322234878E-32));
#663=DIRECTION('',(0.809016994374947,-0.587785252292473,-7.19829327805997E-17));
#664=DIRECTION('',(1.7721322234878E-32,1.22464679914735E-16,-1.));
#665=DIRECTION('',(1.,-2.89411155072895E-16,-1.7721322234878E-32));
#666=DIRECTION('',(-0.309016994374948,-0.951056516295153,-1.16470831848909E-16));
#667=DIRECTION('',(1.7721322234878E-32,1.22464679914735E-16,-1.));
#668=DIRECTION('',(1.,-2.89411155072895E-16,-1.7721322234878E-32));
#669=DIRECTION('',(-1.,2.89411155072895E-16,1.7721322234878E-32));
#670=DIRECTION('',(1.7721322234878E-32,1.22464679914735E-16,-1.));
#671=DIRECTION('',(1.,-2.89411155072895E-16,-1.7721322234878E-32));
#672=DIRECTION('',(-0.309016994374948,0.951056516295154,1.16470831848909E-16));
#673=DIRECTION('',(1.7721322234878E-32,1.22464679914735E-16,-1.));
#674=DIRECTION('',(1.,-2.89411155072895E-16,-1.7721322234878E-32));
#675=DIRECTION('',(0.809016994374948,0.587785252292473,7.19829327805997E-17));
#676=DIRECTION('',(0.587785252292473,0.809016994374947,9.90760072617092E-17));
#677=DIRECTION('',(0.809016994374948,-0.587785252292473,-7.19829327805997E-17));
#678=DIRECTION('',(1.7721322234878E-32,1.22464679914735E-16,-1.));
#679=DIRECTION('',(0.809016994374948,-0.587785252292473,-7.19829327805997E-17));
#680=DIRECTION('',(1.7721322234878E-32,1.22464679914735E-16,-1.));
#681=DIRECTION('',(1.7721322234878E-32,1.22464679914735E-16,-1.));
#682=DIRECTION('',(1.,-2.89411155072895E-16,-1.7721322234878E-32));
#683=DIRECTION('',(1.7721322234878E-32,1.22464679914735E-16,-1.));
#684=DIRECTION('',(1.7721322234878E-32,1.22464679914735E-16,-1.));
#685=DIRECTION('',(1.,-2.89411155072895E-16,-1.7721322234878E-32));
#686=DIRECTION('',(0.951056516295153,-0.309016994374948,-3.78436673043415E-17));
#687=DIRECTION('',(-0.309016994374948,-0.951056516295154,-1.16470831848909E-16));
#688=DIRECTION('',(1.7721322234878E-32,1.22464679914735E-16,-1.));
#689=DIRECTION('',(-0.309016994374948,-0.951056516295154,-1.16470831848909E-16));
#690=DIRECTION('',(1.7721322234878E-32,1.22464679914735E-16,-1.));
#691=DIRECTION('',(1.,-2.89411155072895E-16,-1.7721322234878E-32));
#692=DIRECTION('',(1.7721322234878E-32,1.22464679914735E-16,-1.));
#693=DIRECTION('',(1.7721322234878E-32,1.22464679914735E-16,-1.));
#694=DIRECTION('',(1.,-2.89411155072895E-16,-1.7721322234878E-32));
#695=DIRECTION('',(-2.89411155072895E-16,-1.,-1.22464679914735E-16));
#696=DIRECTION('',(1.7721322234878E-32,1.22464679914735E-16,-1.));
#697=DIRECTION('',(1.7721322234878E-32,1.22464679914735E-16,-1.));
#698=DIRECTION('',(-1.,2.89411155072895E-16,1.7721322234878E-32));
#699=DIRECTION('',(1.7721322234878E-32,1.22464679914735E-16,-1.));
#700=DIRECTION('',(1.,-2.89411155072895E-16,-1.7721322234878E-32));
#701=DIRECTION('',(1.7721322234878E-32,1.22464679914735E-16,-1.));
#702=DIRECTION('',(1.7721322234878E-32,1.22464679914735E-16,-1.));
#703=DIRECTION('',(1.,-2.89411155072895E-16,-1.7721322234878E-32));
#704=DIRECTION('',(-0.951056516295154,-0.309016994374948,-3.78436673043415E-17));
#705=DIRECTION('',(-0.309016994374948,0.951056516295154,1.16470831848909E-16));
#706=DIRECTION('',(1.7721322234878E-32,1.22464679914735E-16,-1.));
#707=DIRECTION('',(-0.309016994374948,0.951056516295154,1.16470831848909E-16));
#708=DIRECTION('',(1.7721322234878E-32,1.22464679914735E-16,-1.));
#709=DIRECTION('',(1.,-2.89411155072895E-16,-1.7721322234878E-32));
#710=DIRECTION('',(1.7721322234878E-32,1.22464679914735E-16,-1.));
#711=DIRECTION('',(1.7721322234878E-32,1.22464679914735E-16,-1.));
#712=DIRECTION('',(1.,-2.89411155072895E-16,-1.7721322234878E-32));
#713=DIRECTION('',(-0.587785252292473,0.809016994374948,9.90760072617092E-17));
#714=DIRECTION('',(0.809016994374948,0.587785252292473,7.19829327805997E-17));
#715=DIRECTION('',(1.7721322234878E-32,1.22464679914735E-16,-1.));
#716=DIRECTION('',(0.809016994374948,0.587785252292473,7.19829327805997E-17));
#717=DIRECTION('',(1.7721322234878E-32,1.22464679914735E-16,-1.));
#718=DIRECTION('',(1.,-2.89411155072895E-16,-1.7721322234878E-32));
#719=DIRECTION('',(1.7721322234878E-32,1.22464679914735E-16,-1.));
#720=DIRECTION('',(1.,-2.89411155072895E-16,-1.7721322234878E-32));
#721=DIRECTION('',(1.7721322234878E-32,1.22464679914735E-16,-1.));
#722=DIRECTION('',(1.,-2.89411155072895E-16,-1.7721322234878E-32));
#723=DIRECTION('',(1.7721322234878E-32,1.22464679914735E-16,-1.));
#724=DIRECTION('',(1.,-2.89411155072895E-16,-1.7721322234878E-32));
#725=DIRECTION('',(-0.809016994374947,0.587785252292473,7.19829327805997E-17));
#726=DIRECTION('',(1.7721322234878E-32,1.22464679914735E-16,-1.));
#727=DIRECTION('',(1.,-2.89411155072895E-16,-1.7721322234878E-32));
#728=DIRECTION('',(0.309016994374948,0.951056516295154,1.16470831848909E-16));
#729=DIRECTION('',(1.7721322234878E-32,1.22464679914735E-16,-1.));
#730=DIRECTION('',(1.,-2.89411155072895E-16,-1.7721322234878E-32));
#731=DIRECTION('',(1.,-2.89411155072895E-16,-1.7721322234878E-32));
#732=DIRECTION('',(1.7721322234878E-32,1.22464679914735E-16,-1.));
#733=DIRECTION('',(1.,-2.89411155072895E-16,-1.7721322234878E-32));
#734=DIRECTION('',(0.309016994374948,-0.951056516295154,-1.16470831848909E-16));
#735=DIRECTION('',(1.7721322234878E-32,1.22464679914735E-16,-1.));
#736=DIRECTION('',(1.,-2.89411155072895E-16,-1.7721322234878E-32));
#737=DIRECTION('',(-0.809016994374948,-0.587785252292473,-7.19829327805997E-17));
#738=DIRECTION('',(1.7721322234878E-32,1.22464679914735E-16,-1.));
#739=DIRECTION('',(1.,-2.89411155072895E-16,-1.7721322234878E-32));
#740=DIRECTION('',(1.7721322234878E-32,1.22464679914735E-16,-1.));
#741=DIRECTION('',(-1.7721322234878E-32,-1.22464679914735E-16,1.));
#742=DIRECTION('',(1.,-2.89411155072895E-16,-1.7721322234878E-32));
#743=DIRECTION('',(1.7721322234878E-32,1.22464679914735E-16,-1.));
#744=DIRECTION('',(0.587785252292473,0.809016994374947,9.90760072617092E-17));
#745=DIRECTION('',(0.809016994374947,-0.587785252292473,-7.19829327805997E-17));
#746=DIRECTION('',(0.809016994374947,-0.587785252292473,-7.19829327805997E-17));
#747=DIRECTION('',(1.7721322234878E-32,1.22464679914735E-16,-1.));
#748=DIRECTION('',(1.7721322234878E-32,1.22464679914735E-16,-1.));
#749=DIRECTION('',(1.,-2.89411155072895E-16,-1.7721322234878E-32));
#750=DIRECTION('',(-1.7721322234878E-32,-1.22464679914735E-16,1.));
#751=DIRECTION('',(1.,-2.89411155072895E-16,-1.7721322234878E-32));
#752=DIRECTION('',(1.7721322234878E-32,1.22464679914735E-16,-1.));
#753=DIRECTION('',(0.951056516295153,-0.309016994374948,-3.78436673043415E-17));
#754=DIRECTION('',(-0.309016994374948,-0.951056516295153,-1.16470831848909E-16));
#755=DIRECTION('',(-0.309016994374948,-0.951056516295153,-1.16470831848909E-16));
#756=DIRECTION('',(1.7721322234878E-32,1.22464679914735E-16,-1.));
#757=DIRECTION('',(1.7721322234878E-32,1.22464679914735E-16,-1.));
#758=DIRECTION('',(1.,-2.89411155072895E-16,-1.7721322234878E-32));
#759=DIRECTION('',(-1.7721322234878E-32,-1.22464679914735E-16,1.));
#760=DIRECTION('',(1.,-2.89411155072895E-16,-1.7721322234878E-32));
#761=DIRECTION('',(1.7721322234878E-32,1.22464679914735E-16,-1.));
#762=DIRECTION('',(-2.89411155072895E-16,-1.,-1.22464679914735E-16));
#763=DIRECTION('',(1.7721322234878E-32,1.22464679914735E-16,-1.));
#764=DIRECTION('',(-1.,2.89411155072895E-16,1.7721322234878E-32));
#765=DIRECTION('',(1.7721322234878E-32,1.22464679914735E-16,-1.));
#766=DIRECTION('',(1.7721322234878E-32,1.22464679914735E-16,-1.));
#767=DIRECTION('',(1.,-2.89411155072895E-16,-1.7721322234878E-32));
#768=DIRECTION('',(-1.7721322234878E-32,-1.22464679914735E-16,1.));
#769=DIRECTION('',(1.,-2.89411155072895E-16,-1.7721322234878E-32));
#770=DIRECTION('',(1.7721322234878E-32,1.22464679914735E-16,-1.));
#771=DIRECTION('',(-0.951056516295154,-0.309016994374948,-3.78436673043415E-17));
#772=DIRECTION('',(-0.309016994374948,0.951056516295154,1.16470831848909E-16));
#773=DIRECTION('',(-0.309016994374948,0.951056516295154,1.16470831848909E-16));
#774=DIRECTION('',(1.7721322234878E-32,1.22464679914735E-16,-1.));
#775=DIRECTION('',(1.7721322234878E-32,1.22464679914735E-16,-1.));
#776=DIRECTION('',(1.,-2.89411155072895E-16,-1.7721322234878E-32));
#777=DIRECTION('',(-1.7721322234878E-32,-1.22464679914735E-16,1.));
#778=DIRECTION('',(1.,-2.89411155072895E-16,-1.7721322234878E-32));
#779=DIRECTION('',(1.7721322234878E-32,1.22464679914735E-16,-1.));
#780=DIRECTION('',(-0.587785252292473,0.809016994374948,9.90760072617092E-17));
#781=DIRECTION('',(0.809016994374948,0.587785252292473,7.19829327805997E-17));
#782=DIRECTION('',(0.809016994374948,0.587785252292473,7.19829327805997E-17));
#783=DIRECTION('',(1.7721322234878E-32,1.22464679914735E-16,-1.));
#784=DIRECTION('',(1.,-2.89411155072895E-16,-1.7721322234878E-32));
#785=DIRECTION('',(-1.7721322234878E-32,-1.22464679914735E-16,1.));
#786=DIRECTION('',(-1.,2.89411155072895E-16,1.7721322234878E-32));
#787=DIRECTION('',(0.672498511963958,0.21850801222441,0.707106781186547));
#788=DIRECTION('',(-2.04644590303076E-16,-0.707106781186547,-0.707106781186548));
#789=DIRECTION('',(2.04644590303075E-16,0.707106781186546,-0.707106781186549));
#790=DIRECTION('',(1.,-2.89411155072895E-16,-1.7721322234878E-32));
#791=DIRECTION('',(-2.04644590303076E-16,-0.707106781186549,-0.707106781186546));
#792=DIRECTION('',(0.672498511963957,0.21850801222441,-0.707106781186548));
#793=DIRECTION('',(0.309016994374948,-0.951056516295154,-1.16470831848909E-16));
#794=DIRECTION('',(0.672498511963958,0.21850801222441,0.707106781186547));
#795=DIRECTION('',(-1.7721322234878E-32,-1.22464679914735E-16,1.));
#796=DIRECTION('',(-1.,2.89411155072895E-16,1.7721322234878E-32));
#797=DIRECTION('',(0.672498511963958,-0.218508012224411,-0.707106781186547));
#798=DIRECTION('',(-1.7721322234878E-32,-1.22464679914735E-16,1.));
#799=DIRECTION('',(-1.,2.89411155072895E-16,1.7721322234878E-32));
#800=DIRECTION('',(0.415626937777455,-0.572061402817683,0.707106781186547));
#801=DIRECTION('',(-0.672498511963957,0.21850801222441,-0.707106781186548));
#802=DIRECTION('',(0.309016994374948,0.951056516295154,1.16470831848909E-16));
#803=DIRECTION('',(0.672498511963959,-0.218508012224411,-0.707106781186545));
#804=DIRECTION('',(0.415626937777452,-0.572061402817683,-0.70710678118655));
#805=DIRECTION('',(-0.809016994374948,-0.587785252292473,-7.19829327805997E-17));
#806=DIRECTION('',(0.415626937777455,-0.572061402817687,0.707106781186545));
#807=DIRECTION('',(-1.7721322234878E-32,-1.22464679914735E-16,1.));
#808=DIRECTION('',(-1.,2.89411155072895E-16,1.7721322234878E-32));
#809=DIRECTION('',(0.415626937777455,0.572061402817684,-0.707106781186547));
#810=DIRECTION('',(-1.7721322234878E-32,-1.22464679914735E-16,1.));
#811=DIRECTION('',(-1.,2.89411155072895E-16,1.7721322234878E-32));
#812=DIRECTION('',(-0.415626937777453,-0.572061402817684,0.707106781186548));
#813=DIRECTION('',(-0.415626937777453,-0.572061402817684,-0.707106781186548));
#814=DIRECTION('',(-0.809016994374948,0.587785252292473,7.19829327805997E-17));
#815=CARTESIAN_POINT('',(0.,0.,0.));
#816=CARTESIAN_POINT('',(-3.62452175352318E-18,-0.00137378040718664,0.00301));
#817=CARTESIAN_POINT('',(-0.00656097366404736,-0.0104041859390689,0.00301));
#818=CARTESIAN_POINT('',(-0.011873262096308,-0.00654458247200068,0.00301));
#819=CARTESIAN_POINT('',(-0.00217480543348216,-0.0135909236935606,0.00301));
#820=CARTESIAN_POINT('',(-7.81186973678551E-18,-0.0105975608143733,0.00301));
#821=CARTESIAN_POINT('',(0.00217480543348214,-0.0135909236935606,0.00301));
#822=CARTESIAN_POINT('',(0.00656097366404735,-0.0104041859390689,0.00301));
#823=CARTESIAN_POINT('',(0.011873262096308,-0.00654458247200068,0.00301));
#824=CARTESIAN_POINT('',(0.00969845666282581,-0.00355121959281338,0.00301));
#825=CARTESIAN_POINT('',(0.0132173657731179,-0.00240785671362607,0.00301));
#826=CARTESIAN_POINT('',(0.0116513122508849,0.00241196043008563,0.00301));
#827=CARTESIAN_POINT('',(0.00951288496633629,0.0089933628791873,0.00301));
#828=CARTESIAN_POINT('',(0.00599397585604423,0.00785,0.00301));
#829=CARTESIAN_POINT('',(0.00599397585604423,0.01155,0.00301));
#830=CARTESIAN_POINT('',(1.15764462029158E-19,0.01155,0.00301));
#831=CARTESIAN_POINT('',(-0.00599397585604423,0.01155,0.00301));
#832=CARTESIAN_POINT('',(-0.00599397585604423,0.00785,0.00301));
#833=CARTESIAN_POINT('',(-0.00951288496633629,0.00899336287918731,0.00301));
#834=CARTESIAN_POINT('',(-0.0116513122508849,0.00241196043008563,0.00301));
#835=CARTESIAN_POINT('',(-0.0132173657731179,-0.00240785671362607,0.00301));
#836=CARTESIAN_POINT('',(-0.00969845666282582,-0.00355121959281337,0.00301));
#837=CARTESIAN_POINT('',(-8.67923147477392E-18,-0.0105975608143733,0.00301));
#838=CARTESIAN_POINT('',(-0.00170457723164817,-0.0129437100980606,0.00301));
#839=CARTESIAN_POINT('',(0.00170457723164816,-0.0129437100980606,0.00301));
#840=CARTESIAN_POINT('',(-0.00609074546221339,-0.00975697234356897,0.00301));
#841=CARTESIAN_POINT('',(-0.011403033894474,-0.00589736887650072,0.00301));
#842=CARTESIAN_POINT('',(-0.00969845666282581,-0.00355121959281337,0.00301));
#843=CARTESIAN_POINT('',(-0.0124565205600818,-0.00265507030912603,0.00301));
#844=CARTESIAN_POINT('',(-0.0108904670378488,0.00216474683458568,0.00301));
#845=CARTESIAN_POINT('',(-0.00875203975330017,0.00874614928368736,0.00301));
#846=CARTESIAN_POINT('',(-0.00599397585604423,0.00785,0.00301));
#847=CARTESIAN_POINT('',(-0.00599397585604423,0.01075,0.00301));
#848=CARTESIAN_POINT('',(-1.15764462029158E-19,0.01075,0.00301));
#849=CARTESIAN_POINT('',(0.00599397585604423,0.01075,0.00301));
#850=CARTESIAN_POINT('',(0.00599397585604422,0.00785,0.00301));
#851=CARTESIAN_POINT('',(0.00875203975330018,0.00874614928368735,0.00301));
#852=CARTESIAN_POINT('',(0.0108904670378488,0.00216474683458568,0.00301));
#853=CARTESIAN_POINT('',(0.0124565205600817,-0.00265507030912603,0.00301));
#854=CARTESIAN_POINT('',(0.0096984566628258,-0.00355121959281338,0.00301));
#855=CARTESIAN_POINT('',(0.011403033894474,-0.00589736887650072,0.00301));
#856=CARTESIAN_POINT('',(0.00609074546221337,-0.00975697234356897,0.00301));
#857=CARTESIAN_POINT('',(-0.00656097366404736,-0.0104041859390689,0.00301));
#858=CARTESIAN_POINT('',(-0.011873262096308,-0.00654458247200068,0.00301));
#859=CARTESIAN_POINT('',(-0.011873262096308,-0.00654458247200068,0.00041));
#860=CARTESIAN_POINT('',(-0.00217480543348216,-0.0135909236935606,0.00041));
#861=CARTESIAN_POINT('',(-0.00217480543348216,-0.0135909236935606,0.00041));
#862=CARTESIAN_POINT('',(-0.00217480543348216,-0.0135909236935606,0.00301));
#863=CARTESIAN_POINT('',(-0.00969845666282582,-0.00355121959281337,0.00301));
#864=CARTESIAN_POINT('',(-0.0132173657731179,-0.00240785671362607,0.00301));
#865=CARTESIAN_POINT('',(-0.0132173657731179,-0.00240785671362607,0.00041));
#866=CARTESIAN_POINT('',(-0.00969845666282582,-0.00355121959281337,0.00041));
#867=CARTESIAN_POINT('',(-0.0116513122508849,0.00241196043008563,0.00301));
#868=CARTESIAN_POINT('',(-0.00951288496633629,0.00899336287918731,0.00301));
#869=CARTESIAN_POINT('',(-0.00951288496633629,0.00899336287918731,0.00041));
#870=CARTESIAN_POINT('',(-0.0132173657731179,-0.00240785671362607,0.00041));
#871=CARTESIAN_POINT('',(-0.00599397585604423,0.00785,0.00301));
#872=CARTESIAN_POINT('',(-0.00599397585604423,0.01155,0.00301));
#873=CARTESIAN_POINT('',(-0.00599397585604423,0.01155,0.00041));
#874=CARTESIAN_POINT('',(-0.00599397585604423,0.00785,0.00041));
#875=CARTESIAN_POINT('',(1.15764462029158E-19,0.01155,0.00301));
#876=CARTESIAN_POINT('',(0.00599397585604423,0.01155,0.00301));
#877=CARTESIAN_POINT('',(0.00599397585604423,0.01155,0.00041));
#878=CARTESIAN_POINT('',(-0.00599397585604423,0.01155,0.00041));
#879=CARTESIAN_POINT('',(0.00599397585604423,0.00785,0.00301));
#880=CARTESIAN_POINT('',(0.00951288496633629,0.0089933628791873,0.00301));
#881=CARTESIAN_POINT('',(0.00951288496633629,0.0089933628791873,0.00041));
#882=CARTESIAN_POINT('',(0.00599397585604423,0.00785,0.00041));
#883=CARTESIAN_POINT('',(0.0116513122508849,0.00241196043008563,0.00301));
#884=CARTESIAN_POINT('',(0.0132173657731179,-0.00240785671362607,0.00301));
#885=CARTESIAN_POINT('',(0.0132173657731179,-0.00240785671362607,0.00041));
#886=CARTESIAN_POINT('',(0.0095128849663363,0.0089933628791873,0.00041));
#887=CARTESIAN_POINT('',(0.00969845666282581,-0.00355121959281338,0.00301));
#888=CARTESIAN_POINT('',(0.011873262096308,-0.00654458247200068,0.00301));
#889=CARTESIAN_POINT('',(0.011873262096308,-0.00654458247200068,0.00041));
#890=CARTESIAN_POINT('',(0.00969845666282581,-0.00355121959281338,0.00041));
#891=CARTESIAN_POINT('',(0.00656097366404735,-0.0104041859390689,0.00301));
#892=CARTESIAN_POINT('',(0.00217480543348214,-0.0135909236935606,0.00301));
#893=CARTESIAN_POINT('',(0.00217480543348214,-0.0135909236935606,0.00041));
#894=CARTESIAN_POINT('',(0.011873262096308,-0.00654458247200068,0.00041));
#895=CARTESIAN_POINT('',(-7.81186973678551E-18,-0.0105975608143733,0.00301));
#896=CARTESIAN_POINT('',(-7.81186973678551E-18,-0.0105975608143733,0.00041));
#897=CARTESIAN_POINT('',(-3.62452175352318E-18,-0.00137378040718664,1.00000000000031E-5));
#898=CARTESIAN_POINT('',(-7.81186973678551E-18,-0.0105975608143733,1.00000000000031E-5));
#899=CARTESIAN_POINT('',(0.00193969133256515,-0.0132673168958106,1.00000000000031E-5));
#900=CARTESIAN_POINT('',(-0.00193969133256517,-0.0132673168958106,1.00000000000031E-5));
#901=CARTESIAN_POINT('',(-0.011638147995391,-0.0062209756742507,1.00000000000031E-5));
#902=CARTESIAN_POINT('',(-0.011638147995391,-0.00622097567425069,1.00000000000031E-5));
#903=CARTESIAN_POINT('',(-0.00969845666282582,-0.00355121959281337,1.00000000000031E-5));
#904=CARTESIAN_POINT('',(-0.0128369431665998,-0.00253146351137605,1.00000000000031E-5));
#905=CARTESIAN_POINT('',(-0.00913246235981823,0.00886975608143733,1.00000000000031E-5));
#906=CARTESIAN_POINT('',(-0.00913246235981823,0.00886975608143733,1.00000000000031E-5));
#907=CARTESIAN_POINT('',(-0.00599397585604423,0.00785,1.00000000000031E-5));
#908=CARTESIAN_POINT('',(-0.00599397585604423,0.01115,1.00000000000031E-5));
#909=CARTESIAN_POINT('',(0.00599397585604423,0.01115,1.00000000000031E-5));
#910=CARTESIAN_POINT('',(0.00599397585604423,0.01115,1.00000000000031E-5));
#911=CARTESIAN_POINT('',(0.00599397585604423,0.00785,1.00000000000031E-5));
#912=CARTESIAN_POINT('',(0.00913246235981823,0.00886975608143732,1.00000000000031E-5));
#913=CARTESIAN_POINT('',(0.0128369431665998,-0.00253146351137605,1.00000000000031E-5));
#914=CARTESIAN_POINT('',(0.0128369431665998,-0.00253146351137605,1.00000000000031E-5));
#915=CARTESIAN_POINT('',(0.00969845666282581,-0.00355121959281338,1.00000000000031E-5));
#916=CARTESIAN_POINT('',(0.011638147995391,-0.0062209756742507,1.00000000000031E-5));
#917=CARTESIAN_POINT('',(0.00193969133256515,-0.0132673168958106,1.00000000000031E-5));
#918=CARTESIAN_POINT('',(-8.67923147477392E-18,-0.0105975608143733,0.02601));
#919=CARTESIAN_POINT('',(0.00170457723164816,-0.0129437100980606,0.02601));
#920=CARTESIAN_POINT('',(0.00170457723164816,-0.0129437100980606,0.00101));
#921=CARTESIAN_POINT('',(-8.67923147477392E-18,-0.0105975608143733,0.00101));
#922=CARTESIAN_POINT('',(-0.00170457723164817,-0.0129437100980606,0.00101));
#923=CARTESIAN_POINT('',(-0.00170457723164817,-0.0129437100980606,0.02601));
#924=CARTESIAN_POINT('',(-0.00655380556306108,-0.00942053948728068,0.02601));
#925=CARTESIAN_POINT('',(-0.00655380556306108,-0.00942053948728067,0.00101));
#926=CARTESIAN_POINT('',(-0.011403033894474,-0.00589736887650072,0.00101));
#927=CARTESIAN_POINT('',(-0.011403033894474,-0.00589736887650072,0.02601));
#928=CARTESIAN_POINT('',(-0.00969845666282581,-0.00355121959281337,0.02601));
#929=CARTESIAN_POINT('',(-0.00969845666282581,-0.00355121959281337,0.00101));
#930=CARTESIAN_POINT('',(-0.0124565205600818,-0.00265507030912603,0.00101));
#931=CARTESIAN_POINT('',(-0.0124565205600818,-0.00265507030912603,0.02601));
#932=CARTESIAN_POINT('',(-0.010604280156691,0.00304553948728066,0.02601));
#933=CARTESIAN_POINT('',(-0.010604280156691,0.00304553948728066,0.00101));
#934=CARTESIAN_POINT('',(-0.00875203975330017,0.00874614928368736,0.00101));
#935=CARTESIAN_POINT('',(-0.00875203975330017,0.00874614928368735,0.02601));
#936=CARTESIAN_POINT('',(-0.00599397585604423,0.00785,0.02601));
#937=CARTESIAN_POINT('',(-0.00599397585604423,0.00785,0.00101));
#938=CARTESIAN_POINT('',(-0.00599397585604423,0.01075,0.00101));
#939=CARTESIAN_POINT('',(-0.00599397585604423,0.01075,0.02601));
#940=CARTESIAN_POINT('',(-9.83126200017562E-19,0.01075,0.02601));
#941=CARTESIAN_POINT('',(-9.83126200017562E-19,0.01075,0.00101));
#942=CARTESIAN_POINT('',(0.00599397585604423,0.01075,0.00101));
#943=CARTESIAN_POINT('',(0.00599397585604423,0.01075,0.02601));
#944=CARTESIAN_POINT('',(0.00599397585604422,0.00785,0.02601));
#945=CARTESIAN_POINT('',(0.00599397585604422,0.00785,0.00101));
#946=CARTESIAN_POINT('',(0.00875203975330018,0.00874614928368735,0.00101));
#947=CARTESIAN_POINT('',(0.00875203975330018,0.00874614928368734,0.02601));
#948=CARTESIAN_POINT('',(0.010604280156691,0.00304553948728065,0.02601));
#949=CARTESIAN_POINT('',(0.010604280156691,0.00304553948728065,0.00101));
#950=CARTESIAN_POINT('',(0.0124565205600817,-0.00265507030912603,0.00101));
#951=CARTESIAN_POINT('',(0.0124565205600817,-0.00265507030912603,0.02601));
#952=CARTESIAN_POINT('',(0.0096984566628258,-0.00355121959281338,0.02601));
#953=CARTESIAN_POINT('',(0.0096984566628258,-0.00355121959281338,0.00101));
#954=CARTESIAN_POINT('',(0.011403033894474,-0.00589736887650072,0.00101));
#955=CARTESIAN_POINT('',(0.011403033894474,-0.00589736887650072,0.02601));
#956=CARTESIAN_POINT('',(0.00655380556306107,-0.00942053948728067,0.02601));
#957=CARTESIAN_POINT('',(0.00655380556306107,-0.00942053948728067,0.00101));
#958=CARTESIAN_POINT('',(-3.62452175352318E-18,-0.00137378040718664,0.00101));
#959=CARTESIAN_POINT('',(0.00599397585604423,0.00785,0.00041));
#960=CARTESIAN_POINT('',(0.00913246235981823,0.00886975608143732,1.00000000000031E-5));
#961=CARTESIAN_POINT('',(0.00599397585604423,0.01155,0.00041));
#962=CARTESIAN_POINT('',(1.15764462029158E-19,0.01155,0.00041));
#963=CARTESIAN_POINT('',(-0.00599397585604423,0.01155,0.00041));
#964=CARTESIAN_POINT('',(0.0116513122508849,0.00241196043008563,0.00041));
#965=CARTESIAN_POINT('',(0.0128369431665998,-0.00253146351137605,1.00000000000031E-5));
#966=CARTESIAN_POINT('',(-0.00599397585604423,0.00785,0.00041));
#967=CARTESIAN_POINT('',(-0.00951288496633629,0.00899336287918731,0.00041));
#968=CARTESIAN_POINT('',(0.00969845666282581,-0.00355121959281338,0.00041));
#969=CARTESIAN_POINT('',(0.011638147995391,-0.0062209756742507,1.00000000000031E-5));
#970=CARTESIAN_POINT('',(-0.0116513122508849,0.00241196043008563,0.00041));
#971=CARTESIAN_POINT('',(-0.0132173657731179,-0.00240785671362607,0.00041));
#972=CARTESIAN_POINT('',(0.00656097366404735,-0.0104041859390689,0.00041));
#973=CARTESIAN_POINT('',(0.00193969133256515,-0.0132673168958106,1.00000000000031E-5));
#974=CARTESIAN_POINT('',(-0.00969845666282582,-0.00355121959281337,0.00041));
#975=CARTESIAN_POINT('',(-0.011873262096308,-0.00654458247200068,0.00041));
#976=CARTESIAN_POINT('',(-7.81186973678551E-18,-0.0105975608143733,0.00041));
#977=CARTESIAN_POINT('',(-0.00193969133256517,-0.0132673168958106,1.00000000000031E-5));
#978=CARTESIAN_POINT('',(-0.00656097366404736,-0.0104041859390689,0.00041));
#979=MECHANICAL_DESIGN_GEOMETRIC_PRESENTATION_REPRESENTATION('',(#572),
#980);
#980=(
GEOMETRIC_REPRESENTATION_CONTEXT(3)
GLOBAL_UNCERTAINTY_ASSIGNED_CONTEXT((#981))
GLOBAL_UNIT_ASSIGNED_CONTEXT((#984,#983,#982))
REPRESENTATION_CONTEXT('Part 2','TOP_LEVEL_ASSEMBLY_PART')
);
#981=UNCERTAINTY_MEASURE_WITH_UNIT(LENGTH_MEASURE(1.E-8),#984,
'DISTANCE_ACCURACY_VALUE','Maximum Tolerance applied to model');
#982=(
NAMED_UNIT(*)
SI_UNIT($,.STERADIAN.)
SOLID_ANGLE_UNIT()
);
#983=(
NAMED_UNIT(*)
PLANE_ANGLE_UNIT()
SI_UNIT($,.RADIAN.)
);
#984=(
LENGTH_UNIT()
NAMED_UNIT(*)
SI_UNIT($,.METRE.)
);
#985=PRODUCT_DEFINITION_SHAPE('','',#986);
#986=PRODUCT_DEFINITION('','',#988,#987);
#987=PRODUCT_DEFINITION_CONTEXT('',#994,'design');
#988=PRODUCT_DEFINITION_FORMATION_WITH_SPECIFIED_SOURCE('','',#990,
 .NOT_KNOWN.);
#989=PRODUCT_RELATED_PRODUCT_CATEGORY('','',(#990));
#990=PRODUCT('Part 2','Part 2','Part 2',(#992));
#991=PRODUCT_CATEGORY('','');
#992=PRODUCT_CONTEXT('',#994,'mechanical');
#993=APPLICATION_PROTOCOL_DEFINITION('international standard',
'ap242_managed_model_based_3d_engineering',2020,#994);
#994=APPLICATION_CONTEXT('managed model based 3d engineering');
ENDSEC;
END-ISO-10303-21;
