ISO-10303-21;
HEADER;
/* Generated by software containing ST-Developer
 * from STEP Tools, Inc. (www.steptools.com) 
 */
/* OPTION: using custom renumber hook */

FILE_DESCRIPTION(
/* description */ ('STEP AP242 Edition 2',
'CAx-IF Rec.Pracs.---Representation and Presentation of Product Manufa
cturing Information (PMI)---4.0---2014-10-13',
'CAx-IF Rec.Pracs.---3D Tessellated Geometry---0.4---2014-09-14','2;1',
'CAx-IF Rec.Pracs.---User Defined Attributes---1.5---2016-08-15'),
/* implementation_level */ '2;1');

FILE_NAME(
/* name */ 'Part Studio 1 - Part 1',
/* time_stamp */ '2026-06-06T20:22:07Z',
/* author */ (''),
/* organization */ (''),
/* preprocessor_version */ 'ST-DEVELOPER v20',
/* originating_system */ 'ONSHAPE BY PTC INC, 1.216',
/* authorisation */ '  ');

FILE_SCHEMA (('AP242_MANAGED_MODEL_BASED_3D_ENGINEERING_MIM_LF { 1 0 10303 442 3 1 4 }'));
ENDSEC;

DATA;
#10=SHAPE_REPRESENTATION_RELATIONSHIP('','',#880,#11);
#11=ADVANCED_BREP_SHAPE_REPRESENTATION('',(#878),#1478);
#12=CONICAL_SURFACE('',#946,0.0045,0.785398163397449);
#13=CONICAL_SURFACE('',#949,0.0045,0.78539816339745);
#14=CONICAL_SURFACE('',#950,0.0045,0.785398163397449);
#15=CONICAL_SURFACE('',#953,0.0045,0.785398163397449);
#16=CONICAL_SURFACE('',#954,0.0045,0.785398163397449);
#17=CYLINDRICAL_SURFACE('',#904,0.0045);
#18=CYLINDRICAL_SURFACE('',#907,0.0045);
#19=CYLINDRICAL_SURFACE('',#910,0.0045);
#20=CYLINDRICAL_SURFACE('',#913,0.0045);
#21=CYLINDRICAL_SURFACE('',#916,0.0045);
#22=CYLINDRICAL_SURFACE('',#925,0.0037);
#23=CYLINDRICAL_SURFACE('',#927,0.0037);
#24=CYLINDRICAL_SURFACE('',#929,0.0037);
#25=CYLINDRICAL_SURFACE('',#931,0.0037);
#26=CYLINDRICAL_SURFACE('',#933,0.0037);
#27=CYLINDRICAL_SURFACE('',#944,0.0005);
#28=CYLINDRICAL_SURFACE('',#945,0.0005);
#29=CYLINDRICAL_SURFACE('',#956,0.0005);
#30=CYLINDRICAL_SURFACE('',#959,0.0005);
#31=CYLINDRICAL_SURFACE('',#963,0.006);
#32=CYLINDRICAL_SURFACE('',#966,0.0052);
#33=CIRCLE('',#883,0.0037);
#34=CIRCLE('',#884,0.0037);
#35=CIRCLE('',#885,0.0037);
#36=CIRCLE('',#886,0.0037);
#37=CIRCLE('',#887,0.0005);
#38=CIRCLE('',#888,0.0005);
#39=CIRCLE('',#889,0.0052);
#40=CIRCLE('',#890,0.006);
#41=CIRCLE('',#894,0.0045);
#42=CIRCLE('',#895,0.0045);
#43=CIRCLE('',#896,0.0045);
#44=CIRCLE('',#897,0.0045);
#45=CIRCLE('',#898,0.0045);
#46=CIRCLE('',#899,0.0037);
#47=CIRCLE('',#900,0.0037);
#48=CIRCLE('',#901,0.0037);
#49=CIRCLE('',#902,0.0037);
#50=CIRCLE('',#903,0.0037);
#51=CIRCLE('',#905,0.0045);
#52=CIRCLE('',#908,0.0045);
#53=CIRCLE('',#911,0.0045);
#54=CIRCLE('',#914,0.0045);
#55=CIRCLE('',#917,0.0045);
#56=CIRCLE('',#920,0.0041);
#57=CIRCLE('',#921,0.0041);
#58=CIRCLE('',#922,0.0041);
#59=CIRCLE('',#923,0.0041);
#60=CIRCLE('',#924,0.0041);
#61=CIRCLE('',#926,0.0037);
#62=CIRCLE('',#939,0.0005);
#63=CIRCLE('',#940,0.0005);
#64=CIRCLE('',#942,0.0005);
#65=CIRCLE('',#943,0.0005);
#66=CIRCLE('',#957,0.0005);
#67=CIRCLE('',#960,0.0005);
#68=CIRCLE('',#964,0.006);
#69=CIRCLE('',#967,0.0052);
#70=ORIENTED_EDGE('',*,*,#310,.T.);
#71=ORIENTED_EDGE('',*,*,#311,.T.);
#72=ORIENTED_EDGE('',*,*,#312,.T.);
#73=ORIENTED_EDGE('',*,*,#313,.T.);
#74=ORIENTED_EDGE('',*,*,#314,.T.);
#75=ORIENTED_EDGE('',*,*,#315,.T.);
#76=ORIENTED_EDGE('',*,*,#316,.T.);
#77=ORIENTED_EDGE('',*,*,#317,.T.);
#78=ORIENTED_EDGE('',*,*,#318,.T.);
#79=ORIENTED_EDGE('',*,*,#319,.T.);
#80=ORIENTED_EDGE('',*,*,#320,.T.);
#81=ORIENTED_EDGE('',*,*,#321,.T.);
#82=ORIENTED_EDGE('',*,*,#322,.F.);
#83=ORIENTED_EDGE('',*,*,#323,.F.);
#84=ORIENTED_EDGE('',*,*,#324,.T.);
#85=ORIENTED_EDGE('',*,*,#325,.T.);
#86=ORIENTED_EDGE('',*,*,#312,.F.);
#87=ORIENTED_EDGE('',*,*,#326,.T.);
#88=ORIENTED_EDGE('',*,*,#327,.F.);
#89=ORIENTED_EDGE('',*,*,#328,.F.);
#90=ORIENTED_EDGE('',*,*,#329,.F.);
#91=ORIENTED_EDGE('',*,*,#330,.T.);
#92=ORIENTED_EDGE('',*,*,#331,.F.);
#93=ORIENTED_EDGE('',*,*,#332,.T.);
#94=ORIENTED_EDGE('',*,*,#310,.F.);
#95=ORIENTED_EDGE('',*,*,#333,.F.);
#96=ORIENTED_EDGE('',*,*,#334,.F.);
#97=ORIENTED_EDGE('',*,*,#335,.T.);
#98=ORIENTED_EDGE('',*,*,#336,.T.);
#99=ORIENTED_EDGE('',*,*,#337,.T.);
#100=ORIENTED_EDGE('',*,*,#338,.T.);
#101=ORIENTED_EDGE('',*,*,#339,.T.);
#102=ORIENTED_EDGE('',*,*,#340,.T.);
#103=ORIENTED_EDGE('',*,*,#341,.T.);
#104=ORIENTED_EDGE('',*,*,#342,.T.);
#105=ORIENTED_EDGE('',*,*,#343,.T.);
#106=ORIENTED_EDGE('',*,*,#344,.T.);
#107=ORIENTED_EDGE('',*,*,#345,.T.);
#108=ORIENTED_EDGE('',*,*,#329,.T.);
#109=ORIENTED_EDGE('',*,*,#346,.T.);
#110=ORIENTED_EDGE('',*,*,#334,.T.);
#111=ORIENTED_EDGE('',*,*,#347,.T.);
#112=ORIENTED_EDGE('',*,*,#348,.T.);
#113=ORIENTED_EDGE('',*,*,#349,.T.);
#114=ORIENTED_EDGE('',*,*,#350,.T.);
#115=ORIENTED_EDGE('',*,*,#351,.T.);
#116=ORIENTED_EDGE('',*,*,#352,.T.);
#117=ORIENTED_EDGE('',*,*,#353,.T.);
#118=ORIENTED_EDGE('',*,*,#354,.T.);
#119=ORIENTED_EDGE('',*,*,#355,.T.);
#120=ORIENTED_EDGE('',*,*,#356,.F.);
#121=ORIENTED_EDGE('',*,*,#336,.F.);
#122=ORIENTED_EDGE('',*,*,#356,.T.);
#123=ORIENTED_EDGE('',*,*,#357,.T.);
#124=ORIENTED_EDGE('',*,*,#358,.F.);
#125=ORIENTED_EDGE('',*,*,#337,.F.);
#126=ORIENTED_EDGE('',*,*,#358,.T.);
#127=ORIENTED_EDGE('',*,*,#359,.T.);
#128=ORIENTED_EDGE('',*,*,#360,.F.);
#129=ORIENTED_EDGE('',*,*,#338,.F.);
#130=ORIENTED_EDGE('',*,*,#360,.T.);
#131=ORIENTED_EDGE('',*,*,#361,.T.);
#132=ORIENTED_EDGE('',*,*,#362,.F.);
#133=ORIENTED_EDGE('',*,*,#339,.F.);
#134=ORIENTED_EDGE('',*,*,#362,.T.);
#135=ORIENTED_EDGE('',*,*,#363,.T.);
#136=ORIENTED_EDGE('',*,*,#364,.F.);
#137=ORIENTED_EDGE('',*,*,#340,.F.);
#138=ORIENTED_EDGE('',*,*,#364,.T.);
#139=ORIENTED_EDGE('',*,*,#365,.T.);
#140=ORIENTED_EDGE('',*,*,#366,.F.);
#141=ORIENTED_EDGE('',*,*,#341,.F.);
#142=ORIENTED_EDGE('',*,*,#366,.T.);
#143=ORIENTED_EDGE('',*,*,#367,.T.);
#144=ORIENTED_EDGE('',*,*,#368,.F.);
#145=ORIENTED_EDGE('',*,*,#342,.F.);
#146=ORIENTED_EDGE('',*,*,#369,.T.);
#147=ORIENTED_EDGE('',*,*,#370,.F.);
#148=ORIENTED_EDGE('',*,*,#371,.F.);
#149=ORIENTED_EDGE('',*,*,#372,.T.);
#150=ORIENTED_EDGE('',*,*,#368,.T.);
#151=ORIENTED_EDGE('',*,*,#373,.T.);
#152=ORIENTED_EDGE('',*,*,#374,.F.);
#153=ORIENTED_EDGE('',*,*,#343,.F.);
#154=ORIENTED_EDGE('',*,*,#374,.T.);
#155=ORIENTED_EDGE('',*,*,#375,.T.);
#156=ORIENTED_EDGE('',*,*,#376,.F.);
#157=ORIENTED_EDGE('',*,*,#344,.F.);
#158=ORIENTED_EDGE('',*,*,#377,.F.);
#159=ORIENTED_EDGE('',*,*,#378,.T.);
#160=ORIENTED_EDGE('',*,*,#379,.T.);
#161=ORIENTED_EDGE('',*,*,#380,.T.);
#162=ORIENTED_EDGE('',*,*,#376,.T.);
#163=ORIENTED_EDGE('',*,*,#381,.T.);
#164=ORIENTED_EDGE('',*,*,#354,.F.);
#165=ORIENTED_EDGE('',*,*,#345,.F.);
#166=ORIENTED_EDGE('',*,*,#382,.T.);
#167=ORIENTED_EDGE('',*,*,#383,.T.);
#168=ORIENTED_EDGE('',*,*,#384,.T.);
#169=ORIENTED_EDGE('',*,*,#385,.T.);
#170=ORIENTED_EDGE('',*,*,#386,.T.);
#171=ORIENTED_EDGE('',*,*,#387,.T.);
#172=ORIENTED_EDGE('',*,*,#388,.T.);
#173=ORIENTED_EDGE('',*,*,#389,.T.);
#174=ORIENTED_EDGE('',*,*,#390,.T.);
#175=ORIENTED_EDGE('',*,*,#391,.T.);
#176=ORIENTED_EDGE('',*,*,#392,.F.);
#177=ORIENTED_EDGE('',*,*,#335,.F.);
#178=ORIENTED_EDGE('',*,*,#346,.F.);
#179=ORIENTED_EDGE('',*,*,#328,.T.);
#180=ORIENTED_EDGE('',*,*,#393,.T.);
#181=ORIENTED_EDGE('',*,*,#313,.F.);
#182=ORIENTED_EDGE('',*,*,#330,.F.);
#183=ORIENTED_EDGE('',*,*,#353,.F.);
#184=ORIENTED_EDGE('',*,*,#394,.T.);
#185=ORIENTED_EDGE('',*,*,#314,.F.);
#186=ORIENTED_EDGE('',*,*,#393,.F.);
#187=ORIENTED_EDGE('',*,*,#352,.F.);
#188=ORIENTED_EDGE('',*,*,#395,.T.);
#189=ORIENTED_EDGE('',*,*,#315,.F.);
#190=ORIENTED_EDGE('',*,*,#394,.F.);
#191=ORIENTED_EDGE('',*,*,#351,.F.);
#192=ORIENTED_EDGE('',*,*,#396,.T.);
#193=ORIENTED_EDGE('',*,*,#316,.F.);
#194=ORIENTED_EDGE('',*,*,#395,.F.);
#195=ORIENTED_EDGE('',*,*,#350,.F.);
#196=ORIENTED_EDGE('',*,*,#397,.T.);
#197=ORIENTED_EDGE('',*,*,#317,.F.);
#198=ORIENTED_EDGE('',*,*,#396,.F.);
#199=ORIENTED_EDGE('',*,*,#349,.F.);
#200=ORIENTED_EDGE('',*,*,#398,.T.);
#201=ORIENTED_EDGE('',*,*,#318,.F.);
#202=ORIENTED_EDGE('',*,*,#397,.F.);
#203=ORIENTED_EDGE('',*,*,#348,.F.);
#204=ORIENTED_EDGE('',*,*,#333,.T.);
#205=ORIENTED_EDGE('',*,*,#319,.F.);
#206=ORIENTED_EDGE('',*,*,#398,.F.);
#207=ORIENTED_EDGE('',*,*,#347,.F.);
#208=ORIENTED_EDGE('',*,*,#326,.F.);
#209=ORIENTED_EDGE('',*,*,#311,.F.);
#210=ORIENTED_EDGE('',*,*,#332,.F.);
#211=ORIENTED_EDGE('',*,*,#399,.F.);
#212=ORIENTED_EDGE('',*,*,#392,.T.);
#213=ORIENTED_EDGE('',*,*,#327,.T.);
#214=ORIENTED_EDGE('',*,*,#399,.T.);
#215=ORIENTED_EDGE('',*,*,#331,.T.);
#216=ORIENTED_EDGE('',*,*,#400,.F.);
#217=ORIENTED_EDGE('',*,*,#380,.F.);
#218=ORIENTED_EDGE('',*,*,#401,.T.);
#219=ORIENTED_EDGE('',*,*,#371,.T.);
#220=ORIENTED_EDGE('',*,*,#402,.T.);
#221=ORIENTED_EDGE('',*,*,#403,.T.);
#222=ORIENTED_EDGE('',*,*,#404,.F.);
#223=ORIENTED_EDGE('',*,*,#405,.T.);
#224=ORIENTED_EDGE('',*,*,#379,.F.);
#225=ORIENTED_EDGE('',*,*,#406,.T.);
#226=ORIENTED_EDGE('',*,*,#402,.F.);
#227=ORIENTED_EDGE('',*,*,#407,.T.);
#228=ORIENTED_EDGE('',*,*,#372,.F.);
#229=ORIENTED_EDGE('',*,*,#401,.F.);
#230=ORIENTED_EDGE('',*,*,#377,.T.);
#231=ORIENTED_EDGE('',*,*,#400,.T.);
#232=ORIENTED_EDGE('',*,*,#370,.T.);
#233=ORIENTED_EDGE('',*,*,#408,.T.);
#234=ORIENTED_EDGE('',*,*,#404,.T.);
#235=ORIENTED_EDGE('',*,*,#409,.T.);
#236=ORIENTED_EDGE('',*,*,#406,.F.);
#237=ORIENTED_EDGE('',*,*,#378,.F.);
#238=ORIENTED_EDGE('',*,*,#409,.F.);
#239=ORIENTED_EDGE('',*,*,#403,.F.);
#240=ORIENTED_EDGE('',*,*,#407,.F.);
#241=ORIENTED_EDGE('',*,*,#405,.F.);
#242=ORIENTED_EDGE('',*,*,#408,.F.);
#243=ORIENTED_EDGE('',*,*,#369,.F.);
#244=ORIENTED_EDGE('',*,*,#410,.F.);
#245=ORIENTED_EDGE('',*,*,#388,.F.);
#246=ORIENTED_EDGE('',*,*,#411,.F.);
#247=ORIENTED_EDGE('',*,*,#363,.F.);
#248=ORIENTED_EDGE('',*,*,#411,.T.);
#249=ORIENTED_EDGE('',*,*,#387,.F.);
#250=ORIENTED_EDGE('',*,*,#412,.F.);
#251=ORIENTED_EDGE('',*,*,#365,.F.);
#252=ORIENTED_EDGE('',*,*,#410,.T.);
#253=ORIENTED_EDGE('',*,*,#361,.F.);
#254=ORIENTED_EDGE('',*,*,#413,.F.);
#255=ORIENTED_EDGE('',*,*,#389,.F.);
#256=ORIENTED_EDGE('',*,*,#412,.T.);
#257=ORIENTED_EDGE('',*,*,#386,.F.);
#258=ORIENTED_EDGE('',*,*,#414,.F.);
#259=ORIENTED_EDGE('',*,*,#367,.F.);
#260=ORIENTED_EDGE('',*,*,#413,.T.);
#261=ORIENTED_EDGE('',*,*,#359,.F.);
#262=ORIENTED_EDGE('',*,*,#415,.F.);
#263=ORIENTED_EDGE('',*,*,#390,.F.);
#264=ORIENTED_EDGE('',*,*,#414,.T.);
#265=ORIENTED_EDGE('',*,*,#385,.F.);
#266=ORIENTED_EDGE('',*,*,#416,.F.);
#267=ORIENTED_EDGE('',*,*,#373,.F.);
#268=ORIENTED_EDGE('',*,*,#415,.T.);
#269=ORIENTED_EDGE('',*,*,#357,.F.);
#270=ORIENTED_EDGE('',*,*,#417,.F.);
#271=ORIENTED_EDGE('',*,*,#391,.F.);
#272=ORIENTED_EDGE('',*,*,#416,.T.);
#273=ORIENTED_EDGE('',*,*,#384,.F.);
#274=ORIENTED_EDGE('',*,*,#418,.F.);
#275=ORIENTED_EDGE('',*,*,#375,.F.);
#276=ORIENTED_EDGE('',*,*,#417,.T.);
#277=ORIENTED_EDGE('',*,*,#355,.F.);
#278=ORIENTED_EDGE('',*,*,#419,.F.);
#279=ORIENTED_EDGE('',*,*,#382,.F.);
#280=ORIENTED_EDGE('',*,*,#418,.T.);
#281=ORIENTED_EDGE('',*,*,#383,.F.);
#282=ORIENTED_EDGE('',*,*,#419,.T.);
#283=ORIENTED_EDGE('',*,*,#381,.F.);
#284=ORIENTED_EDGE('',*,*,#320,.F.);
#285=ORIENTED_EDGE('',*,*,#420,.F.);
#286=ORIENTED_EDGE('',*,*,#420,.T.);
#287=ORIENTED_EDGE('',*,*,#321,.F.);
#288=ORIENTED_EDGE('',*,*,#421,.F.);
#289=ORIENTED_EDGE('',*,*,#421,.T.);
#290=ORIENTED_EDGE('',*,*,#422,.T.);
#291=ORIENTED_EDGE('',*,*,#322,.T.);
#292=ORIENTED_EDGE('',*,*,#423,.F.);
#293=ORIENTED_EDGE('',*,*,#424,.T.);
#294=ORIENTED_EDGE('',*,*,#325,.F.);
#295=ORIENTED_EDGE('',*,*,#425,.F.);
#296=ORIENTED_EDGE('',*,*,#426,.F.);
#297=ORIENTED_EDGE('',*,*,#423,.T.);
#298=ORIENTED_EDGE('',*,*,#324,.F.);
#299=ORIENTED_EDGE('',*,*,#427,.F.);
#300=ORIENTED_EDGE('',*,*,#428,.F.);
#301=ORIENTED_EDGE('',*,*,#425,.T.);
#302=ORIENTED_EDGE('',*,*,#427,.T.);
#303=ORIENTED_EDGE('',*,*,#323,.T.);
#304=ORIENTED_EDGE('',*,*,#422,.F.);
#305=ORIENTED_EDGE('',*,*,#429,.T.);
#306=ORIENTED_EDGE('',*,*,#424,.F.);
#307=ORIENTED_EDGE('',*,*,#426,.T.);
#308=ORIENTED_EDGE('',*,*,#428,.T.);
#309=ORIENTED_EDGE('',*,*,#429,.F.);
#310=EDGE_CURVE('',#430,#431,#508,.T.);
#311=EDGE_CURVE('',#431,#432,#509,.T.);
#312=EDGE_CURVE('',#432,#433,#510,.T.);
#313=EDGE_CURVE('',#433,#434,#33,.T.);
#314=EDGE_CURVE('',#434,#435,#511,.T.);
#315=EDGE_CURVE('',#435,#436,#34,.T.);
#316=EDGE_CURVE('',#436,#437,#512,.T.);
#317=EDGE_CURVE('',#437,#438,#35,.T.);
#318=EDGE_CURVE('',#438,#439,#513,.T.);
#319=EDGE_CURVE('',#439,#430,#36,.T.);
#320=EDGE_CURVE('',#440,#440,#37,.F.);
#321=EDGE_CURVE('',#441,#441,#38,.F.);
#322=EDGE_CURVE('',#442,#443,#514,.T.);
#323=EDGE_CURVE('',#444,#442,#39,.F.);
#324=EDGE_CURVE('',#444,#445,#515,.T.);
#325=EDGE_CURVE('',#445,#443,#40,.F.);
#326=EDGE_CURVE('',#432,#446,#516,.T.);
#327=EDGE_CURVE('',#447,#446,#517,.T.);
#328=EDGE_CURVE('',#448,#447,#518,.T.);
#329=EDGE_CURVE('',#449,#448,#519,.T.);
#330=EDGE_CURVE('',#449,#433,#520,.T.);
#331=EDGE_CURVE('',#450,#451,#521,.T.);
#332=EDGE_CURVE('',#450,#431,#522,.T.);
#333=EDGE_CURVE('',#452,#430,#523,.T.);
#334=EDGE_CURVE('',#453,#452,#524,.T.);
#335=EDGE_CURVE('',#453,#451,#525,.T.);
#336=EDGE_CURVE('',#454,#455,#41,.T.);
#337=EDGE_CURVE('',#455,#456,#526,.T.);
#338=EDGE_CURVE('',#456,#457,#42,.T.);
#339=EDGE_CURVE('',#457,#458,#527,.T.);
#340=EDGE_CURVE('',#458,#459,#43,.T.);
#341=EDGE_CURVE('',#459,#460,#528,.T.);
#342=EDGE_CURVE('',#460,#461,#44,.T.);
#343=EDGE_CURVE('',#461,#462,#529,.T.);
#344=EDGE_CURVE('',#462,#463,#45,.T.);
#345=EDGE_CURVE('',#463,#454,#530,.T.);
#346=EDGE_CURVE('',#448,#453,#46,.F.);
#347=EDGE_CURVE('',#452,#464,#47,.F.);
#348=EDGE_CURVE('',#464,#465,#531,.T.);
#349=EDGE_CURVE('',#465,#466,#48,.F.);
#350=EDGE_CURVE('',#466,#467,#532,.T.);
#351=EDGE_CURVE('',#467,#468,#49,.F.);
#352=EDGE_CURVE('',#468,#469,#533,.T.);
#353=EDGE_CURVE('',#469,#449,#50,.F.);
#354=EDGE_CURVE('',#454,#470,#534,.T.);
#355=EDGE_CURVE('',#470,#471,#51,.T.);
#356=EDGE_CURVE('',#455,#471,#535,.T.);
#357=EDGE_CURVE('',#471,#472,#536,.T.);
#358=EDGE_CURVE('',#456,#472,#537,.T.);
#359=EDGE_CURVE('',#472,#473,#52,.T.);
#360=EDGE_CURVE('',#457,#473,#538,.T.);
#361=EDGE_CURVE('',#473,#474,#539,.T.);
#362=EDGE_CURVE('',#458,#474,#540,.T.);
#363=EDGE_CURVE('',#474,#475,#53,.T.);
#364=EDGE_CURVE('',#459,#475,#541,.T.);
#365=EDGE_CURVE('',#475,#476,#542,.T.);
#366=EDGE_CURVE('',#460,#476,#543,.T.);
#367=EDGE_CURVE('',#476,#477,#54,.T.);
#368=EDGE_CURVE('',#461,#477,#544,.T.);
#369=EDGE_CURVE('',#478,#479,#545,.T.);
#370=EDGE_CURVE('',#480,#479,#546,.T.);
#371=EDGE_CURVE('',#481,#480,#547,.T.);
#372=EDGE_CURVE('',#481,#478,#548,.T.);
#373=EDGE_CURVE('',#477,#482,#549,.T.);
#374=EDGE_CURVE('',#462,#482,#550,.T.);
#375=EDGE_CURVE('',#482,#483,#55,.T.);
#376=EDGE_CURVE('',#463,#483,#551,.T.);
#377=EDGE_CURVE('',#484,#485,#552,.T.);
#378=EDGE_CURVE('',#484,#486,#553,.F.);
#379=EDGE_CURVE('',#486,#487,#554,.T.);
#380=EDGE_CURVE('',#487,#485,#555,.T.);
#381=EDGE_CURVE('',#483,#470,#556,.T.);
#382=EDGE_CURVE('',#488,#489,#56,.F.);
#383=EDGE_CURVE('',#489,#490,#557,.T.);
#384=EDGE_CURVE('',#490,#491,#57,.F.);
#385=EDGE_CURVE('',#491,#492,#558,.T.);
#386=EDGE_CURVE('',#492,#493,#58,.F.);
#387=EDGE_CURVE('',#493,#494,#559,.T.);
#388=EDGE_CURVE('',#494,#495,#59,.F.);
#389=EDGE_CURVE('',#495,#496,#560,.T.);
#390=EDGE_CURVE('',#496,#497,#60,.F.);
#391=EDGE_CURVE('',#497,#488,#561,.T.);
#392=EDGE_CURVE('',#451,#447,#61,.T.);
#393=EDGE_CURVE('',#469,#434,#562,.T.);
#394=EDGE_CURVE('',#468,#435,#563,.T.);
#395=EDGE_CURVE('',#467,#436,#564,.T.);
#396=EDGE_CURVE('',#466,#437,#565,.T.);
#397=EDGE_CURVE('',#465,#438,#566,.T.);
#398=EDGE_CURVE('',#464,#439,#567,.T.);
#399=EDGE_CURVE('',#446,#450,#568,.T.);
#400=EDGE_CURVE('',#485,#480,#569,.T.);
#401=EDGE_CURVE('',#487,#481,#570,.T.);
#402=EDGE_CURVE('',#498,#499,#571,.T.);
#403=EDGE_CURVE('',#499,#500,#572,.T.);
#404=EDGE_CURVE('',#501,#500,#573,.T.);
#405=EDGE_CURVE('',#501,#498,#574,.F.);
#406=EDGE_CURVE('',#486,#499,#62,.T.);
#407=EDGE_CURVE('',#498,#478,#63,.T.);
#408=EDGE_CURVE('',#479,#501,#64,.F.);
#409=EDGE_CURVE('',#500,#484,#65,.F.);
#410=EDGE_CURVE('',#495,#474,#575,.T.);
#411=EDGE_CURVE('',#475,#494,#576,.T.);
#412=EDGE_CURVE('',#476,#493,#577,.T.);
#413=EDGE_CURVE('',#496,#473,#578,.T.);
#414=EDGE_CURVE('',#477,#492,#579,.T.);
#415=EDGE_CURVE('',#497,#472,#580,.T.);
#416=EDGE_CURVE('',#482,#491,#581,.T.);
#417=EDGE_CURVE('',#488,#471,#582,.T.);
#418=EDGE_CURVE('',#483,#490,#583,.T.);
#419=EDGE_CURVE('',#489,#470,#584,.T.);
#420=EDGE_CURVE('',#502,#502,#66,.T.);
#421=EDGE_CURVE('',#503,#503,#67,.T.);
#422=EDGE_CURVE('',#504,#442,#585,.T.);
#423=EDGE_CURVE('',#505,#443,#586,.T.);
#424=EDGE_CURVE('',#505,#504,#587,.T.);
#425=EDGE_CURVE('',#506,#445,#588,.T.);
#426=EDGE_CURVE('',#505,#506,#68,.T.);
#427=EDGE_CURVE('',#507,#444,#589,.T.);
#428=EDGE_CURVE('',#506,#507,#590,.T.);
#429=EDGE_CURVE('',#504,#507,#69,.T.);
#430=VERTEX_POINT('',#1231);
#431=VERTEX_POINT('',#1232);
#432=VERTEX_POINT('',#1234);
#433=VERTEX_POINT('',#1236);
#434=VERTEX_POINT('',#1238);
#435=VERTEX_POINT('',#1240);
#436=VERTEX_POINT('',#1242);
#437=VERTEX_POINT('',#1244);
#438=VERTEX_POINT('',#1246);
#439=VERTEX_POINT('',#1248);
#440=VERTEX_POINT('',#1251);
#441=VERTEX_POINT('',#1253);
#442=VERTEX_POINT('',#1255);
#443=VERTEX_POINT('',#1256);
#444=VERTEX_POINT('',#1258);
#445=VERTEX_POINT('',#1260);
#446=VERTEX_POINT('',#1264);
#447=VERTEX_POINT('',#1266);
#448=VERTEX_POINT('',#1268);
#449=VERTEX_POINT('',#1270);
#450=VERTEX_POINT('',#1274);
#451=VERTEX_POINT('',#1275);
#452=VERTEX_POINT('',#1278);
#453=VERTEX_POINT('',#1280);
#454=VERTEX_POINT('',#1284);
#455=VERTEX_POINT('',#1285);
#456=VERTEX_POINT('',#1287);
#457=VERTEX_POINT('',#1289);
#458=VERTEX_POINT('',#1291);
#459=VERTEX_POINT('',#1293);
#460=VERTEX_POINT('',#1295);
#461=VERTEX_POINT('',#1297);
#462=VERTEX_POINT('',#1299);
#463=VERTEX_POINT('',#1301);
#464=VERTEX_POINT('',#1305);
#465=VERTEX_POINT('',#1307);
#466=VERTEX_POINT('',#1309);
#467=VERTEX_POINT('',#1311);
#468=VERTEX_POINT('',#1313);
#469=VERTEX_POINT('',#1315);
#470=VERTEX_POINT('',#1319);
#471=VERTEX_POINT('',#1321);
#472=VERTEX_POINT('',#1325);
#473=VERTEX_POINT('',#1329);
#474=VERTEX_POINT('',#1333);
#475=VERTEX_POINT('',#1337);
#476=VERTEX_POINT('',#1341);
#477=VERTEX_POINT('',#1345);
#478=VERTEX_POINT('',#1349);
#479=VERTEX_POINT('',#1350);
#480=VERTEX_POINT('',#1352);
#481=VERTEX_POINT('',#1354);
#482=VERTEX_POINT('',#1357);
#483=VERTEX_POINT('',#1361);
#484=VERTEX_POINT('',#1365);
#485=VERTEX_POINT('',#1366);
#486=VERTEX_POINT('',#1368);
#487=VERTEX_POINT('',#1370);
#488=VERTEX_POINT('',#1375);
#489=VERTEX_POINT('',#1376);
#490=VERTEX_POINT('',#1378);
#491=VERTEX_POINT('',#1380);
#492=VERTEX_POINT('',#1382);
#493=VERTEX_POINT('',#1384);
#494=VERTEX_POINT('',#1386);
#495=VERTEX_POINT('',#1388);
#496=VERTEX_POINT('',#1390);
#497=VERTEX_POINT('',#1392);
#498=VERTEX_POINT('',#1417);
#499=VERTEX_POINT('',#1418);
#500=VERTEX_POINT('',#1420);
#501=VERTEX_POINT('',#1422);
#502=VERTEX_POINT('',#1454);
#503=VERTEX_POINT('',#1458);
#504=VERTEX_POINT('',#1462);
#505=VERTEX_POINT('',#1464);
#506=VERTEX_POINT('',#1468);
#507=VERTEX_POINT('',#1472);
#508=LINE('',#1230,#591);
#509=LINE('',#1233,#592);
#510=LINE('',#1235,#593);
#511=LINE('',#1239,#594);
#512=LINE('',#1243,#595);
#513=LINE('',#1247,#596);
#514=LINE('',#1254,#597);
#515=LINE('',#1259,#598);
#516=LINE('',#1263,#599);
#517=LINE('',#1265,#600);
#518=LINE('',#1267,#601);
#519=LINE('',#1269,#602);
#520=LINE('',#1271,#603);
#521=LINE('',#1273,#604);
#522=LINE('',#1276,#605);
#523=LINE('',#1277,#606);
#524=LINE('',#1279,#607);
#525=LINE('',#1281,#608);
#526=LINE('',#1286,#609);
#527=LINE('',#1290,#610);
#528=LINE('',#1294,#611);
#529=LINE('',#1298,#612);
#530=LINE('',#1302,#613);
#531=LINE('',#1306,#614);
#532=LINE('',#1310,#615);
#533=LINE('',#1314,#616);
#534=LINE('',#1318,#617);
#535=LINE('',#1322,#618);
#536=LINE('',#1324,#619);
#537=LINE('',#1326,#620);
#538=LINE('',#1330,#621);
#539=LINE('',#1332,#622);
#540=LINE('',#1334,#623);
#541=LINE('',#1338,#624);
#542=LINE('',#1340,#625);
#543=LINE('',#1342,#626);
#544=LINE('',#1346,#627);
#545=LINE('',#1348,#628);
#546=LINE('',#1351,#629);
#547=LINE('',#1353,#630);
#548=LINE('',#1355,#631);
#549=LINE('',#1356,#632);
#550=LINE('',#1358,#633);
#551=LINE('',#1362,#634);
#552=LINE('',#1364,#635);
#553=LINE('',#1367,#636);
#554=LINE('',#1369,#637);
#555=LINE('',#1371,#638);
#556=LINE('',#1372,#639);
#557=LINE('',#1377,#640);
#558=LINE('',#1381,#641);
#559=LINE('',#1385,#642);
#560=LINE('',#1389,#643);
#561=LINE('',#1393,#644);
#562=LINE('',#1397,#645);
#563=LINE('',#1399,#646);
#564=LINE('',#1401,#647);
#565=LINE('',#1403,#648);
#566=LINE('',#1405,#649);
#567=LINE('',#1407,#650);
#568=LINE('',#1410,#651);
#569=LINE('',#1413,#652);
#570=LINE('',#1414,#653);
#571=LINE('',#1416,#654);
#572=LINE('',#1419,#655);
#573=LINE('',#1421,#656);
#574=LINE('',#1423,#657);
#575=LINE('',#1433,#658);
#576=LINE('',#1434,#659);
#577=LINE('',#1436,#660);
#578=LINE('',#1438,#661);
#579=LINE('',#1440,#662);
#580=LINE('',#1442,#663);
#581=LINE('',#1444,#664);
#582=LINE('',#1446,#665);
#583=LINE('',#1448,#666);
#584=LINE('',#1450,#667);
#585=LINE('',#1461,#668);
#586=LINE('',#1463,#669);
#587=LINE('',#1465,#670);
#588=LINE('',#1467,#671);
#589=LINE('',#1471,#672);
#590=LINE('',#1473,#673);
#591=VECTOR('',#973,1.);
#592=VECTOR('',#974,1.);
#593=VECTOR('',#975,1.);
#594=VECTOR('',#978,1.);
#595=VECTOR('',#981,1.);
#596=VECTOR('',#984,1.);
#597=VECTOR('',#991,1.);
#598=VECTOR('',#994,1.);
#599=VECTOR('',#999,1.);
#600=VECTOR('',#1000,1.);
#601=VECTOR('',#1001,1.);
#602=VECTOR('',#1002,1.);
#603=VECTOR('',#1003,1.);
#604=VECTOR('',#1006,1.);
#605=VECTOR('',#1007,1.);
#606=VECTOR('',#1008,1.);
#607=VECTOR('',#1009,1.);
#608=VECTOR('',#1010,1.);
#609=VECTOR('',#1015,1.);
#610=VECTOR('',#1018,1.);
#611=VECTOR('',#1021,1.);
#612=VECTOR('',#1024,1.);
#613=VECTOR('',#1027,1.);
#614=VECTOR('',#1032,1.);
#615=VECTOR('',#1035,1.);
#616=VECTOR('',#1038,1.);
#617=VECTOR('',#1043,1.);
#618=VECTOR('',#1046,1.);
#619=VECTOR('',#1049,1.);
#620=VECTOR('',#1050,1.);
#621=VECTOR('',#1055,1.);
#622=VECTOR('',#1058,1.);
#623=VECTOR('',#1059,1.);
#624=VECTOR('',#1064,1.);
#625=VECTOR('',#1067,1.);
#626=VECTOR('',#1068,1.);
#627=VECTOR('',#1073,1.);
#628=VECTOR('',#1076,1.);
#629=VECTOR('',#1077,1.);
#630=VECTOR('',#1078,1.);
#631=VECTOR('',#1079,1.);
#632=VECTOR('',#1080,1.);
#633=VECTOR('',#1081,1.);
#634=VECTOR('',#1086,1.);
#635=VECTOR('',#1089,1.);
#636=VECTOR('',#1090,1.);
#637=VECTOR('',#1091,1.);
#638=VECTOR('',#1092,1.);
#639=VECTOR('',#1093,1.);
#640=VECTOR('',#1098,1.);
#641=VECTOR('',#1101,1.);
#642=VECTOR('',#1104,1.);
#643=VECTOR('',#1107,1.);
#644=VECTOR('',#1110,1.);
#645=VECTOR('',#1117,1.);
#646=VECTOR('',#1120,1.);
#647=VECTOR('',#1123,1.);
#648=VECTOR('',#1126,1.);
#649=VECTOR('',#1129,1.);
#650=VECTOR('',#1132,1.);
#651=VECTOR('',#1137,1.);
#652=VECTOR('',#1142,1.);
#653=VECTOR('',#1143,1.);
#654=VECTOR('',#1146,1.);
#655=VECTOR('',#1147,1.);
#656=VECTOR('',#1148,1.);
#657=VECTOR('',#1149,1.);
#658=VECTOR('',#1168,1.);
#659=VECTOR('',#1169,1.);
#660=VECTOR('',#1172,1.);
#661=VECTOR('',#1175,1.);
#662=VECTOR('',#1178,1.);
#663=VECTOR('',#1181,1.);
#664=VECTOR('',#1184,1.);
#665=VECTOR('',#1187,1.);
#666=VECTOR('',#1190,1.);
#667=VECTOR('',#1193,1.);
#668=VECTOR('',#1210,1.);
#669=VECTOR('',#1211,1.);
#670=VECTOR('',#1212,1.);
#671=VECTOR('',#1215,1.);
#672=VECTOR('',#1220,1.);
#673=VECTOR('',#1221,1.);
#674=EDGE_LOOP('',(#70,#71,#72,#73,#74,#75,#76,#77,#78,#79));
#675=EDGE_LOOP('',(#80));
#676=EDGE_LOOP('',(#81));
#677=EDGE_LOOP('',(#82,#83,#84,#85));
#678=EDGE_LOOP('',(#86,#87,#88,#89,#90,#91));
#679=EDGE_LOOP('',(#92,#93,#94,#95,#96,#97));
#680=EDGE_LOOP('',(#98,#99,#100,#101,#102,#103,#104,#105,#106,#107));
#681=EDGE_LOOP('',(#108,#109,#110,#111,#112,#113,#114,#115,#116,#117));
#682=EDGE_LOOP('',(#118,#119,#120,#121));
#683=EDGE_LOOP('',(#122,#123,#124,#125));
#684=EDGE_LOOP('',(#126,#127,#128,#129));
#685=EDGE_LOOP('',(#130,#131,#132,#133));
#686=EDGE_LOOP('',(#134,#135,#136,#137));
#687=EDGE_LOOP('',(#138,#139,#140,#141));
#688=EDGE_LOOP('',(#142,#143,#144,#145));
#689=EDGE_LOOP('',(#146,#147,#148,#149));
#690=EDGE_LOOP('',(#150,#151,#152,#153));
#691=EDGE_LOOP('',(#154,#155,#156,#157));
#692=EDGE_LOOP('',(#158,#159,#160,#161));
#693=EDGE_LOOP('',(#162,#163,#164,#165));
#694=EDGE_LOOP('',(#166,#167,#168,#169,#170,#171,#172,#173,#174,#175));
#695=EDGE_LOOP('',(#176,#177,#178,#179));
#696=EDGE_LOOP('',(#180,#181,#182,#183));
#697=EDGE_LOOP('',(#184,#185,#186,#187));
#698=EDGE_LOOP('',(#188,#189,#190,#191));
#699=EDGE_LOOP('',(#192,#193,#194,#195));
#700=EDGE_LOOP('',(#196,#197,#198,#199));
#701=EDGE_LOOP('',(#200,#201,#202,#203));
#702=EDGE_LOOP('',(#204,#205,#206,#207));
#703=EDGE_LOOP('',(#208,#209,#210,#211));
#704=EDGE_LOOP('',(#212,#213,#214,#215));
#705=EDGE_LOOP('',(#216,#217,#218,#219));
#706=EDGE_LOOP('',(#220,#221,#222,#223));
#707=EDGE_LOOP('',(#224,#225,#226,#227,#228,#229));
#708=EDGE_LOOP('',(#230,#231,#232,#233,#234,#235));
#709=EDGE_LOOP('',(#236,#237,#238,#239));
#710=EDGE_LOOP('',(#240,#241,#242,#243));
#711=EDGE_LOOP('',(#244,#245,#246,#247));
#712=EDGE_LOOP('',(#248,#249,#250,#251));
#713=EDGE_LOOP('',(#252,#253,#254,#255));
#714=EDGE_LOOP('',(#256,#257,#258,#259));
#715=EDGE_LOOP('',(#260,#261,#262,#263));
#716=EDGE_LOOP('',(#264,#265,#266,#267));
#717=EDGE_LOOP('',(#268,#269,#270,#271));
#718=EDGE_LOOP('',(#272,#273,#274,#275));
#719=EDGE_LOOP('',(#276,#277,#278,#279));
#720=EDGE_LOOP('',(#280,#281,#282,#283));
#721=EDGE_LOOP('',(#284));
#722=EDGE_LOOP('',(#285));
#723=EDGE_LOOP('',(#286));
#724=EDGE_LOOP('',(#287));
#725=EDGE_LOOP('',(#288));
#726=EDGE_LOOP('',(#289));
#727=EDGE_LOOP('',(#290,#291,#292,#293));
#728=EDGE_LOOP('',(#294,#295,#296,#297));
#729=EDGE_LOOP('',(#298,#299,#300,#301));
#730=EDGE_LOOP('',(#302,#303,#304,#305));
#731=EDGE_LOOP('',(#306,#307,#308,#309));
#732=FACE_BOUND('',#674,.T.);
#733=FACE_BOUND('',#675,.T.);
#734=FACE_BOUND('',#676,.T.);
#735=FACE_BOUND('',#677,.T.);
#736=FACE_BOUND('',#678,.T.);
#737=FACE_BOUND('',#679,.T.);
#738=FACE_BOUND('',#680,.T.);
#739=FACE_BOUND('',#681,.T.);
#740=FACE_BOUND('',#682,.T.);
#741=FACE_BOUND('',#683,.T.);
#742=FACE_BOUND('',#684,.T.);
#743=FACE_BOUND('',#685,.T.);
#744=FACE_BOUND('',#686,.T.);
#745=FACE_BOUND('',#687,.T.);
#746=FACE_BOUND('',#688,.T.);
#747=FACE_BOUND('',#689,.T.);
#748=FACE_BOUND('',#690,.T.);
#749=FACE_BOUND('',#691,.T.);
#750=FACE_BOUND('',#692,.T.);
#751=FACE_BOUND('',#693,.T.);
#752=FACE_BOUND('',#694,.T.);
#753=FACE_BOUND('',#695,.T.);
#754=FACE_BOUND('',#696,.T.);
#755=FACE_BOUND('',#697,.T.);
#756=FACE_BOUND('',#698,.T.);
#757=FACE_BOUND('',#699,.T.);
#758=FACE_BOUND('',#700,.T.);
#759=FACE_BOUND('',#701,.T.);
#760=FACE_BOUND('',#702,.T.);
#761=FACE_BOUND('',#703,.T.);
#762=FACE_BOUND('',#704,.T.);
#763=FACE_BOUND('',#705,.T.);
#764=FACE_BOUND('',#706,.T.);
#765=FACE_BOUND('',#707,.T.);
#766=FACE_BOUND('',#708,.T.);
#767=FACE_BOUND('',#709,.T.);
#768=FACE_BOUND('',#710,.T.);
#769=FACE_BOUND('',#711,.T.);
#770=FACE_BOUND('',#712,.T.);
#771=FACE_BOUND('',#713,.T.);
#772=FACE_BOUND('',#714,.T.);
#773=FACE_BOUND('',#715,.T.);
#774=FACE_BOUND('',#716,.T.);
#775=FACE_BOUND('',#717,.T.);
#776=FACE_BOUND('',#718,.T.);
#777=FACE_BOUND('',#719,.T.);
#778=FACE_BOUND('',#720,.T.);
#779=FACE_BOUND('',#721,.T.);
#780=FACE_BOUND('',#722,.T.);
#781=FACE_BOUND('',#723,.T.);
#782=FACE_BOUND('',#724,.T.);
#783=FACE_BOUND('',#725,.T.);
#784=FACE_BOUND('',#726,.T.);
#785=FACE_BOUND('',#727,.T.);
#786=FACE_BOUND('',#728,.T.);
#787=FACE_BOUND('',#729,.T.);
#788=FACE_BOUND('',#730,.T.);
#789=FACE_BOUND('',#731,.T.);
#790=PLANE('',#882);
#791=PLANE('',#891);
#792=PLANE('',#892);
#793=PLANE('',#893);
#794=PLANE('',#906);
#795=PLANE('',#909);
#796=PLANE('',#912);
#797=PLANE('',#915);
#798=PLANE('',#918);
#799=PLANE('',#919);
#800=PLANE('',#928);
#801=PLANE('',#930);
#802=PLANE('',#932);
#803=PLANE('',#934);
#804=PLANE('',#935);
#805=PLANE('',#936);
#806=PLANE('',#937);
#807=PLANE('',#938);
#808=PLANE('',#941);
#809=PLANE('',#947);
#810=PLANE('',#948);
#811=PLANE('',#951);
#812=PLANE('',#952);
#813=PLANE('',#955);
#814=PLANE('',#958);
#815=PLANE('',#961);
#816=PLANE('',#962);
#817=PLANE('',#965);
#818=PLANE('',#968);
#819=ADVANCED_FACE('',(#732,#733,#734,#735),#790,.T.);
#820=ADVANCED_FACE('',(#736),#791,.T.);
#821=ADVANCED_FACE('',(#737),#792,.T.);
#822=ADVANCED_FACE('',(#738,#739),#793,.T.);
#823=ADVANCED_FACE('',(#740),#17,.T.);
#824=ADVANCED_FACE('',(#741),#794,.F.);
#825=ADVANCED_FACE('',(#742),#18,.T.);
#826=ADVANCED_FACE('',(#743),#795,.F.);
#827=ADVANCED_FACE('',(#744),#19,.T.);
#828=ADVANCED_FACE('',(#745),#796,.F.);
#829=ADVANCED_FACE('',(#746),#20,.T.);
#830=ADVANCED_FACE('',(#747,#748),#797,.F.);
#831=ADVANCED_FACE('',(#749),#21,.T.);
#832=ADVANCED_FACE('',(#750,#751),#798,.F.);
#833=ADVANCED_FACE('',(#752),#799,.F.);
#834=ADVANCED_FACE('',(#753),#22,.F.);
#835=ADVANCED_FACE('',(#754),#23,.F.);
#836=ADVANCED_FACE('',(#755),#800,.T.);
#837=ADVANCED_FACE('',(#756),#24,.F.);
#838=ADVANCED_FACE('',(#757),#801,.T.);
#839=ADVANCED_FACE('',(#758),#25,.F.);
#840=ADVANCED_FACE('',(#759),#802,.T.);
#841=ADVANCED_FACE('',(#760),#26,.F.);
#842=ADVANCED_FACE('',(#761),#803,.F.);
#843=ADVANCED_FACE('',(#762),#804,.T.);
#844=ADVANCED_FACE('',(#763),#805,.T.);
#845=ADVANCED_FACE('',(#764),#806,.T.);
#846=ADVANCED_FACE('',(#765),#807,.F.);
#847=ADVANCED_FACE('',(#766),#808,.T.);
#848=ADVANCED_FACE('',(#767),#27,.T.);
#849=ADVANCED_FACE('',(#768),#28,.T.);
#850=ADVANCED_FACE('',(#769),#12,.T.);
#851=ADVANCED_FACE('',(#770),#809,.F.);
#852=ADVANCED_FACE('',(#771),#810,.F.);
#853=ADVANCED_FACE('',(#772),#13,.T.);
#854=ADVANCED_FACE('',(#773),#14,.T.);
#855=ADVANCED_FACE('',(#774),#811,.F.);
#856=ADVANCED_FACE('',(#775),#812,.F.);
#857=ADVANCED_FACE('',(#776),#15,.T.);
#858=ADVANCED_FACE('',(#777),#16,.T.);
#859=ADVANCED_FACE('',(#778),#813,.F.);
#860=ADVANCED_FACE('',(#779,#780),#29,.T.);
#861=ADVANCED_FACE('',(#781),#814,.T.);
#862=ADVANCED_FACE('',(#782,#783),#30,.T.);
#863=ADVANCED_FACE('',(#784),#815,.T.);
#864=ADVANCED_FACE('',(#785),#816,.T.);
#865=ADVANCED_FACE('',(#786),#31,.T.);
#866=ADVANCED_FACE('',(#787),#817,.F.);
#867=ADVANCED_FACE('',(#788),#32,.F.);
#868=ADVANCED_FACE('',(#789),#818,.T.);
#869=CLOSED_SHELL('',(#819,#820,#821,#822,#823,#824,#825,#826,#827,#828,
#829,#830,#831,#832,#833,#834,#835,#836,#837,#838,#839,#840,#841,#842,#843,
#844,#845,#846,#847,#848,#849,#850,#851,#852,#853,#854,#855,#856,#857,#858,
#859,#860,#861,#862,#863,#864,#865,#866,#867,#868));
#870=STYLED_ITEM('',(#871),#878);
#871=PRESENTATION_STYLE_ASSIGNMENT((#872));
#872=SURFACE_STYLE_USAGE(.BOTH.,#873);
#873=SURFACE_SIDE_STYLE('',(#874));
#874=SURFACE_STYLE_FILL_AREA(#875);
#875=FILL_AREA_STYLE('',(#876));
#876=FILL_AREA_STYLE_COLOUR('',#877);
#877=COLOUR_RGB('',0.901960784313726,0.901960784313726,0.901960784313726);
#878=MANIFOLD_SOLID_BREP('Part 1',#869);
#879=SHAPE_DEFINITION_REPRESENTATION(#1483,#880);
#880=SHAPE_REPRESENTATION('Part 1',(#881),#1478);
#881=AXIS2_PLACEMENT_3D('',#1228,#969,#970);
#882=AXIS2_PLACEMENT_3D('',#1229,#971,#972);
#883=AXIS2_PLACEMENT_3D('',#1237,#976,#977);
#884=AXIS2_PLACEMENT_3D('',#1241,#979,#980);
#885=AXIS2_PLACEMENT_3D('',#1245,#982,#983);
#886=AXIS2_PLACEMENT_3D('',#1249,#985,#986);
#887=AXIS2_PLACEMENT_3D('',#1250,#987,#988);
#888=AXIS2_PLACEMENT_3D('',#1252,#989,#990);
#889=AXIS2_PLACEMENT_3D('',#1257,#992,#993);
#890=AXIS2_PLACEMENT_3D('',#1261,#995,#996);
#891=AXIS2_PLACEMENT_3D('',#1262,#997,#998);
#892=AXIS2_PLACEMENT_3D('',#1272,#1004,#1005);
#893=AXIS2_PLACEMENT_3D('',#1282,#1011,#1012);
#894=AXIS2_PLACEMENT_3D('',#1283,#1013,#1014);
#895=AXIS2_PLACEMENT_3D('',#1288,#1016,#1017);
#896=AXIS2_PLACEMENT_3D('',#1292,#1019,#1020);
#897=AXIS2_PLACEMENT_3D('',#1296,#1022,#1023);
#898=AXIS2_PLACEMENT_3D('',#1300,#1025,#1026);
#899=AXIS2_PLACEMENT_3D('',#1303,#1028,#1029);
#900=AXIS2_PLACEMENT_3D('',#1304,#1030,#1031);
#901=AXIS2_PLACEMENT_3D('',#1308,#1033,#1034);
#902=AXIS2_PLACEMENT_3D('',#1312,#1036,#1037);
#903=AXIS2_PLACEMENT_3D('',#1316,#1039,#1040);
#904=AXIS2_PLACEMENT_3D('',#1317,#1041,#1042);
#905=AXIS2_PLACEMENT_3D('',#1320,#1044,#1045);
#906=AXIS2_PLACEMENT_3D('',#1323,#1047,#1048);
#907=AXIS2_PLACEMENT_3D('',#1327,#1051,#1052);
#908=AXIS2_PLACEMENT_3D('',#1328,#1053,#1054);
#909=AXIS2_PLACEMENT_3D('',#1331,#1056,#1057);
#910=AXIS2_PLACEMENT_3D('',#1335,#1060,#1061);
#911=AXIS2_PLACEMENT_3D('',#1336,#1062,#1063);
#912=AXIS2_PLACEMENT_3D('',#1339,#1065,#1066);
#913=AXIS2_PLACEMENT_3D('',#1343,#1069,#1070);
#914=AXIS2_PLACEMENT_3D('',#1344,#1071,#1072);
#915=AXIS2_PLACEMENT_3D('',#1347,#1074,#1075);
#916=AXIS2_PLACEMENT_3D('',#1359,#1082,#1083);
#917=AXIS2_PLACEMENT_3D('',#1360,#1084,#1085);
#918=AXIS2_PLACEMENT_3D('',#1363,#1087,#1088);
#919=AXIS2_PLACEMENT_3D('',#1373,#1094,#1095);
#920=AXIS2_PLACEMENT_3D('',#1374,#1096,#1097);
#921=AXIS2_PLACEMENT_3D('',#1379,#1099,#1100);
#922=AXIS2_PLACEMENT_3D('',#1383,#1102,#1103);
#923=AXIS2_PLACEMENT_3D('',#1387,#1105,#1106);
#924=AXIS2_PLACEMENT_3D('',#1391,#1108,#1109);
#925=AXIS2_PLACEMENT_3D('',#1394,#1111,#1112);
#926=AXIS2_PLACEMENT_3D('',#1395,#1113,#1114);
#927=AXIS2_PLACEMENT_3D('',#1396,#1115,#1116);
#928=AXIS2_PLACEMENT_3D('',#1398,#1118,#1119);
#929=AXIS2_PLACEMENT_3D('',#1400,#1121,#1122);
#930=AXIS2_PLACEMENT_3D('',#1402,#1124,#1125);
#931=AXIS2_PLACEMENT_3D('',#1404,#1127,#1128);
#932=AXIS2_PLACEMENT_3D('',#1406,#1130,#1131);
#933=AXIS2_PLACEMENT_3D('',#1408,#1133,#1134);
#934=AXIS2_PLACEMENT_3D('',#1409,#1135,#1136);
#935=AXIS2_PLACEMENT_3D('',#1411,#1138,#1139);
#936=AXIS2_PLACEMENT_3D('',#1412,#1140,#1141);
#937=AXIS2_PLACEMENT_3D('',#1415,#1144,#1145);
#938=AXIS2_PLACEMENT_3D('',#1424,#1150,#1151);
#939=AXIS2_PLACEMENT_3D('',#1425,#1152,#1153);
#940=AXIS2_PLACEMENT_3D('',#1426,#1154,#1155);
#941=AXIS2_PLACEMENT_3D('',#1427,#1156,#1157);
#942=AXIS2_PLACEMENT_3D('',#1428,#1158,#1159);
#943=AXIS2_PLACEMENT_3D('',#1429,#1160,#1161);
#944=AXIS2_PLACEMENT_3D('',#1430,#1162,#1163);
#945=AXIS2_PLACEMENT_3D('',#1431,#1164,#1165);
#946=AXIS2_PLACEMENT_3D('',#1432,#1166,#1167);
#947=AXIS2_PLACEMENT_3D('',#1435,#1170,#1171);
#948=AXIS2_PLACEMENT_3D('',#1437,#1173,#1174);
#949=AXIS2_PLACEMENT_3D('',#1439,#1176,#1177);
#950=AXIS2_PLACEMENT_3D('',#1441,#1179,#1180);
#951=AXIS2_PLACEMENT_3D('',#1443,#1182,#1183);
#952=AXIS2_PLACEMENT_3D('',#1445,#1185,#1186);
#953=AXIS2_PLACEMENT_3D('',#1447,#1188,#1189);
#954=AXIS2_PLACEMENT_3D('',#1449,#1191,#1192);
#955=AXIS2_PLACEMENT_3D('',#1451,#1194,#1195);
#956=AXIS2_PLACEMENT_3D('',#1452,#1196,#1197);
#957=AXIS2_PLACEMENT_3D('',#1453,#1198,#1199);
#958=AXIS2_PLACEMENT_3D('',#1455,#1200,#1201);
#959=AXIS2_PLACEMENT_3D('',#1456,#1202,#1203);
#960=AXIS2_PLACEMENT_3D('',#1457,#1204,#1205);
#961=AXIS2_PLACEMENT_3D('',#1459,#1206,#1207);
#962=AXIS2_PLACEMENT_3D('',#1460,#1208,#1209);
#963=AXIS2_PLACEMENT_3D('',#1466,#1213,#1214);
#964=AXIS2_PLACEMENT_3D('',#1469,#1216,#1217);
#965=AXIS2_PLACEMENT_3D('',#1470,#1218,#1219);
#966=AXIS2_PLACEMENT_3D('',#1474,#1222,#1223);
#967=AXIS2_PLACEMENT_3D('',#1475,#1224,#1225);
#968=AXIS2_PLACEMENT_3D('',#1476,#1226,#1227);
#969=DIRECTION('',(0.,0.,1.));
#970=DIRECTION('',(1.,0.,0.));
#971=DIRECTION('',(0.,0.,1.));
#972=DIRECTION('',(1.,0.,0.));
#973=DIRECTION('',(-0.809016994374948,0.587785252292473,0.));
#974=DIRECTION('',(-1.,0.,0.));
#975=DIRECTION('',(-0.809016994374948,-0.587785252292473,0.));
#976=DIRECTION('',(0.,0.,1.));
#977=DIRECTION('',(1.,0.,0.));
#978=DIRECTION('',(0.309016994374948,-0.951056516295154,0.));
#979=DIRECTION('',(0.,0.,1.));
#980=DIRECTION('',(1.,0.,0.));
#981=DIRECTION('',(1.,0.,0.));
#982=DIRECTION('',(0.,0.,1.));
#983=DIRECTION('',(1.,0.,0.));
#984=DIRECTION('',(0.309016994374948,0.951056516295154,0.));
#985=DIRECTION('',(0.,0.,1.));
#986=DIRECTION('',(1.,0.,0.));
#987=DIRECTION('',(0.,0.,1.));
#988=DIRECTION('',(1.,0.,0.));
#989=DIRECTION('',(0.,0.,1.));
#990=DIRECTION('',(1.,0.,0.));
#991=DIRECTION('',(-1.,-4.14688942854235E-16,0.));
#992=DIRECTION('',(0.,0.,1.));
#993=DIRECTION('',(1.,0.,0.));
#994=DIRECTION('',(1.,0.,0.));
#995=DIRECTION('',(0.,0.,1.));
#996=DIRECTION('',(1.,0.,0.));
#997=DIRECTION('',(0.587785252292473,-0.809016994374948,0.));
#998=DIRECTION('',(0.809016994374948,0.587785252292473,0.));
#999=DIRECTION('',(0.,0.,1.));
#1000=DIRECTION('',(-0.809016994374948,-0.587785252292473,0.));
#1001=DIRECTION('',(0.,0.,-1.));
#1002=DIRECTION('',(0.809016994374948,0.587785252292473,0.));
#1003=DIRECTION('',(0.,0.,-1.));
#1004=DIRECTION('',(-0.587785252292473,-0.809016994374948,0.));
#1005=DIRECTION('',(0.809016994374948,-0.587785252292473,0.));
#1006=DIRECTION('',(-0.809016994374948,0.587785252292473,0.));
#1007=DIRECTION('',(0.,0.,-1.));
#1008=DIRECTION('',(0.,0.,-1.));
#1009=DIRECTION('',(0.809016994374948,-0.587785252292473,0.));
#1010=DIRECTION('',(0.,0.,-1.));
#1011=DIRECTION('',(0.,0.,1.));
#1012=DIRECTION('',(1.,0.,0.));
#1013=DIRECTION('',(0.,0.,1.));
#1014=DIRECTION('',(1.,0.,0.));
#1015=DIRECTION('',(0.309016994374948,-0.951056516295154,0.));
#1016=DIRECTION('',(0.,0.,1.));
#1017=DIRECTION('',(1.,0.,0.));
#1018=DIRECTION('',(1.,0.,0.));
#1019=DIRECTION('',(0.,0.,1.));
#1020=DIRECTION('',(1.,0.,0.));
#1021=DIRECTION('',(0.309016994374948,0.951056516295154,0.));
#1022=DIRECTION('',(0.,0.,1.));
#1023=DIRECTION('',(1.,0.,0.));
#1024=DIRECTION('',(-0.809016994374948,0.587785252292473,0.));
#1025=DIRECTION('',(0.,0.,1.));
#1026=DIRECTION('',(1.,0.,0.));
#1027=DIRECTION('',(-0.809016994374948,-0.587785252292473,0.));
#1028=DIRECTION('',(0.,0.,1.));
#1029=DIRECTION('',(1.,0.,0.));
#1030=DIRECTION('',(0.,0.,1.));
#1031=DIRECTION('',(1.,0.,0.));
#1032=DIRECTION('',(-0.309016994374948,-0.951056516295154,0.));
#1033=DIRECTION('',(0.,0.,1.));
#1034=DIRECTION('',(1.,0.,0.));
#1035=DIRECTION('',(-1.,0.,0.));
#1036=DIRECTION('',(0.,0.,1.));
#1037=DIRECTION('',(1.,0.,0.));
#1038=DIRECTION('',(-0.309016994374948,0.951056516295154,0.));
#1039=DIRECTION('',(0.,0.,1.));
#1040=DIRECTION('',(1.,0.,0.));
#1041=DIRECTION('',(0.,0.,-1.));
#1042=DIRECTION('',(-1.,0.,0.));
#1043=DIRECTION('',(0.,0.,-1.));
#1044=DIRECTION('',(0.,0.,1.));
#1045=DIRECTION('',(1.,0.,0.));
#1046=DIRECTION('',(0.,0.,-1.));
#1047=DIRECTION('',(0.951056516295154,0.309016994374948,0.));
#1048=DIRECTION('',(-0.309016994374948,0.951056516295154,0.));
#1049=DIRECTION('',(0.309016994374948,-0.951056516295154,0.));
#1050=DIRECTION('',(0.,0.,-1.));
#1051=DIRECTION('',(0.,0.,-1.));
#1052=DIRECTION('',(-1.,0.,0.));
#1053=DIRECTION('',(0.,0.,1.));
#1054=DIRECTION('',(1.,0.,0.));
#1055=DIRECTION('',(0.,0.,-1.));
#1056=DIRECTION('',(0.,1.,0.));
#1057=DIRECTION('',(0.,0.,1.));
#1058=DIRECTION('',(1.,0.,0.));
#1059=DIRECTION('',(0.,0.,-1.));
#1060=DIRECTION('',(0.,0.,-1.));
#1061=DIRECTION('',(-1.,0.,0.));
#1062=DIRECTION('',(0.,0.,1.));
#1063=DIRECTION('',(1.,0.,0.));
#1064=DIRECTION('',(0.,0.,-1.));
#1065=DIRECTION('',(-0.951056516295154,0.309016994374948,0.));
#1066=DIRECTION('',(-0.309016994374948,-0.951056516295154,0.));
#1067=DIRECTION('',(0.309016994374948,0.951056516295154,0.));
#1068=DIRECTION('',(0.,0.,-1.));
#1069=DIRECTION('',(0.,0.,-1.));
#1070=DIRECTION('',(-1.,0.,0.));
#1071=DIRECTION('',(0.,0.,1.));
#1072=DIRECTION('',(1.,0.,0.));
#1073=DIRECTION('',(0.,0.,-1.));
#1074=DIRECTION('',(-0.587785252292473,-0.809016994374947,0.));
#1075=DIRECTION('',(0.809016994374947,-0.587785252292473,0.));
#1076=DIRECTION('',(0.,0.,-1.));
#1077=DIRECTION('',(-0.809016994374948,0.587785252292473,0.));
#1078=DIRECTION('',(0.,0.,-1.));
#1079=DIRECTION('',(-0.809016994374948,0.587785252292473,0.));
#1080=DIRECTION('',(-0.809016994374947,0.587785252292473,0.));
#1081=DIRECTION('',(0.,0.,-1.));
#1082=DIRECTION('',(0.,0.,-1.));
#1083=DIRECTION('',(-1.,0.,0.));
#1084=DIRECTION('',(0.,0.,1.));
#1085=DIRECTION('',(1.,0.,0.));
#1086=DIRECTION('',(0.,0.,-1.));
#1087=DIRECTION('',(0.587785252292473,-0.809016994374948,0.));
#1088=DIRECTION('',(0.809016994374948,0.587785252292473,0.));
#1089=DIRECTION('',(-0.809016994374948,-0.587785252292473,0.));
#1090=DIRECTION('',(0.,0.,-1.));
#1091=DIRECTION('',(-0.809016994374948,-0.587785252292473,0.));
#1092=DIRECTION('',(0.,0.,-1.));
#1093=DIRECTION('',(-0.809016994374948,-0.587785252292473,0.));
#1094=DIRECTION('',(0.,0.,1.));
#1095=DIRECTION('',(1.,0.,0.));
#1096=DIRECTION('',(0.,0.,1.));
#1097=DIRECTION('',(1.,0.,0.));
#1098=DIRECTION('',(0.809016994374948,0.587785252292473,0.));
#1099=DIRECTION('',(0.,0.,1.));
#1100=DIRECTION('',(1.,0.,0.));
#1101=DIRECTION('',(0.809016994374947,-0.587785252292473,0.));
#1102=DIRECTION('',(0.,0.,1.));
#1103=DIRECTION('',(1.,0.,0.));
#1104=DIRECTION('',(-0.309016994374948,-0.951056516295154,0.));
#1105=DIRECTION('',(0.,0.,1.));
#1106=DIRECTION('',(1.,0.,0.));
#1107=DIRECTION('',(-1.,0.,0.));
#1108=DIRECTION('',(0.,0.,1.));
#1109=DIRECTION('',(1.,0.,0.));
#1110=DIRECTION('',(-0.309016994374948,0.951056516295154,0.));
#1111=DIRECTION('',(0.,0.,-1.));
#1112=DIRECTION('',(-1.,0.,0.));
#1113=DIRECTION('',(0.,0.,1.));
#1114=DIRECTION('',(1.,0.,0.));
#1115=DIRECTION('',(0.,0.,-1.));
#1116=DIRECTION('',(-1.,0.,0.));
#1117=DIRECTION('',(0.,0.,-1.));
#1118=DIRECTION('',(0.951056516295154,0.309016994374948,0.));
#1119=DIRECTION('',(-0.309016994374948,0.951056516295154,0.));
#1120=DIRECTION('',(0.,0.,-1.));
#1121=DIRECTION('',(0.,0.,-1.));
#1122=DIRECTION('',(-1.,0.,0.));
#1123=DIRECTION('',(0.,0.,-1.));
#1124=DIRECTION('',(0.,1.,0.));
#1125=DIRECTION('',(0.,0.,1.));
#1126=DIRECTION('',(0.,0.,-1.));
#1127=DIRECTION('',(0.,0.,-1.));
#1128=DIRECTION('',(-1.,0.,0.));
#1129=DIRECTION('',(0.,0.,-1.));
#1130=DIRECTION('',(-0.951056516295154,0.309016994374948,0.));
#1131=DIRECTION('',(-0.309016994374948,-0.951056516295154,0.));
#1132=DIRECTION('',(0.,0.,-1.));
#1133=DIRECTION('',(0.,0.,-1.));
#1134=DIRECTION('',(-1.,0.,0.));
#1135=DIRECTION('',(0.,1.,0.));
#1136=DIRECTION('',(0.,0.,1.));
#1137=DIRECTION('',(1.,0.,0.));
#1138=DIRECTION('',(0.,0.,1.));
#1139=DIRECTION('',(1.,0.,0.));
#1140=DIRECTION('',(-2.39505343071379E-16,1.,0.));
#1141=DIRECTION('',(-1.,-2.39505343071379E-16,0.));
#1142=DIRECTION('',(1.,2.39505343071379E-16,0.));
#1143=DIRECTION('',(1.,2.39505343071379E-16,0.));
#1144=DIRECTION('',(0.,-1.,0.));
#1145=DIRECTION('',(0.,0.,-1.));
#1146=DIRECTION('',(-1.,0.,0.));
#1147=DIRECTION('',(0.,0.,-1.));
#1148=DIRECTION('',(-1.,0.,0.));
#1149=DIRECTION('',(0.,0.,-1.));
#1150=DIRECTION('',(0.,0.,1.));
#1151=DIRECTION('',(1.,0.,0.));
#1152=DIRECTION('',(0.,0.,1.));
#1153=DIRECTION('',(1.,0.,0.));
#1154=DIRECTION('',(0.,0.,1.));
#1155=DIRECTION('',(1.,0.,0.));
#1156=DIRECTION('',(0.,0.,1.));
#1157=DIRECTION('',(1.,0.,0.));
#1158=DIRECTION('',(0.,0.,1.));
#1159=DIRECTION('',(1.,0.,0.));
#1160=DIRECTION('',(0.,0.,1.));
#1161=DIRECTION('',(1.,0.,0.));
#1162=DIRECTION('',(0.,0.,1.));
#1163=DIRECTION('',(1.,0.,0.));
#1164=DIRECTION('',(0.,0.,1.));
#1165=DIRECTION('',(1.,0.,0.));
#1166=DIRECTION('',(0.,0.,1.));
#1167=DIRECTION('',(1.,0.,0.));
#1168=DIRECTION('',(0.,-0.707106781186548,0.707106781186548));
#1169=DIRECTION('',(-0.67249851196396,0.21850801222441,-0.707106781186545));
#1170=DIRECTION('',(-0.672498511963956,0.21850801222441,0.707106781186549));
#1171=DIRECTION('',(0.309016994374948,0.951056516295154,0.));
#1172=DIRECTION('',(-0.672498511963959,0.218508012224411,-0.707106781186545));
#1173=DIRECTION('',(0.,0.707106781186546,0.707106781186549));
#1174=DIRECTION('',(1.,0.,0.));
#1175=DIRECTION('',(0.,-0.707106781186549,0.707106781186546));
#1176=DIRECTION('',(0.,0.,1.));
#1177=DIRECTION('',(1.,0.,0.));
#1178=DIRECTION('',(-0.415626937777452,-0.572061402817686,-0.707106781186547));
#1179=DIRECTION('',(0.,0.,1.));
#1180=DIRECTION('',(1.,0.,0.));
#1181=DIRECTION('',(-0.672498511963958,-0.21850801222441,0.707106781186547));
#1182=DIRECTION('',(-0.415626937777452,-0.572061402817683,0.707106781186549));
#1183=DIRECTION('',(-0.809016994374947,0.587785252292473,0.));
#1184=DIRECTION('',(-0.415626937777454,-0.572061402817684,-0.707106781186548));
#1185=DIRECTION('',(0.672498511963955,0.218508012224409,0.70710678118655));
#1186=DIRECTION('',(0.309016994374948,-0.951056516295154,0.));
#1187=DIRECTION('',(-0.67249851196396,-0.218508012224411,0.707106781186545));
#1188=DIRECTION('',(0.,0.,1.));
#1189=DIRECTION('',(1.,0.,0.));
#1190=DIRECTION('',(0.415626937777454,-0.572061402817687,-0.707106781186545));
#1191=DIRECTION('',(0.,0.,1.));
#1192=DIRECTION('',(1.,0.,0.));
#1193=DIRECTION('',(-0.415626937777454,0.572061402817686,0.707106781186546));
#1194=DIRECTION('',(0.415626937777454,-0.572061402817685,0.707106781186546));
#1195=DIRECTION('',(-0.809016994374948,-0.587785252292473,0.));
#1196=DIRECTION('',(0.,0.,-1.));
#1197=DIRECTION('',(-1.,0.,0.));
#1198=DIRECTION('',(0.,0.,1.));
#1199=DIRECTION('',(1.,0.,0.));
#1200=DIRECTION('',(0.,0.,1.));
#1201=DIRECTION('',(1.,0.,0.));
#1202=DIRECTION('',(0.,0.,-1.));
#1203=DIRECTION('',(-1.,0.,0.));
#1204=DIRECTION('',(0.,0.,1.));
#1205=DIRECTION('',(1.,0.,0.));
#1206=DIRECTION('',(0.,0.,1.));
#1207=DIRECTION('',(1.,0.,0.));
#1208=DIRECTION('',(-4.14688942854235E-16,1.,0.));
#1209=DIRECTION('',(-1.,-4.14688942854235E-16,0.));
#1210=DIRECTION('',(0.,0.,-1.));
#1211=DIRECTION('',(0.,0.,-1.));
#1212=DIRECTION('',(1.,4.14688942854235E-16,0.));
#1213=DIRECTION('',(0.,0.,-1.));
#1214=DIRECTION('',(-1.,0.,0.));
#1215=DIRECTION('',(0.,0.,-1.));
#1216=DIRECTION('',(0.,0.,1.));
#1217=DIRECTION('',(1.,0.,0.));
#1218=DIRECTION('',(0.,-1.,0.));
#1219=DIRECTION('',(0.,0.,-1.));
#1220=DIRECTION('',(0.,0.,-1.));
#1221=DIRECTION('',(-1.,0.,0.));
#1222=DIRECTION('',(0.,0.,-1.));
#1223=DIRECTION('',(-1.,0.,0.));
#1224=DIRECTION('',(0.,0.,1.));
#1225=DIRECTION('',(1.,0.,0.));
#1226=DIRECTION('',(0.,0.,1.));
#1227=DIRECTION('',(1.,0.,0.));
#1228=CARTESIAN_POINT('',(0.,0.,0.));
#1229=CARTESIAN_POINT('',(0.,0.000973780407186632,0.001));
#1230=CARTESIAN_POINT('',(0.00702403376489506,0.00966775308278062,0.001));
#1231=CARTESIAN_POINT('',(0.011873262096308,0.00614458247200067,0.001));
#1232=CARTESIAN_POINT('',(0.00698300694204068,0.00969756081437327,0.001));
#1233=CARTESIAN_POINT('',(0.,0.00969756081437327,0.001));
#1234=CARTESIAN_POINT('',(-0.00698300694204068,0.00969756081437327,0.001));
#1235=CARTESIAN_POINT('',(-0.00702403376489506,0.00966775308278062,0.001));
#1236=CARTESIAN_POINT('',(-0.011873262096308,0.00614458247200067,0.001));
#1237=CARTESIAN_POINT('',(-0.00969845666282581,0.00315121959281337,0.001));
#1238=CARTESIAN_POINT('',(-0.0132173657731179,0.00200785671362607,0.001));
#1239=CARTESIAN_POINT('',(-0.0113651253697271,-0.00369275308278062,0.001));
#1240=CARTESIAN_POINT('',(-0.00951288496633629,-0.00939336287918731,0.001));
#1241=CARTESIAN_POINT('',(-0.00599397585604423,-0.00825,0.001));
#1242=CARTESIAN_POINT('',(-0.00599397585604423,-0.01195,0.001));
#1243=CARTESIAN_POINT('',(0.,-0.01195,0.001));
#1244=CARTESIAN_POINT('',(0.00599397585604423,-0.01195,0.001));
#1245=CARTESIAN_POINT('',(0.00599397585604423,-0.00825,0.001));
#1246=CARTESIAN_POINT('',(0.00951288496633629,-0.00939336287918731,0.001));
#1247=CARTESIAN_POINT('',(0.0113651253697271,-0.00369275308278062,0.001));
#1248=CARTESIAN_POINT('',(0.0132173657731179,0.00200785671362607,0.001));
#1249=CARTESIAN_POINT('',(0.00969845666282581,0.00315121959281338,0.001));
#1250=CARTESIAN_POINT('',(0.0035,0.0035,0.001));
#1251=CARTESIAN_POINT('',(0.004,0.0035,0.001));
#1252=CARTESIAN_POINT('',(-0.0035,0.0035,0.001));
#1253=CARTESIAN_POINT('',(-0.003,0.0035,0.001));
#1254=CARTESIAN_POINT('',(4.0381596762839E-19,1.7347234759768E-18,0.001));
#1255=CARTESIAN_POINT('',(-0.0052,-6.36816335556624E-19,0.001));
#1256=CARTESIAN_POINT('',(-0.006,-7.34788079488412E-19,0.001));
#1257=CARTESIAN_POINT('',(0.,-3.18408167778312E-19,0.001));
#1258=CARTESIAN_POINT('',(0.0052,-3.18408167778312E-19,0.001));
#1259=CARTESIAN_POINT('',(0.,0.,0.001));
#1260=CARTESIAN_POINT('',(0.006,0.,0.001));
#1261=CARTESIAN_POINT('',(0.,-3.67394039744206E-19,0.001));
#1262=CARTESIAN_POINT('',(-0.00702403376489506,0.00966775308278062,0.026));
#1263=CARTESIAN_POINT('',(-0.00698300694204068,0.00969756081437327,0.026));
#1264=CARTESIAN_POINT('',(-0.00698300694204068,0.00969756081437327,0.007));
#1265=CARTESIAN_POINT('',(-0.00702403376489506,0.00966775308278062,0.007));
#1266=CARTESIAN_POINT('',(-0.00217480543348215,0.0131909236935606,0.007));
#1267=CARTESIAN_POINT('',(-0.00217480543348215,0.0131909236935606,0.026));
#1268=CARTESIAN_POINT('',(-0.00217480543348215,0.0131909236935606,0.01075));
#1269=CARTESIAN_POINT('',(-0.00656097366404736,0.0100041859390689,0.01075));
#1270=CARTESIAN_POINT('',(-0.011873262096308,0.00614458247200067,0.01075));
#1271=CARTESIAN_POINT('',(-0.011873262096308,0.00614458247200067,0.026));
#1272=CARTESIAN_POINT('',(0.00702403376489506,0.00966775308278062,0.026));
#1273=CARTESIAN_POINT('',(0.00702403376489506,0.00966775308278062,0.007));
#1274=CARTESIAN_POINT('',(0.00698300694204068,0.00969756081437327,0.007));
#1275=CARTESIAN_POINT('',(0.00217480543348215,0.0131909236935606,0.007));
#1276=CARTESIAN_POINT('',(0.00698300694204068,0.00969756081437327,0.026));
#1277=CARTESIAN_POINT('',(0.011873262096308,0.00614458247200067,0.026));
#1278=CARTESIAN_POINT('',(0.011873262096308,0.00614458247200067,0.01075));
#1279=CARTESIAN_POINT('',(0.00656097366404736,0.0100041859390689,0.01075));
#1280=CARTESIAN_POINT('',(0.00217480543348215,0.0131909236935606,0.01075));
#1281=CARTESIAN_POINT('',(0.00217480543348215,0.0131909236935606,0.026));
#1282=CARTESIAN_POINT('',(0.,0.000973780407186632,0.01075));
#1283=CARTESIAN_POINT('',(-0.00969845666282581,0.00315121959281337,0.01075));
#1284=CARTESIAN_POINT('',(-0.0123434902981419,0.00679179606750064,0.01075));
#1285=CARTESIAN_POINT('',(-0.013978210986154,0.00176064311812611,0.01075));
#1286=CARTESIAN_POINT('',(-0.0121259705827632,-0.00393996667828058,0.01075));
#1287=CARTESIAN_POINT('',(-0.0102737301793724,-0.00964057647468727,0.01075));
#1288=CARTESIAN_POINT('',(-0.00599397585604423,-0.00825,0.01075));
#1289=CARTESIAN_POINT('',(-0.00599397585604423,-0.01275,0.01075));
#1290=CARTESIAN_POINT('',(8.67361737988404E-19,-0.01275,0.01075));
#1291=CARTESIAN_POINT('',(0.00599397585604423,-0.01275,0.01075));
#1292=CARTESIAN_POINT('',(0.00599397585604423,-0.00825,0.01075));
#1293=CARTESIAN_POINT('',(0.0102737301793724,-0.00964057647468727,0.01075));
#1294=CARTESIAN_POINT('',(0.0121259705827632,-0.00393996667828058,0.01075));
#1295=CARTESIAN_POINT('',(0.013978210986154,0.00176064311812611,0.01075));
#1296=CARTESIAN_POINT('',(0.00969845666282581,0.00315121959281337,0.01075));
#1297=CARTESIAN_POINT('',(0.0123434902981419,0.00679179606750063,0.01075));
#1298=CARTESIAN_POINT('',(0.00749426196672904,0.0103149666782806,0.01075));
#1299=CARTESIAN_POINT('',(0.00264503363531613,0.0138381372890605,0.01075));
#1300=CARTESIAN_POINT('',(-8.67361737988404E-19,0.0101975608143733,0.01075));
#1301=CARTESIAN_POINT('',(-0.00264503363531613,0.0138381372890605,0.01075));
#1302=CARTESIAN_POINT('',(-0.00749426196672903,0.0103149666782806,0.01075));
#1303=CARTESIAN_POINT('',(-1.51788304147971E-18,0.0101975608143733,0.01075));
#1304=CARTESIAN_POINT('',(0.00969845666282581,0.00315121959281338,0.01075));
#1305=CARTESIAN_POINT('',(0.0132173657731179,0.00200785671362607,0.01075));
#1306=CARTESIAN_POINT('',(0.0116513122508849,-0.00281196043008564,0.01075));
#1307=CARTESIAN_POINT('',(0.00951288496633629,-0.00939336287918731,0.01075));
#1308=CARTESIAN_POINT('',(0.00599397585604423,-0.00825,0.01075));
#1309=CARTESIAN_POINT('',(0.00599397585604423,-0.01195,0.01075));
#1310=CARTESIAN_POINT('',(0.,-0.01195,0.01075));
#1311=CARTESIAN_POINT('',(-0.00599397585604423,-0.01195,0.01075));
#1312=CARTESIAN_POINT('',(-0.00599397585604423,-0.00825,0.01075));
#1313=CARTESIAN_POINT('',(-0.00951288496633629,-0.00939336287918731,0.01075));
#1314=CARTESIAN_POINT('',(-0.0116513122508849,-0.00281196043008564,0.01075));
#1315=CARTESIAN_POINT('',(-0.0132173657731179,0.00200785671362607,0.01075));
#1316=CARTESIAN_POINT('',(-0.00969845666282581,0.00315121959281337,0.01075));
#1317=CARTESIAN_POINT('',(-0.00969845666282581,0.00315121959281337,0.01075));
#1318=CARTESIAN_POINT('',(-0.0123434902981419,0.00679179606750064,0.01075));
#1319=CARTESIAN_POINT('',(-0.0123434902981419,0.00679179606750064,0.0004));
#1320=CARTESIAN_POINT('',(-0.00969845666282581,0.00315121959281337,0.0004));
#1321=CARTESIAN_POINT('',(-0.013978210986154,0.00176064311812611,0.0004));
#1322=CARTESIAN_POINT('',(-0.013978210986154,0.00176064311812611,0.01075));
#1323=CARTESIAN_POINT('',(-0.0121259705827632,-0.00393996667828058,0.01075));
#1324=CARTESIAN_POINT('',(-0.0121259705827632,-0.00393996667828058,0.0004));
#1325=CARTESIAN_POINT('',(-0.0102737301793724,-0.00964057647468727,0.0004));
#1326=CARTESIAN_POINT('',(-0.0102737301793724,-0.00964057647468727,0.01075));
#1327=CARTESIAN_POINT('',(-0.00599397585604423,-0.00825,0.01075));
#1328=CARTESIAN_POINT('',(-0.00599397585604423,-0.00825,0.0004));
#1329=CARTESIAN_POINT('',(-0.00599397585604423,-0.01275,0.0004));
#1330=CARTESIAN_POINT('',(-0.00599397585604423,-0.01275,0.01075));
#1331=CARTESIAN_POINT('',(8.67361737988404E-19,-0.01275,0.01075));
#1332=CARTESIAN_POINT('',(8.67361737988404E-19,-0.01275,0.0004));
#1333=CARTESIAN_POINT('',(0.00599397585604423,-0.01275,0.0004));
#1334=CARTESIAN_POINT('',(0.00599397585604423,-0.01275,0.01075));
#1335=CARTESIAN_POINT('',(0.00599397585604423,-0.00825,0.01075));
#1336=CARTESIAN_POINT('',(0.00599397585604423,-0.00825,0.0004));
#1337=CARTESIAN_POINT('',(0.0102737301793724,-0.00964057647468727,0.0004));
#1338=CARTESIAN_POINT('',(0.0102737301793724,-0.00964057647468727,0.01075));
#1339=CARTESIAN_POINT('',(0.0121259705827632,-0.00393996667828058,0.01075));
#1340=CARTESIAN_POINT('',(0.0121259705827632,-0.00393996667828058,0.0004));
#1341=CARTESIAN_POINT('',(0.013978210986154,0.00176064311812611,0.0004));
#1342=CARTESIAN_POINT('',(0.013978210986154,0.00176064311812611,0.01075));
#1343=CARTESIAN_POINT('',(0.00969845666282581,0.00315121959281337,0.01075));
#1344=CARTESIAN_POINT('',(0.00969845666282581,0.00315121959281337,0.0004));
#1345=CARTESIAN_POINT('',(0.0123434902981419,0.00679179606750063,0.0004));
#1346=CARTESIAN_POINT('',(0.0123434902981419,0.00679179606750063,0.01075));
#1347=CARTESIAN_POINT('',(0.00749426196672904,0.0103149666782806,0.01075));
#1348=CARTESIAN_POINT('',(0.00324522971564327,0.0134020693115607,0.001));
#1349=CARTESIAN_POINT('',(0.00324522971564327,0.0134020693115607,0.006));
#1350=CARTESIAN_POINT('',(0.00324522971564327,0.0134020693115607,0.001));
#1351=CARTESIAN_POINT('',(0.00586656077855583,0.0114975608143733,0.001));
#1352=CARTESIAN_POINT('',(0.007242942699027,0.0104975608143733,0.001));
#1353=CARTESIAN_POINT('',(0.007242942699027,0.0104975608143733,0.006));
#1354=CARTESIAN_POINT('',(0.007242942699027,0.0104975608143733,0.006));
#1355=CARTESIAN_POINT('',(0.00586656077855583,0.0114975608143733,0.006));
#1356=CARTESIAN_POINT('',(0.00749426196672904,0.0103149666782806,0.0004));
#1357=CARTESIAN_POINT('',(0.00264503363531613,0.0138381372890605,0.0004));
#1358=CARTESIAN_POINT('',(0.00264503363531613,0.0138381372890605,0.01075));
#1359=CARTESIAN_POINT('',(-8.67361737988404E-19,0.0101975608143733,0.01075));
#1360=CARTESIAN_POINT('',(-8.67361737988404E-19,0.0101975608143733,0.0004));
#1361=CARTESIAN_POINT('',(-0.00264503363531613,0.0138381372890605,0.0004));
#1362=CARTESIAN_POINT('',(-0.00264503363531613,0.0138381372890605,0.01075));
#1363=CARTESIAN_POINT('',(-0.00749426196672903,0.0103149666782806,0.01075));
#1364=CARTESIAN_POINT('',(-0.00586656077855583,0.0114975608143733,0.001));
#1365=CARTESIAN_POINT('',(-0.00324522971564327,0.0134020693115607,0.001));
#1366=CARTESIAN_POINT('',(-0.00724294269902701,0.0104975608143733,0.001));
#1367=CARTESIAN_POINT('',(-0.00324522971564327,0.0134020693115607,0.006));
#1368=CARTESIAN_POINT('',(-0.00324522971564327,0.0134020693115607,0.006));
#1369=CARTESIAN_POINT('',(-0.00586656077855583,0.0114975608143733,0.006));
#1370=CARTESIAN_POINT('',(-0.00724294269902701,0.0104975608143733,0.006));
#1371=CARTESIAN_POINT('',(-0.00724294269902701,0.0104975608143733,0.006));
#1372=CARTESIAN_POINT('',(-0.00749426196672903,0.0103149666782806,0.0004));
#1373=CARTESIAN_POINT('',(0.,0.000973780407186632,0.));
#1374=CARTESIAN_POINT('',(-0.00969845666282581,0.00315121959281337,0.));
#1375=CARTESIAN_POINT('',(-0.0135977883796359,0.00188424991587609,0.));
#1376=CARTESIAN_POINT('',(-0.0121083761972249,0.00646818926975065,0.));
#1377=CARTESIAN_POINT('',(-0.00679608776496435,0.0103277927368189,0.));
#1378=CARTESIAN_POINT('',(-0.00240991953439914,0.0135145304913105,0.));
#1379=CARTESIAN_POINT('',(-8.67361737988404E-19,0.0101975608143733,0.));
#1380=CARTESIAN_POINT('',(0.00240991953439914,0.0135145304913105,0.));
#1381=CARTESIAN_POINT('',(0.00679608776496435,0.0103277927368189,0.));
#1382=CARTESIAN_POINT('',(0.0121083761972249,0.00646818926975065,0.));
#1383=CARTESIAN_POINT('',(0.00969845666282581,0.00315121959281337,0.));
#1384=CARTESIAN_POINT('',(0.0135977883796359,0.00188424991587608,0.));
#1385=CARTESIAN_POINT('',(0.012031734857403,-0.00293556722783561,0.));
#1386=CARTESIAN_POINT('',(0.00989330757285435,-0.00951696967693729,0.));
#1387=CARTESIAN_POINT('',(0.00599397585604423,-0.00825,0.));
#1388=CARTESIAN_POINT('',(0.00599397585604423,-0.01235,0.));
#1389=CARTESIAN_POINT('',(0.,-0.01235,0.));
#1390=CARTESIAN_POINT('',(-0.00599397585604423,-0.01235,0.));
#1391=CARTESIAN_POINT('',(-0.00599397585604423,-0.00825,0.));
#1392=CARTESIAN_POINT('',(-0.00989330757285435,-0.00951696967693729,0.));
#1393=CARTESIAN_POINT('',(-0.012031734857403,-0.00293556722783561,0.));
#1394=CARTESIAN_POINT('',(-1.51788304147971E-18,0.0101975608143733,0.026));
#1395=CARTESIAN_POINT('',(-1.51788304147971E-18,0.0101975608143733,0.007));
#1396=CARTESIAN_POINT('',(-0.00969845666282581,0.00315121959281337,0.026));
#1397=CARTESIAN_POINT('',(-0.0132173657731179,0.00200785671362607,0.026));
#1398=CARTESIAN_POINT('',(-0.0113651253697271,-0.00369275308278062,0.026));
#1399=CARTESIAN_POINT('',(-0.00951288496633629,-0.00939336287918731,0.026));
#1400=CARTESIAN_POINT('',(-0.00599397585604423,-0.00825,0.026));
#1401=CARTESIAN_POINT('',(-0.00599397585604423,-0.01195,0.026));
#1402=CARTESIAN_POINT('',(0.,-0.01195,0.026));
#1403=CARTESIAN_POINT('',(0.00599397585604423,-0.01195,0.026));
#1404=CARTESIAN_POINT('',(0.00599397585604423,-0.00825,0.026));
#1405=CARTESIAN_POINT('',(0.00951288496633629,-0.00939336287918731,0.026));
#1406=CARTESIAN_POINT('',(0.0113651253697271,-0.00369275308278062,0.026));
#1407=CARTESIAN_POINT('',(0.0132173657731179,0.00200785671362607,0.026));
#1408=CARTESIAN_POINT('',(0.00969845666282581,0.00315121959281338,0.026));
#1409=CARTESIAN_POINT('',(0.,0.00969756081437327,0.007));
#1410=CARTESIAN_POINT('',(0.,0.00969756081437327,0.007));
#1411=CARTESIAN_POINT('',(-3.46944695195361E-18,0.0121975608143733,0.007));
#1412=CARTESIAN_POINT('',(-3.46944695195361E-18,0.0104975608143733,0.006));
#1413=CARTESIAN_POINT('',(-3.46944695195361E-18,0.0104975608143733,0.001));
#1414=CARTESIAN_POINT('',(-3.46944695195361E-18,0.0104975608143733,0.006));
#1415=CARTESIAN_POINT('',(-8.67361737988404E-19,0.0124975608143733,0.006));
#1416=CARTESIAN_POINT('',(-8.67361737988404E-19,0.0124975608143733,0.006));
#1417=CARTESIAN_POINT('',(0.00295133708949704,0.0124975608143733,0.006));
#1418=CARTESIAN_POINT('',(-0.00295133708949703,0.0124975608143733,0.006));
#1419=CARTESIAN_POINT('',(-0.00295133708949703,0.0124975608143733,0.001));
#1420=CARTESIAN_POINT('',(-0.00295133708949703,0.0124975608143733,0.001));
#1421=CARTESIAN_POINT('',(-8.67361737988404E-19,0.0124975608143733,0.001));
#1422=CARTESIAN_POINT('',(0.00295133708949704,0.0124975608143733,0.001));
#1423=CARTESIAN_POINT('',(0.00295133708949704,0.0124975608143733,0.006));
#1424=CARTESIAN_POINT('',(0.,0.000273780407186633,0.006));
#1425=CARTESIAN_POINT('',(-0.00295133708949703,0.0129975608143733,0.006));
#1426=CARTESIAN_POINT('',(0.00295133708949704,0.0129975608143733,0.006));
#1427=CARTESIAN_POINT('',(0.,0.000273780407186633,0.001));
#1428=CARTESIAN_POINT('',(0.00295133708949704,0.0129975608143733,0.001));
#1429=CARTESIAN_POINT('',(-0.00295133708949703,0.0129975608143733,0.001));
#1430=CARTESIAN_POINT('',(-0.00295133708949703,0.0129975608143733,0.006));
#1431=CARTESIAN_POINT('',(0.00295133708949704,0.0129975608143733,0.01075));
#1432=CARTESIAN_POINT('',(0.00599397585604423,-0.00825,0.0004));
#1433=CARTESIAN_POINT('',(0.00599397585604423,-0.01235,0.));
#1434=CARTESIAN_POINT('',(0.0102737301793724,-0.00964057647468727,0.0004));
#1435=CARTESIAN_POINT('',(0.0121259705827632,-0.00393996667828058,0.0004));
#1436=CARTESIAN_POINT('',(0.013978210986154,0.00176064311812611,0.0004));
#1437=CARTESIAN_POINT('',(8.67361737988404E-19,-0.01275,0.0004));
#1438=CARTESIAN_POINT('',(-0.00599397585604423,-0.01235,0.));
#1439=CARTESIAN_POINT('',(0.00969845666282581,0.00315121959281337,0.0004));
#1440=CARTESIAN_POINT('',(0.0123434902981419,0.00679179606750063,0.0004));
#1441=CARTESIAN_POINT('',(-0.00599397585604423,-0.00825,0.0004));
#1442=CARTESIAN_POINT('',(-0.00989330757285436,-0.00951696967693729,0.));
#1443=CARTESIAN_POINT('',(0.00749426196672904,0.0103149666782806,0.0004));
#1444=CARTESIAN_POINT('',(0.00264503363531613,0.0138381372890605,0.0004));
#1445=CARTESIAN_POINT('',(-0.0121259705827632,-0.00393996667828058,0.0004));
#1446=CARTESIAN_POINT('',(-0.0135977883796359,0.00188424991587609,0.));
#1447=CARTESIAN_POINT('',(-8.67361737988404E-19,0.0101975608143733,0.0004));
#1448=CARTESIAN_POINT('',(-0.00264503363531613,0.0138381372890605,0.0004));
#1449=CARTESIAN_POINT('',(-0.00969845666282581,0.00315121959281337,0.0004));
#1450=CARTESIAN_POINT('',(-0.0121083761972249,0.00646818926975065,0.));
#1451=CARTESIAN_POINT('',(-0.00749426196672903,0.0103149666782806,0.0004));
#1452=CARTESIAN_POINT('',(0.0035,0.0035,0.003));
#1453=CARTESIAN_POINT('',(0.0035,0.0035,0.003));
#1454=CARTESIAN_POINT('',(0.004,0.0035,0.003));
#1455=CARTESIAN_POINT('',(0.,-0.001,0.003));
#1456=CARTESIAN_POINT('',(-0.0035,0.0035,0.003));
#1457=CARTESIAN_POINT('',(-0.0035,0.0035,0.003));
#1458=CARTESIAN_POINT('',(-0.003,0.0035,0.003));
#1459=CARTESIAN_POINT('',(0.,-0.001,0.003));
#1460=CARTESIAN_POINT('',(-0.0056,-5.68912502346718E-19,0.003));
#1461=CARTESIAN_POINT('',(-0.0052,-6.36816335556624E-19,0.003));
#1462=CARTESIAN_POINT('',(-0.0052,-6.36816335556624E-19,0.003));
#1463=CARTESIAN_POINT('',(-0.006,-7.34788079488412E-19,0.003));
#1464=CARTESIAN_POINT('',(-0.006,-7.34788079488412E-19,0.003));
#1465=CARTESIAN_POINT('',(-0.0056,-5.68912502346718E-19,0.003));
#1466=CARTESIAN_POINT('',(0.,-3.67394039744206E-19,0.003));
#1467=CARTESIAN_POINT('',(0.006,0.,0.003));
#1468=CARTESIAN_POINT('',(0.006,0.,0.003));
#1469=CARTESIAN_POINT('',(0.,-3.67394039744206E-19,0.003));
#1470=CARTESIAN_POINT('',(0.0056,0.,0.003));
#1471=CARTESIAN_POINT('',(0.0052,0.,0.003));
#1472=CARTESIAN_POINT('',(0.0052,0.,0.003));
#1473=CARTESIAN_POINT('',(0.0056,0.,0.003));
#1474=CARTESIAN_POINT('',(0.,-3.18408167778312E-19,0.003));
#1475=CARTESIAN_POINT('',(0.,-3.18408167778312E-19,0.003));
#1476=CARTESIAN_POINT('',(0.,-0.001,0.003));
#1477=MECHANICAL_DESIGN_GEOMETRIC_PRESENTATION_REPRESENTATION('',(#870),
#1478);
#1478=(
GEOMETRIC_REPRESENTATION_CONTEXT(3)
GLOBAL_UNCERTAINTY_ASSIGNED_CONTEXT((#1479))
GLOBAL_UNIT_ASSIGNED_CONTEXT((#1482,#1481,#1480))
REPRESENTATION_CONTEXT('Part 1','TOP_LEVEL_ASSEMBLY_PART')
);
#1479=UNCERTAINTY_MEASURE_WITH_UNIT(LENGTH_MEASURE(1.E-8),#1482,
'DISTANCE_ACCURACY_VALUE','Maximum Tolerance applied to model');
#1480=(
NAMED_UNIT(*)
SI_UNIT($,.STERADIAN.)
SOLID_ANGLE_UNIT()
);
#1481=(
NAMED_UNIT(*)
PLANE_ANGLE_UNIT()
SI_UNIT($,.RADIAN.)
);
#1482=(
LENGTH_UNIT()
NAMED_UNIT(*)
SI_UNIT($,.METRE.)
);
#1483=PRODUCT_DEFINITION_SHAPE('','',#1484);
#1484=PRODUCT_DEFINITION('','',#1486,#1485);
#1485=PRODUCT_DEFINITION_CONTEXT('',#1492,'design');
#1486=PRODUCT_DEFINITION_FORMATION_WITH_SPECIFIED_SOURCE('','',#1488,
 .NOT_KNOWN.);
#1487=PRODUCT_RELATED_PRODUCT_CATEGORY('','',(#1488));
#1488=PRODUCT('Part 1','Part 1','Part 1',(#1490));
#1489=PRODUCT_CATEGORY('','');
#1490=PRODUCT_CONTEXT('',#1492,'mechanical');
#1491=APPLICATION_PROTOCOL_DEFINITION('international standard',
'ap242_managed_model_based_3d_engineering',2020,#1492);
#1492=APPLICATION_CONTEXT('managed model based 3d engineering');
ENDSEC;
END-ISO-10303-21;
