ISO-10303-21;
HEADER;
FILE_DESCRIPTION( ( '' ), ' ' );
FILE_NAME( '/vol/tmp/translate-5678006002939639615/5689502ce4b0879e9112d119.step', '2016-01-03T16:45:33', ( '' ), ( '' ), ' ', ' ', ' ' );
FILE_SCHEMA( ( 'AUTOMOTIVE_DESIGN { 1 0 10303 214 1 1 1 1 }' ) );
ENDSEC;
DATA;
#1 = PRODUCT_DEFINITION_CONTEXT( '', #9, 'design' );
#2 = APPLICATION_PROTOCOL_DEFINITION( 'international standard', 'automotive_design', 2001, #9 );
#3 = PRODUCT_CATEGORY_RELATIONSHIP( 'NONE', 'NONE', #10, #11 );
#4 = SHAPE_DEFINITION_REPRESENTATION( #12, #13 );
#5 =  ( GEOMETRIC_REPRESENTATION_CONTEXT( 3 )GLOBAL_UNCERTAINTY_ASSIGNED_CONTEXT( ( #16 ) )GLOBAL_UNIT_ASSIGNED_CONTEXT( ( #18, #19, #20 ) )REPRESENTATION_CONTEXT( 'NONE', 'WORKSPACE' ) );
#9 = APPLICATION_CONTEXT( 'core data for automotive mechanical design processes' );
#10 = PRODUCT_CATEGORY( 'part', 'NONE' );
#11 = PRODUCT_RELATED_PRODUCT_CATEGORY( 'detail', ' ', ( #22 ) );
#12 = PRODUCT_DEFINITION_SHAPE( 'NONE', 'NONE', #23 );
#13 = ADVANCED_BREP_SHAPE_REPRESENTATION( 'Part 2', ( #24, #25 ), #5 );
#16 = UNCERTAINTY_MEASURE_WITH_UNIT( LENGTH_MEASURE( 1.00000000000000E-06 ), #18, '', '' );
#18 =  ( CONVERSION_BASED_UNIT( 'METRE', #28 )LENGTH_UNIT(  )NAMED_UNIT( #31 ) );
#19 =  ( NAMED_UNIT( #33 )PLANE_ANGLE_UNIT(  )SI_UNIT( $, .RADIAN. ) );
#20 =  ( NAMED_UNIT( #33 )SI_UNIT( $, .STERADIAN. )SOLID_ANGLE_UNIT(  ) );
#22 = PRODUCT( 'Part 2', 'Part 2', 'PART-Part 2-DESC', ( #39 ) );
#23 = PRODUCT_DEFINITION( 'NONE', 'NONE', #40, #1 );
#24 = MANIFOLD_SOLID_BREP( 'Part 2', #41 );
#25 = AXIS2_PLACEMENT_3D( '', #42, #43, #44 );
#28 = LENGTH_MEASURE_WITH_UNIT( LENGTH_MEASURE( 1.00000000000000 ), #45 );
#31 = DIMENSIONAL_EXPONENTS( 1.00000000000000, 0.00000000000000, 0.00000000000000, 0.00000000000000, 0.00000000000000, 0.00000000000000, 0.00000000000000 );
#33 = DIMENSIONAL_EXPONENTS( 0.00000000000000, 0.00000000000000, 0.00000000000000, 0.00000000000000, 0.00000000000000, 0.00000000000000, 0.00000000000000 );
#39 = PRODUCT_CONTEXT( '', #9, 'mechanical' );
#40 = PRODUCT_DEFINITION_FORMATION_WITH_SPECIFIED_SOURCE( ' ', 'NONE', #22, .NOT_KNOWN. );
#41 = CLOSED_SHELL( '', ( #46, #47, #48, #49, #50, #51, #52, #53, #54, #55, #56, #57, #58, #59, #60, #61, #62, #63, #64, #65, #66, #67, #68, #69, #70, #71, #72, #73, #74, #75, #76, #77, #78, #79, #80, #81, #82 ) );
#42 = CARTESIAN_POINT( '', ( 0.00000000000000, 0.00000000000000, 0.00000000000000 ) );
#43 = DIRECTION( '', ( 0.00000000000000, 0.00000000000000, 1.00000000000000 ) );
#44 = DIRECTION( '', ( 1.00000000000000, 0.00000000000000, 0.00000000000000 ) );
#45 =  ( LENGTH_UNIT(  )NAMED_UNIT( #31 )SI_UNIT( $, .METRE. ) );
#46 = ADVANCED_FACE( '', ( #84 ), #85, .T. );
#47 = ADVANCED_FACE( '', ( #86 ), #87, .T. );
#48 = ADVANCED_FACE( '', ( #88 ), #89, .T. );
#49 = ADVANCED_FACE( '', ( #90, #91 ), #92, .F. );
#50 = ADVANCED_FACE( '', ( #93 ), #94, .T. );
#51 = ADVANCED_FACE( '', ( #95 ), #96, .F. );
#52 = ADVANCED_FACE( '', ( #97 ), #98, .F. );
#53 = ADVANCED_FACE( '', ( #99 ), #100, .F. );
#54 = ADVANCED_FACE( '', ( #101 ), #102, .T. );
#55 = ADVANCED_FACE( '', ( #103 ), #104, .F. );
#56 = ADVANCED_FACE( '', ( #105 ), #106, .T. );
#57 = ADVANCED_FACE( '', ( #107 ), #108, .T. );
#58 = ADVANCED_FACE( '', ( #109 ), #110, .F. );
#59 = ADVANCED_FACE( '', ( #111 ), #112, .F. );
#60 = ADVANCED_FACE( '', ( #113 ), #114, .F. );
#61 = ADVANCED_FACE( '', ( #115 ), #116, .T. );
#62 = ADVANCED_FACE( '', ( #117 ), #118, .T. );
#63 = ADVANCED_FACE( '', ( #119 ), #120, .T. );
#64 = ADVANCED_FACE( '', ( #121 ), #122, .F. );
#65 = ADVANCED_FACE( '', ( #123 ), #124, .T. );
#66 = ADVANCED_FACE( '', ( #125 ), #126, .T. );
#67 = ADVANCED_FACE( '', ( #127 ), #128, .T. );
#68 = ADVANCED_FACE( '', ( #129 ), #130, .T. );
#69 = ADVANCED_FACE( '', ( #131 ), #132, .F. );
#70 = ADVANCED_FACE( '', ( #133 ), #134, .T. );
#71 = ADVANCED_FACE( '', ( #135 ), #136, .F. );
#72 = ADVANCED_FACE( '', ( #137 ), #138, .F. );
#73 = ADVANCED_FACE( '', ( #139 ), #140, .T. );
#74 = ADVANCED_FACE( '', ( #141 ), #142, .T. );
#75 = ADVANCED_FACE( '', ( #143 ), #144, .F. );
#76 = ADVANCED_FACE( '', ( #145 ), #146, .F. );
#77 = ADVANCED_FACE( '', ( #147 ), #148, .F. );
#78 = ADVANCED_FACE( '', ( #149 ), #150, .F. );
#79 = ADVANCED_FACE( '', ( #151 ), #152, .T. );
#80 = ADVANCED_FACE( '', ( #153 ), #154, .T. );
#81 = ADVANCED_FACE( '', ( #155 ), #156, .F. );
#82 = ADVANCED_FACE( '', ( #157 ), #158, .F. );
#84 = FACE_OUTER_BOUND( '', #159, .T. );
#85 = CYLINDRICAL_SURFACE( '', #160, 0.00200000000000000 );
#86 = FACE_OUTER_BOUND( '', #161, .T. );
#87 = CYLINDRICAL_SURFACE( '', #162, 0.00200000000000000 );
#88 = FACE_OUTER_BOUND( '', #163, .T. );
#89 = CYLINDRICAL_SURFACE( '', #164, 0.00200000000000000 );
#90 = FACE_BOUND( '', #165, .T. );
#91 = FACE_OUTER_BOUND( '', #166, .T. );
#92 = PLANE( '', #167 );
#93 = FACE_OUTER_BOUND( '', #168, .T. );
#94 = CYLINDRICAL_SURFACE( '', #169, 0.00200000000000000 );
#95 = FACE_OUTER_BOUND( '', #170, .T. );
#96 = CYLINDRICAL_SURFACE( '', #171, 0.00100000000000000 );
#97 = FACE_OUTER_BOUND( '', #172, .T. );
#98 = CYLINDRICAL_SURFACE( '', #173, 0.00100000000000000 );
#99 = FACE_OUTER_BOUND( '', #174, .T. );
#100 = CYLINDRICAL_SURFACE( '', #175, 0.00100000000000000 );
#101 = FACE_OUTER_BOUND( '', #176, .T. );
#102 = PLANE( '', #177 );
#103 = FACE_OUTER_BOUND( '', #178, .T. );
#104 = PLANE( '', #179 );
#105 = FACE_OUTER_BOUND( '', #180, .T. );
#106 = PLANE( '', #181 );
#107 = FACE_OUTER_BOUND( '', #182, .T. );
#108 = PLANE( '', #183 );
#109 = FACE_OUTER_BOUND( '', #184, .T. );
#110 = PLANE( '', #185 );
#111 = FACE_OUTER_BOUND( '', #186, .T. );
#112 = PLANE( '', #187 );
#113 = FACE_OUTER_BOUND( '', #188, .T. );
#114 = PLANE( '', #189 );
#115 = FACE_OUTER_BOUND( '', #190, .T. );
#116 = PLANE( '', #191 );
#117 = FACE_OUTER_BOUND( '', #192, .T. );
#118 = CYLINDRICAL_SURFACE( '', #193, 0.00200000000000000 );
#119 = FACE_OUTER_BOUND( '', #194, .T. );
#120 = CYLINDRICAL_SURFACE( '', #195, 0.00200000000000000 );
#121 = FACE_OUTER_BOUND( '', #196, .T. );
#122 = CYLINDRICAL_SURFACE( '', #197, 0.00240000000000000 );
#123 = FACE_OUTER_BOUND( '', #198, .T. );
#124 = PLANE( '', #199 );
#125 = FACE_OUTER_BOUND( '', #200, .T. );
#126 = CYLINDRICAL_SURFACE( '', #201, 0.00440000000000000 );
#127 = FACE_OUTER_BOUND( '', #202, .T. );
#128 = CYLINDRICAL_SURFACE( '', #203, 0.00440000000000000 );
#129 = FACE_OUTER_BOUND( '', #204, .T. );
#130 = PLANE( '', #205 );
#131 = FACE_OUTER_BOUND( '', #206, .T. );
#132 = PLANE( '', #207 );
#133 = FACE_OUTER_BOUND( '', #208, .T. );
#134 = PLANE( '', #209 );
#135 = FACE_OUTER_BOUND( '', #210, .T. );
#136 = PLANE( '', #211 );
#137 = FACE_OUTER_BOUND( '', #212, .T. );
#138 = PLANE( '', #213 );
#139 = FACE_OUTER_BOUND( '', #214, .T. );
#140 = PLANE( '', #215 );
#141 = FACE_OUTER_BOUND( '', #216, .T. );
#142 = PLANE( '', #217 );
#143 = FACE_OUTER_BOUND( '', #218, .T. );
#144 = PLANE( '', #219 );
#145 = FACE_OUTER_BOUND( '', #220, .T. );
#146 = PLANE( '', #221 );
#147 = FACE_OUTER_BOUND( '', #222, .T. );
#148 = PLANE( '', #223 );
#149 = FACE_OUTER_BOUND( '', #224, .T. );
#150 = PLANE( '', #225 );
#151 = FACE_OUTER_BOUND( '', #226, .T. );
#152 = PLANE( '', #227 );
#153 = FACE_OUTER_BOUND( '', #228, .T. );
#154 = PLANE( '', #229 );
#155 = FACE_OUTER_BOUND( '', #230, .T. );
#156 = PLANE( '', #231 );
#157 = FACE_OUTER_BOUND( '', #232, .T. );
#158 = PLANE( '', #233 );
#159 = EDGE_LOOP( '', ( #234, #235, #236, #237 ) );
#160 = AXIS2_PLACEMENT_3D( '', #238, #239, #240 );
#161 = EDGE_LOOP( '', ( #241, #242, #243, #244, #245 ) );
#162 = AXIS2_PLACEMENT_3D( '', #246, #247, #248 );
#163 = EDGE_LOOP( '', ( #249, #250, #251, #252, #253 ) );
#164 = AXIS2_PLACEMENT_3D( '', #254, #255, #256 );
#165 = EDGE_LOOP( '', ( #257, #258, #259, #260 ) );
#166 = EDGE_LOOP( '', ( #261, #262, #263, #264, #265, #266, #267, #268, #269, #270, #271, #272, #273, #274, #275, #276, #277, #278, #279, #280, #281, #282 ) );
#167 = AXIS2_PLACEMENT_3D( '', #283, #284, #285 );
#168 = EDGE_LOOP( '', ( #286, #287, #288, #289 ) );
#169 = AXIS2_PLACEMENT_3D( '', #290, #291, #292 );
#170 = EDGE_LOOP( '', ( #293, #294, #295, #296 ) );
#171 = AXIS2_PLACEMENT_3D( '', #297, #298, #299 );
#172 = EDGE_LOOP( '', ( #300, #301, #302, #303 ) );
#173 = AXIS2_PLACEMENT_3D( '', #304, #305, #306 );
#174 = EDGE_LOOP( '', ( #307, #308, #309, #310 ) );
#175 = AXIS2_PLACEMENT_3D( '', #311, #312, #313 );
#176 = EDGE_LOOP( '', ( #314, #315, #316, #317, #318, #319, #320, #321, #322, #323, #324, #325 ) );
#177 = AXIS2_PLACEMENT_3D( '', #326, #327, #328 );
#178 = EDGE_LOOP( '', ( #329, #330, #331, #332, #333, #334, #335, #336, #337, #338, #339, #340 ) );
#179 = AXIS2_PLACEMENT_3D( '', #341, #342, #343 );
#180 = EDGE_LOOP( '', ( #344, #345, #346, #347 ) );
#181 = AXIS2_PLACEMENT_3D( '', #348, #349, #350 );
#182 = EDGE_LOOP( '', ( #351, #352, #353, #354 ) );
#183 = AXIS2_PLACEMENT_3D( '', #355, #356, #357 );
#184 = EDGE_LOOP( '', ( #358, #359, #360, #361 ) );
#185 = AXIS2_PLACEMENT_3D( '', #362, #363, #364 );
#186 = EDGE_LOOP( '', ( #365, #366, #367, #368 ) );
#187 = AXIS2_PLACEMENT_3D( '', #369, #370, #371 );
#188 = EDGE_LOOP( '', ( #372, #373, #374, #375 ) );
#189 = AXIS2_PLACEMENT_3D( '', #376, #377, #378 );
#190 = EDGE_LOOP( '', ( #379, #380, #381, #382 ) );
#191 = AXIS2_PLACEMENT_3D( '', #383, #384, #385 );
#192 = EDGE_LOOP( '', ( #386, #387, #388, #389 ) );
#193 = AXIS2_PLACEMENT_3D( '', #390, #391, #392 );
#194 = EDGE_LOOP( '', ( #393, #394, #395, #396 ) );
#195 = AXIS2_PLACEMENT_3D( '', #397, #398, #399 );
#196 = EDGE_LOOP( '', ( #400, #401, #402, #403 ) );
#197 = AXIS2_PLACEMENT_3D( '', #404, #405, #406 );
#198 = EDGE_LOOP( '', ( #407, #408, #409, #410 ) );
#199 = AXIS2_PLACEMENT_3D( '', #411, #412, #413 );
#200 = EDGE_LOOP( '', ( #414, #415, #416, #417 ) );
#201 = AXIS2_PLACEMENT_3D( '', #418, #419, #420 );
#202 = EDGE_LOOP( '', ( #421, #422, #423, #424 ) );
#203 = AXIS2_PLACEMENT_3D( '', #425, #426, #427 );
#204 = EDGE_LOOP( '', ( #428, #429, #430, #431 ) );
#205 = AXIS2_PLACEMENT_3D( '', #432, #433, #434 );
#206 = EDGE_LOOP( '', ( #435, #436, #437, #438, #439, #440 ) );
#207 = AXIS2_PLACEMENT_3D( '', #441, #442, #443 );
#208 = EDGE_LOOP( '', ( #444, #445, #446, #447, #448, #449 ) );
#209 = AXIS2_PLACEMENT_3D( '', #450, #451, #452 );
#210 = EDGE_LOOP( '', ( #453, #454, #455, #456, #457, #458, #459, #460 ) );
#211 = AXIS2_PLACEMENT_3D( '', #461, #462, #463 );
#212 = EDGE_LOOP( '', ( #464, #465, #466, #467, #468, #469, #470, #471 ) );
#213 = AXIS2_PLACEMENT_3D( '', #472, #473, #474 );
#214 = EDGE_LOOP( '', ( #475, #476, #477, #478 ) );
#215 = AXIS2_PLACEMENT_3D( '', #479, #480, #481 );
#216 = EDGE_LOOP( '', ( #482, #483, #484, #485 ) );
#217 = AXIS2_PLACEMENT_3D( '', #486, #487, #488 );
#218 = EDGE_LOOP( '', ( #489, #490, #491, #492 ) );
#219 = AXIS2_PLACEMENT_3D( '', #493, #494, #495 );
#220 = EDGE_LOOP( '', ( #496, #497, #498, #499 ) );
#221 = AXIS2_PLACEMENT_3D( '', #500, #501, #502 );
#222 = EDGE_LOOP( '', ( #503, #504, #505, #506 ) );
#223 = AXIS2_PLACEMENT_3D( '', #507, #508, #509 );
#224 = EDGE_LOOP( '', ( #510, #511, #512, #513 ) );
#225 = AXIS2_PLACEMENT_3D( '', #514, #515, #516 );
#226 = EDGE_LOOP( '', ( #517, #518, #519, #520 ) );
#227 = AXIS2_PLACEMENT_3D( '', #521, #522, #523 );
#228 = EDGE_LOOP( '', ( #524, #525, #526, #527 ) );
#229 = AXIS2_PLACEMENT_3D( '', #528, #529, #530 );
#230 = EDGE_LOOP( '', ( #531, #532, #533, #534 ) );
#231 = AXIS2_PLACEMENT_3D( '', #535, #536, #537 );
#232 = EDGE_LOOP( '', ( #538, #539, #540, #541 ) );
#233 = AXIS2_PLACEMENT_3D( '', #542, #543, #544 );
#234 = ORIENTED_EDGE( '', *, *, #545, .F. );
#235 = ORIENTED_EDGE( '', *, *, #546, .F. );
#236 = ORIENTED_EDGE( '', *, *, #547, .F. );
#237 = ORIENTED_EDGE( '', *, *, #548, .F. );
#238 = CARTESIAN_POINT( '', ( 0.0711715728752539, 1.04083408558608E-17, 0.00680000000000000 ) );
#239 = DIRECTION( '', ( -0.00000000000000, -0.00000000000000, 1.00000000000000 ) );
#240 = DIRECTION( '', ( -1.00000000000000, 0.00000000000000, 0.00000000000000 ) );
#241 = ORIENTED_EDGE( '', *, *, #549, .F. );
#242 = ORIENTED_EDGE( '', *, *, #550, .F. );
#243 = ORIENTED_EDGE( '', *, *, #551, .F. );
#244 = ORIENTED_EDGE( '', *, *, #552, .F. );
#245 = ORIENTED_EDGE( '', *, *, #553, .F. );
#246 = CARTESIAN_POINT( '', ( 0.0616715728752538, 0.00950000000000000, 0.00680000000000000 ) );
#247 = DIRECTION( '', ( -0.00000000000000, -0.00000000000000, 1.00000000000000 ) );
#248 = DIRECTION( '', ( -1.00000000000000, 0.00000000000000, 0.00000000000000 ) );
#249 = ORIENTED_EDGE( '', *, *, #554, .F. );
#250 = ORIENTED_EDGE( '', *, *, #555, .F. );
#251 = ORIENTED_EDGE( '', *, *, #556, .F. );
#252 = ORIENTED_EDGE( '', *, *, #557, .F. );
#253 = ORIENTED_EDGE( '', *, *, #558, .F. );
#254 = CARTESIAN_POINT( '', ( 0.0616715728752538, -0.00950000000000000, 0.00680000000000000 ) );
#255 = DIRECTION( '', ( -0.00000000000000, -0.00000000000000, -1.00000000000000 ) );
#256 = DIRECTION( '', ( 1.00000000000000, 0.00000000000000, 0.00000000000000 ) );
#257 = ORIENTED_EDGE( '', *, *, #559, .F. );
#258 = ORIENTED_EDGE( '', *, *, #560, .T. );
#259 = ORIENTED_EDGE( '', *, *, #561, .T. );
#260 = ORIENTED_EDGE( '', *, *, #562, .F. );
#261 = ORIENTED_EDGE( '', *, *, #563, .T. );
#262 = ORIENTED_EDGE( '', *, *, #564, .T. );
#263 = ORIENTED_EDGE( '', *, *, #565, .F. );
#264 = ORIENTED_EDGE( '', *, *, #566, .T. );
#265 = ORIENTED_EDGE( '', *, *, #567, .F. );
#266 = ORIENTED_EDGE( '', *, *, #568, .T. );
#267 = ORIENTED_EDGE( '', *, *, #569, .F. );
#268 = ORIENTED_EDGE( '', *, *, #570, .F. );
#269 = ORIENTED_EDGE( '', *, *, #571, .F. );
#270 = ORIENTED_EDGE( '', *, *, #572, .F. );
#271 = ORIENTED_EDGE( '', *, *, #573, .F. );
#272 = ORIENTED_EDGE( '', *, *, #574, .F. );
#273 = ORIENTED_EDGE( '', *, *, #575, .T. );
#274 = ORIENTED_EDGE( '', *, *, #576, .F. );
#275 = ORIENTED_EDGE( '', *, *, #577, .F. );
#276 = ORIENTED_EDGE( '', *, *, #578, .T. );
#277 = ORIENTED_EDGE( '', *, *, #579, .T. );
#278 = ORIENTED_EDGE( '', *, *, #580, .F. );
#279 = ORIENTED_EDGE( '', *, *, #581, .F. );
#280 = ORIENTED_EDGE( '', *, *, #582, .T. );
#281 = ORIENTED_EDGE( '', *, *, #583, .F. );
#282 = ORIENTED_EDGE( '', *, *, #584, .T. );
#283 = CARTESIAN_POINT( '', ( 0.0520000000000000, -3.46944695195361E-18, 0.00580000000000000 ) );
#284 = DIRECTION( '', ( 0.00000000000000, 0.00000000000000, 1.00000000000000 ) );
#285 = DIRECTION( '', ( 1.00000000000000, 0.00000000000000, 0.00000000000000 ) );
#286 = ORIENTED_EDGE( '', *, *, #585, .F. );
#287 = ORIENTED_EDGE( '', *, *, #574, .T. );
#288 = ORIENTED_EDGE( '', *, *, #586, .F. );
#289 = ORIENTED_EDGE( '', *, *, #587, .F. );
#290 = CARTESIAN_POINT( '', ( 0.0423284271247462, 0.00950000000000000, 0.00680000000000000 ) );
#291 = DIRECTION( '', ( -0.00000000000000, -0.00000000000000, -1.00000000000000 ) );
#292 = DIRECTION( '', ( 1.00000000000000, 0.00000000000000, 0.00000000000000 ) );
#293 = ORIENTED_EDGE( '', *, *, #567, .T. );
#294 = ORIENTED_EDGE( '', *, *, #588, .T. );
#295 = ORIENTED_EDGE( '', *, *, #589, .T. );
#296 = ORIENTED_EDGE( '', *, *, #590, .T. );
#297 = CARTESIAN_POINT( '', ( 0.0616715728752538, -0.00950000000000000, 0.00680000000000000 ) );
#298 = DIRECTION( '', ( -0.00000000000000, -0.00000000000000, -1.00000000000000 ) );
#299 = DIRECTION( '', ( 1.00000000000000, 0.00000000000000, 0.00000000000000 ) );
#300 = ORIENTED_EDGE( '', *, *, #583, .T. );
#301 = ORIENTED_EDGE( '', *, *, #591, .T. );
#302 = ORIENTED_EDGE( '', *, *, #592, .T. );
#303 = ORIENTED_EDGE( '', *, *, #593, .T. );
#304 = CARTESIAN_POINT( '', ( 0.0711715728752539, 1.04083408558608E-17, 0.00680000000000000 ) );
#305 = DIRECTION( '', ( -0.00000000000000, -0.00000000000000, 1.00000000000000 ) );
#306 = DIRECTION( '', ( -1.00000000000000, 0.00000000000000, 0.00000000000000 ) );
#307 = ORIENTED_EDGE( '', *, *, #577, .T. );
#308 = ORIENTED_EDGE( '', *, *, #594, .T. );
#309 = ORIENTED_EDGE( '', *, *, #595, .T. );
#310 = ORIENTED_EDGE( '', *, *, #596, .T. );
#311 = CARTESIAN_POINT( '', ( 0.0616715728752538, 0.00950000000000000, 0.00680000000000000 ) );
#312 = DIRECTION( '', ( -0.00000000000000, -0.00000000000000, 1.00000000000000 ) );
#313 = DIRECTION( '', ( -1.00000000000000, 0.00000000000000, 0.00000000000000 ) );
#314 = ORIENTED_EDGE( '', *, *, #597, .F. );
#315 = ORIENTED_EDGE( '', *, *, #587, .T. );
#316 = ORIENTED_EDGE( '', *, *, #598, .T. );
#317 = ORIENTED_EDGE( '', *, *, #599, .T. );
#318 = ORIENTED_EDGE( '', *, *, #600, .T. );
#319 = ORIENTED_EDGE( '', *, *, #601, .T. );
#320 = ORIENTED_EDGE( '', *, *, #602, .T. );
#321 = ORIENTED_EDGE( '', *, *, #554, .T. );
#322 = ORIENTED_EDGE( '', *, *, #603, .F. );
#323 = ORIENTED_EDGE( '', *, *, #545, .T. );
#324 = ORIENTED_EDGE( '', *, *, #604, .F. );
#325 = ORIENTED_EDGE( '', *, *, #549, .T. );
#326 = CARTESIAN_POINT( '', ( 0.0520000000000000, -3.46944695195361E-18, 0.00680000000000000 ) );
#327 = DIRECTION( '', ( 0.00000000000000, 0.00000000000000, 1.00000000000000 ) );
#328 = DIRECTION( '', ( 1.00000000000000, 0.00000000000000, 0.00000000000000 ) );
#329 = ORIENTED_EDGE( '', *, *, #595, .F. );
#330 = ORIENTED_EDGE( '', *, *, #605, .T. );
#331 = ORIENTED_EDGE( '', *, *, #551, .T. );
#332 = ORIENTED_EDGE( '', *, *, #606, .T. );
#333 = ORIENTED_EDGE( '', *, *, #547, .T. );
#334 = ORIENTED_EDGE( '', *, *, #607, .T. );
#335 = ORIENTED_EDGE( '', *, *, #557, .T. );
#336 = ORIENTED_EDGE( '', *, *, #608, .F. );
#337 = ORIENTED_EDGE( '', *, *, #589, .F. );
#338 = ORIENTED_EDGE( '', *, *, #609, .F. );
#339 = ORIENTED_EDGE( '', *, *, #592, .F. );
#340 = ORIENTED_EDGE( '', *, *, #610, .F. );
#341 = CARTESIAN_POINT( '', ( 0.0520000000000000, -3.46944695195361E-18, 0.00000000000000 ) );
#342 = DIRECTION( '', ( 0.00000000000000, 0.00000000000000, 1.00000000000000 ) );
#343 = DIRECTION( '', ( 1.00000000000000, 0.00000000000000, 0.00000000000000 ) );
#344 = ORIENTED_EDGE( '', *, *, #604, .T. );
#345 = ORIENTED_EDGE( '', *, *, #548, .T. );
#346 = ORIENTED_EDGE( '', *, *, #606, .F. );
#347 = ORIENTED_EDGE( '', *, *, #550, .T. );
#348 = CARTESIAN_POINT( '', ( 0.0548035496348560, 0.0191964503651440, 0.00680000000000000 ) );
#349 = DIRECTION( '', ( 0.707106781186546, 0.707106781186549, 0.00000000000000 ) );
#350 = DIRECTION( '', ( -0.707106781186549, 0.707106781186546, 0.00000000000000 ) );
#351 = ORIENTED_EDGE( '', *, *, #603, .T. );
#352 = ORIENTED_EDGE( '', *, *, #558, .T. );
#353 = ORIENTED_EDGE( '', *, *, #607, .F. );
#354 = ORIENTED_EDGE( '', *, *, #546, .T. );
#355 = CARTESIAN_POINT( '', ( 0.0525161912592535, -0.0214838087407465, 0.00680000000000000 ) );
#356 = DIRECTION( '', ( 0.707106781186547, -0.707106781186548, 0.00000000000000 ) );
#357 = DIRECTION( '', ( 0.707106781186548, 0.707106781186547, 0.00000000000000 ) );
#358 = ORIENTED_EDGE( '', *, *, #611, .T. );
#359 = ORIENTED_EDGE( '', *, *, #569, .T. );
#360 = ORIENTED_EDGE( '', *, *, #555, .T. );
#361 = ORIENTED_EDGE( '', *, *, #602, .F. );
#362 = CARTESIAN_POINT( '', ( 0.0256961567109672, -0.0115000000000000, 0.00680000000000000 ) );
#363 = DIRECTION( '', ( 0.00000000000000, 1.00000000000000, 0.00000000000000 ) );
#364 = DIRECTION( '', ( 0.00000000000000, 0.00000000000000, 1.00000000000000 ) );
#365 = ORIENTED_EDGE( '', *, *, #612, .T. );
#366 = ORIENTED_EDGE( '', *, *, #571, .T. );
#367 = ORIENTED_EDGE( '', *, *, #613, .T. );
#368 = ORIENTED_EDGE( '', *, *, #600, .F. );
#369 = CARTESIAN_POINT( '', ( 0.0244229325037215, 0.00557706749627855, 0.00680000000000000 ) );
#370 = DIRECTION( '', ( 0.707106781186547, 0.707106781186548, 0.00000000000000 ) );
#371 = DIRECTION( '', ( -0.707106781186548, 0.707106781186547, 0.00000000000000 ) );
#372 = ORIENTED_EDGE( '', *, *, #586, .T. );
#373 = ORIENTED_EDGE( '', *, *, #573, .T. );
#374 = ORIENTED_EDGE( '', *, *, #614, .T. );
#375 = ORIENTED_EDGE( '', *, *, #598, .F. );
#376 = CARTESIAN_POINT( '', ( 0.0262841043054111, -0.00371589569458890, 0.00680000000000000 ) );
#377 = DIRECTION( '', ( 0.707106781186547, -0.707106781186548, 0.00000000000000 ) );
#378 = DIRECTION( '', ( 0.707106781186548, 0.707106781186547, 0.00000000000000 ) );
#379 = ORIENTED_EDGE( '', *, *, #575, .F. );
#380 = ORIENTED_EDGE( '', *, *, #585, .T. );
#381 = ORIENTED_EDGE( '', *, *, #597, .T. );
#382 = ORIENTED_EDGE( '', *, *, #553, .T. );
#383 = CARTESIAN_POINT( '', ( 0.0233013608859603, 0.0115000000000000, 0.00680000000000000 ) );
#384 = DIRECTION( '', ( 0.00000000000000, 1.00000000000000, 0.00000000000000 ) );
#385 = DIRECTION( '', ( 0.00000000000000, 0.00000000000000, 1.00000000000000 ) );
#386 = ORIENTED_EDGE( '', *, *, #614, .F. );
#387 = ORIENTED_EDGE( '', *, *, #572, .T. );
#388 = ORIENTED_EDGE( '', *, *, #612, .F. );
#389 = ORIENTED_EDGE( '', *, *, #599, .F. );
#390 = CARTESIAN_POINT( '', ( 0.0328284271247462, -5.20417042793042E-18, 0.00680000000000000 ) );
#391 = DIRECTION( '', ( -0.00000000000000, -0.00000000000000, 1.00000000000000 ) );
#392 = DIRECTION( '', ( -1.00000000000000, 0.00000000000000, 0.00000000000000 ) );
#393 = ORIENTED_EDGE( '', *, *, #613, .F. );
#394 = ORIENTED_EDGE( '', *, *, #570, .T. );
#395 = ORIENTED_EDGE( '', *, *, #611, .F. );
#396 = ORIENTED_EDGE( '', *, *, #601, .F. );
#397 = CARTESIAN_POINT( '', ( 0.0423284271247462, -0.00950000000000000, 0.00680000000000000 ) );
#398 = DIRECTION( '', ( -0.00000000000000, -0.00000000000000, 1.00000000000000 ) );
#399 = DIRECTION( '', ( -1.00000000000000, 0.00000000000000, 0.00000000000000 ) );
#400 = ORIENTED_EDGE( '', *, *, #615, .T. );
#401 = ORIENTED_EDGE( '', *, *, #616, .F. );
#402 = ORIENTED_EDGE( '', *, *, #617, .F. );
#403 = ORIENTED_EDGE( '', *, *, #618, .T. );
#404 = CARTESIAN_POINT( '', ( 0.0646715728752538, 3.39494731505667E-22, 0.00290000000000000 ) );
#405 = DIRECTION( '', ( 1.00000000000000, -0.00000000000000, -0.00000000000000 ) );
#406 = DIRECTION( '', ( 0.00000000000000, 0.00000000000000, 1.00000000000000 ) );
#407 = ORIENTED_EDGE( '', *, *, #619, .F. );
#408 = ORIENTED_EDGE( '', *, *, #618, .F. );
#409 = ORIENTED_EDGE( '', *, *, #620, .T. );
#410 = ORIENTED_EDGE( '', *, *, #621, .T. );
#411 = CARTESIAN_POINT( '', ( 0.0646715728752538, -0.00245802032261630, 0.00200535376734626 ) );
#412 = DIRECTION( '', ( 0.00000000000000, 0.342020143325669, -0.939692620785908 ) );
#413 = DIRECTION( '', ( 0.00000000000000, 0.939692620785908, 0.342020143325669 ) );
#414 = ORIENTED_EDGE( '', *, *, #622, .F. );
#415 = ORIENTED_EDGE( '', *, *, #621, .F. );
#416 = ORIENTED_EDGE( '', *, *, #623, .T. );
#417 = ORIENTED_EDGE( '', *, *, #562, .T. );
#418 = CARTESIAN_POINT( '', ( 0.0646715728752538, 3.39494731505667E-22, 0.00290000000000000 ) );
#419 = DIRECTION( '', ( 1.00000000000000, -0.00000000000000, -0.00000000000000 ) );
#420 = DIRECTION( '', ( 0.00000000000000, 0.00000000000000, 1.00000000000000 ) );
#421 = ORIENTED_EDGE( '', *, *, #624, .F. );
#422 = ORIENTED_EDGE( '', *, *, #560, .F. );
#423 = ORIENTED_EDGE( '', *, *, #625, .T. );
#424 = ORIENTED_EDGE( '', *, *, #626, .T. );
#425 = CARTESIAN_POINT( '', ( 0.0646715728752538, 3.39494731505667E-22, 0.00290000000000000 ) );
#426 = DIRECTION( '', ( 1.00000000000000, -0.00000000000000, -0.00000000000000 ) );
#427 = DIRECTION( '', ( 0.00000000000000, 0.00000000000000, 1.00000000000000 ) );
#428 = ORIENTED_EDGE( '', *, *, #627, .F. );
#429 = ORIENTED_EDGE( '', *, *, #626, .F. );
#430 = ORIENTED_EDGE( '', *, *, #628, .T. );
#431 = ORIENTED_EDGE( '', *, *, #616, .T. );
#432 = CARTESIAN_POINT( '', ( 0.0646715728752538, 0.00166200327377190, 0.00229508027909404 ) );
#433 = DIRECTION( '', ( 0.00000000000000, -0.342020143325669, -0.939692620785908 ) );
#434 = DIRECTION( '', ( 0.00000000000000, 0.939692620785908, -0.342020143325669 ) );
#435 = ORIENTED_EDGE( '', *, *, #617, .T. );
#436 = ORIENTED_EDGE( '', *, *, #628, .F. );
#437 = ORIENTED_EDGE( '', *, *, #625, .F. );
#438 = ORIENTED_EDGE( '', *, *, #559, .T. );
#439 = ORIENTED_EDGE( '', *, *, #623, .F. );
#440 = ORIENTED_EDGE( '', *, *, #620, .F. );
#441 = CARTESIAN_POINT( '', ( 0.0646715728752538, -6.93889390390723E-18, 0.00290000000000000 ) );
#442 = DIRECTION( '', ( -1.00000000000000, 0.00000000000000, 0.00000000000000 ) );
#443 = DIRECTION( '', ( 0.00000000000000, -1.00000000000000, 0.00000000000000 ) );
#444 = ORIENTED_EDGE( '', *, *, #615, .F. );
#445 = ORIENTED_EDGE( '', *, *, #619, .T. );
#446 = ORIENTED_EDGE( '', *, *, #622, .T. );
#447 = ORIENTED_EDGE( '', *, *, #561, .F. );
#448 = ORIENTED_EDGE( '', *, *, #624, .T. );
#449 = ORIENTED_EDGE( '', *, *, #627, .T. );
#450 = CARTESIAN_POINT( '', ( 0.0616715728752538, -6.93889390390723E-18, 0.00290000000000000 ) );
#451 = DIRECTION( '', ( -1.00000000000000, 0.00000000000000, 0.00000000000000 ) );
#452 = DIRECTION( '', ( 0.00000000000000, -1.00000000000000, 0.00000000000000 ) );
#453 = ORIENTED_EDGE( '', *, *, #629, .F. );
#454 = ORIENTED_EDGE( '', *, *, #630, .T. );
#455 = ORIENTED_EDGE( '', *, *, #578, .F. );
#456 = ORIENTED_EDGE( '', *, *, #596, .F. );
#457 = ORIENTED_EDGE( '', *, *, #610, .T. );
#458 = ORIENTED_EDGE( '', *, *, #591, .F. );
#459 = ORIENTED_EDGE( '', *, *, #582, .F. );
#460 = ORIENTED_EDGE( '', *, *, #631, .F. );
#461 = CARTESIAN_POINT( '', ( 0.0540964428536695, 0.0184893435839575, 0.00680000000000000 ) );
#462 = DIRECTION( '', ( 0.707106781186546, 0.707106781186549, 0.00000000000000 ) );
#463 = DIRECTION( '', ( -0.707106781186549, 0.707106781186546, 0.00000000000000 ) );
#464 = ORIENTED_EDGE( '', *, *, #566, .F. );
#465 = ORIENTED_EDGE( '', *, *, #632, .T. );
#466 = ORIENTED_EDGE( '', *, *, #633, .T. );
#467 = ORIENTED_EDGE( '', *, *, #634, .T. );
#468 = ORIENTED_EDGE( '', *, *, #584, .F. );
#469 = ORIENTED_EDGE( '', *, *, #593, .F. );
#470 = ORIENTED_EDGE( '', *, *, #609, .T. );
#471 = ORIENTED_EDGE( '', *, *, #588, .F. );
#472 = CARTESIAN_POINT( '', ( 0.0518090844780670, -0.0207767019595599, 0.00680000000000000 ) );
#473 = DIRECTION( '', ( 0.707106781186547, -0.707106781186548, 0.00000000000000 ) );
#474 = DIRECTION( '', ( 0.707106781186548, 0.707106781186547, 0.00000000000000 ) );
#475 = ORIENTED_EDGE( '', *, *, #635, .F. );
#476 = ORIENTED_EDGE( '', *, *, #636, .T. );
#477 = ORIENTED_EDGE( '', *, *, #637, .T. );
#478 = ORIENTED_EDGE( '', *, *, #580, .T. );
#479 = CARTESIAN_POINT( '', ( 0.0436715728752539, 3.46944695195361E-18, 0.00340000000000000 ) );
#480 = DIRECTION( '', ( -1.00000000000000, 0.00000000000000, 0.00000000000000 ) );
#481 = DIRECTION( '', ( 0.00000000000000, -1.00000000000000, 0.00000000000000 ) );
#482 = ORIENTED_EDGE( '', *, *, #638, .F. );
#483 = ORIENTED_EDGE( '', *, *, #639, .F. );
#484 = ORIENTED_EDGE( '', *, *, #564, .F. );
#485 = ORIENTED_EDGE( '', *, *, #640, .F. );
#486 = CARTESIAN_POINT( '', ( 0.0436715728752539, 3.46944695195361E-18, 0.00340000000000000 ) );
#487 = DIRECTION( '', ( -1.00000000000000, 0.00000000000000, 0.00000000000000 ) );
#488 = DIRECTION( '', ( 0.00000000000000, -1.00000000000000, 0.00000000000000 ) );
#489 = ORIENTED_EDGE( '', *, *, #633, .F. );
#490 = ORIENTED_EDGE( '', *, *, #641, .T. );
#491 = ORIENTED_EDGE( '', *, *, #638, .T. );
#492 = ORIENTED_EDGE( '', *, *, #642, .F. );
#493 = CARTESIAN_POINT( '', ( 500.000000000000, -0.00946392996292560, 0.00456392996292561 ) );
#494 = DIRECTION( '', ( 0.00000000000000, 0.707106781186548, 0.707106781186547 ) );
#495 = DIRECTION( '', ( 0.00000000000000, -0.707106781186547, 0.707106781186548 ) );
#496 = ORIENTED_EDGE( '', *, *, #634, .F. );
#497 = ORIENTED_EDGE( '', *, *, #642, .T. );
#498 = ORIENTED_EDGE( '', *, *, #640, .T. );
#499 = ORIENTED_EDGE( '', *, *, #563, .F. );
#500 = CARTESIAN_POINT( '', ( 500.000000000000, -0.00795568211995354, 0.00454431788004646 ) );
#501 = DIRECTION( '', ( 0.00000000000000, -0.707106781186547, 0.707106781186548 ) );
#502 = DIRECTION( '', ( 0.00000000000000, -0.707106781186548, -0.707106781186547 ) );
#503 = ORIENTED_EDGE( '', *, *, #632, .F. );
#504 = ORIENTED_EDGE( '', *, *, #565, .T. );
#505 = ORIENTED_EDGE( '', *, *, #639, .T. );
#506 = ORIENTED_EDGE( '', *, *, #641, .F. );
#507 = CARTESIAN_POINT( '', ( 500.000000000000, -0.00892952652150085, 0.00517047347849914 ) );
#508 = DIRECTION( '', ( 0.00000000000000, 0.707106781186547, -0.707106781186548 ) );
#509 = DIRECTION( '', ( 0.00000000000000, 0.707106781186548, 0.707106781186547 ) );
#510 = ORIENTED_EDGE( '', *, *, #630, .F. );
#511 = ORIENTED_EDGE( '', *, *, #643, .T. );
#512 = ORIENTED_EDGE( '', *, *, #635, .T. );
#513 = ORIENTED_EDGE( '', *, *, #579, .F. );
#514 = CARTESIAN_POINT( '', ( 500.000000000000, 0.00890000000000000, 0.00520000000000000 ) );
#515 = DIRECTION( '', ( 0.00000000000000, -0.707106781186547, -0.707106781186548 ) );
#516 = DIRECTION( '', ( 0.00000000000000, 0.707106781186548, -0.707106781186547 ) );
#517 = ORIENTED_EDGE( '', *, *, #644, .F. );
#518 = ORIENTED_EDGE( '', *, *, #631, .T. );
#519 = ORIENTED_EDGE( '', *, *, #581, .T. );
#520 = ORIENTED_EDGE( '', *, *, #637, .F. );
#521 = CARTESIAN_POINT( '', ( 500.000000000000, 0.00809807238099842, 0.00440192761900159 ) );
#522 = DIRECTION( '', ( 0.00000000000000, -0.707106781186547, -0.707106781186548 ) );
#523 = DIRECTION( '', ( 0.00000000000000, 0.707106781186548, -0.707106781186547 ) );
#524 = ORIENTED_EDGE( '', *, *, #643, .F. );
#525 = ORIENTED_EDGE( '', *, *, #629, .T. );
#526 = ORIENTED_EDGE( '', *, *, #644, .T. );
#527 = ORIENTED_EDGE( '', *, *, #636, .F. );
#528 = CARTESIAN_POINT( '', ( 500.000000000000, 0.00956638945545784, 0.00466638945545784 ) );
#529 = DIRECTION( '', ( 0.00000000000000, 0.707106781186548, -0.707106781186547 ) );
#530 = DIRECTION( '', ( 0.00000000000000, 0.707106781186547, 0.707106781186548 ) );
#531 = ORIENTED_EDGE( '', *, *, #556, .T. );
#532 = ORIENTED_EDGE( '', *, *, #568, .F. );
#533 = ORIENTED_EDGE( '', *, *, #590, .F. );
#534 = ORIENTED_EDGE( '', *, *, #608, .T. );
#535 = CARTESIAN_POINT( '', ( 0.0616715728752538, -0.0115000000000000, 0.00680000000000000 ) );
#536 = DIRECTION( '', ( 1.00000000000000, 0.00000000000000, 0.00000000000000 ) );
#537 = DIRECTION( '', ( 0.00000000000000, 0.00000000000000, -1.00000000000000 ) );
#538 = ORIENTED_EDGE( '', *, *, #552, .T. );
#539 = ORIENTED_EDGE( '', *, *, #605, .F. );
#540 = ORIENTED_EDGE( '', *, *, #594, .F. );
#541 = ORIENTED_EDGE( '', *, *, #576, .T. );
#542 = CARTESIAN_POINT( '', ( 0.0616715728752538, 0.0115000000000000, 0.00680000000000000 ) );
#543 = DIRECTION( '', ( 1.00000000000000, 0.00000000000000, 0.00000000000000 ) );
#544 = DIRECTION( '', ( 0.00000000000000, 0.00000000000000, -1.00000000000000 ) );
#545 = EDGE_CURVE( '', #645, #646, #647, .T. );
#546 = EDGE_CURVE( '', #648, #645, #649, .F. );
#547 = EDGE_CURVE( '', #650, #648, #651, .F. );
#548 = EDGE_CURVE( '', #646, #650, #652, .T. );
#549 = EDGE_CURVE( '', #653, #654, #655, .T. );
#550 = EDGE_CURVE( '', #656, #653, #657, .F. );
#551 = EDGE_CURVE( '', #658, #656, #659, .F. );
#552 = EDGE_CURVE( '', #660, #658, #661, .T. );
#553 = EDGE_CURVE( '', #654, #660, #662, .T. );
#554 = EDGE_CURVE( '', #663, #664, #665, .T. );
#555 = EDGE_CURVE( '', #666, #663, #667, .F. );
#556 = EDGE_CURVE( '', #668, #666, #669, .F. );
#557 = EDGE_CURVE( '', #670, #668, #671, .F. );
#558 = EDGE_CURVE( '', #664, #670, #672, .T. );
#559 = EDGE_CURVE( '', #673, #674, #675, .T. );
#560 = EDGE_CURVE( '', #673, #676, #677, .T. );
#561 = EDGE_CURVE( '', #676, #678, #679, .T. );
#562 = EDGE_CURVE( '', #674, #678, #680, .T. );
#563 = EDGE_CURVE( '', #681, #682, #683, .T. );
#564 = EDGE_CURVE( '', #682, #684, #685, .T. );
#565 = EDGE_CURVE( '', #686, #684, #687, .T. );
#566 = EDGE_CURVE( '', #686, #688, #689, .T. );
#567 = EDGE_CURVE( '', #690, #688, #691, .T. );
#568 = EDGE_CURVE( '', #690, #666, #692, .T. );
#569 = EDGE_CURVE( '', #693, #666, #694, .T. );
#570 = EDGE_CURVE( '', #695, #693, #696, .T. );
#571 = EDGE_CURVE( '', #697, #695, #698, .T. );
#572 = EDGE_CURVE( '', #699, #697, #700, .T. );
#573 = EDGE_CURVE( '', #701, #699, #702, .T. );
#574 = EDGE_CURVE( '', #703, #701, #704, .T. );
#575 = EDGE_CURVE( '', #703, #660, #705, .T. );
#576 = EDGE_CURVE( '', #706, #660, #707, .T. );
#577 = EDGE_CURVE( '', #708, #706, #709, .T. );
#578 = EDGE_CURVE( '', #708, #710, #711, .T. );
#579 = EDGE_CURVE( '', #710, #712, #713, .T. );
#580 = EDGE_CURVE( '', #714, #712, #715, .T. );
#581 = EDGE_CURVE( '', #716, #714, #717, .T. );
#582 = EDGE_CURVE( '', #716, #718, #719, .T. );
#583 = EDGE_CURVE( '', #720, #718, #721, .T. );
#584 = EDGE_CURVE( '', #720, #681, #722, .T. );
#585 = EDGE_CURVE( '', #703, #723, #724, .F. );
#586 = EDGE_CURVE( '', #725, #701, #726, .T. );
#587 = EDGE_CURVE( '', #723, #725, #727, .T. );
#588 = EDGE_CURVE( '', #688, #728, #729, .F. );
#589 = EDGE_CURVE( '', #728, #730, #731, .F. );
#590 = EDGE_CURVE( '', #730, #690, #732, .T. );
#591 = EDGE_CURVE( '', #718, #733, #734, .F. );
#592 = EDGE_CURVE( '', #733, #735, #736, .F. );
#593 = EDGE_CURVE( '', #735, #720, #737, .T. );
#594 = EDGE_CURVE( '', #706, #738, #739, .T. );
#595 = EDGE_CURVE( '', #738, #740, #741, .F. );
#596 = EDGE_CURVE( '', #740, #708, #742, .T. );
#597 = EDGE_CURVE( '', #723, #654, #743, .T. );
#598 = EDGE_CURVE( '', #725, #744, #745, .T. );
#599 = EDGE_CURVE( '', #744, #746, #747, .T. );
#600 = EDGE_CURVE( '', #746, #748, #749, .T. );
#601 = EDGE_CURVE( '', #748, #750, #751, .T. );
#602 = EDGE_CURVE( '', #750, #663, #752, .T. );
#603 = EDGE_CURVE( '', #645, #664, #753, .T. );
#604 = EDGE_CURVE( '', #653, #646, #754, .T. );
#605 = EDGE_CURVE( '', #738, #658, #755, .F. );
#606 = EDGE_CURVE( '', #656, #650, #756, .T. );
#607 = EDGE_CURVE( '', #648, #670, #757, .T. );
#608 = EDGE_CURVE( '', #730, #668, #758, .T. );
#609 = EDGE_CURVE( '', #735, #728, #759, .T. );
#610 = EDGE_CURVE( '', #740, #733, #760, .T. );
#611 = EDGE_CURVE( '', #750, #693, #761, .T. );
#612 = EDGE_CURVE( '', #746, #697, #762, .T. );
#613 = EDGE_CURVE( '', #695, #748, #763, .F. );
#614 = EDGE_CURVE( '', #699, #744, #764, .F. );
#615 = EDGE_CURVE( '', #765, #766, #767, .T. );
#616 = EDGE_CURVE( '', #768, #766, #769, .T. );
#617 = EDGE_CURVE( '', #770, #768, #771, .T. );
#618 = EDGE_CURVE( '', #770, #765, #772, .T. );
#619 = EDGE_CURVE( '', #765, #773, #774, .T. );
#620 = EDGE_CURVE( '', #770, #775, #776, .T. );
#621 = EDGE_CURVE( '', #775, #773, #777, .T. );
#622 = EDGE_CURVE( '', #773, #678, #778, .T. );
#623 = EDGE_CURVE( '', #775, #674, #779, .T. );
#624 = EDGE_CURVE( '', #676, #780, #781, .T. );
#625 = EDGE_CURVE( '', #673, #782, #783, .T. );
#626 = EDGE_CURVE( '', #782, #780, #784, .T. );
#627 = EDGE_CURVE( '', #780, #766, #785, .T. );
#628 = EDGE_CURVE( '', #782, #768, #786, .T. );
#629 = EDGE_CURVE( '', #787, #788, #789, .T. );
#630 = EDGE_CURVE( '', #787, #710, #790, .T. );
#631 = EDGE_CURVE( '', #788, #716, #791, .T. );
#632 = EDGE_CURVE( '', #686, #792, #793, .T. );
#633 = EDGE_CURVE( '', #792, #794, #795, .T. );
#634 = EDGE_CURVE( '', #794, #681, #796, .T. );
#635 = EDGE_CURVE( '', #797, #712, #798, .T. );
#636 = EDGE_CURVE( '', #797, #799, #800, .T. );
#637 = EDGE_CURVE( '', #799, #714, #801, .T. );
#638 = EDGE_CURVE( '', #802, #803, #804, .T. );
#639 = EDGE_CURVE( '', #684, #802, #805, .T. );
#640 = EDGE_CURVE( '', #803, #682, #806, .T. );
#641 = EDGE_CURVE( '', #792, #802, #807, .T. );
#642 = EDGE_CURVE( '', #794, #803, #808, .T. );
#643 = EDGE_CURVE( '', #787, #797, #809, .T. );
#644 = EDGE_CURVE( '', #788, #799, #810, .T. );
#645 = VERTEX_POINT( '', #811 );
#646 = VERTEX_POINT( '', #812 );
#647 = CIRCLE( '', #813, 0.00200000000000000 );
#648 = VERTEX_POINT( '', #814 );
#649 = LINE( '', #815, #816 );
#650 = VERTEX_POINT( '', #817 );
#651 = CIRCLE( '', #818, 0.00200000000000000 );
#652 = LINE( '', #819, #820 );
#653 = VERTEX_POINT( '', #821 );
#654 = VERTEX_POINT( '', #822 );
#655 = CIRCLE( '', #823, 0.00200000000000000 );
#656 = VERTEX_POINT( '', #824 );
#657 = LINE( '', #825, #826 );
#658 = VERTEX_POINT( '', #827 );
#659 = CIRCLE( '', #828, 0.00200000000000000 );
#660 = VERTEX_POINT( '', #829 );
#661 = LINE( '', #830, #831 );
#662 = LINE( '', #832, #833 );
#663 = VERTEX_POINT( '', #834 );
#664 = VERTEX_POINT( '', #835 );
#665 = CIRCLE( '', #836, 0.00200000000000000 );
#666 = VERTEX_POINT( '', #837 );
#667 = LINE( '', #838, #839 );
#668 = VERTEX_POINT( '', #840 );
#669 = LINE( '', #841, #842 );
#670 = VERTEX_POINT( '', #843 );
#671 = CIRCLE( '', #844, 0.00200000000000000 );
#672 = LINE( '', #845, #846 );
#673 = VERTEX_POINT( '', #847 );
#674 = VERTEX_POINT( '', #848 );
#675 = LINE( '', #849, #850 );
#676 = VERTEX_POINT( '', #851 );
#677 = LINE( '', #852, #853 );
#678 = VERTEX_POINT( '', #854 );
#679 = LINE( '', #855, #856 );
#680 = LINE( '', #857, #858 );
#681 = VERTEX_POINT( '', #859 );
#682 = VERTEX_POINT( '', #860 );
#683 = LINE( '', #861, #862 );
#684 = VERTEX_POINT( '', #863 );
#685 = LINE( '', #864, #865 );
#686 = VERTEX_POINT( '', #866 );
#687 = LINE( '', #867, #868 );
#688 = VERTEX_POINT( '', #869 );
#689 = LINE( '', #870, #871 );
#690 = VERTEX_POINT( '', #872 );
#691 = CIRCLE( '', #873, 0.00100000000000000 );
#692 = LINE( '', #874, #875 );
#693 = VERTEX_POINT( '', #876 );
#694 = LINE( '', #877, #878 );
#695 = VERTEX_POINT( '', #879 );
#696 = CIRCLE( '', #880, 0.00200000000000000 );
#697 = VERTEX_POINT( '', #881 );
#698 = LINE( '', #882, #883 );
#699 = VERTEX_POINT( '', #884 );
#700 = CIRCLE( '', #885, 0.00200000000000000 );
#701 = VERTEX_POINT( '', #886 );
#702 = LINE( '', #887, #888 );
#703 = VERTEX_POINT( '', #889 );
#704 = CIRCLE( '', #890, 0.00200000000000000 );
#705 = LINE( '', #891, #892 );
#706 = VERTEX_POINT( '', #893 );
#707 = LINE( '', #894, #895 );
#708 = VERTEX_POINT( '', #896 );
#709 = CIRCLE( '', #897, 0.00100000000000000 );
#710 = VERTEX_POINT( '', #898 );
#711 = LINE( '', #899, #900 );
#712 = VERTEX_POINT( '', #901 );
#713 = LINE( '', #902, #903 );
#714 = VERTEX_POINT( '', #904 );
#715 = LINE( '', #905, #906 );
#716 = VERTEX_POINT( '', #907 );
#717 = LINE( '', #908, #909 );
#718 = VERTEX_POINT( '', #910 );
#719 = LINE( '', #911, #912 );
#720 = VERTEX_POINT( '', #913 );
#721 = CIRCLE( '', #914, 0.00100000000000000 );
#722 = LINE( '', #915, #916 );
#723 = VERTEX_POINT( '', #917 );
#724 = LINE( '', #918, #919 );
#725 = VERTEX_POINT( '', #920 );
#726 = LINE( '', #921, #922 );
#727 = CIRCLE( '', #923, 0.00200000000000000 );
#728 = VERTEX_POINT( '', #924 );
#729 = LINE( '', #925, #926 );
#730 = VERTEX_POINT( '', #927 );
#731 = CIRCLE( '', #928, 0.00100000000000000 );
#732 = LINE( '', #929, #930 );
#733 = VERTEX_POINT( '', #931 );
#734 = LINE( '', #932, #933 );
#735 = VERTEX_POINT( '', #934 );
#736 = CIRCLE( '', #935, 0.00100000000000000 );
#737 = LINE( '', #936, #937 );
#738 = VERTEX_POINT( '', #938 );
#739 = LINE( '', #939, #940 );
#740 = VERTEX_POINT( '', #941 );
#741 = CIRCLE( '', #942, 0.00100000000000000 );
#742 = LINE( '', #943, #944 );
#743 = LINE( '', #945, #946 );
#744 = VERTEX_POINT( '', #947 );
#745 = LINE( '', #948, #949 );
#746 = VERTEX_POINT( '', #950 );
#747 = CIRCLE( '', #951, 0.00200000000000000 );
#748 = VERTEX_POINT( '', #952 );
#749 = LINE( '', #953, #954 );
#750 = VERTEX_POINT( '', #955 );
#751 = CIRCLE( '', #956, 0.00200000000000000 );
#752 = LINE( '', #957, #958 );
#753 = LINE( '', #959, #960 );
#754 = LINE( '', #961, #962 );
#755 = LINE( '', #963, #964 );
#756 = LINE( '', #965, #966 );
#757 = LINE( '', #967, #968 );
#758 = LINE( '', #969, #970 );
#759 = LINE( '', #971, #972 );
#760 = LINE( '', #973, #974 );
#761 = LINE( '', #975, #976 );
#762 = LINE( '', #977, #978 );
#763 = LINE( '', #979, #980 );
#764 = LINE( '', #981, #982 );
#765 = VERTEX_POINT( '', #983 );
#766 = VERTEX_POINT( '', #984 );
#767 = CIRCLE( '', #985, 0.00240000000000000 );
#768 = VERTEX_POINT( '', #986 );
#769 = LINE( '', #987, #988 );
#770 = VERTEX_POINT( '', #989 );
#771 = CIRCLE( '', #990, 0.00240000000000000 );
#772 = LINE( '', #991, #992 );
#773 = VERTEX_POINT( '', #993 );
#774 = LINE( '', #994, #995 );
#775 = VERTEX_POINT( '', #996 );
#776 = LINE( '', #997, #998 );
#777 = LINE( '', #999, #1000 );
#778 = CIRCLE( '', #1001, 0.00440000000000000 );
#779 = CIRCLE( '', #1002, 0.00440000000000000 );
#780 = VERTEX_POINT( '', #1003 );
#781 = CIRCLE( '', #1004, 0.00440000000000000 );
#782 = VERTEX_POINT( '', #1005 );
#783 = CIRCLE( '', #1006, 0.00440000000000000 );
#784 = LINE( '', #1007, #1008 );
#785 = LINE( '', #1009, #1010 );
#786 = LINE( '', #1011, #1012 );
#787 = VERTEX_POINT( '', #1013 );
#788 = VERTEX_POINT( '', #1014 );
#789 = LINE( '', #1015, #1016 );
#790 = LINE( '', #1017, #1018 );
#791 = LINE( '', #1019, #1020 );
#792 = VERTEX_POINT( '', #1021 );
#793 = LINE( '', #1022, #1023 );
#794 = VERTEX_POINT( '', #1024 );
#795 = LINE( '', #1025, #1026 );
#796 = LINE( '', #1027, #1028 );
#797 = VERTEX_POINT( '', #1029 );
#798 = LINE( '', #1030, #1031 );
#799 = VERTEX_POINT( '', #1032 );
#800 = LINE( '', #1033, #1034 );
#801 = LINE( '', #1035, #1036 );
#802 = VERTEX_POINT( '', #1037 );
#803 = VERTEX_POINT( '', #1038 );
#804 = LINE( '', #1039, #1040 );
#805 = LINE( '', #1041, #1042 );
#806 = LINE( '', #1043, #1044 );
#807 = LINE( '', #1045, #1046 );
#808 = LINE( '', #1047, #1048 );
#809 = LINE( '', #1049, #1050 );
#810 = LINE( '', #1051, #1052 );
#811 = CARTESIAN_POINT( '', ( 0.0725857864376270, -0.00141421356237309, 0.00680000000000000 ) );
#812 = CARTESIAN_POINT( '', ( 0.0725857864376270, 0.00141421356237311, 0.00680000000000000 ) );
#813 = AXIS2_PLACEMENT_3D( '', #1053, #1054, #1055 );
#814 = CARTESIAN_POINT( '', ( 0.0725857864376270, -0.00141421356237309, 0.00000000000000 ) );
#815 = CARTESIAN_POINT( '', ( 0.0725857864376270, -0.00141421356237309, 0.00680000000000000 ) );
#816 = VECTOR( '', #1056, 1.00000000000000 );
#817 = CARTESIAN_POINT( '', ( 0.0725857864376270, 0.00141421356237311, 0.00000000000000 ) );
#818 = AXIS2_PLACEMENT_3D( '', #1057, #1058, #1059 );
#819 = CARTESIAN_POINT( '', ( 0.0725857864376270, 0.00141421356237311, 0.00680000000000000 ) );
#820 = VECTOR( '', #1060, 1.00000000000000 );
#821 = CARTESIAN_POINT( '', ( 0.0630857864376269, 0.0109142135623731, 0.00680000000000000 ) );
#822 = CARTESIAN_POINT( '', ( 0.0616715728752538, 0.0115000000000000, 0.00680000000000000 ) );
#823 = AXIS2_PLACEMENT_3D( '', #1061, #1062, #1063 );
#824 = CARTESIAN_POINT( '', ( 0.0630857864376269, 0.0109142135623731, 0.00000000000000 ) );
#825 = CARTESIAN_POINT( '', ( 0.0630857864376269, 0.0109142135623731, 0.00680000000000000 ) );
#826 = VECTOR( '', #1064, 1.00000000000000 );
#827 = CARTESIAN_POINT( '', ( 0.0616715728752538, 0.0115000000000000, 0.00000000000000 ) );
#828 = AXIS2_PLACEMENT_3D( '', #1065, #1066, #1067 );
#829 = CARTESIAN_POINT( '', ( 0.0616715728752538, 0.0115000000000000, 0.00580000000000000 ) );
#830 = CARTESIAN_POINT( '', ( 0.0616715728752538, 0.0115000000000000, 0.00680000000000000 ) );
#831 = VECTOR( '', #1068, 1.00000000000000 );
#832 = CARTESIAN_POINT( '', ( 0.0616715728752538, 0.0115000000000000, 0.00680000000000000 ) );
#833 = VECTOR( '', #1069, 1.00000000000000 );
#834 = CARTESIAN_POINT( '', ( 0.0616715728752538, -0.0115000000000000, 0.00680000000000000 ) );
#835 = CARTESIAN_POINT( '', ( 0.0630857864376269, -0.0109142135623731, 0.00680000000000000 ) );
#836 = AXIS2_PLACEMENT_3D( '', #1070, #1071, #1072 );
#837 = CARTESIAN_POINT( '', ( 0.0616715728752538, -0.0115000000000000, 0.00580000000000000 ) );
#838 = CARTESIAN_POINT( '', ( 0.0616715728752538, -0.0115000000000000, 0.00680000000000000 ) );
#839 = VECTOR( '', #1073, 1.00000000000000 );
#840 = CARTESIAN_POINT( '', ( 0.0616715728752538, -0.0115000000000000, 0.00000000000000 ) );
#841 = CARTESIAN_POINT( '', ( 0.0616715728752538, -0.0115000000000000, 0.00680000000000000 ) );
#842 = VECTOR( '', #1074, 1.00000000000000 );
#843 = CARTESIAN_POINT( '', ( 0.0630857864376269, -0.0109142135623731, 0.00000000000000 ) );
#844 = AXIS2_PLACEMENT_3D( '', #1075, #1076, #1077 );
#845 = CARTESIAN_POINT( '', ( 0.0630857864376269, -0.0109142135623731, 0.00000000000000 ) );
#846 = VECTOR( '', #1078, 1.00000000000000 );
#847 = CARTESIAN_POINT( '', ( 0.0646715728752538, 0.00330907842155486, 0.00580000000000000 ) );
#848 = CARTESIAN_POINT( '', ( 0.0646715728752538, -0.00330907842155486, 0.00580000000000000 ) );
#849 = CARTESIAN_POINT( '', ( 0.0646715728752538, -0.000841756642550535, 0.00580000000000000 ) );
#850 = VECTOR( '', #1079, 1.00000000000000 );
#851 = CARTESIAN_POINT( '', ( 0.0616715728752538, 0.00330907842155486, 0.00580000000000000 ) );
#852 = CARTESIAN_POINT( '', ( 0.0646715728752538, 0.00330907842155486, 0.00580000000000000 ) );
#853 = VECTOR( '', #1080, 1.00000000000000 );
#854 = CARTESIAN_POINT( '', ( 0.0616715728752538, -0.00330907842155486, 0.00580000000000000 ) );
#855 = CARTESIAN_POINT( '', ( 0.0616715728752538, -0.000841756642550535, 0.00580000000000000 ) );
#856 = VECTOR( '', #1081, 1.00000000000000 );
#857 = CARTESIAN_POINT( '', ( 0.0646715728752538, -0.00330907842155486, 0.00580000000000000 ) );
#858 = VECTOR( '', #1082, 1.00000000000000 );
#859 = CARTESIAN_POINT( '', ( 0.0658857864376641, -0.00669999999993502, 0.00580000000001101 ) );
#860 = CARTESIAN_POINT( '', ( 0.0436715728752539, -0.00670000000000000, 0.00580000000000000 ) );
#861 = CARTESIAN_POINT( '', ( 500.000000000000, -0.00670000000000000, 0.00580000000000000 ) );
#862 = VECTOR( '', #1083, 1.00000000000000 );
#863 = CARTESIAN_POINT( '', ( 0.0436715728752539, -0.00830000000000000, 0.00580000000000000 ) );
#864 = CARTESIAN_POINT( '', ( 0.0436715728752539, -0.00826359147127428, 0.00580000000000000 ) );
#865 = VECTOR( '', #1084, 1.00000000000000 );
#866 = CARTESIAN_POINT( '', ( 0.0642857864375829, -0.00830000000007296, 0.00579999999996837 ) );
#867 = CARTESIAN_POINT( '', ( 500.000000000000, -0.00830000000000000, 0.00580000000000000 ) );
#868 = VECTOR( '', #1085, 1.00000000000000 );
#869 = CARTESIAN_POINT( '', ( 0.0623786796564404, -0.0102071067811865, 0.00580000000000000 ) );
#870 = CARTESIAN_POINT( '', ( 0.0518090844780670, -0.0207767019595599, 0.00580000000000000 ) );
#871 = VECTOR( '', #1086, 1.00000000000000 );
#872 = CARTESIAN_POINT( '', ( 0.0616715728752538, -0.0105000000000000, 0.00580000000000000 ) );
#873 = AXIS2_PLACEMENT_3D( '', #1087, #1088, #1089 );
#874 = CARTESIAN_POINT( '', ( 0.0616715728752538, -0.0115000000000000, 0.00580000000000000 ) );
#875 = VECTOR( '', #1090, 1.00000000000000 );
#876 = CARTESIAN_POINT( '', ( 0.0423284271247462, -0.0115000000000000, 0.00580000000000000 ) );
#877 = CARTESIAN_POINT( '', ( 0.0256961567109672, -0.0115000000000000, 0.00580000000000000 ) );
#878 = VECTOR( '', #1091, 1.00000000000000 );
#879 = CARTESIAN_POINT( '', ( 0.0409142135623731, -0.0109142135623731, 0.00580000000000000 ) );
#880 = AXIS2_PLACEMENT_3D( '', #1092, #1093, #1094 );
#881 = CARTESIAN_POINT( '', ( 0.0314142135623731, -0.00141421356237310, 0.00580000000000000 ) );
#882 = CARTESIAN_POINT( '', ( 0.0244229325037215, 0.00557706749627855, 0.00580000000000000 ) );
#883 = VECTOR( '', #1095, 1.00000000000000 );
#884 = CARTESIAN_POINT( '', ( 0.0314142135623731, 0.00141421356237309, 0.00580000000000000 ) );
#885 = AXIS2_PLACEMENT_3D( '', #1096, #1097, #1098 );
#886 = CARTESIAN_POINT( '', ( 0.0409142135623731, 0.0109142135623731, 0.00580000000000000 ) );
#887 = CARTESIAN_POINT( '', ( 0.0262841043054111, -0.00371589569458890, 0.00580000000000000 ) );
#888 = VECTOR( '', #1099, 1.00000000000000 );
#889 = CARTESIAN_POINT( '', ( 0.0423284271247462, 0.0115000000000000, 0.00580000000000000 ) );
#890 = AXIS2_PLACEMENT_3D( '', #1100, #1101, #1102 );
#891 = CARTESIAN_POINT( '', ( 0.0233013608859603, 0.0115000000000000, 0.00580000000000000 ) );
#892 = VECTOR( '', #1103, 1.00000000000000 );
#893 = CARTESIAN_POINT( '', ( 0.0616715728752538, 0.0105000000000000, 0.00580000000000000 ) );
#894 = CARTESIAN_POINT( '', ( 0.0616715728752538, -3.46944695195361E-18, 0.00580000000000000 ) );
#895 = VECTOR( '', #1104, 1.00000000000000 );
#896 = CARTESIAN_POINT( '', ( 0.0623786796564404, 0.0102071067811865, 0.00580000000000000 ) );
#897 = AXIS2_PLACEMENT_3D( '', #1105, #1106, #1107 );
#898 = CARTESIAN_POINT( '', ( 0.0642857864375515, 0.00830000000000987, 0.00580000000000000 ) );
#899 = CARTESIAN_POINT( '', ( 0.0540964428536695, 0.0184893435839575, 0.00580000000000000 ) );
#900 = VECTOR( '', #1108, 1.00000000000000 );
#901 = CARTESIAN_POINT( '', ( 0.0436715728752539, 0.00830000000000000, 0.00580000000000000 ) );
#902 = CARTESIAN_POINT( '', ( 500.000000000000, 0.00830000000000000, 0.00580000000000000 ) );
#903 = VECTOR( '', #1109, 1.00000000000000 );
#904 = CARTESIAN_POINT( '', ( 0.0436715728752539, 0.00670000000000000, 0.00580000000000000 ) );
#905 = CARTESIAN_POINT( '', ( 0.0436715728752539, 0.00850811250758219, 0.00580000000000000 ) );
#906 = VECTOR( '', #1110, 1.00000000000000 );
#907 = CARTESIAN_POINT( '', ( 0.0658857864375477, 0.00670000000001173, 0.00580000000000000 ) );
#908 = CARTESIAN_POINT( '', ( 500.000000000000, 0.00670000000000000, 0.00580000000000000 ) );
#909 = VECTOR( '', #1111, 1.00000000000000 );
#910 = CARTESIAN_POINT( '', ( 0.0718786796564404, 0.000707106781186559, 0.00580000000000000 ) );
#911 = CARTESIAN_POINT( '', ( 0.0540964428536695, 0.0184893435839575, 0.00580000000000000 ) );
#912 = VECTOR( '', #1112, 1.00000000000000 );
#913 = CARTESIAN_POINT( '', ( 0.0718786796564404, -0.000707106781186542, 0.00580000000000000 ) );
#914 = AXIS2_PLACEMENT_3D( '', #1113, #1114, #1115 );
#915 = CARTESIAN_POINT( '', ( 0.0518090844780670, -0.0207767019595599, 0.00580000000000000 ) );
#916 = VECTOR( '', #1116, 1.00000000000000 );
#917 = CARTESIAN_POINT( '', ( 0.0423284271247462, 0.0115000000000000, 0.00680000000000000 ) );
#918 = CARTESIAN_POINT( '', ( 0.0423284271247462, 0.0115000000000000, 0.00680000000000000 ) );
#919 = VECTOR( '', #1117, 1.00000000000000 );
#920 = CARTESIAN_POINT( '', ( 0.0409142135623731, 0.0109142135623731, 0.00680000000000000 ) );
#921 = CARTESIAN_POINT( '', ( 0.0409142135623731, 0.0109142135623731, 0.00000000000000 ) );
#922 = VECTOR( '', #1118, 1.00000000000000 );
#923 = AXIS2_PLACEMENT_3D( '', #1119, #1120, #1121 );
#924 = CARTESIAN_POINT( '', ( 0.0623786796564404, -0.0102071067811865, 0.00000000000000 ) );
#925 = CARTESIAN_POINT( '', ( 0.0623786796564404, -0.0102071067811865, 0.00680000000000000 ) );
#926 = VECTOR( '', #1122, 1.00000000000000 );
#927 = CARTESIAN_POINT( '', ( 0.0616715728752538, -0.0105000000000000, 0.00000000000000 ) );
#928 = AXIS2_PLACEMENT_3D( '', #1123, #1124, #1125 );
#929 = CARTESIAN_POINT( '', ( 0.0616715728752538, -0.0105000000000000, 0.00340000000000000 ) );
#930 = VECTOR( '', #1126, 1.00000000000000 );
#931 = CARTESIAN_POINT( '', ( 0.0718786796564404, 0.000707106781186560, 0.00000000000000 ) );
#932 = CARTESIAN_POINT( '', ( 0.0718786796564404, 0.000707106781186559, 0.00680000000000000 ) );
#933 = VECTOR( '', #1127, 1.00000000000000 );
#934 = CARTESIAN_POINT( '', ( 0.0718786796564404, -0.000707106781186542, 0.00000000000000 ) );
#935 = AXIS2_PLACEMENT_3D( '', #1128, #1129, #1130 );
#936 = CARTESIAN_POINT( '', ( 0.0718786796564404, -0.000707106781186542, 0.00680000000000000 ) );
#937 = VECTOR( '', #1131, 1.00000000000000 );
#938 = CARTESIAN_POINT( '', ( 0.0616715728752538, 0.0105000000000000, 0.00000000000000 ) );
#939 = CARTESIAN_POINT( '', ( 0.0616715728752538, 0.0105000000000000, 0.00680000000000000 ) );
#940 = VECTOR( '', #1132, 1.00000000000000 );
#941 = CARTESIAN_POINT( '', ( 0.0623786796564404, 0.0102071067811865, 0.00000000000000 ) );
#942 = AXIS2_PLACEMENT_3D( '', #1133, #1134, #1135 );
#943 = CARTESIAN_POINT( '', ( 0.0623786796564404, 0.0102071067811865, 0.00680000000000000 ) );
#944 = VECTOR( '', #1136, 1.00000000000000 );
#945 = CARTESIAN_POINT( '', ( 0.0233013608859603, 0.0115000000000000, 0.00680000000000000 ) );
#946 = VECTOR( '', #1137, 1.00000000000000 );
#947 = CARTESIAN_POINT( '', ( 0.0314142135623731, 0.00141421356237309, 0.00680000000000000 ) );
#948 = CARTESIAN_POINT( '', ( 0.0262841043054111, -0.00371589569458890, 0.00680000000000000 ) );
#949 = VECTOR( '', #1138, 1.00000000000000 );
#950 = CARTESIAN_POINT( '', ( 0.0314142135623731, -0.00141421356237310, 0.00680000000000000 ) );
#951 = AXIS2_PLACEMENT_3D( '', #1139, #1140, #1141 );
#952 = CARTESIAN_POINT( '', ( 0.0409142135623731, -0.0109142135623731, 0.00680000000000000 ) );
#953 = CARTESIAN_POINT( '', ( 0.0244229325037215, 0.00557706749627855, 0.00680000000000000 ) );
#954 = VECTOR( '', #1142, 1.00000000000000 );
#955 = CARTESIAN_POINT( '', ( 0.0423284271247462, -0.0115000000000000, 0.00680000000000000 ) );
#956 = AXIS2_PLACEMENT_3D( '', #1143, #1144, #1145 );
#957 = CARTESIAN_POINT( '', ( 0.0256961567109672, -0.0115000000000000, 0.00680000000000000 ) );
#958 = VECTOR( '', #1146, 1.00000000000000 );
#959 = CARTESIAN_POINT( '', ( 0.0525161912592535, -0.0214838087407465, 0.00680000000000000 ) );
#960 = VECTOR( '', #1147, 1.00000000000000 );
#961 = CARTESIAN_POINT( '', ( 0.0548035496348560, 0.0191964503651440, 0.00680000000000000 ) );
#962 = VECTOR( '', #1148, 1.00000000000000 );
#963 = CARTESIAN_POINT( '', ( 0.0616715728752538, 0.0115000000000000, 0.00000000000000 ) );
#964 = VECTOR( '', #1149, 1.00000000000000 );
#965 = CARTESIAN_POINT( '', ( 0.0548035496348560, 0.0191964503651440, 0.00000000000000 ) );
#966 = VECTOR( '', #1150, 1.00000000000000 );
#967 = CARTESIAN_POINT( '', ( 0.0525161912592535, -0.0214838087407465, 0.00000000000000 ) );
#968 = VECTOR( '', #1151, 1.00000000000000 );
#969 = CARTESIAN_POINT( '', ( 0.0616715728752538, -0.0115000000000000, 0.00000000000000 ) );
#970 = VECTOR( '', #1152, 1.00000000000000 );
#971 = CARTESIAN_POINT( '', ( 0.0518090844780670, -0.0207767019595599, 0.00000000000000 ) );
#972 = VECTOR( '', #1153, 1.00000000000000 );
#973 = CARTESIAN_POINT( '', ( 0.0540964428536695, 0.0184893435839575, 0.00000000000000 ) );
#974 = VECTOR( '', #1154, 1.00000000000000 );
#975 = CARTESIAN_POINT( '', ( 0.0423284271247462, -0.0115000000000000, 0.00680000000000000 ) );
#976 = VECTOR( '', #1155, 1.00000000000000 );
#977 = CARTESIAN_POINT( '', ( 0.0314142135623731, -0.00141421356237310, 0.00680000000000000 ) );
#978 = VECTOR( '', #1156, 1.00000000000000 );
#979 = CARTESIAN_POINT( '', ( 0.0409142135623731, -0.0109142135623731, 0.00680000000000000 ) );
#980 = VECTOR( '', #1157, 1.00000000000000 );
#981 = CARTESIAN_POINT( '', ( 0.0314142135623731, 0.00141421356237309, 0.00680000000000000 ) );
#982 = VECTOR( '', #1158, 1.00000000000000 );
#983 = CARTESIAN_POINT( '', ( 0.0616715728752538, -0.00225526228988618, 0.00207915165601839 ) );
#984 = CARTESIAN_POINT( '', ( 0.0616715728752538, 0.00225526228988618, 0.00207915165601839 ) );
#985 = AXIS2_PLACEMENT_3D( '', #1159, #1160, #1161 );
#986 = CARTESIAN_POINT( '', ( 0.0646715728752538, 0.00225526228988618, 0.00207915165601839 ) );
#987 = CARTESIAN_POINT( '', ( 0.0646715728752538, 0.00225526228988618, 0.00207915165601839 ) );
#988 = VECTOR( '', #1162, 1.00000000000000 );
#989 = CARTESIAN_POINT( '', ( 0.0646715728752538, -0.00225526228988618, 0.00207915165601839 ) );
#990 = AXIS2_PLACEMENT_3D( '', #1163, #1164, #1165 );
#991 = CARTESIAN_POINT( '', ( 0.0646715728752538, -0.00225526228988618, 0.00207915165601839 ) );
#992 = VECTOR( '', #1166, 1.00000000000000 );
#993 = CARTESIAN_POINT( '', ( 0.0616715728752538, -0.00413464753145800, 0.00139511136936706 ) );
#994 = CARTESIAN_POINT( '', ( 0.0616715728752538, -0.00245802032261630, 0.00200535376734626 ) );
#995 = VECTOR( '', #1167, 1.00000000000000 );
#996 = CARTESIAN_POINT( '', ( 0.0646715728752538, -0.00413464753145800, 0.00139511136936706 ) );
#997 = CARTESIAN_POINT( '', ( 0.0646715728752538, -0.00245802032261630, 0.00200535376734626 ) );
#998 = VECTOR( '', #1168, 1.00000000000000 );
#999 = CARTESIAN_POINT( '', ( 0.0646715728752538, -0.00413464753145800, 0.00139511136936706 ) );
#1000 = VECTOR( '', #1169, 1.00000000000000 );
#1001 = AXIS2_PLACEMENT_3D( '', #1170, #1171, #1172 );
#1002 = AXIS2_PLACEMENT_3D( '', #1173, #1174, #1175 );
#1003 = CARTESIAN_POINT( '', ( 0.0616715728752538, 0.00413464753145799, 0.00139511136936706 ) );
#1004 = AXIS2_PLACEMENT_3D( '', #1176, #1177, #1178 );
#1005 = CARTESIAN_POINT( '', ( 0.0646715728752538, 0.00413464753145799, 0.00139511136936706 ) );
#1006 = AXIS2_PLACEMENT_3D( '', #1179, #1180, #1181 );
#1007 = CARTESIAN_POINT( '', ( 0.0646715728752538, 0.00413464753145799, 0.00139511136936706 ) );
#1008 = VECTOR( '', #1182, 1.00000000000000 );
#1009 = CARTESIAN_POINT( '', ( 0.0616715728752538, 0.00166200327377190, 0.00229508027909404 ) );
#1010 = VECTOR( '', #1183, 1.00000000000000 );
#1011 = CARTESIAN_POINT( '', ( 0.0646715728752538, 0.00166200327377190, 0.00229508027909404 ) );
#1012 = VECTOR( '', #1184, 1.00000000000000 );
#1013 = CARTESIAN_POINT( '', ( 0.0630857864376269, 0.00950000000000000, 0.00460000000000000 ) );
#1014 = CARTESIAN_POINT( '', ( 0.0638857864376519, 0.00870000000000230, 0.00380000000000623 ) );
#1015 = CARTESIAN_POINT( '', ( 166.708679597989, -166.636093811550, -166.640993811550 ) );
#1016 = VECTOR( '', #1185, 1.00000000000000 );
#1017 = CARTESIAN_POINT( '', ( 166.709123857626, -166.636538071187, 166.650638071187 ) );
#1018 = VECTOR( '', #1186, 1.00000000000000 );
#1019 = CARTESIAN_POINT( '', ( 166.709658476038, -166.637072689601, 166.649572689600 ) );
#1020 = VECTOR( '', #1187, 1.00000000000000 );
#1021 = CARTESIAN_POINT( '', ( 0.0630857864377390, -0.00950000000000136, 0.00460000000001951 ) );
#1022 = CARTESIAN_POINT( '', ( 166.709104173278, 166.636518386840, 166.650618386840 ) );
#1023 = VECTOR( '', #1188, 1.00000000000000 );
#1024 = CARTESIAN_POINT( '', ( 0.0638857864376269, -0.00870000000000000, 0.00380000000000000 ) );
#1025 = CARTESIAN_POINT( '', ( 166.708747904317, 166.636162117879, -166.641062117879 ) );
#1026 = VECTOR( '', #1189, 1.00000000000000 );
#1027 = CARTESIAN_POINT( '', ( 166.709753402879, 166.637167616441, 166.649667616441 ) );
#1028 = VECTOR( '', #1190, 1.00000000000000 );
#1029 = CARTESIAN_POINT( '', ( 0.0436715728752539, 0.00950000000000000, 0.00460000000000000 ) );
#1030 = CARTESIAN_POINT( '', ( 0.0436715728752539, 0.00890000000000000, 0.00520000000000000 ) );
#1031 = VECTOR( '', #1191, 1.00000000000000 );
#1032 = CARTESIAN_POINT( '', ( 0.0436715728752539, 0.00870000000000000, 0.00380000000000000 ) );
#1033 = CARTESIAN_POINT( '', ( 0.0436715728752539, 0.00956638945545784, 0.00466638945545784 ) );
#1034 = VECTOR( '', #1192, 1.00000000000000 );
#1035 = CARTESIAN_POINT( '', ( 0.0436715728752539, 0.00809807238099842, 0.00440192761900159 ) );
#1036 = VECTOR( '', #1193, 1.00000000000000 );
#1037 = CARTESIAN_POINT( '', ( 0.0436715728752539, -0.00950000000000000, 0.00460000000000000 ) );
#1038 = CARTESIAN_POINT( '', ( 0.0436715728752539, -0.00870000000000000, 0.00380000000000000 ) );
#1039 = CARTESIAN_POINT( '', ( 0.0436715728752539, -0.00946392996292560, 0.00456392996292561 ) );
#1040 = VECTOR( '', #1194, 1.00000000000000 );
#1041 = CARTESIAN_POINT( '', ( 0.0436715728752539, -0.00892952652150085, 0.00517047347849914 ) );
#1042 = VECTOR( '', #1195, 1.00000000000000 );
#1043 = CARTESIAN_POINT( '', ( 0.0436715728752539, -0.00795568211995354, 0.00454431788004646 ) );
#1044 = VECTOR( '', #1196, 1.00000000000000 );
#1045 = CARTESIAN_POINT( '', ( 500.000000000000, -0.00950000000000000, 0.00460000000000000 ) );
#1046 = VECTOR( '', #1197, 1.00000000000000 );
#1047 = CARTESIAN_POINT( '', ( 500.000000000000, -0.00870000000000000, 0.00380000000000000 ) );
#1048 = VECTOR( '', #1198, 1.00000000000000 );
#1049 = CARTESIAN_POINT( '', ( 500.000000000000, 0.00950000000000000, 0.00460000000000000 ) );
#1050 = VECTOR( '', #1199, 1.00000000000000 );
#1051 = CARTESIAN_POINT( '', ( 500.000000000000, 0.00870000000000000, 0.00380000000000000 ) );
#1052 = VECTOR( '', #1200, 1.00000000000000 );
#1053 = CARTESIAN_POINT( '', ( 0.0711715728752539, 1.04083408558608E-17, 0.00680000000000000 ) );
#1054 = DIRECTION( '', ( 0.00000000000000, 0.00000000000000, 1.00000000000000 ) );
#1055 = DIRECTION( '', ( 1.00000000000000, 0.00000000000000, 0.00000000000000 ) );
#1056 = DIRECTION( '', ( 0.00000000000000, 0.00000000000000, -1.00000000000000 ) );
#1057 = CARTESIAN_POINT( '', ( 0.0711715728752539, 1.04083408558608E-17, 0.00000000000000 ) );
#1058 = DIRECTION( '', ( 0.00000000000000, 0.00000000000000, 1.00000000000000 ) );
#1059 = DIRECTION( '', ( 1.00000000000000, 0.00000000000000, 0.00000000000000 ) );
#1060 = DIRECTION( '', ( 0.00000000000000, 0.00000000000000, -1.00000000000000 ) );
#1061 = CARTESIAN_POINT( '', ( 0.0616715728752538, 0.00950000000000000, 0.00680000000000000 ) );
#1062 = DIRECTION( '', ( 0.00000000000000, 0.00000000000000, 1.00000000000000 ) );
#1063 = DIRECTION( '', ( 1.00000000000000, 0.00000000000000, 0.00000000000000 ) );
#1064 = DIRECTION( '', ( 0.00000000000000, 0.00000000000000, -1.00000000000000 ) );
#1065 = CARTESIAN_POINT( '', ( 0.0616715728752538, 0.00950000000000000, 0.00000000000000 ) );
#1066 = DIRECTION( '', ( 0.00000000000000, 0.00000000000000, 1.00000000000000 ) );
#1067 = DIRECTION( '', ( 1.00000000000000, 0.00000000000000, 0.00000000000000 ) );
#1068 = DIRECTION( '', ( 0.00000000000000, 0.00000000000000, -1.00000000000000 ) );
#1069 = DIRECTION( '', ( 0.00000000000000, 0.00000000000000, -1.00000000000000 ) );
#1070 = CARTESIAN_POINT( '', ( 0.0616715728752538, -0.00950000000000000, 0.00680000000000000 ) );
#1071 = DIRECTION( '', ( 0.00000000000000, 0.00000000000000, 1.00000000000000 ) );
#1072 = DIRECTION( '', ( 1.00000000000000, 0.00000000000000, 0.00000000000000 ) );
#1073 = DIRECTION( '', ( 0.00000000000000, 0.00000000000000, -1.00000000000000 ) );
#1074 = DIRECTION( '', ( 0.00000000000000, 0.00000000000000, -1.00000000000000 ) );
#1075 = CARTESIAN_POINT( '', ( 0.0616715728752538, -0.00950000000000000, 0.00000000000000 ) );
#1076 = DIRECTION( '', ( 0.00000000000000, 0.00000000000000, 1.00000000000000 ) );
#1077 = DIRECTION( '', ( 1.00000000000000, 0.00000000000000, 0.00000000000000 ) );
#1078 = DIRECTION( '', ( 0.00000000000000, 0.00000000000000, -1.00000000000000 ) );
#1079 = DIRECTION( '', ( 0.00000000000000, -1.00000000000000, 2.44929359829470E-16 ) );
#1080 = DIRECTION( '', ( -1.00000000000000, 0.00000000000000, 0.00000000000000 ) );
#1081 = DIRECTION( '', ( 0.00000000000000, -1.00000000000000, 2.44929359829470E-16 ) );
#1082 = DIRECTION( '', ( -1.00000000000000, 0.00000000000000, 0.00000000000000 ) );
#1083 = DIRECTION( '', ( -1.00000000000000, 0.00000000000000, 0.00000000000000 ) );
#1084 = DIRECTION( '', ( 0.00000000000000, -1.00000000000000, 0.00000000000000 ) );
#1085 = DIRECTION( '', ( -1.00000000000000, 0.00000000000000, 0.00000000000000 ) );
#1086 = DIRECTION( '', ( -0.707106781186548, -0.707106781186547, 0.00000000000000 ) );
#1087 = CARTESIAN_POINT( '', ( 0.0616715728752538, -0.00950000000000000, 0.00580000000000000 ) );
#1088 = DIRECTION( '', ( 0.00000000000000, 0.00000000000000, 1.00000000000000 ) );
#1089 = DIRECTION( '', ( 1.00000000000000, 0.00000000000000, 0.00000000000000 ) );
#1090 = DIRECTION( '', ( 0.00000000000000, -1.00000000000000, 0.00000000000000 ) );
#1091 = DIRECTION( '', ( 1.00000000000000, 0.00000000000000, 0.00000000000000 ) );
#1092 = CARTESIAN_POINT( '', ( 0.0423284271247462, -0.00950000000000000, 0.00580000000000000 ) );
#1093 = DIRECTION( '', ( 0.00000000000000, 0.00000000000000, 1.00000000000000 ) );
#1094 = DIRECTION( '', ( 1.00000000000000, 0.00000000000000, 0.00000000000000 ) );
#1095 = DIRECTION( '', ( 0.707106781186548, -0.707106781186547, 0.00000000000000 ) );
#1096 = CARTESIAN_POINT( '', ( 0.0328284271247462, -5.20417042793042E-18, 0.00580000000000000 ) );
#1097 = DIRECTION( '', ( 0.00000000000000, 0.00000000000000, 1.00000000000000 ) );
#1098 = DIRECTION( '', ( 1.00000000000000, 0.00000000000000, 0.00000000000000 ) );
#1099 = DIRECTION( '', ( -0.707106781186548, -0.707106781186547, 0.00000000000000 ) );
#1100 = CARTESIAN_POINT( '', ( 0.0423284271247462, 0.00950000000000000, 0.00580000000000000 ) );
#1101 = DIRECTION( '', ( 0.00000000000000, 0.00000000000000, 1.00000000000000 ) );
#1102 = DIRECTION( '', ( 1.00000000000000, 0.00000000000000, 0.00000000000000 ) );
#1103 = DIRECTION( '', ( 1.00000000000000, 0.00000000000000, 0.00000000000000 ) );
#1104 = DIRECTION( '', ( 0.00000000000000, 1.00000000000000, 0.00000000000000 ) );
#1105 = CARTESIAN_POINT( '', ( 0.0616715728752538, 0.00950000000000000, 0.00580000000000000 ) );
#1106 = DIRECTION( '', ( 0.00000000000000, 0.00000000000000, 1.00000000000000 ) );
#1107 = DIRECTION( '', ( 1.00000000000000, 0.00000000000000, 0.00000000000000 ) );
#1108 = DIRECTION( '', ( 0.707106781186549, -0.707106781186546, 0.00000000000000 ) );
#1109 = DIRECTION( '', ( -1.00000000000000, 0.00000000000000, 0.00000000000000 ) );
#1110 = DIRECTION( '', ( 0.00000000000000, 1.00000000000000, -1.11022302462516E-16 ) );
#1111 = DIRECTION( '', ( -1.00000000000000, 0.00000000000000, 0.00000000000000 ) );
#1112 = DIRECTION( '', ( 0.707106781186549, -0.707106781186546, 0.00000000000000 ) );
#1113 = CARTESIAN_POINT( '', ( 0.0711715728752539, 1.04083408558608E-17, 0.00580000000000000 ) );
#1114 = DIRECTION( '', ( 0.00000000000000, 0.00000000000000, 1.00000000000000 ) );
#1115 = DIRECTION( '', ( 1.00000000000000, 0.00000000000000, 0.00000000000000 ) );
#1116 = DIRECTION( '', ( -0.707106781186548, -0.707106781186547, 0.00000000000000 ) );
#1117 = DIRECTION( '', ( 0.00000000000000, 0.00000000000000, -1.00000000000000 ) );
#1118 = DIRECTION( '', ( 0.00000000000000, 0.00000000000000, -1.00000000000000 ) );
#1119 = CARTESIAN_POINT( '', ( 0.0423284271247462, 0.00950000000000000, 0.00680000000000000 ) );
#1120 = DIRECTION( '', ( 0.00000000000000, 0.00000000000000, 1.00000000000000 ) );
#1121 = DIRECTION( '', ( 1.00000000000000, 0.00000000000000, 0.00000000000000 ) );
#1122 = DIRECTION( '', ( 0.00000000000000, 0.00000000000000, 1.00000000000000 ) );
#1123 = CARTESIAN_POINT( '', ( 0.0616715728752538, -0.00950000000000000, 0.00000000000000 ) );
#1124 = DIRECTION( '', ( 0.00000000000000, 0.00000000000000, 1.00000000000000 ) );
#1125 = DIRECTION( '', ( 1.00000000000000, 0.00000000000000, 0.00000000000000 ) );
#1126 = DIRECTION( '', ( 0.00000000000000, 0.00000000000000, 1.00000000000000 ) );
#1127 = DIRECTION( '', ( 0.00000000000000, 0.00000000000000, 1.00000000000000 ) );
#1128 = CARTESIAN_POINT( '', ( 0.0711715728752539, 1.04083408558608E-17, 0.00000000000000 ) );
#1129 = DIRECTION( '', ( 0.00000000000000, 0.00000000000000, 1.00000000000000 ) );
#1130 = DIRECTION( '', ( 1.00000000000000, 0.00000000000000, 0.00000000000000 ) );
#1131 = DIRECTION( '', ( 0.00000000000000, 0.00000000000000, 1.00000000000000 ) );
#1132 = DIRECTION( '', ( 0.00000000000000, 0.00000000000000, -1.00000000000000 ) );
#1133 = CARTESIAN_POINT( '', ( 0.0616715728752538, 0.00950000000000000, 0.00000000000000 ) );
#1134 = DIRECTION( '', ( 0.00000000000000, 0.00000000000000, 1.00000000000000 ) );
#1135 = DIRECTION( '', ( 1.00000000000000, 0.00000000000000, 0.00000000000000 ) );
#1136 = DIRECTION( '', ( 0.00000000000000, 0.00000000000000, 1.00000000000000 ) );
#1137 = DIRECTION( '', ( 1.00000000000000, 0.00000000000000, 0.00000000000000 ) );
#1138 = DIRECTION( '', ( -0.707106781186548, -0.707106781186547, 0.00000000000000 ) );
#1139 = CARTESIAN_POINT( '', ( 0.0328284271247462, -5.20417042793042E-18, 0.00680000000000000 ) );
#1140 = DIRECTION( '', ( 0.00000000000000, 0.00000000000000, 1.00000000000000 ) );
#1141 = DIRECTION( '', ( 1.00000000000000, 0.00000000000000, 0.00000000000000 ) );
#1142 = DIRECTION( '', ( 0.707106781186548, -0.707106781186547, 0.00000000000000 ) );
#1143 = CARTESIAN_POINT( '', ( 0.0423284271247462, -0.00950000000000000, 0.00680000000000000 ) );
#1144 = DIRECTION( '', ( 0.00000000000000, 0.00000000000000, 1.00000000000000 ) );
#1145 = DIRECTION( '', ( 1.00000000000000, 0.00000000000000, 0.00000000000000 ) );
#1146 = DIRECTION( '', ( 1.00000000000000, 0.00000000000000, 0.00000000000000 ) );
#1147 = DIRECTION( '', ( -0.707106781186549, -0.707106781186547, 0.00000000000000 ) );
#1148 = DIRECTION( '', ( 0.707106781186549, -0.707106781186546, 0.00000000000000 ) );
#1149 = DIRECTION( '', ( 0.00000000000000, -1.00000000000000, 0.00000000000000 ) );
#1150 = DIRECTION( '', ( 0.707106781186549, -0.707106781186546, 0.00000000000000 ) );
#1151 = DIRECTION( '', ( -0.707106781186549, -0.707106781186547, 0.00000000000000 ) );
#1152 = DIRECTION( '', ( 0.00000000000000, -1.00000000000000, 0.00000000000000 ) );
#1153 = DIRECTION( '', ( -0.707106781186548, -0.707106781186547, 0.00000000000000 ) );
#1154 = DIRECTION( '', ( 0.707106781186549, -0.707106781186546, 0.00000000000000 ) );
#1155 = DIRECTION( '', ( 0.00000000000000, 0.00000000000000, -1.00000000000000 ) );
#1156 = DIRECTION( '', ( 0.00000000000000, 0.00000000000000, -1.00000000000000 ) );
#1157 = DIRECTION( '', ( 0.00000000000000, 0.00000000000000, -1.00000000000000 ) );
#1158 = DIRECTION( '', ( 0.00000000000000, 0.00000000000000, -1.00000000000000 ) );
#1159 = CARTESIAN_POINT( '', ( 0.0616715728752538, 3.39494731505667E-22, 0.00290000000000000 ) );
#1160 = DIRECTION( '', ( -1.00000000000000, -0.00000000000000, 0.00000000000000 ) );
#1161 = DIRECTION( '', ( 0.00000000000000, -0.939692620785909, -0.342020143325668 ) );
#1162 = DIRECTION( '', ( -1.00000000000000, 0.00000000000000, 0.00000000000000 ) );
#1163 = CARTESIAN_POINT( '', ( 0.0646715728752538, 3.39494731505667E-22, 0.00290000000000000 ) );
#1164 = DIRECTION( '', ( -1.00000000000000, -0.00000000000000, 0.00000000000000 ) );
#1165 = DIRECTION( '', ( 0.00000000000000, -0.939692620785909, -0.342020143325668 ) );
#1166 = DIRECTION( '', ( -1.00000000000000, 0.00000000000000, 0.00000000000000 ) );
#1167 = DIRECTION( '', ( 0.00000000000000, -0.939692620785908, -0.342020143325669 ) );
#1168 = DIRECTION( '', ( 0.00000000000000, -0.939692620785908, -0.342020143325669 ) );
#1169 = DIRECTION( '', ( -1.00000000000000, 0.00000000000000, 0.00000000000000 ) );
#1170 = CARTESIAN_POINT( '', ( 0.0616715728752538, 3.39494731505667E-22, 0.00290000000000000 ) );
#1171 = DIRECTION( '', ( -1.00000000000000, -0.00000000000000, 0.00000000000000 ) );
#1172 = DIRECTION( '', ( 0.00000000000000, -0.939692620785908, -0.342020143325669 ) );
#1173 = CARTESIAN_POINT( '', ( 0.0646715728752538, 3.39494731505667E-22, 0.00290000000000000 ) );
#1174 = DIRECTION( '', ( -1.00000000000000, -0.00000000000000, 0.00000000000000 ) );
#1175 = DIRECTION( '', ( 0.00000000000000, -0.939692620785908, -0.342020143325669 ) );
#1176 = CARTESIAN_POINT( '', ( 0.0616715728752538, 3.39494731505667E-22, 0.00290000000000000 ) );
#1177 = DIRECTION( '', ( -1.00000000000000, 0.00000000000000, 0.00000000000000 ) );
#1178 = DIRECTION( '', ( 0.00000000000000, 0.752063277626104, 0.659090909090910 ) );
#1179 = CARTESIAN_POINT( '', ( 0.0646715728752538, 3.39494731505667E-22, 0.00290000000000000 ) );
#1180 = DIRECTION( '', ( -1.00000000000000, 0.00000000000000, 0.00000000000000 ) );
#1181 = DIRECTION( '', ( 0.00000000000000, 0.752063277626104, 0.659090909090910 ) );
#1182 = DIRECTION( '', ( -1.00000000000000, 0.00000000000000, 0.00000000000000 ) );
#1183 = DIRECTION( '', ( 0.00000000000000, -0.939692620785908, 0.342020143325669 ) );
#1184 = DIRECTION( '', ( 0.00000000000000, -0.939692620785908, 0.342020143325669 ) );
#1185 = DIRECTION( '', ( 0.577350269189627, -0.577350269189625, -0.577350269189625 ) );
#1186 = DIRECTION( '', ( 0.577350269189627, -0.577350269189625, 0.577350269189625 ) );
#1187 = DIRECTION( '', ( 0.577350269189627, -0.577350269189625, 0.577350269189625 ) );
#1188 = DIRECTION( '', ( -0.577350269189627, -0.577350269189625, -0.577350269189625 ) );
#1189 = DIRECTION( '', ( 0.577350269189627, 0.577350269189625, -0.577350269189626 ) );
#1190 = DIRECTION( '', ( 0.577350269189627, 0.577350269189625, 0.577350269189625 ) );
#1191 = DIRECTION( '', ( 0.00000000000000, -0.707106781186548, 0.707106781186547 ) );
#1192 = DIRECTION( '', ( 0.00000000000000, -0.707106781186548, -0.707106781186548 ) );
#1193 = DIRECTION( '', ( 0.00000000000000, -0.707106781186548, 0.707106781186547 ) );
#1194 = DIRECTION( '', ( 0.00000000000000, 0.707106781186547, -0.707106781186548 ) );
#1195 = DIRECTION( '', ( 0.00000000000000, -0.707106781186548, -0.707106781186548 ) );
#1196 = DIRECTION( '', ( 0.00000000000000, 0.707106781186548, 0.707106781186547 ) );
#1197 = DIRECTION( '', ( -1.00000000000000, 0.00000000000000, 0.00000000000000 ) );
#1198 = DIRECTION( '', ( -1.00000000000000, 0.00000000000000, 0.00000000000000 ) );
#1199 = DIRECTION( '', ( -1.00000000000000, 0.00000000000000, 0.00000000000000 ) );
#1200 = DIRECTION( '', ( -1.00000000000000, 0.00000000000000, 0.00000000000000 ) );
ENDSEC;
END-ISO-10303-21;
