ISO-10303-21;
HEADER;
FILE_DESCRIPTION( ( '' ), ' ' );
FILE_NAME( '/vol/tmp/translate-6887987570023294743/56895004e4b0879e9112d10f.step', '2016-01-03T16:44:53', ( '' ), ( '' ), ' ', ' ', ' ' );
FILE_SCHEMA( ( 'AUTOMOTIVE_DESIGN { 1 0 10303 214 1 1 1 1 }' ) );
ENDSEC;
DATA;
#1 = PRODUCT_DEFINITION_CONTEXT( '', #9, 'design' );
#2 = APPLICATION_PROTOCOL_DEFINITION( 'international standard', 'automotive_design', 2001, #9 );
#3 = PRODUCT_CATEGORY_RELATIONSHIP( 'NONE', 'NONE', #10, #11 );
#4 = SHAPE_DEFINITION_REPRESENTATION( #12, #13 );
#5 =  ( GEOMETRIC_REPRESENTATION_CONTEXT( 3 )GLOBAL_UNCERTAINTY_ASSIGNED_CONTEXT( ( #16 ) )GLOBAL_UNIT_ASSIGNED_CONTEXT( ( #18, #19, #20 ) )REPRESENTATION_CONTEXT( 'NONE', 'WORKSPACE' ) );
#9 = APPLICATION_CONTEXT( 'core data for automotive mechanical design processes' );
#10 = PRODUCT_CATEGORY( 'part', 'NONE' );
#11 = PRODUCT_RELATED_PRODUCT_CATEGORY( 'detail', ' ', ( #22 ) );
#12 = PRODUCT_DEFINITION_SHAPE( 'NONE', 'NONE', #23 );
#13 = ADVANCED_BREP_SHAPE_REPRESENTATION( 'Part 1', ( #24, #25 ), #5 );
#16 = UNCERTAINTY_MEASURE_WITH_UNIT( LENGTH_MEASURE( 1.00000000000000E-06 ), #18, '', '' );
#18 =  ( CONVERSION_BASED_UNIT( 'METRE', #28 )LENGTH_UNIT(  )NAMED_UNIT( #31 ) );
#19 =  ( NAMED_UNIT( #33 )PLANE_ANGLE_UNIT(  )SI_UNIT( $, .RADIAN. ) );
#20 =  ( NAMED_UNIT( #33 )SI_UNIT( $, .STERADIAN. )SOLID_ANGLE_UNIT(  ) );
#22 = PRODUCT( 'Part 1', 'Part 1', 'PART-Part 1-DESC', ( #39 ) );
#23 = PRODUCT_DEFINITION( 'NONE', 'NONE', #40, #1 );
#24 = MANIFOLD_SOLID_BREP( 'Part 1', #41 );
#25 = AXIS2_PLACEMENT_3D( '', #42, #43, #44 );
#28 = LENGTH_MEASURE_WITH_UNIT( LENGTH_MEASURE( 1.00000000000000 ), #45 );
#31 = DIMENSIONAL_EXPONENTS( 1.00000000000000, 0.00000000000000, 0.00000000000000, 0.00000000000000, 0.00000000000000, 0.00000000000000, 0.00000000000000 );
#33 = DIMENSIONAL_EXPONENTS( 0.00000000000000, 0.00000000000000, 0.00000000000000, 0.00000000000000, 0.00000000000000, 0.00000000000000, 0.00000000000000 );
#39 = PRODUCT_CONTEXT( '', #9, 'mechanical' );
#40 = PRODUCT_DEFINITION_FORMATION_WITH_SPECIFIED_SOURCE( ' ', 'NONE', #22, .NOT_KNOWN. );
#41 = CLOSED_SHELL( '', ( #46, #47, #48, #49, #50, #51, #52, #53, #54, #55, #56, #57, #58, #59, #60, #61, #62, #63, #64, #65, #66, #67, #68, #69, #70, #71, #72, #73, #74, #75, #76, #77, #78, #79, #80, #81, #82, #83, #84, #85, #86, #87, #88, #89 ) );
#42 = CARTESIAN_POINT( '', ( 0.00000000000000, 0.00000000000000, 0.00000000000000 ) );
#43 = DIRECTION( '', ( 0.00000000000000, 0.00000000000000, 1.00000000000000 ) );
#44 = DIRECTION( '', ( 1.00000000000000, 0.00000000000000, 0.00000000000000 ) );
#45 =  ( LENGTH_UNIT(  )NAMED_UNIT( #31 )SI_UNIT( $, .METRE. ) );
#46 = ADVANCED_FACE( '', ( #91 ), #92, .T. );
#47 = ADVANCED_FACE( '', ( #93 ), #94, .T. );
#48 = ADVANCED_FACE( '', ( #95 ), #96, .T. );
#49 = ADVANCED_FACE( '', ( #97, #98 ), #99, .T. );
#50 = ADVANCED_FACE( '', ( #100 ), #101, .T. );
#51 = ADVANCED_FACE( '', ( #102, #103 ), #104, .T. );
#52 = ADVANCED_FACE( '', ( #105 ), #106, .T. );
#53 = ADVANCED_FACE( '', ( #107 ), #108, .T. );
#54 = ADVANCED_FACE( '', ( #109 ), #110, .F. );
#55 = ADVANCED_FACE( '', ( #111 ), #112, .F. );
#56 = ADVANCED_FACE( '', ( #113 ), #114, .F. );
#57 = ADVANCED_FACE( '', ( #115 ), #116, .T. );
#58 = ADVANCED_FACE( '', ( #117 ), #118, .F. );
#59 = ADVANCED_FACE( '', ( #119 ), #120, .T. );
#60 = ADVANCED_FACE( '', ( #121 ), #122, .F. );
#61 = ADVANCED_FACE( '', ( #123, #124 ), #125, .F. );
#62 = ADVANCED_FACE( '', ( #126, #127 ), #128, .F. );
#63 = ADVANCED_FACE( '', ( #129 ), #130, .T. );
#64 = ADVANCED_FACE( '', ( #131 ), #132, .T. );
#65 = ADVANCED_FACE( '', ( #133 ), #134, .T. );
#66 = ADVANCED_FACE( '', ( #135 ), #136, .T. );
#67 = ADVANCED_FACE( '', ( #137 ), #138, .T. );
#68 = ADVANCED_FACE( '', ( #139 ), #140, .F. );
#69 = ADVANCED_FACE( '', ( #141 ), #142, .T. );
#70 = ADVANCED_FACE( '', ( #143 ), #144, .F. );
#71 = ADVANCED_FACE( '', ( #145 ), #146, .T. );
#72 = ADVANCED_FACE( '', ( #147 ), #148, .T. );
#73 = ADVANCED_FACE( '', ( #149, #150 ), #151, .F. );
#74 = ADVANCED_FACE( '', ( #152 ), #153, .F. );
#75 = ADVANCED_FACE( '', ( #154 ), #155, .F. );
#76 = ADVANCED_FACE( '', ( #156 ), #157, .T. );
#77 = ADVANCED_FACE( '', ( #158 ), #159, .T. );
#78 = ADVANCED_FACE( '', ( #160 ), #161, .F. );
#79 = ADVANCED_FACE( '', ( #162 ), #163, .F. );
#80 = ADVANCED_FACE( '', ( #164 ), #165, .T. );
#81 = ADVANCED_FACE( '', ( #166 ), #167, .T. );
#82 = ADVANCED_FACE( '', ( #168 ), #169, .F. );
#83 = ADVANCED_FACE( '', ( #170 ), #171, .F. );
#84 = ADVANCED_FACE( '', ( #172 ), #173, .F. );
#85 = ADVANCED_FACE( '', ( #174 ), #175, .T. );
#86 = ADVANCED_FACE( '', ( #176 ), #177, .T. );
#87 = ADVANCED_FACE( '', ( #178 ), #179, .F. );
#88 = ADVANCED_FACE( '', ( #180, #181 ), #182, .F. );
#89 = ADVANCED_FACE( '', ( #183 ), #184, .T. );
#91 = FACE_OUTER_BOUND( '', #185, .T. );
#92 = CYLINDRICAL_SURFACE( '', #186, 0.00200000000000000 );
#93 = FACE_OUTER_BOUND( '', #187, .T. );
#94 = CYLINDRICAL_SURFACE( '', #188, 0.00200000000000000 );
#95 = FACE_OUTER_BOUND( '', #189, .T. );
#96 = PLANE( '', #190 );
#97 = FACE_BOUND( '', #191, .T. );
#98 = FACE_OUTER_BOUND( '', #192, .T. );
#99 = PLANE( '', #193 );
#100 = FACE_OUTER_BOUND( '', #194, .T. );
#101 = PLANE( '', #195 );
#102 = FACE_BOUND( '', #196, .T. );
#103 = FACE_OUTER_BOUND( '', #197, .T. );
#104 = PLANE( '', #198 );
#105 = FACE_OUTER_BOUND( '', #199, .T. );
#106 = PLANE( '', #200 );
#107 = FACE_OUTER_BOUND( '', #201, .T. );
#108 = PLANE( '', #202 );
#109 = FACE_OUTER_BOUND( '', #203, .T. );
#110 = CYLINDRICAL_SURFACE( '', #204, 0.00100000000000000 );
#111 = FACE_OUTER_BOUND( '', #205, .T. );
#112 = CYLINDRICAL_SURFACE( '', #206, 0.00100000000000000 );
#113 = FACE_OUTER_BOUND( '', #207, .T. );
#114 = CYLINDRICAL_SURFACE( '', #208, 0.00100000000000000 );
#115 = FACE_OUTER_BOUND( '', #209, .T. );
#116 = PLANE( '', #210 );
#117 = FACE_OUTER_BOUND( '', #211, .T. );
#118 = PLANE( '', #212 );
#119 = FACE_OUTER_BOUND( '', #213, .T. );
#120 = PLANE( '', #214 );
#121 = FACE_OUTER_BOUND( '', #215, .T. );
#122 = PLANE( '', #216 );
#123 = FACE_BOUND( '', #217, .T. );
#124 = FACE_OUTER_BOUND( '', #218, .T. );
#125 = PLANE( '', #219 );
#126 = FACE_BOUND( '', #220, .T. );
#127 = FACE_OUTER_BOUND( '', #221, .T. );
#128 = PLANE( '', #222 );
#129 = FACE_OUTER_BOUND( '', #223, .T. );
#130 = PLANE( '', #224 );
#131 = FACE_OUTER_BOUND( '', #225, .T. );
#132 = CYLINDRICAL_SURFACE( '', #226, 0.00200000000000000 );
#133 = FACE_OUTER_BOUND( '', #227, .T. );
#134 = CYLINDRICAL_SURFACE( '', #228, 0.00200000000000000 );
#135 = FACE_OUTER_BOUND( '', #229, .T. );
#136 = CYLINDRICAL_SURFACE( '', #230, 0.00200000000000000 );
#137 = FACE_OUTER_BOUND( '', #231, .T. );
#138 = PLANE( '', #232 );
#139 = FACE_OUTER_BOUND( '', #233, .T. );
#140 = PLANE( '', #234 );
#141 = FACE_OUTER_BOUND( '', #235, .T. );
#142 = PLANE( '', #236 );
#143 = FACE_OUTER_BOUND( '', #237, .T. );
#144 = PLANE( '', #238 );
#145 = FACE_OUTER_BOUND( '', #239, .T. );
#146 = PLANE( '', #240 );
#147 = FACE_OUTER_BOUND( '', #241, .T. );
#148 = PLANE( '', #242 );
#149 = FACE_OUTER_BOUND( '', #243, .T. );
#150 = FACE_OUTER_BOUND( '', #244, .T. );
#151 = CYLINDRICAL_SURFACE( '', #245, 0.00150000000000000 );
#152 = FACE_OUTER_BOUND( '', #246, .T. );
#153 = CYLINDRICAL_SURFACE( '', #247, 0.0100000000000000 );
#154 = FACE_OUTER_BOUND( '', #248, .T. );
#155 = PLANE( '', #249 );
#156 = FACE_OUTER_BOUND( '', #250, .T. );
#157 = PLANE( '', #251 );
#158 = FACE_OUTER_BOUND( '', #252, .T. );
#159 = PLANE( '', #253 );
#160 = FACE_OUTER_BOUND( '', #254, .T. );
#161 = CYLINDRICAL_SURFACE( '', #255, 0.0100000000000000 );
#162 = FACE_OUTER_BOUND( '', #256, .T. );
#163 = PLANE( '', #257 );
#164 = FACE_OUTER_BOUND( '', #258, .T. );
#165 = PLANE( '', #259 );
#166 = FACE_OUTER_BOUND( '', #260, .T. );
#167 = PLANE( '', #261 );
#168 = FACE_OUTER_BOUND( '', #262, .T. );
#169 = CYLINDRICAL_SURFACE( '', #263, 0.00100000000000000 );
#170 = FACE_OUTER_BOUND( '', #264, .T. );
#171 = CYLINDRICAL_SURFACE( '', #265, 0.00100000000000000 );
#172 = FACE_OUTER_BOUND( '', #266, .T. );
#173 = PLANE( '', #267 );
#174 = FACE_OUTER_BOUND( '', #268, .T. );
#175 = PLANE( '', #269 );
#176 = FACE_OUTER_BOUND( '', #270, .T. );
#177 = PLANE( '', #271 );
#178 = FACE_OUTER_BOUND( '', #272, .T. );
#179 = PLANE( '', #273 );
#180 = FACE_OUTER_BOUND( '', #274, .T. );
#181 = FACE_OUTER_BOUND( '', #275, .T. );
#182 = CYLINDRICAL_SURFACE( '', #276, 0.00150000000000000 );
#183 = FACE_OUTER_BOUND( '', #277, .T. );
#184 = CYLINDRICAL_SURFACE( '', #278, 0.00200000000000000 );
#185 = EDGE_LOOP( '', ( #279, #280, #281, #282 ) );
#186 = AXIS2_PLACEMENT_3D( '', #283, #284, #285 );
#187 = EDGE_LOOP( '', ( #286, #287, #288, #289 ) );
#188 = AXIS2_PLACEMENT_3D( '', #290, #291, #292 );
#189 = EDGE_LOOP( '', ( #293, #294, #295, #296 ) );
#190 = AXIS2_PLACEMENT_3D( '', #297, #298, #299 );
#191 = EDGE_LOOP( '', ( #300 ) );
#192 = EDGE_LOOP( '', ( #301, #302, #303, #304, #305 ) );
#193 = AXIS2_PLACEMENT_3D( '', #306, #307, #308 );
#194 = EDGE_LOOP( '', ( #309, #310, #311 ) );
#195 = AXIS2_PLACEMENT_3D( '', #312, #313, #314 );
#196 = EDGE_LOOP( '', ( #315 ) );
#197 = EDGE_LOOP( '', ( #316, #317, #318, #319, #320 ) );
#198 = AXIS2_PLACEMENT_3D( '', #321, #322, #323 );
#199 = EDGE_LOOP( '', ( #324, #325, #326, #327 ) );
#200 = AXIS2_PLACEMENT_3D( '', #328, #329, #330 );
#201 = EDGE_LOOP( '', ( #331, #332, #333, #334, #335, #336, #337, #338, #339, #340, #341, #342, #343, #344, #345, #346, #347, #348, #349, #350 ) );
#202 = AXIS2_PLACEMENT_3D( '', #351, #352, #353 );
#203 = EDGE_LOOP( '', ( #354, #355, #356, #357 ) );
#204 = AXIS2_PLACEMENT_3D( '', #358, #359, #360 );
#205 = EDGE_LOOP( '', ( #361, #362, #363, #364 ) );
#206 = AXIS2_PLACEMENT_3D( '', #365, #366, #367 );
#207 = EDGE_LOOP( '', ( #368, #369, #370, #371, #372 ) );
#208 = AXIS2_PLACEMENT_3D( '', #373, #374, #375 );
#209 = EDGE_LOOP( '', ( #376, #377, #378, #379, #380, #381, #382, #383, #384, #385, #386, #387, #388, #389, #390, #391, #392, #393, #394, #395, #396, #397, #398, #399 ) );
#210 = AXIS2_PLACEMENT_3D( '', #400, #401, #402 );
#211 = EDGE_LOOP( '', ( #403, #404, #405, #406, #407, #408, #409, #410, #411, #412, #413, #414 ) );
#212 = AXIS2_PLACEMENT_3D( '', #415, #416, #417 );
#213 = EDGE_LOOP( '', ( #418, #419, #420, #421 ) );
#214 = AXIS2_PLACEMENT_3D( '', #422, #423, #424 );
#215 = EDGE_LOOP( '', ( #425, #426, #427, #428, #429 ) );
#216 = AXIS2_PLACEMENT_3D( '', #430, #431, #432 );
#217 = EDGE_LOOP( '', ( #433 ) );
#218 = EDGE_LOOP( '', ( #434, #435, #436, #437 ) );
#219 = AXIS2_PLACEMENT_3D( '', #438, #439, #440 );
#220 = EDGE_LOOP( '', ( #441 ) );
#221 = EDGE_LOOP( '', ( #442, #443, #444, #445 ) );
#222 = AXIS2_PLACEMENT_3D( '', #446, #447, #448 );
#223 = EDGE_LOOP( '', ( #449, #450, #451, #452, #453 ) );
#224 = AXIS2_PLACEMENT_3D( '', #454, #455, #456 );
#225 = EDGE_LOOP( '', ( #457, #458, #459, #460 ) );
#226 = AXIS2_PLACEMENT_3D( '', #461, #462, #463 );
#227 = EDGE_LOOP( '', ( #464, #465, #466, #467 ) );
#228 = AXIS2_PLACEMENT_3D( '', #468, #469, #470 );
#229 = EDGE_LOOP( '', ( #471, #472, #473, #474 ) );
#230 = AXIS2_PLACEMENT_3D( '', #475, #476, #477 );
#231 = EDGE_LOOP( '', ( #478, #479, #480, #481, #482, #483, #484, #485 ) );
#232 = AXIS2_PLACEMENT_3D( '', #486, #487, #488 );
#233 = EDGE_LOOP( '', ( #489, #490, #491, #492, #493, #494, #495, #496 ) );
#234 = AXIS2_PLACEMENT_3D( '', #497, #498, #499 );
#235 = EDGE_LOOP( '', ( #500, #501, #502, #503, #504 ) );
#236 = AXIS2_PLACEMENT_3D( '', #505, #506, #507 );
#237 = EDGE_LOOP( '', ( #508, #509, #510, #511, #512 ) );
#238 = AXIS2_PLACEMENT_3D( '', #513, #514, #515 );
#239 = EDGE_LOOP( '', ( #516, #517, #518, #519, #520 ) );
#240 = AXIS2_PLACEMENT_3D( '', #521, #522, #523 );
#241 = EDGE_LOOP( '', ( #524, #525, #526, #527, #528 ) );
#242 = AXIS2_PLACEMENT_3D( '', #529, #530, #531 );
#243 = EDGE_LOOP( '', ( #532 ) );
#244 = EDGE_LOOP( '', ( #533 ) );
#245 = AXIS2_PLACEMENT_3D( '', #534, #535, #536 );
#246 = EDGE_LOOP( '', ( #537, #538, #539, #540 ) );
#247 = AXIS2_PLACEMENT_3D( '', #541, #542, #543 );
#248 = EDGE_LOOP( '', ( #544, #545, #546, #547 ) );
#249 = AXIS2_PLACEMENT_3D( '', #548, #549, #550 );
#250 = EDGE_LOOP( '', ( #551, #552, #553, #554 ) );
#251 = AXIS2_PLACEMENT_3D( '', #555, #556, #557 );
#252 = EDGE_LOOP( '', ( #558, #559, #560, #561 ) );
#253 = AXIS2_PLACEMENT_3D( '', #562, #563, #564 );
#254 = EDGE_LOOP( '', ( #565, #566, #567, #568 ) );
#255 = AXIS2_PLACEMENT_3D( '', #569, #570, #571 );
#256 = EDGE_LOOP( '', ( #572, #573, #574, #575 ) );
#257 = AXIS2_PLACEMENT_3D( '', #576, #577, #578 );
#258 = EDGE_LOOP( '', ( #579, #580, #581, #582 ) );
#259 = AXIS2_PLACEMENT_3D( '', #583, #584, #585 );
#260 = EDGE_LOOP( '', ( #586, #587, #588, #589 ) );
#261 = AXIS2_PLACEMENT_3D( '', #590, #591, #592 );
#262 = EDGE_LOOP( '', ( #593, #594, #595, #596, #597 ) );
#263 = AXIS2_PLACEMENT_3D( '', #598, #599, #600 );
#264 = EDGE_LOOP( '', ( #601, #602, #603, #604 ) );
#265 = AXIS2_PLACEMENT_3D( '', #605, #606, #607 );
#266 = EDGE_LOOP( '', ( #608, #609, #610, #611 ) );
#267 = AXIS2_PLACEMENT_3D( '', #612, #613, #614 );
#268 = EDGE_LOOP( '', ( #615, #616, #617 ) );
#269 = AXIS2_PLACEMENT_3D( '', #618, #619, #620 );
#270 = EDGE_LOOP( '', ( #621, #622, #623, #624, #625, #626 ) );
#271 = AXIS2_PLACEMENT_3D( '', #627, #628, #629 );
#272 = EDGE_LOOP( '', ( #630, #631, #632, #633, #634, #635 ) );
#273 = AXIS2_PLACEMENT_3D( '', #636, #637, #638 );
#274 = EDGE_LOOP( '', ( #639 ) );
#275 = EDGE_LOOP( '', ( #640 ) );
#276 = AXIS2_PLACEMENT_3D( '', #641, #642, #643 );
#277 = EDGE_LOOP( '', ( #644, #645, #646, #647 ) );
#278 = AXIS2_PLACEMENT_3D( '', #648, #649, #650 );
#279 = ORIENTED_EDGE( '', *, *, #651, .F. );
#280 = ORIENTED_EDGE( '', *, *, #652, .T. );
#281 = ORIENTED_EDGE( '', *, *, #653, .F. );
#282 = ORIENTED_EDGE( '', *, *, #654, .F. );
#283 = CARTESIAN_POINT( '', ( 0.0126715728752538, -0.00950000000000000, 0.00680000000000000 ) );
#284 = DIRECTION( '', ( -0.00000000000000, -0.00000000000000, -1.00000000000000 ) );
#285 = DIRECTION( '', ( 1.00000000000000, 0.00000000000000, 0.00000000000000 ) );
#286 = ORIENTED_EDGE( '', *, *, #655, .F. );
#287 = ORIENTED_EDGE( '', *, *, #656, .T. );
#288 = ORIENTED_EDGE( '', *, *, #657, .F. );
#289 = ORIENTED_EDGE( '', *, *, #658, .F. );
#290 = CARTESIAN_POINT( '', ( 0.0221715728752538, -3.46944695195361E-18, 0.00680000000000000 ) );
#291 = DIRECTION( '', ( -0.00000000000000, -0.00000000000000, 1.00000000000000 ) );
#292 = DIRECTION( '', ( -1.00000000000000, 0.00000000000000, 0.00000000000000 ) );
#293 = ORIENTED_EDGE( '', *, *, #657, .T. );
#294 = ORIENTED_EDGE( '', *, *, #659, .T. );
#295 = ORIENTED_EDGE( '', *, *, #651, .T. );
#296 = ORIENTED_EDGE( '', *, *, #660, .F. );
#297 = CARTESIAN_POINT( '', ( 0.0336368702219447, 0.00863687022194471, 0.00680000000000000 ) );
#298 = DIRECTION( '', ( 0.707106781186548, -0.707106781186547, 0.00000000000000 ) );
#299 = DIRECTION( '', ( 0.707106781186547, 0.707106781186548, 0.00000000000000 ) );
#300 = ORIENTED_EDGE( '', *, *, #661, .F. );
#301 = ORIENTED_EDGE( '', *, *, #662, .F. );
#302 = ORIENTED_EDGE( '', *, *, #663, .T. );
#303 = ORIENTED_EDGE( '', *, *, #664, .T. );
#304 = ORIENTED_EDGE( '', *, *, #665, .F. );
#305 = ORIENTED_EDGE( '', *, *, #666, .F. );
#306 = CARTESIAN_POINT( '', ( -0.0422701214133416, -0.0246843349757147, 0.00680000000000000 ) );
#307 = DIRECTION( '', ( 0.707106781186548, -0.707106781186548, 0.00000000000000 ) );
#308 = DIRECTION( '', ( 0.707106781186548, 0.707106781186548, 0.00000000000000 ) );
#309 = ORIENTED_EDGE( '', *, *, #667, .T. );
#310 = ORIENTED_EDGE( '', *, *, #668, .T. );
#311 = ORIENTED_EDGE( '', *, *, #669, .F. );
#312 = CARTESIAN_POINT( '', ( -0.0422701214133416, -0.0246843349757147, 0.00680000000000000 ) );
#313 = DIRECTION( '', ( 0.707106781186548, -0.707106781186548, 0.00000000000000 ) );
#314 = DIRECTION( '', ( 0.707106781186548, 0.707106781186548, 0.00000000000000 ) );
#315 = ORIENTED_EDGE( '', *, *, #670, .F. );
#316 = ORIENTED_EDGE( '', *, *, #671, .F. );
#317 = ORIENTED_EDGE( '', *, *, #672, .F. );
#318 = ORIENTED_EDGE( '', *, *, #673, .F. );
#319 = ORIENTED_EDGE( '', *, *, #674, .F. );
#320 = ORIENTED_EDGE( '', *, *, #675, .T. );
#321 = CARTESIAN_POINT( '', ( -0.0295745814226433, 0.0119887949850165, 0.00680000000000000 ) );
#322 = DIRECTION( '', ( 0.707106781186548, 0.707106781186548, 0.00000000000000 ) );
#323 = DIRECTION( '', ( -0.707106781186548, 0.707106781186548, 0.00000000000000 ) );
#324 = ORIENTED_EDGE( '', *, *, #676, .F. );
#325 = ORIENTED_EDGE( '', *, *, #677, .F. );
#326 = ORIENTED_EDGE( '', *, *, #678, .T. );
#327 = ORIENTED_EDGE( '', *, *, #679, .F. );
#328 = CARTESIAN_POINT( '', ( 0.0212754758279771, -0.0105000000000000, 0.00680000000000000 ) );
#329 = DIRECTION( '', ( 0.00000000000000, 1.00000000000000, 0.00000000000000 ) );
#330 = DIRECTION( '', ( 0.00000000000000, 0.00000000000000, 1.00000000000000 ) );
#331 = ORIENTED_EDGE( '', *, *, #680, .T. );
#332 = ORIENTED_EDGE( '', *, *, #681, .T. );
#333 = ORIENTED_EDGE( '', *, *, #682, .F. );
#334 = ORIENTED_EDGE( '', *, *, #666, .T. );
#335 = ORIENTED_EDGE( '', *, *, #683, .F. );
#336 = ORIENTED_EDGE( '', *, *, #673, .T. );
#337 = ORIENTED_EDGE( '', *, *, #684, .F. );
#338 = ORIENTED_EDGE( '', *, *, #685, .T. );
#339 = ORIENTED_EDGE( '', *, *, #686, .T. );
#340 = ORIENTED_EDGE( '', *, *, #687, .F. );
#341 = ORIENTED_EDGE( '', *, *, #688, .T. );
#342 = ORIENTED_EDGE( '', *, *, #689, .T. );
#343 = ORIENTED_EDGE( '', *, *, #652, .F. );
#344 = ORIENTED_EDGE( '', *, *, #659, .F. );
#345 = ORIENTED_EDGE( '', *, *, #656, .F. );
#346 = ORIENTED_EDGE( '', *, *, #690, .F. );
#347 = ORIENTED_EDGE( '', *, *, #691, .F. );
#348 = ORIENTED_EDGE( '', *, *, #692, .F. );
#349 = ORIENTED_EDGE( '', *, *, #693, .F. );
#350 = ORIENTED_EDGE( '', *, *, #694, .F. );
#351 = CARTESIAN_POINT( '', ( 0.00300000000000000, 0.00000000000000, 0.00100000000000000 ) );
#352 = DIRECTION( '', ( 0.00000000000000, 0.00000000000000, 1.00000000000000 ) );
#353 = DIRECTION( '', ( 1.00000000000000, 0.00000000000000, 0.00000000000000 ) );
#354 = ORIENTED_EDGE( '', *, *, #695, .F. );
#355 = ORIENTED_EDGE( '', *, *, #696, .T. );
#356 = ORIENTED_EDGE( '', *, *, #697, .T. );
#357 = ORIENTED_EDGE( '', *, *, #669, .T. );
#358 = CARTESIAN_POINT( '', ( -0.00667157287525379, 0.00950000000000000, 0.00680000000000000 ) );
#359 = DIRECTION( '', ( -0.00000000000000, -0.00000000000000, -1.00000000000000 ) );
#360 = DIRECTION( '', ( 1.00000000000000, 0.00000000000000, 0.00000000000000 ) );
#361 = ORIENTED_EDGE( '', *, *, #698, .T. );
#362 = ORIENTED_EDGE( '', *, *, #674, .T. );
#363 = ORIENTED_EDGE( '', *, *, #683, .T. );
#364 = ORIENTED_EDGE( '', *, *, #665, .T. );
#365 = CARTESIAN_POINT( '', ( -0.0161715728752538, -1.73472347597680E-18, 0.00680000000000000 ) );
#366 = DIRECTION( '', ( -0.00000000000000, -0.00000000000000, 1.00000000000000 ) );
#367 = DIRECTION( '', ( -1.00000000000000, 0.00000000000000, 0.00000000000000 ) );
#368 = ORIENTED_EDGE( '', *, *, #672, .T. );
#369 = ORIENTED_EDGE( '', *, *, #699, .T. );
#370 = ORIENTED_EDGE( '', *, *, #700, .T. );
#371 = ORIENTED_EDGE( '', *, *, #701, .T. );
#372 = ORIENTED_EDGE( '', *, *, #684, .T. );
#373 = CARTESIAN_POINT( '', ( -0.00667157287525380, -0.00950000000000000, 0.00680000000000000 ) );
#374 = DIRECTION( '', ( -0.00000000000000, -0.00000000000000, 1.00000000000000 ) );
#375 = DIRECTION( '', ( -1.00000000000000, 0.00000000000000, 0.00000000000000 ) );
#376 = ORIENTED_EDGE( '', *, *, #702, .F. );
#377 = ORIENTED_EDGE( '', *, *, #678, .F. );
#378 = ORIENTED_EDGE( '', *, *, #703, .F. );
#379 = ORIENTED_EDGE( '', *, *, #704, .F. );
#380 = ORIENTED_EDGE( '', *, *, #705, .T. );
#381 = ORIENTED_EDGE( '', *, *, #706, .T. );
#382 = ORIENTED_EDGE( '', *, *, #707, .F. );
#383 = ORIENTED_EDGE( '', *, *, #675, .F. );
#384 = ORIENTED_EDGE( '', *, *, #698, .F. );
#385 = ORIENTED_EDGE( '', *, *, #664, .F. );
#386 = ORIENTED_EDGE( '', *, *, #708, .T. );
#387 = ORIENTED_EDGE( '', *, *, #709, .F. );
#388 = ORIENTED_EDGE( '', *, *, #710, .F. );
#389 = ORIENTED_EDGE( '', *, *, #667, .F. );
#390 = ORIENTED_EDGE( '', *, *, #697, .F. );
#391 = ORIENTED_EDGE( '', *, *, #711, .T. );
#392 = ORIENTED_EDGE( '', *, *, #712, .T. );
#393 = ORIENTED_EDGE( '', *, *, #713, .F. );
#394 = ORIENTED_EDGE( '', *, *, #714, .T. );
#395 = ORIENTED_EDGE( '', *, *, #715, .T. );
#396 = ORIENTED_EDGE( '', *, *, #716, .T. );
#397 = ORIENTED_EDGE( '', *, *, #717, .T. );
#398 = ORIENTED_EDGE( '', *, *, #718, .T. );
#399 = ORIENTED_EDGE( '', *, *, #719, .T. );
#400 = CARTESIAN_POINT( '', ( 0.00300000000000000, 0.00000000000000, 0.00680000000000000 ) );
#401 = DIRECTION( '', ( 0.00000000000000, 0.00000000000000, 1.00000000000000 ) );
#402 = DIRECTION( '', ( 1.00000000000000, 0.00000000000000, 0.00000000000000 ) );
#403 = ORIENTED_EDGE( '', *, *, #720, .F. );
#404 = ORIENTED_EDGE( '', *, *, #721, .T. );
#405 = ORIENTED_EDGE( '', *, *, #722, .T. );
#406 = ORIENTED_EDGE( '', *, *, #723, .T. );
#407 = ORIENTED_EDGE( '', *, *, #724, .T. );
#408 = ORIENTED_EDGE( '', *, *, #658, .T. );
#409 = ORIENTED_EDGE( '', *, *, #660, .T. );
#410 = ORIENTED_EDGE( '', *, *, #654, .T. );
#411 = ORIENTED_EDGE( '', *, *, #725, .F. );
#412 = ORIENTED_EDGE( '', *, *, #726, .T. );
#413 = ORIENTED_EDGE( '', *, *, #727, .F. );
#414 = ORIENTED_EDGE( '', *, *, #728, .T. );
#415 = CARTESIAN_POINT( '', ( 0.00300000000000000, 0.00000000000000, 0.00000000000000 ) );
#416 = DIRECTION( '', ( 0.00000000000000, 0.00000000000000, 1.00000000000000 ) );
#417 = DIRECTION( '', ( 1.00000000000000, 0.00000000000000, 0.00000000000000 ) );
#418 = ORIENTED_EDGE( '', *, *, #729, .T. );
#419 = ORIENTED_EDGE( '', *, *, #690, .T. );
#420 = ORIENTED_EDGE( '', *, *, #655, .T. );
#421 = ORIENTED_EDGE( '', *, *, #724, .F. );
#422 = CARTESIAN_POINT( '', ( -0.00214382664223418, 0.0271438266422342, 0.00680000000000000 ) );
#423 = DIRECTION( '', ( 0.707106781186548, 0.707106781186547, 0.00000000000000 ) );
#424 = DIRECTION( '', ( -0.707106781186547, 0.707106781186548, 0.00000000000000 ) );
#425 = ORIENTED_EDGE( '', *, *, #719, .F. );
#426 = ORIENTED_EDGE( '', *, *, #730, .T. );
#427 = ORIENTED_EDGE( '', *, *, #725, .T. );
#428 = ORIENTED_EDGE( '', *, *, #653, .T. );
#429 = ORIENTED_EDGE( '', *, *, #731, .T. );
#430 = CARTESIAN_POINT( '', ( 0.0212754758279771, -0.0115000000000000, 0.00680000000000000 ) );
#431 = DIRECTION( '', ( 0.00000000000000, 1.00000000000000, 0.00000000000000 ) );
#432 = DIRECTION( '', ( 0.00000000000000, 0.00000000000000, 1.00000000000000 ) );
#433 = ORIENTED_EDGE( '', *, *, #732, .T. );
#434 = ORIENTED_EDGE( '', *, *, #717, .F. );
#435 = ORIENTED_EDGE( '', *, *, #733, .T. );
#436 = ORIENTED_EDGE( '', *, *, #727, .T. );
#437 = ORIENTED_EDGE( '', *, *, #734, .T. );
#438 = CARTESIAN_POINT( '', ( -0.0302816882038299, 0.0112816882038299, 0.00680000000000000 ) );
#439 = DIRECTION( '', ( 0.707106781186548, 0.707106781186548, 0.00000000000000 ) );
#440 = DIRECTION( '', ( -0.707106781186548, 0.707106781186548, 0.00000000000000 ) );
#441 = ORIENTED_EDGE( '', *, *, #735, .T. );
#442 = ORIENTED_EDGE( '', *, *, #715, .F. );
#443 = ORIENTED_EDGE( '', *, *, #736, .T. );
#444 = ORIENTED_EDGE( '', *, *, #720, .T. );
#445 = ORIENTED_EDGE( '', *, *, #737, .T. );
#446 = CARTESIAN_POINT( '', ( -0.0429772281945281, -0.0239772281945282, 0.00680000000000000 ) );
#447 = DIRECTION( '', ( 0.707106781186548, -0.707106781186548, 0.00000000000000 ) );
#448 = DIRECTION( '', ( 0.707106781186548, 0.707106781186548, 0.00000000000000 ) );
#449 = ORIENTED_EDGE( '', *, *, #722, .F. );
#450 = ORIENTED_EDGE( '', *, *, #738, .T. );
#451 = ORIENTED_EDGE( '', *, *, #713, .T. );
#452 = ORIENTED_EDGE( '', *, *, #739, .T. );
#453 = ORIENTED_EDGE( '', *, *, #740, .T. );
#454 = CARTESIAN_POINT( '', ( -0.00812810373492540, 0.0115000000000000, 0.00680000000000000 ) );
#455 = DIRECTION( '', ( 0.00000000000000, 1.00000000000000, 0.00000000000000 ) );
#456 = DIRECTION( '', ( 0.00000000000000, 0.00000000000000, 1.00000000000000 ) );
#457 = ORIENTED_EDGE( '', *, *, #714, .F. );
#458 = ORIENTED_EDGE( '', *, *, #738, .F. );
#459 = ORIENTED_EDGE( '', *, *, #721, .F. );
#460 = ORIENTED_EDGE( '', *, *, #736, .F. );
#461 = CARTESIAN_POINT( '', ( -0.00667157287525379, 0.00950000000000000, 0.00680000000000000 ) );
#462 = DIRECTION( '', ( -0.00000000000000, -0.00000000000000, -1.00000000000000 ) );
#463 = DIRECTION( '', ( 1.00000000000000, 0.00000000000000, 0.00000000000000 ) );
#464 = ORIENTED_EDGE( '', *, *, #716, .F. );
#465 = ORIENTED_EDGE( '', *, *, #737, .F. );
#466 = ORIENTED_EDGE( '', *, *, #728, .F. );
#467 = ORIENTED_EDGE( '', *, *, #733, .F. );
#468 = CARTESIAN_POINT( '', ( -0.0161715728752538, -1.73472347597680E-18, 0.00680000000000000 ) );
#469 = DIRECTION( '', ( -0.00000000000000, -0.00000000000000, 1.00000000000000 ) );
#470 = DIRECTION( '', ( -1.00000000000000, 0.00000000000000, 0.00000000000000 ) );
#471 = ORIENTED_EDGE( '', *, *, #718, .F. );
#472 = ORIENTED_EDGE( '', *, *, #734, .F. );
#473 = ORIENTED_EDGE( '', *, *, #726, .F. );
#474 = ORIENTED_EDGE( '', *, *, #730, .F. );
#475 = CARTESIAN_POINT( '', ( -0.00667157287525380, -0.00950000000000000, 0.00680000000000000 ) );
#476 = DIRECTION( '', ( -0.00000000000000, -0.00000000000000, 1.00000000000000 ) );
#477 = DIRECTION( '', ( -1.00000000000000, 0.00000000000000, 0.00000000000000 ) );
#478 = ORIENTED_EDGE( '', *, *, #739, .F. );
#479 = ORIENTED_EDGE( '', *, *, #712, .F. );
#480 = ORIENTED_EDGE( '', *, *, #741, .T. );
#481 = ORIENTED_EDGE( '', *, *, #742, .T. );
#482 = ORIENTED_EDGE( '', *, *, #709, .T. );
#483 = ORIENTED_EDGE( '', *, *, #743, .T. );
#484 = ORIENTED_EDGE( '', *, *, #744, .T. );
#485 = ORIENTED_EDGE( '', *, *, #692, .T. );
#486 = CARTESIAN_POINT( '', ( 0.0126715728752538, 0.0115000000000000, 0.00340000000000000 ) );
#487 = DIRECTION( '', ( 1.00000000000000, 0.00000000000000, 0.00000000000000 ) );
#488 = DIRECTION( '', ( 0.00000000000000, 0.00000000000000, -1.00000000000000 ) );
#489 = ORIENTED_EDGE( '', *, *, #731, .F. );
#490 = ORIENTED_EDGE( '', *, *, #689, .F. );
#491 = ORIENTED_EDGE( '', *, *, #745, .T. );
#492 = ORIENTED_EDGE( '', *, *, #746, .F. );
#493 = ORIENTED_EDGE( '', *, *, #706, .F. );
#494 = ORIENTED_EDGE( '', *, *, #747, .T. );
#495 = ORIENTED_EDGE( '', *, *, #679, .T. );
#496 = ORIENTED_EDGE( '', *, *, #702, .T. );
#497 = CARTESIAN_POINT( '', ( 0.0126715728752538, -0.0115000000000000, 0.00340000000000000 ) );
#498 = DIRECTION( '', ( -1.00000000000000, 0.00000000000000, 0.00000000000000 ) );
#499 = DIRECTION( '', ( 0.00000000000000, 0.00000000000000, -1.00000000000000 ) );
#500 = ORIENTED_EDGE( '', *, *, #748, .F. );
#501 = ORIENTED_EDGE( '', *, *, #749, .T. );
#502 = ORIENTED_EDGE( '', *, *, #676, .T. );
#503 = ORIENTED_EDGE( '', *, *, #747, .F. );
#504 = ORIENTED_EDGE( '', *, *, #705, .F. );
#505 = CARTESIAN_POINT( '', ( -500.000000000000, -0.0105112066399023, 0.00638879336009767 ) );
#506 = DIRECTION( '', ( 0.00000000000000, -0.707106781186548, 0.707106781186548 ) );
#507 = DIRECTION( '', ( 0.00000000000000, -0.707106781186548, -0.707106781186548 ) );
#508 = ORIENTED_EDGE( '', *, *, #699, .F. );
#509 = ORIENTED_EDGE( '', *, *, #671, .T. );
#510 = ORIENTED_EDGE( '', *, *, #707, .T. );
#511 = ORIENTED_EDGE( '', *, *, #746, .T. );
#512 = ORIENTED_EDGE( '', *, *, #750, .F. );
#513 = CARTESIAN_POINT( '', ( -500.000000000000, -0.0101469577134744, 0.00515304228652562 ) );
#514 = DIRECTION( '', ( 0.00000000000000, -0.707106781186548, 0.707106781186548 ) );
#515 = DIRECTION( '', ( 0.00000000000000, -0.707106781186548, -0.707106781186548 ) );
#516 = ORIENTED_EDGE( '', *, *, #663, .F. );
#517 = ORIENTED_EDGE( '', *, *, #751, .T. );
#518 = ORIENTED_EDGE( '', *, *, #752, .T. );
#519 = ORIENTED_EDGE( '', *, *, #743, .F. );
#520 = ORIENTED_EDGE( '', *, *, #708, .F. );
#521 = CARTESIAN_POINT( '', ( -500.000000000000, 0.00910438923659044, 0.00619561076340955 ) );
#522 = DIRECTION( '', ( 0.00000000000000, -0.707106781186547, -0.707106781186548 ) );
#523 = DIRECTION( '', ( 0.00000000000000, 0.707106781186548, -0.707106781186547 ) );
#524 = ORIENTED_EDGE( '', *, *, #753, .F. );
#525 = ORIENTED_EDGE( '', *, *, #695, .T. );
#526 = ORIENTED_EDGE( '', *, *, #668, .F. );
#527 = ORIENTED_EDGE( '', *, *, #710, .T. );
#528 = ORIENTED_EDGE( '', *, *, #742, .F. );
#529 = CARTESIAN_POINT( '', ( -500.000000000000, 0.0104827049084994, 0.00641729509150065 ) );
#530 = DIRECTION( '', ( 0.00000000000000, 0.707106781186548, 0.707106781186548 ) );
#531 = DIRECTION( '', ( 0.00000000000000, -0.707106781186548, 0.707106781186548 ) );
#532 = ORIENTED_EDGE( '', *, *, #661, .T. );
#533 = ORIENTED_EDGE( '', *, *, #735, .F. );
#534 = CARTESIAN_POINT( '', ( -0.0128357864376269, -0.0829494529611362, 0.00340000000000000 ) );
#535 = DIRECTION( '', ( -0.00000000000000, -1.00000000000000, -0.00000000000000 ) );
#536 = DIRECTION( '', ( 0.00000000000000, 0.00000000000000, 1.00000000000000 ) );
#537 = ORIENTED_EDGE( '', *, *, #686, .F. );
#538 = ORIENTED_EDGE( '', *, *, #754, .F. );
#539 = ORIENTED_EDGE( '', *, *, #755, .T. );
#540 = ORIENTED_EDGE( '', *, *, #756, .T. );
#541 = CARTESIAN_POINT( '', ( 0.00000000000000, 0.00000000000000, 0.00200000000000000 ) );
#542 = DIRECTION( '', ( -0.00000000000000, -0.00000000000000, 1.00000000000000 ) );
#543 = DIRECTION( '', ( -1.00000000000000, 0.00000000000000, 0.00000000000000 ) );
#544 = ORIENTED_EDGE( '', *, *, #687, .T. );
#545 = ORIENTED_EDGE( '', *, *, #756, .F. );
#546 = ORIENTED_EDGE( '', *, *, #757, .F. );
#547 = ORIENTED_EDGE( '', *, *, #758, .T. );
#548 = CARTESIAN_POINT( '', ( 0.00532842712474620, 3.46944695195361E-18, 0.00200000000000000 ) );
#549 = DIRECTION( '', ( -1.00000000000000, -1.83697019872103E-16, 0.00000000000000 ) );
#550 = DIRECTION( '', ( 1.83697019872103E-16, -1.00000000000000, 0.00000000000000 ) );
#551 = ORIENTED_EDGE( '', *, *, #685, .F. );
#552 = ORIENTED_EDGE( '', *, *, #701, .F. );
#553 = ORIENTED_EDGE( '', *, *, #759, .T. );
#554 = ORIENTED_EDGE( '', *, *, #754, .T. );
#555 = CARTESIAN_POINT( '', ( -0.00667157287525380, -0.000800000000000000, 0.00200000000000000 ) );
#556 = DIRECTION( '', ( -1.00000000000000, -1.83697019872103E-16, 0.00000000000000 ) );
#557 = DIRECTION( '', ( 1.83697019872103E-16, -1.00000000000000, 0.00000000000000 ) );
#558 = ORIENTED_EDGE( '', *, *, #759, .F. );
#559 = ORIENTED_EDGE( '', *, *, #760, .T. );
#560 = ORIENTED_EDGE( '', *, *, #757, .T. );
#561 = ORIENTED_EDGE( '', *, *, #755, .F. );
#562 = CARTESIAN_POINT( '', ( 0.00350000000000000, 3.46944695195361E-18, 0.00200000000000000 ) );
#563 = DIRECTION( '', ( 0.00000000000000, 0.00000000000000, 1.00000000000000 ) );
#564 = DIRECTION( '', ( 1.00000000000000, 0.00000000000000, 0.00000000000000 ) );
#565 = ORIENTED_EDGE( '', *, *, #680, .F. );
#566 = ORIENTED_EDGE( '', *, *, #761, .F. );
#567 = ORIENTED_EDGE( '', *, *, #762, .T. );
#568 = ORIENTED_EDGE( '', *, *, #763, .T. );
#569 = CARTESIAN_POINT( '', ( 0.00000000000000, 0.00000000000000, 0.00200000000000000 ) );
#570 = DIRECTION( '', ( -0.00000000000000, -0.00000000000000, 1.00000000000000 ) );
#571 = DIRECTION( '', ( -1.00000000000000, 0.00000000000000, 0.00000000000000 ) );
#572 = ORIENTED_EDGE( '', *, *, #694, .T. );
#573 = ORIENTED_EDGE( '', *, *, #764, .F. );
#574 = ORIENTED_EDGE( '', *, *, #765, .F. );
#575 = ORIENTED_EDGE( '', *, *, #761, .T. );
#576 = CARTESIAN_POINT( '', ( 0.00532842712474620, 0.00872140188196657, 0.00200000000000000 ) );
#577 = DIRECTION( '', ( -1.00000000000000, -1.83697019872103E-16, 0.00000000000000 ) );
#578 = DIRECTION( '', ( 1.83697019872103E-16, -1.00000000000000, 0.00000000000000 ) );
#579 = ORIENTED_EDGE( '', *, *, #681, .F. );
#580 = ORIENTED_EDGE( '', *, *, #763, .F. );
#581 = ORIENTED_EDGE( '', *, *, #766, .T. );
#582 = ORIENTED_EDGE( '', *, *, #767, .F. );
#583 = CARTESIAN_POINT( '', ( -0.00667157287525380, 0.00816804750824602, 0.00200000000000000 ) );
#584 = DIRECTION( '', ( -1.00000000000000, -1.83697019872103E-16, 0.00000000000000 ) );
#585 = DIRECTION( '', ( 1.83697019872103E-16, -1.00000000000000, 0.00000000000000 ) );
#586 = ORIENTED_EDGE( '', *, *, #762, .F. );
#587 = ORIENTED_EDGE( '', *, *, #765, .T. );
#588 = ORIENTED_EDGE( '', *, *, #768, .F. );
#589 = ORIENTED_EDGE( '', *, *, #766, .F. );
#590 = CARTESIAN_POINT( '', ( 0.00350000000000000, 3.46944695195361E-18, 0.00200000000000000 ) );
#591 = DIRECTION( '', ( 0.00000000000000, 0.00000000000000, 1.00000000000000 ) );
#592 = DIRECTION( '', ( 1.00000000000000, 0.00000000000000, 0.00000000000000 ) );
#593 = ORIENTED_EDGE( '', *, *, #751, .F. );
#594 = ORIENTED_EDGE( '', *, *, #662, .T. );
#595 = ORIENTED_EDGE( '', *, *, #682, .T. );
#596 = ORIENTED_EDGE( '', *, *, #767, .T. );
#597 = ORIENTED_EDGE( '', *, *, #769, .T. );
#598 = CARTESIAN_POINT( '', ( -0.00667157287525379, 0.00950000000000000, 0.00680000000000000 ) );
#599 = DIRECTION( '', ( -0.00000000000000, -0.00000000000000, -1.00000000000000 ) );
#600 = DIRECTION( '', ( 1.00000000000000, 0.00000000000000, 0.00000000000000 ) );
#601 = ORIENTED_EDGE( '', *, *, #749, .F. );
#602 = ORIENTED_EDGE( '', *, *, #770, .T. );
#603 = ORIENTED_EDGE( '', *, *, #703, .T. );
#604 = ORIENTED_EDGE( '', *, *, #677, .T. );
#605 = CARTESIAN_POINT( '', ( -0.00667157287525380, -0.00950000000000000, 0.00680000000000000 ) );
#606 = DIRECTION( '', ( -0.00000000000000, -0.00000000000000, 1.00000000000000 ) );
#607 = DIRECTION( '', ( -1.00000000000000, 0.00000000000000, 0.00000000000000 ) );
#608 = ORIENTED_EDGE( '', *, *, #696, .F. );
#609 = ORIENTED_EDGE( '', *, *, #753, .T. );
#610 = ORIENTED_EDGE( '', *, *, #741, .F. );
#611 = ORIENTED_EDGE( '', *, *, #711, .F. );
#612 = CARTESIAN_POINT( '', ( -0.00812810373492540, 0.0105000000000000, 0.00680000000000000 ) );
#613 = DIRECTION( '', ( 0.00000000000000, 1.00000000000000, 0.00000000000000 ) );
#614 = DIRECTION( '', ( 0.00000000000000, 0.00000000000000, 1.00000000000000 ) );
#615 = ORIENTED_EDGE( '', *, *, #770, .F. );
#616 = ORIENTED_EDGE( '', *, *, #748, .T. );
#617 = ORIENTED_EDGE( '', *, *, #704, .T. );
#618 = CARTESIAN_POINT( '', ( -0.0295745814226433, 0.0119887949850165, 0.00680000000000000 ) );
#619 = DIRECTION( '', ( 0.707106781186548, 0.707106781186548, 0.00000000000000 ) );
#620 = DIRECTION( '', ( -0.707106781186548, 0.707106781186548, 0.00000000000000 ) );
#621 = ORIENTED_EDGE( '', *, *, #758, .F. );
#622 = ORIENTED_EDGE( '', *, *, #760, .F. );
#623 = ORIENTED_EDGE( '', *, *, #700, .F. );
#624 = ORIENTED_EDGE( '', *, *, #750, .T. );
#625 = ORIENTED_EDGE( '', *, *, #745, .F. );
#626 = ORIENTED_EDGE( '', *, *, #688, .F. );
#627 = CARTESIAN_POINT( '', ( 0.0212754758279771, -0.0105000000000000, 0.00680000000000000 ) );
#628 = DIRECTION( '', ( 0.00000000000000, 1.00000000000000, 0.00000000000000 ) );
#629 = DIRECTION( '', ( 0.00000000000000, 0.00000000000000, 1.00000000000000 ) );
#630 = ORIENTED_EDGE( '', *, *, #769, .F. );
#631 = ORIENTED_EDGE( '', *, *, #768, .T. );
#632 = ORIENTED_EDGE( '', *, *, #764, .T. );
#633 = ORIENTED_EDGE( '', *, *, #693, .T. );
#634 = ORIENTED_EDGE( '', *, *, #744, .F. );
#635 = ORIENTED_EDGE( '', *, *, #752, .F. );
#636 = CARTESIAN_POINT( '', ( -0.00812810373492540, 0.0105000000000000, 0.00680000000000000 ) );
#637 = DIRECTION( '', ( 0.00000000000000, 1.00000000000000, 0.00000000000000 ) );
#638 = DIRECTION( '', ( 0.00000000000000, 0.00000000000000, 1.00000000000000 ) );
#639 = ORIENTED_EDGE( '', *, *, #670, .T. );
#640 = ORIENTED_EDGE( '', *, *, #732, .F. );
#641 = CARTESIAN_POINT( '', ( -0.0128357864376269, -0.0829494529611362, 0.00340000000000000 ) );
#642 = DIRECTION( '', ( -0.00000000000000, -1.00000000000000, -0.00000000000000 ) );
#643 = DIRECTION( '', ( 0.00000000000000, 0.00000000000000, 1.00000000000000 ) );
#644 = ORIENTED_EDGE( '', *, *, #740, .F. );
#645 = ORIENTED_EDGE( '', *, *, #691, .T. );
#646 = ORIENTED_EDGE( '', *, *, #729, .F. );
#647 = ORIENTED_EDGE( '', *, *, #723, .F. );
#648 = CARTESIAN_POINT( '', ( 0.0126715728752538, 0.00950000000000000, 0.00680000000000000 ) );
#649 = DIRECTION( '', ( -0.00000000000000, -0.00000000000000, 1.00000000000000 ) );
#650 = DIRECTION( '', ( -1.00000000000000, 0.00000000000000, 0.00000000000000 ) );
#651 = EDGE_CURVE( '', #771, #772, #773, .T. );
#652 = EDGE_CURVE( '', #771, #774, #775, .F. );
#653 = EDGE_CURVE( '', #776, #774, #777, .F. );
#654 = EDGE_CURVE( '', #772, #776, #778, .F. );
#655 = EDGE_CURVE( '', #779, #780, #781, .T. );
#656 = EDGE_CURVE( '', #779, #782, #783, .F. );
#657 = EDGE_CURVE( '', #784, #782, #785, .F. );
#658 = EDGE_CURVE( '', #780, #784, #786, .F. );
#659 = EDGE_CURVE( '', #782, #771, #787, .T. );
#660 = EDGE_CURVE( '', #784, #772, #788, .T. );
#661 = EDGE_CURVE( '', #789, #789, #790, .T. );
#662 = EDGE_CURVE( '', #791, #792, #793, .F. );
#663 = EDGE_CURVE( '', #791, #794, #795, .T. );
#664 = EDGE_CURVE( '', #794, #796, #797, .T. );
#665 = EDGE_CURVE( '', #798, #796, #799, .T. );
#666 = EDGE_CURVE( '', #792, #798, #800, .T. );
#667 = EDGE_CURVE( '', #801, #802, #803, .T. );
#668 = EDGE_CURVE( '', #802, #804, #805, .T. );
#669 = EDGE_CURVE( '', #801, #804, #806, .F. );
#670 = EDGE_CURVE( '', #807, #807, #808, .T. );
#671 = EDGE_CURVE( '', #809, #810, #811, .T. );
#672 = EDGE_CURVE( '', #812, #809, #813, .T. );
#673 = EDGE_CURVE( '', #814, #812, #815, .T. );
#674 = EDGE_CURVE( '', #816, #814, #817, .F. );
#675 = EDGE_CURVE( '', #816, #810, #818, .T. );
#676 = EDGE_CURVE( '', #819, #820, #821, .T. );
#677 = EDGE_CURVE( '', #822, #819, #823, .F. );
#678 = EDGE_CURVE( '', #822, #824, #825, .T. );
#679 = EDGE_CURVE( '', #820, #824, #826, .T. );
#680 = EDGE_CURVE( '', #827, #828, #829, .T. );
#681 = EDGE_CURVE( '', #828, #830, #831, .T. );
#682 = EDGE_CURVE( '', #792, #830, #832, .F. );
#683 = EDGE_CURVE( '', #814, #798, #833, .F. );
#684 = EDGE_CURVE( '', #834, #812, #835, .F. );
#685 = EDGE_CURVE( '', #834, #836, #837, .T. );
#686 = EDGE_CURVE( '', #836, #838, #839, .T. );
#687 = EDGE_CURVE( '', #840, #838, #841, .T. );
#688 = EDGE_CURVE( '', #840, #842, #843, .T. );
#689 = EDGE_CURVE( '', #842, #774, #844, .F. );
#690 = EDGE_CURVE( '', #845, #779, #846, .T. );
#691 = EDGE_CURVE( '', #847, #845, #848, .F. );
#692 = EDGE_CURVE( '', #849, #847, #850, .F. );
#693 = EDGE_CURVE( '', #851, #849, #852, .T. );
#694 = EDGE_CURVE( '', #827, #851, #853, .T. );
#695 = EDGE_CURVE( '', #854, #804, #855, .T. );
#696 = EDGE_CURVE( '', #854, #856, #857, .T. );
#697 = EDGE_CURVE( '', #856, #801, #858, .T. );
#698 = EDGE_CURVE( '', #796, #816, #859, .T. );
#699 = EDGE_CURVE( '', #809, #860, #861, .T. );
#700 = EDGE_CURVE( '', #860, #862, #863, .F. );
#701 = EDGE_CURVE( '', #862, #834, #864, .T. );
#702 = EDGE_CURVE( '', #824, #865, #866, .F. );
#703 = EDGE_CURVE( '', #867, #822, #868, .T. );
#704 = EDGE_CURVE( '', #869, #867, #870, .T. );
#705 = EDGE_CURVE( '', #869, #871, #872, .T. );
#706 = EDGE_CURVE( '', #871, #873, #874, .T. );
#707 = EDGE_CURVE( '', #810, #873, #875, .T. );
#708 = EDGE_CURVE( '', #794, #876, #877, .T. );
#709 = EDGE_CURVE( '', #878, #876, #879, .T. );
#710 = EDGE_CURVE( '', #802, #878, #880, .T. );
#711 = EDGE_CURVE( '', #856, #881, #882, .T. );
#712 = EDGE_CURVE( '', #881, #883, #884, .F. );
#713 = EDGE_CURVE( '', #885, #883, #886, .T. );
#714 = EDGE_CURVE( '', #885, #887, #888, .T. );
#715 = EDGE_CURVE( '', #887, #889, #890, .T. );
#716 = EDGE_CURVE( '', #889, #891, #892, .T. );
#717 = EDGE_CURVE( '', #891, #893, #894, .T. );
#718 = EDGE_CURVE( '', #893, #895, #896, .T. );
#719 = EDGE_CURVE( '', #895, #865, #897, .T. );
#720 = EDGE_CURVE( '', #898, #899, #900, .T. );
#721 = EDGE_CURVE( '', #898, #901, #902, .F. );
#722 = EDGE_CURVE( '', #901, #903, #904, .T. );
#723 = EDGE_CURVE( '', #903, #905, #906, .F. );
#724 = EDGE_CURVE( '', #905, #780, #907, .T. );
#725 = EDGE_CURVE( '', #908, #776, #909, .T. );
#726 = EDGE_CURVE( '', #908, #910, #911, .F. );
#727 = EDGE_CURVE( '', #912, #910, #913, .T. );
#728 = EDGE_CURVE( '', #912, #899, #914, .F. );
#729 = EDGE_CURVE( '', #905, #845, #915, .F. );
#730 = EDGE_CURVE( '', #895, #908, #916, .T. );
#731 = EDGE_CURVE( '', #774, #865, #917, .F. );
#732 = EDGE_CURVE( '', #918, #918, #919, .T. );
#733 = EDGE_CURVE( '', #891, #912, #920, .T. );
#734 = EDGE_CURVE( '', #910, #893, #921, .F. );
#735 = EDGE_CURVE( '', #922, #922, #923, .T. );
#736 = EDGE_CURVE( '', #887, #898, #924, .T. );
#737 = EDGE_CURVE( '', #899, #889, #925, .F. );
#738 = EDGE_CURVE( '', #901, #885, #926, .F. );
#739 = EDGE_CURVE( '', #883, #847, #927, .T. );
#740 = EDGE_CURVE( '', #847, #903, #928, .T. );
#741 = EDGE_CURVE( '', #881, #929, #930, .F. );
#742 = EDGE_CURVE( '', #929, #878, #931, .T. );
#743 = EDGE_CURVE( '', #876, #932, #933, .T. );
#744 = EDGE_CURVE( '', #932, #849, #934, .F. );
#745 = EDGE_CURVE( '', #842, #935, #936, .T. );
#746 = EDGE_CURVE( '', #873, #935, #937, .T. );
#747 = EDGE_CURVE( '', #871, #820, #938, .T. );
#748 = EDGE_CURVE( '', #939, #869, #940, .T. );
#749 = EDGE_CURVE( '', #939, #819, #941, .T. );
#750 = EDGE_CURVE( '', #860, #935, #942, .T. );
#751 = EDGE_CURVE( '', #791, #943, #944, .T. );
#752 = EDGE_CURVE( '', #943, #932, #945, .T. );
#753 = EDGE_CURVE( '', #854, #929, #946, .T. );
#754 = EDGE_CURVE( '', #947, #836, #948, .T. );
#755 = EDGE_CURVE( '', #947, #949, #950, .T. );
#756 = EDGE_CURVE( '', #949, #838, #951, .T. );
#757 = EDGE_CURVE( '', #952, #949, #953, .T. );
#758 = EDGE_CURVE( '', #952, #840, #954, .T. );
#759 = EDGE_CURVE( '', #862, #947, #955, .T. );
#760 = EDGE_CURVE( '', #862, #952, #956, .T. );
#761 = EDGE_CURVE( '', #957, #827, #958, .T. );
#762 = EDGE_CURVE( '', #957, #959, #960, .T. );
#763 = EDGE_CURVE( '', #959, #828, #961, .T. );
#764 = EDGE_CURVE( '', #962, #851, #963, .T. );
#765 = EDGE_CURVE( '', #957, #962, #964, .T. );
#766 = EDGE_CURVE( '', #959, #965, #966, .T. );
#767 = EDGE_CURVE( '', #830, #965, #967, .T. );
#768 = EDGE_CURVE( '', #965, #962, #968, .T. );
#769 = EDGE_CURVE( '', #965, #943, #969, .T. );
#770 = EDGE_CURVE( '', #939, #867, #970, .T. );
#771 = VERTEX_POINT( '', #971 );
#772 = VERTEX_POINT( '', #972 );
#773 = LINE( '', #973, #974 );
#774 = VERTEX_POINT( '', #975 );
#775 = CIRCLE( '', #976, 0.00200000000000000 );
#776 = VERTEX_POINT( '', #977 );
#777 = LINE( '', #978, #979 );
#778 = CIRCLE( '', #980, 0.00200000000000000 );
#779 = VERTEX_POINT( '', #981 );
#780 = VERTEX_POINT( '', #982 );
#781 = LINE( '', #983, #984 );
#782 = VERTEX_POINT( '', #985 );
#783 = CIRCLE( '', #986, 0.00200000000000000 );
#784 = VERTEX_POINT( '', #987 );
#785 = LINE( '', #988, #989 );
#786 = CIRCLE( '', #990, 0.00200000000000000 );
#787 = LINE( '', #991, #992 );
#788 = LINE( '', #993, #994 );
#789 = VERTEX_POINT( '', #995 );
#790 = ELLIPSE( '', #996, 0.00212132030000000, 0.00150000000000000 );
#791 = VERTEX_POINT( '', #997 );
#792 = VERTEX_POINT( '', #998 );
#793 = LINE( '', #999, #1000 );
#794 = VERTEX_POINT( '', #1001 );
#795 = LINE( '', #1002, #1003 );
#796 = VERTEX_POINT( '', #1004 );
#797 = LINE( '', #1005, #1006 );
#798 = VERTEX_POINT( '', #1007 );
#799 = LINE( '', #1008, #1009 );
#800 = LINE( '', #1010, #1011 );
#801 = VERTEX_POINT( '', #1012 );
#802 = VERTEX_POINT( '', #1013 );
#803 = LINE( '', #1014, #1015 );
#804 = VERTEX_POINT( '', #1016 );
#805 = LINE( '', #1017, #1018 );
#806 = LINE( '', #1019, #1020 );
#807 = VERTEX_POINT( '', #1021 );
#808 = ELLIPSE( '', #1022, 0.00212132030000000, 0.00150000000000000 );
#809 = VERTEX_POINT( '', #1023 );
#810 = VERTEX_POINT( '', #1024 );
#811 = LINE( '', #1025, #1026 );
#812 = VERTEX_POINT( '', #1027 );
#813 = LINE( '', #1028, #1029 );
#814 = VERTEX_POINT( '', #1030 );
#815 = LINE( '', #1031, #1032 );
#816 = VERTEX_POINT( '', #1033 );
#817 = LINE( '', #1034, #1035 );
#818 = LINE( '', #1036, #1037 );
#819 = VERTEX_POINT( '', #1038 );
#820 = VERTEX_POINT( '', #1039 );
#821 = LINE( '', #1040, #1041 );
#822 = VERTEX_POINT( '', #1042 );
#823 = LINE( '', #1043, #1044 );
#824 = VERTEX_POINT( '', #1045 );
#825 = LINE( '', #1046, #1047 );
#826 = LINE( '', #1048, #1049 );
#827 = VERTEX_POINT( '', #1050 );
#828 = VERTEX_POINT( '', #1051 );
#829 = CIRCLE( '', #1052, 0.0100000000000000 );
#830 = VERTEX_POINT( '', #1053 );
#831 = LINE( '', #1054, #1055 );
#832 = CIRCLE( '', #1056, 0.00100000000000000 );
#833 = CIRCLE( '', #1057, 0.00100000000000000 );
#834 = VERTEX_POINT( '', #1058 );
#835 = CIRCLE( '', #1059, 0.00100000000000000 );
#836 = VERTEX_POINT( '', #1060 );
#837 = LINE( '', #1061, #1062 );
#838 = VERTEX_POINT( '', #1063 );
#839 = CIRCLE( '', #1064, 0.0100000000000000 );
#840 = VERTEX_POINT( '', #1065 );
#841 = LINE( '', #1066, #1067 );
#842 = VERTEX_POINT( '', #1068 );
#843 = LINE( '', #1069, #1070 );
#844 = LINE( '', #1071, #1072 );
#845 = VERTEX_POINT( '', #1073 );
#846 = LINE( '', #1074, #1075 );
#847 = VERTEX_POINT( '', #1076 );
#848 = CIRCLE( '', #1077, 0.00200000000000000 );
#849 = VERTEX_POINT( '', #1078 );
#850 = LINE( '', #1079, #1080 );
#851 = VERTEX_POINT( '', #1081 );
#852 = LINE( '', #1082, #1083 );
#853 = LINE( '', #1084, #1085 );
#854 = VERTEX_POINT( '', #1086 );
#855 = ELLIPSE( '', #1087, 0.00141421360000000, 0.00100000000000000 );
#856 = VERTEX_POINT( '', #1088 );
#857 = LINE( '', #1089, #1090 );
#858 = CIRCLE( '', #1091, 0.00100000000000000 );
#859 = CIRCLE( '', #1092, 0.00100000000000000 );
#860 = VERTEX_POINT( '', #1093 );
#861 = ELLIPSE( '', #1094, 0.00141421360000000, 0.00100000000000000 );
#862 = VERTEX_POINT( '', #1095 );
#863 = LINE( '', #1096, #1097 );
#864 = LINE( '', #1098, #1099 );
#865 = VERTEX_POINT( '', #1100 );
#866 = LINE( '', #1101, #1102 );
#867 = VERTEX_POINT( '', #1103 );
#868 = CIRCLE( '', #1104, 0.00100000000000000 );
#869 = VERTEX_POINT( '', #1105 );
#870 = LINE( '', #1106, #1107 );
#871 = VERTEX_POINT( '', #1108 );
#872 = LINE( '', #1109, #1110 );
#873 = VERTEX_POINT( '', #1111 );
#874 = LINE( '', #1112, #1113 );
#875 = LINE( '', #1114, #1115 );
#876 = VERTEX_POINT( '', #1116 );
#877 = LINE( '', #1117, #1118 );
#878 = VERTEX_POINT( '', #1119 );
#879 = LINE( '', #1120, #1121 );
#880 = LINE( '', #1122, #1123 );
#881 = VERTEX_POINT( '', #1124 );
#882 = LINE( '', #1125, #1126 );
#883 = VERTEX_POINT( '', #1127 );
#884 = LINE( '', #1128, #1129 );
#885 = VERTEX_POINT( '', #1130 );
#886 = LINE( '', #1131, #1132 );
#887 = VERTEX_POINT( '', #1133 );
#888 = CIRCLE( '', #1134, 0.00200000000000000 );
#889 = VERTEX_POINT( '', #1135 );
#890 = LINE( '', #1136, #1137 );
#891 = VERTEX_POINT( '', #1138 );
#892 = CIRCLE( '', #1139, 0.00200000000000000 );
#893 = VERTEX_POINT( '', #1140 );
#894 = LINE( '', #1141, #1142 );
#895 = VERTEX_POINT( '', #1143 );
#896 = CIRCLE( '', #1144, 0.00200000000000000 );
#897 = LINE( '', #1145, #1146 );
#898 = VERTEX_POINT( '', #1147 );
#899 = VERTEX_POINT( '', #1148 );
#900 = LINE( '', #1149, #1150 );
#901 = VERTEX_POINT( '', #1151 );
#902 = CIRCLE( '', #1152, 0.00200000000000000 );
#903 = VERTEX_POINT( '', #1153 );
#904 = LINE( '', #1154, #1155 );
#905 = VERTEX_POINT( '', #1156 );
#906 = CIRCLE( '', #1157, 0.00200000000000000 );
#907 = LINE( '', #1158, #1159 );
#908 = VERTEX_POINT( '', #1160 );
#909 = LINE( '', #1161, #1162 );
#910 = VERTEX_POINT( '', #1163 );
#911 = CIRCLE( '', #1164, 0.00200000000000000 );
#912 = VERTEX_POINT( '', #1165 );
#913 = LINE( '', #1166, #1167 );
#914 = CIRCLE( '', #1168, 0.00200000000000000 );
#915 = LINE( '', #1169, #1170 );
#916 = LINE( '', #1171, #1172 );
#917 = LINE( '', #1173, #1174 );
#918 = VERTEX_POINT( '', #1175 );
#919 = ELLIPSE( '', #1176, 0.00212132030000000, 0.00150000000000000 );
#920 = LINE( '', #1177, #1178 );
#921 = LINE( '', #1179, #1180 );
#922 = VERTEX_POINT( '', #1181 );
#923 = ELLIPSE( '', #1182, 0.00212132030000000, 0.00150000000000000 );
#924 = LINE( '', #1183, #1184 );
#925 = LINE( '', #1185, #1186 );
#926 = LINE( '', #1187, #1188 );
#927 = LINE( '', #1189, #1190 );
#928 = LINE( '', #1191, #1192 );
#929 = VERTEX_POINT( '', #1193 );
#930 = LINE( '', #1194, #1195 );
#931 = LINE( '', #1196, #1197 );
#932 = VERTEX_POINT( '', #1198 );
#933 = LINE( '', #1199, #1200 );
#934 = LINE( '', #1201, #1202 );
#935 = VERTEX_POINT( '', #1203 );
#936 = LINE( '', #1204, #1205 );
#937 = LINE( '', #1206, #1207 );
#938 = LINE( '', #1208, #1209 );
#939 = VERTEX_POINT( '', #1210 );
#940 = LINE( '', #1211, #1212 );
#941 = ELLIPSE( '', #1213, 0.00141421360000000, 0.00100000000000000 );
#942 = LINE( '', #1214, #1215 );
#943 = VERTEX_POINT( '', #1216 );
#944 = ELLIPSE( '', #1217, 0.00141421360000000, 0.00100000000000000 );
#945 = LINE( '', #1218, #1219 );
#946 = LINE( '', #1220, #1221 );
#947 = VERTEX_POINT( '', #1222 );
#948 = LINE( '', #1223, #1224 );
#949 = VERTEX_POINT( '', #1225 );
#950 = CIRCLE( '', #1226, 0.0100000000000000 );
#951 = LINE( '', #1227, #1228 );
#952 = VERTEX_POINT( '', #1229 );
#953 = LINE( '', #1230, #1231 );
#954 = LINE( '', #1232, #1233 );
#955 = LINE( '', #1234, #1235 );
#956 = LINE( '', #1236, #1237 );
#957 = VERTEX_POINT( '', #1238 );
#958 = LINE( '', #1239, #1240 );
#959 = VERTEX_POINT( '', #1241 );
#960 = CIRCLE( '', #1242, 0.0100000000000000 );
#961 = LINE( '', #1243, #1244 );
#962 = VERTEX_POINT( '', #1245 );
#963 = LINE( '', #1246, #1247 );
#964 = LINE( '', #1248, #1249 );
#965 = VERTEX_POINT( '', #1250 );
#966 = LINE( '', #1251, #1252 );
#967 = LINE( '', #1253, #1254 );
#968 = LINE( '', #1255, #1256 );
#969 = LINE( '', #1257, #1258 );
#970 = LINE( '', #1259, #1260 );
#971 = CARTESIAN_POINT( '', ( 0.0140857864376269, -0.0109142135623731, 0.00100000000000000 ) );
#972 = CARTESIAN_POINT( '', ( 0.0140857864376269, -0.0109142135623731, 0.00000000000000 ) );
#973 = CARTESIAN_POINT( '', ( 0.0140857864376269, -0.0109142135623731, 0.00000000000000 ) );
#974 = VECTOR( '', #1261, 1.00000000000000 );
#975 = CARTESIAN_POINT( '', ( 0.0126715728752538, -0.0115000000000000, 0.00100000000000000 ) );
#976 = AXIS2_PLACEMENT_3D( '', #1262, #1263, #1264 );
#977 = CARTESIAN_POINT( '', ( 0.0126715728752538, -0.0115000000000000, 0.00000000000000 ) );
#978 = CARTESIAN_POINT( '', ( 0.0126715728752538, -0.0115000000000000, 0.00680000000000000 ) );
#979 = VECTOR( '', #1265, 1.00000000000000 );
#980 = AXIS2_PLACEMENT_3D( '', #1266, #1267, #1268 );
#981 = CARTESIAN_POINT( '', ( 0.0235857864376269, 0.00141421356237309, 0.00100000000000000 ) );
#982 = CARTESIAN_POINT( '', ( 0.0235857864376269, 0.00141421356237308, 0.00000000000000 ) );
#983 = CARTESIAN_POINT( '', ( 0.0235857864376269, 0.00141421356237309, 0.00680000000000000 ) );
#984 = VECTOR( '', #1269, 1.00000000000000 );
#985 = CARTESIAN_POINT( '', ( 0.0235857864376269, -0.00141421356237310, 0.00100000000000000 ) );
#986 = AXIS2_PLACEMENT_3D( '', #1270, #1271, #1272 );
#987 = CARTESIAN_POINT( '', ( 0.0235857864376269, -0.00141421356237310, 0.00000000000000 ) );
#988 = CARTESIAN_POINT( '', ( 0.0235857864376269, -0.00141421356237310, 0.00680000000000000 ) );
#989 = VECTOR( '', #1273, 1.00000000000000 );
#990 = AXIS2_PLACEMENT_3D( '', #1274, #1275, #1276 );
#991 = CARTESIAN_POINT( '', ( 0.0336368702219447, 0.00863687022194471, 0.00100000000000000 ) );
#992 = VECTOR( '', #1277, 1.00000000000000 );
#993 = CARTESIAN_POINT( '', ( 0.0336368702219447, 0.00863687022194471, 0.00000000000000 ) );
#994 = VECTOR( '', #1278, 1.00000000000000 );
#995 = CARTESIAN_POINT( '', ( -0.0113357864376269, 0.00625000000000000, 0.00340000000000000 ) );
#996 = AXIS2_PLACEMENT_3D( '', #1279, #1280, #1281 );
#997 = CARTESIAN_POINT( '', ( -0.00737867965644035, 0.0102071067811865, 0.00509289321881346 ) );
#998 = CARTESIAN_POINT( '', ( -0.00737867965644035, 0.0102071067811865, 0.00100000000000000 ) );
#999 = CARTESIAN_POINT( '', ( -0.00737867965644035, 0.0102071067811865, 0.00680000000000000 ) );
#1000 = VECTOR( '', #1282, 1.00000000000000 );
#1001 = CARTESIAN_POINT( '', ( -0.00908578643762690, 0.00850000000000000, 0.00680000000000000 ) );
#1002 = CARTESIAN_POINT( '', ( -166.672320931467, -166.654735145030, 166.670035145030 ) );
#1003 = VECTOR( '', #1283, 1.00000000000000 );
#1004 = CARTESIAN_POINT( '', ( -0.0168786796564404, 0.000707106781186545, 0.00680000000000000 ) );
#1005 = CARTESIAN_POINT( '', ( -0.0422701214133416, -0.0246843349757147, 0.00680000000000000 ) );
#1006 = VECTOR( '', #1284, 1.00000000000000 );
#1007 = CARTESIAN_POINT( '', ( -0.0168786796564404, 0.000707106781186545, 0.00100000000000000 ) );
#1008 = CARTESIAN_POINT( '', ( -0.0168786796564404, 0.000707106781186545, 0.00680000000000000 ) );
#1009 = VECTOR( '', #1285, 1.00000000000000 );
#1010 = CARTESIAN_POINT( '', ( -0.0422701214133416, -0.0246843349757147, 0.00100000000000000 ) );
#1011 = VECTOR( '', #1286, 1.00000000000000 );
#1012 = CARTESIAN_POINT( '', ( -0.00737867965644035, 0.0102071067811865, 0.00680000000000000 ) );
#1013 = CARTESIAN_POINT( '', ( -0.00748578643762690, 0.0101000000000000, 0.00680000000000000 ) );
#1014 = CARTESIAN_POINT( '', ( -0.0422701214133416, -0.0246843349757147, 0.00680000000000000 ) );
#1015 = VECTOR( '', #1287, 1.00000000000000 );
#1016 = CARTESIAN_POINT( '', ( -0.00737867965644035, 0.0102071067811865, 0.00669289321881346 ) );
#1017 = CARTESIAN_POINT( '', ( -166.671402054353, -166.653816267915, 166.670716267915 ) );
#1018 = VECTOR( '', #1288, 1.00000000000000 );
#1019 = CARTESIAN_POINT( '', ( -0.00737867965644035, 0.0102071067811865, 0.00680000000000000 ) );
#1020 = VECTOR( '', #1289, 1.00000000000000 );
#1021 = CARTESIAN_POINT( '', ( -0.0143357864376269, -0.00325000000000000, 0.00340000000000000 ) );
#1022 = AXIS2_PLACEMENT_3D( '', #1290, #1291, #1292 );
#1023 = CARTESIAN_POINT( '', ( -0.00737867965644034, -0.0102071067811865, 0.00509289321881344 ) );
#1024 = CARTESIAN_POINT( '', ( -0.00908578643762690, -0.00850000000000000, 0.00680000000000000 ) );
#1025 = CARTESIAN_POINT( '', ( -166.671625885816, 166.654040099379, 166.669340099379 ) );
#1026 = VECTOR( '', #1293, 1.00000000000000 );
#1027 = CARTESIAN_POINT( '', ( -0.00737867965644034, -0.0102071067811865, 0.00100000000000000 ) );
#1028 = CARTESIAN_POINT( '', ( -0.00737867965644034, -0.0102071067811865, 0.00680000000000000 ) );
#1029 = VECTOR( '', #1294, 1.00000000000000 );
#1030 = CARTESIAN_POINT( '', ( -0.0168786796564404, -0.000707106781186550, 0.00100000000000000 ) );
#1031 = CARTESIAN_POINT( '', ( -0.0295745814226433, 0.0119887949850165, 0.00100000000000000 ) );
#1032 = VECTOR( '', #1295, 1.00000000000000 );
#1033 = CARTESIAN_POINT( '', ( -0.0168786796564404, -0.000707106781186550, 0.00680000000000000 ) );
#1034 = CARTESIAN_POINT( '', ( -0.0168786796564404, -0.000707106781186550, 0.00680000000000000 ) );
#1035 = VECTOR( '', #1296, 1.00000000000000 );
#1036 = CARTESIAN_POINT( '', ( -0.0295745814226433, 0.0119887949850165, 0.00680000000000000 ) );
#1037 = VECTOR( '', #1297, 1.00000000000000 );
#1038 = CARTESIAN_POINT( '', ( -0.00667157287534792, -0.0105000000000000, 0.00640000000000000 ) );
#1039 = CARTESIAN_POINT( '', ( 0.0126715728752538, -0.0105000000000000, 0.00640000000000000 ) );
#1040 = CARTESIAN_POINT( '', ( -500.000000000000, -0.0105000000000000, 0.00640000000000000 ) );
#1041 = VECTOR( '', #1298, 1.00000000000000 );
#1042 = CARTESIAN_POINT( '', ( -0.00667157287525380, -0.0105000000000000, 0.00680000000000000 ) );
#1043 = CARTESIAN_POINT( '', ( -0.00667157287525380, -0.0105000000000000, 0.00680000000000000 ) );
#1044 = VECTOR( '', #1299, 1.00000000000000 );
#1045 = CARTESIAN_POINT( '', ( 0.0126715728752538, -0.0105000000000000, 0.00680000000000000 ) );
#1046 = CARTESIAN_POINT( '', ( 0.0212754758279771, -0.0105000000000000, 0.00680000000000000 ) );
#1047 = VECTOR( '', #1300, 1.00000000000000 );
#1048 = CARTESIAN_POINT( '', ( 0.0126715728752538, -0.0105000000000000, 0.00680000000000000 ) );
#1049 = VECTOR( '', #1301, 1.00000000000000 );
#1050 = CARTESIAN_POINT( '', ( 0.00532842712474620, 0.00846214301322478, 0.00100000000000000 ) );
#1051 = CARTESIAN_POINT( '', ( -0.00667157287525380, 0.00744916877041847, 0.00100000000000000 ) );
#1052 = AXIS2_PLACEMENT_3D( '', #1302, #1303, #1304 );
#1053 = CARTESIAN_POINT( '', ( -0.00667157287525379, 0.0105000000000000, 0.00100000000000000 ) );
#1054 = CARTESIAN_POINT( '', ( -0.00667157287525380, 0.00816804750824602, 0.00100000000000000 ) );
#1055 = VECTOR( '', #1305, 1.00000000000000 );
#1056 = AXIS2_PLACEMENT_3D( '', #1306, #1307, #1308 );
#1057 = AXIS2_PLACEMENT_3D( '', #1309, #1310, #1311 );
#1058 = CARTESIAN_POINT( '', ( -0.00667157287525380, -0.0105000000000000, 0.00100000000000000 ) );
#1059 = AXIS2_PLACEMENT_3D( '', #1312, #1313, #1314 );
#1060 = CARTESIAN_POINT( '', ( -0.00667157287525380, -0.00744916877041847, 0.00100000000000000 ) );
#1061 = CARTESIAN_POINT( '', ( -0.00667157287525380, -0.000800000000000000, 0.00100000000000000 ) );
#1062 = VECTOR( '', #1315, 1.00000000000000 );
#1063 = CARTESIAN_POINT( '', ( 0.00532842712474621, -0.00846214301322478, 0.00100000000000000 ) );
#1064 = AXIS2_PLACEMENT_3D( '', #1316, #1317, #1318 );
#1065 = CARTESIAN_POINT( '', ( 0.00532842712474620, -0.0105000000000000, 0.00100000000000000 ) );
#1066 = CARTESIAN_POINT( '', ( 0.00532842712474620, 3.46944695195361E-18, 0.00100000000000000 ) );
#1067 = VECTOR( '', #1319, 1.00000000000000 );
#1068 = CARTESIAN_POINT( '', ( 0.0126715728752538, -0.0105000000000000, 0.00100000000000000 ) );
#1069 = CARTESIAN_POINT( '', ( 0.0212754758279771, -0.0105000000000000, 0.00100000000000000 ) );
#1070 = VECTOR( '', #1320, 1.00000000000000 );
#1071 = CARTESIAN_POINT( '', ( 0.0126715728752538, -0.0115000000000000, 0.00100000000000000 ) );
#1072 = VECTOR( '', #1321, 1.00000000000000 );
#1073 = CARTESIAN_POINT( '', ( 0.0140857864376269, 0.0109142135623731, 0.00100000000000000 ) );
#1074 = CARTESIAN_POINT( '', ( -0.00214382664223418, 0.0271438266422342, 0.00100000000000000 ) );
#1075 = VECTOR( '', #1322, 1.00000000000000 );
#1076 = CARTESIAN_POINT( '', ( 0.0126715728752538, 0.0115000000000000, 0.00100000000000000 ) );
#1077 = AXIS2_PLACEMENT_3D( '', #1323, #1324, #1325 );
#1078 = CARTESIAN_POINT( '', ( 0.0126715728752538, 0.0105000000000000, 0.00100000000000000 ) );
#1079 = CARTESIAN_POINT( '', ( 0.0126715728752538, 0.0115000000000000, 0.00100000000000000 ) );
#1080 = VECTOR( '', #1326, 1.00000000000000 );
#1081 = CARTESIAN_POINT( '', ( 0.00532842712474620, 0.0105000000000000, 0.00100000000000000 ) );
#1082 = CARTESIAN_POINT( '', ( -0.00812810373492540, 0.0105000000000000, 0.00100000000000000 ) );
#1083 = VECTOR( '', #1327, 1.00000000000000 );
#1084 = CARTESIAN_POINT( '', ( 0.00532842712474620, 0.00872140188196657, 0.00100000000000000 ) );
#1085 = VECTOR( '', #1328, 1.00000000000000 );
#1086 = CARTESIAN_POINT( '', ( -0.00667157287525379, 0.0105000000000000, 0.00640000000000000 ) );
#1087 = AXIS2_PLACEMENT_3D( '', #1329, #1330, #1331 );
#1088 = CARTESIAN_POINT( '', ( -0.00667157287525379, 0.0105000000000000, 0.00680000000000000 ) );
#1089 = CARTESIAN_POINT( '', ( -0.00667157287525379, 0.0105000000000000, 0.00680000000000000 ) );
#1090 = VECTOR( '', #1332, 1.00000000000000 );
#1091 = AXIS2_PLACEMENT_3D( '', #1333, #1334, #1335 );
#1092 = AXIS2_PLACEMENT_3D( '', #1336, #1337, #1338 );
#1093 = CARTESIAN_POINT( '', ( -0.00667157287525380, -0.0105000000000000, 0.00480000000000000 ) );
#1094 = AXIS2_PLACEMENT_3D( '', #1339, #1340, #1341 );
#1095 = CARTESIAN_POINT( '', ( -0.00667157287525380, -0.0105000000000000, 0.00200000000000000 ) );
#1096 = CARTESIAN_POINT( '', ( -0.00667157287525380, -0.0105000000000000, 0.00680000000000000 ) );
#1097 = VECTOR( '', #1342, 1.00000000000000 );
#1098 = CARTESIAN_POINT( '', ( -0.00667157287525380, -0.0105000000000000, 0.00200000000000000 ) );
#1099 = VECTOR( '', #1343, 1.00000000000000 );
#1100 = CARTESIAN_POINT( '', ( 0.0126715728752538, -0.0115000000000000, 0.00680000000000000 ) );
#1101 = CARTESIAN_POINT( '', ( 0.0126715728752538, -0.0115000000000000, 0.00680000000000000 ) );
#1102 = VECTOR( '', #1344, 1.00000000000000 );
#1103 = CARTESIAN_POINT( '', ( -0.00737867965644034, -0.0102071067811865, 0.00680000000000000 ) );
#1104 = AXIS2_PLACEMENT_3D( '', #1345, #1346, #1347 );
#1105 = CARTESIAN_POINT( '', ( -0.00748578643762689, -0.0101000000000000, 0.00680000000000000 ) );
#1106 = CARTESIAN_POINT( '', ( -0.0295745814226433, 0.0119887949850165, 0.00680000000000000 ) );
#1107 = VECTOR( '', #1348, 1.00000000000000 );
#1108 = CARTESIAN_POINT( '', ( 0.0126715728752538, -0.0101000000000000, 0.00680000000000000 ) );
#1109 = CARTESIAN_POINT( '', ( -500.000000000000, -0.0101000000000000, 0.00680000000000000 ) );
#1110 = VECTOR( '', #1349, 1.00000000000000 );
#1111 = CARTESIAN_POINT( '', ( 0.0126715728752538, -0.00850000000000000, 0.00680000000000000 ) );
#1112 = CARTESIAN_POINT( '', ( 0.0126715728752538, -0.00931644192561507, 0.00680000000000000 ) );
#1113 = VECTOR( '', #1350, 1.00000000000000 );
#1114 = CARTESIAN_POINT( '', ( -500.000000000000, -0.00850000000000000, 0.00680000000000000 ) );
#1115 = VECTOR( '', #1351, 1.00000000000000 );
#1116 = CARTESIAN_POINT( '', ( 0.0126715728752538, 0.00850000000000000, 0.00680000000000000 ) );
#1117 = CARTESIAN_POINT( '', ( -500.000000000000, 0.00850000000000000, 0.00680000000000000 ) );
#1118 = VECTOR( '', #1352, 1.00000000000000 );
#1119 = CARTESIAN_POINT( '', ( 0.0126715728752538, 0.0101000000000000, 0.00680000000000000 ) );
#1120 = CARTESIAN_POINT( '', ( 0.0126715728752538, 0.00903346482664347, 0.00680000000000000 ) );
#1121 = VECTOR( '', #1353, 1.00000000000000 );
#1122 = CARTESIAN_POINT( '', ( -500.000000000000, 0.0101000000000000, 0.00680000000000000 ) );
#1123 = VECTOR( '', #1354, 1.00000000000000 );
#1124 = CARTESIAN_POINT( '', ( 0.0126715728752538, 0.0105000000000000, 0.00680000000000000 ) );
#1125 = CARTESIAN_POINT( '', ( -0.00812810373492540, 0.0105000000000000, 0.00680000000000000 ) );
#1126 = VECTOR( '', #1355, 1.00000000000000 );
#1127 = CARTESIAN_POINT( '', ( 0.0126715728752538, 0.0115000000000000, 0.00680000000000000 ) );
#1128 = CARTESIAN_POINT( '', ( 0.0126715728752538, 0.0115000000000000, 0.00680000000000000 ) );
#1129 = VECTOR( '', #1356, 1.00000000000000 );
#1130 = CARTESIAN_POINT( '', ( -0.00667157287525379, 0.0115000000000000, 0.00680000000000000 ) );
#1131 = CARTESIAN_POINT( '', ( -0.00812810373492540, 0.0115000000000000, 0.00680000000000000 ) );
#1132 = VECTOR( '', #1357, 1.00000000000000 );
#1133 = CARTESIAN_POINT( '', ( -0.00808578643762689, 0.0109142135623731, 0.00680000000000000 ) );
#1134 = AXIS2_PLACEMENT_3D( '', #1358, #1359, #1360 );
#1135 = CARTESIAN_POINT( '', ( -0.0175857864376269, 0.00141421356237309, 0.00680000000000000 ) );
#1136 = CARTESIAN_POINT( '', ( -0.0429772281945281, -0.0239772281945282, 0.00680000000000000 ) );
#1137 = VECTOR( '', #1361, 1.00000000000000 );
#1138 = CARTESIAN_POINT( '', ( -0.0175857864376269, -0.00141421356237310, 0.00680000000000000 ) );
#1139 = AXIS2_PLACEMENT_3D( '', #1362, #1363, #1364 );
#1140 = CARTESIAN_POINT( '', ( -0.00808578643762689, -0.0109142135623731, 0.00680000000000000 ) );
#1141 = CARTESIAN_POINT( '', ( -0.0302816882038299, 0.0112816882038299, 0.00680000000000000 ) );
#1142 = VECTOR( '', #1365, 1.00000000000000 );
#1143 = CARTESIAN_POINT( '', ( -0.00667157287525380, -0.0115000000000000, 0.00680000000000000 ) );
#1144 = AXIS2_PLACEMENT_3D( '', #1366, #1367, #1368 );
#1145 = CARTESIAN_POINT( '', ( 0.0212754758279771, -0.0115000000000000, 0.00680000000000000 ) );
#1146 = VECTOR( '', #1369, 1.00000000000000 );
#1147 = CARTESIAN_POINT( '', ( -0.00808578643762689, 0.0109142135623731, 0.00000000000000 ) );
#1148 = CARTESIAN_POINT( '', ( -0.0175857864376269, 0.00141421356237309, 0.00000000000000 ) );
#1149 = CARTESIAN_POINT( '', ( -0.0429772281945281, -0.0239772281945282, 0.00000000000000 ) );
#1150 = VECTOR( '', #1370, 1.00000000000000 );
#1151 = CARTESIAN_POINT( '', ( -0.00667157287525379, 0.0115000000000000, 0.00000000000000 ) );
#1152 = AXIS2_PLACEMENT_3D( '', #1371, #1372, #1373 );
#1153 = CARTESIAN_POINT( '', ( 0.0126715728752538, 0.0115000000000000, 0.00000000000000 ) );
#1154 = CARTESIAN_POINT( '', ( -0.00812810373492540, 0.0115000000000000, 0.00000000000000 ) );
#1155 = VECTOR( '', #1374, 1.00000000000000 );
#1156 = CARTESIAN_POINT( '', ( 0.0140857864376269, 0.0109142135623731, 0.00000000000000 ) );
#1157 = AXIS2_PLACEMENT_3D( '', #1375, #1376, #1377 );
#1158 = CARTESIAN_POINT( '', ( -0.00214382664223418, 0.0271438266422342, 0.00000000000000 ) );
#1159 = VECTOR( '', #1378, 1.00000000000000 );
#1160 = CARTESIAN_POINT( '', ( -0.00667157287525380, -0.0115000000000000, 0.00000000000000 ) );
#1161 = CARTESIAN_POINT( '', ( 0.0212754758279771, -0.0115000000000000, 0.00000000000000 ) );
#1162 = VECTOR( '', #1379, 1.00000000000000 );
#1163 = CARTESIAN_POINT( '', ( -0.00808578643762689, -0.0109142135623731, 0.00000000000000 ) );
#1164 = AXIS2_PLACEMENT_3D( '', #1380, #1381, #1382 );
#1165 = CARTESIAN_POINT( '', ( -0.0175857864376269, -0.00141421356237310, 0.00000000000000 ) );
#1166 = CARTESIAN_POINT( '', ( -0.0302816882038299, 0.0112816882038299, 0.00000000000000 ) );
#1167 = VECTOR( '', #1383, 1.00000000000000 );
#1168 = AXIS2_PLACEMENT_3D( '', #1384, #1385, #1386 );
#1169 = CARTESIAN_POINT( '', ( 0.0140857864376269, 0.0109142135623731, 0.00680000000000000 ) );
#1170 = VECTOR( '', #1387, 1.00000000000000 );
#1171 = CARTESIAN_POINT( '', ( -0.00667157287525380, -0.0115000000000000, 0.00680000000000000 ) );
#1172 = VECTOR( '', #1388, 1.00000000000000 );
#1173 = CARTESIAN_POINT( '', ( 0.0126715728752538, -0.0115000000000000, 0.00680000000000000 ) );
#1174 = VECTOR( '', #1389, 1.00000000000000 );
#1175 = CARTESIAN_POINT( '', ( -0.0143357864376269, -0.00466421356237308, 0.00340000000000000 ) );
#1176 = AXIS2_PLACEMENT_3D( '', #1390, #1391, #1392 );
#1177 = CARTESIAN_POINT( '', ( -0.0175857864376269, -0.00141421356237310, 0.00680000000000000 ) );
#1178 = VECTOR( '', #1393, 1.00000000000000 );
#1179 = CARTESIAN_POINT( '', ( -0.00808578643762689, -0.0109142135623731, 0.00680000000000000 ) );
#1180 = VECTOR( '', #1394, 1.00000000000000 );
#1181 = CARTESIAN_POINT( '', ( -0.0113357864376269, 0.00766421356237309, 0.00340000000000000 ) );
#1182 = AXIS2_PLACEMENT_3D( '', #1395, #1396, #1397 );
#1183 = CARTESIAN_POINT( '', ( -0.00808578643762689, 0.0109142135623731, 0.00000000000000 ) );
#1184 = VECTOR( '', #1398, 1.00000000000000 );
#1185 = CARTESIAN_POINT( '', ( -0.0175857864376269, 0.00141421356237309, 0.00680000000000000 ) );
#1186 = VECTOR( '', #1399, 1.00000000000000 );
#1187 = CARTESIAN_POINT( '', ( -0.00667157287525379, 0.0115000000000000, 0.00680000000000000 ) );
#1188 = VECTOR( '', #1400, 1.00000000000000 );
#1189 = CARTESIAN_POINT( '', ( 0.0126715728752538, 0.0115000000000000, 0.00680000000000000 ) );
#1190 = VECTOR( '', #1401, 1.00000000000000 );
#1191 = CARTESIAN_POINT( '', ( 0.0126715728752538, 0.0115000000000000, 0.00680000000000000 ) );
#1192 = VECTOR( '', #1402, 1.00000000000000 );
#1193 = CARTESIAN_POINT( '', ( 0.0126715728752538, 0.0105000000000000, 0.00640000000000000 ) );
#1194 = CARTESIAN_POINT( '', ( 0.0126715728752538, 0.0105000000000000, 0.00340000000000000 ) );
#1195 = VECTOR( '', #1403, 1.00000000000000 );
#1196 = CARTESIAN_POINT( '', ( 0.0126715728752538, 0.0104827049084994, 0.00641729509150065 ) );
#1197 = VECTOR( '', #1404, 1.00000000000000 );
#1198 = CARTESIAN_POINT( '', ( 0.0126715728752538, 0.0105000000000000, 0.00480000000000000 ) );
#1199 = CARTESIAN_POINT( '', ( 0.0126715728752538, 0.00910438923659044, 0.00619561076340955 ) );
#1200 = VECTOR( '', #1405, 1.00000000000000 );
#1201 = CARTESIAN_POINT( '', ( 0.0126715728752538, 0.0105000000000000, 0.00340000000000000 ) );
#1202 = VECTOR( '', #1406, 1.00000000000000 );
#1203 = CARTESIAN_POINT( '', ( 0.0126715728752538, -0.0105000000000000, 0.00480000000000000 ) );
#1204 = CARTESIAN_POINT( '', ( 0.0126715728752538, -0.0105000000000000, 0.00680000000000000 ) );
#1205 = VECTOR( '', #1407, 1.00000000000000 );
#1206 = CARTESIAN_POINT( '', ( 0.0126715728752538, -0.0101469577134744, 0.00515304228652562 ) );
#1207 = VECTOR( '', #1408, 1.00000000000000 );
#1208 = CARTESIAN_POINT( '', ( 0.0126715728752538, -0.0105112066399023, 0.00638879336009767 ) );
#1209 = VECTOR( '', #1409, 1.00000000000000 );
#1210 = CARTESIAN_POINT( '', ( -0.00737867965644034, -0.0102071067811865, 0.00669289321881345 ) );
#1211 = CARTESIAN_POINT( '', ( -166.671383053198, 166.653797266761, 166.670697266761 ) );
#1212 = VECTOR( '', #1410, 1.00000000000000 );
#1213 = AXIS2_PLACEMENT_3D( '', #1411, #1412, #1413 );
#1214 = CARTESIAN_POINT( '', ( -500.000000000000, -0.0105000000000000, 0.00480000000000000 ) );
#1215 = VECTOR( '', #1414, 1.00000000000000 );
#1216 = CARTESIAN_POINT( '', ( -0.00667157287534792, 0.0105000000000000, 0.00480000000000000 ) );
#1217 = AXIS2_PLACEMENT_3D( '', #1415, #1416, #1417 );
#1218 = CARTESIAN_POINT( '', ( -500.000000000000, 0.0105000000000000, 0.00480000000000000 ) );
#1219 = VECTOR( '', #1418, 1.00000000000000 );
#1220 = CARTESIAN_POINT( '', ( -500.000000000000, 0.0105000000000000, 0.00640000000000000 ) );
#1221 = VECTOR( '', #1419, 1.00000000000000 );
#1222 = CARTESIAN_POINT( '', ( -0.00667157287525380, -0.00744916877041847, 0.00200000000000000 ) );
#1223 = CARTESIAN_POINT( '', ( -0.00667157287525380, -0.00744916877041847, 0.00200000000000000 ) );
#1224 = VECTOR( '', #1420, 1.00000000000000 );
#1225 = CARTESIAN_POINT( '', ( 0.00532842712474620, -0.00846214301322478, 0.00200000000000000 ) );
#1226 = AXIS2_PLACEMENT_3D( '', #1421, #1422, #1423 );
#1227 = CARTESIAN_POINT( '', ( 0.00532842712474620, -0.00846214301322478, 0.00200000000000000 ) );
#1228 = VECTOR( '', #1424, 1.00000000000000 );
#1229 = CARTESIAN_POINT( '', ( 0.00532842712474620, -0.0105000000000000, 0.00200000000000000 ) );
#1230 = CARTESIAN_POINT( '', ( 0.00532842712474620, 3.46944695195361E-18, 0.00200000000000000 ) );
#1231 = VECTOR( '', #1425, 1.00000000000000 );
#1232 = CARTESIAN_POINT( '', ( 0.00532842712474620, -0.0105000000000000, 0.00200000000000000 ) );
#1233 = VECTOR( '', #1426, 1.00000000000000 );
#1234 = CARTESIAN_POINT( '', ( -0.00667157287525380, -0.000800000000000000, 0.00200000000000000 ) );
#1235 = VECTOR( '', #1427, 1.00000000000000 );
#1236 = CARTESIAN_POINT( '', ( 0.0212754758279771, -0.0105000000000000, 0.00200000000000000 ) );
#1237 = VECTOR( '', #1428, 1.00000000000000 );
#1238 = CARTESIAN_POINT( '', ( 0.00532842712474620, 0.00846214301322478, 0.00200000000000000 ) );
#1239 = CARTESIAN_POINT( '', ( 0.00532842712474620, 0.00846214301322478, 0.00200000000000000 ) );
#1240 = VECTOR( '', #1429, 1.00000000000000 );
#1241 = CARTESIAN_POINT( '', ( -0.00667157287525380, 0.00744916877041847, 0.00200000000000000 ) );
#1242 = AXIS2_PLACEMENT_3D( '', #1430, #1431, #1432 );
#1243 = CARTESIAN_POINT( '', ( -0.00667157287525380, 0.00744916877041847, 0.00200000000000000 ) );
#1244 = VECTOR( '', #1433, 1.00000000000000 );
#1245 = CARTESIAN_POINT( '', ( 0.00532842712474620, 0.0105000000000000, 0.00200000000000000 ) );
#1246 = CARTESIAN_POINT( '', ( 0.00532842712474620, 0.0105000000000000, 0.00200000000000000 ) );
#1247 = VECTOR( '', #1434, 1.00000000000000 );
#1248 = CARTESIAN_POINT( '', ( 0.00532842712474620, 0.00872140188196657, 0.00200000000000000 ) );
#1249 = VECTOR( '', #1435, 1.00000000000000 );
#1250 = CARTESIAN_POINT( '', ( -0.00667157287525379, 0.0105000000000000, 0.00200000000000000 ) );
#1251 = CARTESIAN_POINT( '', ( -0.00667157287525380, 0.00816804750824602, 0.00200000000000000 ) );
#1252 = VECTOR( '', #1436, 1.00000000000000 );
#1253 = CARTESIAN_POINT( '', ( -0.00667157287525379, 0.0105000000000000, 0.00680000000000000 ) );
#1254 = VECTOR( '', #1437, 1.00000000000000 );
#1255 = CARTESIAN_POINT( '', ( -0.00812810373492540, 0.0105000000000000, 0.00200000000000000 ) );
#1256 = VECTOR( '', #1438, 1.00000000000000 );
#1257 = CARTESIAN_POINT( '', ( -0.00667157287525379, 0.0105000000000000, 0.00680000000000000 ) );
#1258 = VECTOR( '', #1439, 1.00000000000000 );
#1259 = CARTESIAN_POINT( '', ( -0.00737867965644034, -0.0102071067811865, 0.00680000000000000 ) );
#1260 = VECTOR( '', #1440, 1.00000000000000 );
#1261 = DIRECTION( '', ( 0.00000000000000, 0.00000000000000, -1.00000000000000 ) );
#1262 = CARTESIAN_POINT( '', ( 0.0126715728752538, -0.00950000000000000, 0.00100000000000000 ) );
#1263 = DIRECTION( '', ( 0.00000000000000, 0.00000000000000, 1.00000000000000 ) );
#1264 = DIRECTION( '', ( 1.00000000000000, 0.00000000000000, 0.00000000000000 ) );
#1265 = DIRECTION( '', ( 0.00000000000000, 0.00000000000000, -1.00000000000000 ) );
#1266 = CARTESIAN_POINT( '', ( 0.0126715728752538, -0.00950000000000000, 0.00000000000000 ) );
#1267 = DIRECTION( '', ( 0.00000000000000, 0.00000000000000, 1.00000000000000 ) );
#1268 = DIRECTION( '', ( 1.00000000000000, 0.00000000000000, 0.00000000000000 ) );
#1269 = DIRECTION( '', ( 0.00000000000000, 0.00000000000000, -1.00000000000000 ) );
#1270 = CARTESIAN_POINT( '', ( 0.0221715728752538, -3.46944695195361E-18, 0.00100000000000000 ) );
#1271 = DIRECTION( '', ( 0.00000000000000, 0.00000000000000, 1.00000000000000 ) );
#1272 = DIRECTION( '', ( 1.00000000000000, 0.00000000000000, 0.00000000000000 ) );
#1273 = DIRECTION( '', ( 0.00000000000000, 0.00000000000000, -1.00000000000000 ) );
#1274 = CARTESIAN_POINT( '', ( 0.0221715728752538, -3.46944695195361E-18, 0.00000000000000 ) );
#1275 = DIRECTION( '', ( 0.00000000000000, 0.00000000000000, 1.00000000000000 ) );
#1276 = DIRECTION( '', ( 1.00000000000000, 0.00000000000000, 0.00000000000000 ) );
#1277 = DIRECTION( '', ( -0.707106781186547, -0.707106781186548, 0.00000000000000 ) );
#1278 = DIRECTION( '', ( -0.707106781186547, -0.707106781186548, 0.00000000000000 ) );
#1279 = CARTESIAN_POINT( '', ( -0.0128357864376269, 0.00475000000000000, 0.00340000000000000 ) );
#1280 = DIRECTION( '', ( 0.707106781186548, -0.707106781186548, 0.00000000000000 ) );
#1281 = DIRECTION( '', ( 0.707106781186547, 0.707106781186547, 0.00000000000000 ) );
#1282 = DIRECTION( '', ( 0.00000000000000, 0.00000000000000, 1.00000000000000 ) );
#1283 = DIRECTION( '', ( -0.577350269189626, -0.577350269189626, 0.577350269189625 ) );
#1284 = DIRECTION( '', ( -0.707106781186548, -0.707106781186548, 0.00000000000000 ) );
#1285 = DIRECTION( '', ( 0.00000000000000, 0.00000000000000, 1.00000000000000 ) );
#1286 = DIRECTION( '', ( -0.707106781186548, -0.707106781186548, 0.00000000000000 ) );
#1287 = DIRECTION( '', ( -0.707106781186548, -0.707106781186548, 0.00000000000000 ) );
#1288 = DIRECTION( '', ( 0.577350269189626, 0.577350269189626, -0.577350269189626 ) );
#1289 = DIRECTION( '', ( 0.00000000000000, 0.00000000000000, 1.00000000000000 ) );
#1290 = CARTESIAN_POINT( '', ( -0.0128357864376269, -0.00475000000000000, 0.00340000000000000 ) );
#1291 = DIRECTION( '', ( 0.707106781186548, 0.707106781186548, 0.00000000000000 ) );
#1292 = DIRECTION( '', ( -0.707106781186547, 0.707106781186547, 0.00000000000000 ) );
#1293 = DIRECTION( '', ( -0.577350269189626, 0.577350269189626, 0.577350269189626 ) );
#1294 = DIRECTION( '', ( 0.00000000000000, 0.00000000000000, 1.00000000000000 ) );
#1295 = DIRECTION( '', ( 0.707106781186548, -0.707106781186548, 0.00000000000000 ) );
#1296 = DIRECTION( '', ( 0.00000000000000, 0.00000000000000, 1.00000000000000 ) );
#1297 = DIRECTION( '', ( 0.707106781186548, -0.707106781186548, 0.00000000000000 ) );
#1298 = DIRECTION( '', ( 1.00000000000000, 0.00000000000000, 0.00000000000000 ) );
#1299 = DIRECTION( '', ( 0.00000000000000, 0.00000000000000, 1.00000000000000 ) );
#1300 = DIRECTION( '', ( 1.00000000000000, 0.00000000000000, 0.00000000000000 ) );
#1301 = DIRECTION( '', ( 0.00000000000000, 0.00000000000000, 1.00000000000000 ) );
#1302 = CARTESIAN_POINT( '', ( 0.00000000000000, 0.00000000000000, 0.00100000000000000 ) );
#1303 = DIRECTION( '', ( 0.00000000000000, -0.00000000000000, 1.00000000000000 ) );
#1304 = DIRECTION( '', ( 0.532842712474621, 0.846214301322477, 0.00000000000000 ) );
#1305 = DIRECTION( '', ( -1.83697019872103E-16, 1.00000000000000, 0.00000000000000 ) );
#1306 = CARTESIAN_POINT( '', ( -0.00667157287525379, 0.00950000000000000, 0.00100000000000000 ) );
#1307 = DIRECTION( '', ( 0.00000000000000, 0.00000000000000, 1.00000000000000 ) );
#1308 = DIRECTION( '', ( 1.00000000000000, 0.00000000000000, 0.00000000000000 ) );
#1309 = CARTESIAN_POINT( '', ( -0.0161715728752538, -1.73472347597680E-18, 0.00100000000000000 ) );
#1310 = DIRECTION( '', ( 0.00000000000000, 0.00000000000000, 1.00000000000000 ) );
#1311 = DIRECTION( '', ( 1.00000000000000, 0.00000000000000, 0.00000000000000 ) );
#1312 = CARTESIAN_POINT( '', ( -0.00667157287525380, -0.00950000000000000, 0.00100000000000000 ) );
#1313 = DIRECTION( '', ( 0.00000000000000, 0.00000000000000, 1.00000000000000 ) );
#1314 = DIRECTION( '', ( 1.00000000000000, 0.00000000000000, 0.00000000000000 ) );
#1315 = DIRECTION( '', ( -1.83697019872103E-16, 1.00000000000000, 0.00000000000000 ) );
#1316 = CARTESIAN_POINT( '', ( 0.00000000000000, 0.00000000000000, 0.00100000000000000 ) );
#1317 = DIRECTION( '', ( 0.00000000000000, 0.00000000000000, 1.00000000000000 ) );
#1318 = DIRECTION( '', ( -0.667157287525380, -0.744916877041847, 0.00000000000000 ) );
#1319 = DIRECTION( '', ( -1.83697019872103E-16, 1.00000000000000, 0.00000000000000 ) );
#1320 = DIRECTION( '', ( 1.00000000000000, 0.00000000000000, 0.00000000000000 ) );
#1321 = DIRECTION( '', ( 0.00000000000000, 1.00000000000000, 0.00000000000000 ) );
#1322 = DIRECTION( '', ( 0.707106781186547, -0.707106781186548, 0.00000000000000 ) );
#1323 = CARTESIAN_POINT( '', ( 0.0126715728752538, 0.00950000000000000, 0.00100000000000000 ) );
#1324 = DIRECTION( '', ( 0.00000000000000, 0.00000000000000, 1.00000000000000 ) );
#1325 = DIRECTION( '', ( 1.00000000000000, 0.00000000000000, 0.00000000000000 ) );
#1326 = DIRECTION( '', ( 0.00000000000000, -1.00000000000000, 0.00000000000000 ) );
#1327 = DIRECTION( '', ( 1.00000000000000, 0.00000000000000, 0.00000000000000 ) );
#1328 = DIRECTION( '', ( -1.83697019872103E-16, 1.00000000000000, 0.00000000000000 ) );
#1329 = CARTESIAN_POINT( '', ( -0.00667157287525379, 0.00950000000000000, 0.00740000000000000 ) );
#1330 = DIRECTION( '', ( 0.00000000000000, 0.707106781186548, 0.707106781186548 ) );
#1331 = DIRECTION( '', ( 0.00000000000000, -0.707106781186548, 0.707106781186548 ) );
#1332 = DIRECTION( '', ( 0.00000000000000, 0.00000000000000, 1.00000000000000 ) );
#1333 = CARTESIAN_POINT( '', ( -0.00667157287525379, 0.00950000000000000, 0.00680000000000000 ) );
#1334 = DIRECTION( '', ( 0.00000000000000, 0.00000000000000, 1.00000000000000 ) );
#1335 = DIRECTION( '', ( 1.00000000000000, 0.00000000000000, 0.00000000000000 ) );
#1336 = CARTESIAN_POINT( '', ( -0.0161715728752538, -1.73472347597680E-18, 0.00680000000000000 ) );
#1337 = DIRECTION( '', ( 0.00000000000000, 0.00000000000000, 1.00000000000000 ) );
#1338 = DIRECTION( '', ( 1.00000000000000, 0.00000000000000, 0.00000000000000 ) );
#1339 = CARTESIAN_POINT( '', ( -0.00667157287525380, -0.00950000000000000, 0.00580000000000000 ) );
#1340 = DIRECTION( '', ( 0.00000000000000, -0.707106781186548, 0.707106781186548 ) );
#1341 = DIRECTION( '', ( 0.00000000000000, -0.707106781186548, -0.707106781186548 ) );
#1342 = DIRECTION( '', ( 0.00000000000000, 0.00000000000000, 1.00000000000000 ) );
#1343 = DIRECTION( '', ( 0.00000000000000, 0.00000000000000, -1.00000000000000 ) );
#1344 = DIRECTION( '', ( 0.00000000000000, 1.00000000000000, 0.00000000000000 ) );
#1345 = CARTESIAN_POINT( '', ( -0.00667157287525380, -0.00950000000000000, 0.00680000000000000 ) );
#1346 = DIRECTION( '', ( 0.00000000000000, 0.00000000000000, 1.00000000000000 ) );
#1347 = DIRECTION( '', ( 1.00000000000000, 0.00000000000000, 0.00000000000000 ) );
#1348 = DIRECTION( '', ( 0.707106781186548, -0.707106781186548, 0.00000000000000 ) );
#1349 = DIRECTION( '', ( 1.00000000000000, 0.00000000000000, 0.00000000000000 ) );
#1350 = DIRECTION( '', ( 0.00000000000000, 1.00000000000000, 1.22464679914735E-16 ) );
#1351 = DIRECTION( '', ( 1.00000000000000, 0.00000000000000, 0.00000000000000 ) );
#1352 = DIRECTION( '', ( 1.00000000000000, 0.00000000000000, 0.00000000000000 ) );
#1353 = DIRECTION( '', ( 0.00000000000000, -1.00000000000000, -1.22464679914735E-16 ) );
#1354 = DIRECTION( '', ( 1.00000000000000, 0.00000000000000, 0.00000000000000 ) );
#1355 = DIRECTION( '', ( 1.00000000000000, 0.00000000000000, 0.00000000000000 ) );
#1356 = DIRECTION( '', ( 0.00000000000000, -1.00000000000000, 0.00000000000000 ) );
#1357 = DIRECTION( '', ( 1.00000000000000, 0.00000000000000, 0.00000000000000 ) );
#1358 = CARTESIAN_POINT( '', ( -0.00667157287525379, 0.00950000000000000, 0.00680000000000000 ) );
#1359 = DIRECTION( '', ( 0.00000000000000, 0.00000000000000, 1.00000000000000 ) );
#1360 = DIRECTION( '', ( 1.00000000000000, 0.00000000000000, 0.00000000000000 ) );
#1361 = DIRECTION( '', ( -0.707106781186548, -0.707106781186548, 0.00000000000000 ) );
#1362 = CARTESIAN_POINT( '', ( -0.0161715728752538, -1.73472347597680E-18, 0.00680000000000000 ) );
#1363 = DIRECTION( '', ( 0.00000000000000, 0.00000000000000, 1.00000000000000 ) );
#1364 = DIRECTION( '', ( 1.00000000000000, 0.00000000000000, 0.00000000000000 ) );
#1365 = DIRECTION( '', ( 0.707106781186548, -0.707106781186548, 0.00000000000000 ) );
#1366 = CARTESIAN_POINT( '', ( -0.00667157287525380, -0.00950000000000000, 0.00680000000000000 ) );
#1367 = DIRECTION( '', ( 0.00000000000000, 0.00000000000000, 1.00000000000000 ) );
#1368 = DIRECTION( '', ( 1.00000000000000, 0.00000000000000, 0.00000000000000 ) );
#1369 = DIRECTION( '', ( 1.00000000000000, 0.00000000000000, 0.00000000000000 ) );
#1370 = DIRECTION( '', ( -0.707106781186548, -0.707106781186548, 0.00000000000000 ) );
#1371 = CARTESIAN_POINT( '', ( -0.00667157287525379, 0.00950000000000000, 0.00000000000000 ) );
#1372 = DIRECTION( '', ( 0.00000000000000, 0.00000000000000, 1.00000000000000 ) );
#1373 = DIRECTION( '', ( 1.00000000000000, 0.00000000000000, 0.00000000000000 ) );
#1374 = DIRECTION( '', ( 1.00000000000000, 0.00000000000000, 0.00000000000000 ) );
#1375 = CARTESIAN_POINT( '', ( 0.0126715728752538, 0.00950000000000000, 0.00000000000000 ) );
#1376 = DIRECTION( '', ( 0.00000000000000, 0.00000000000000, 1.00000000000000 ) );
#1377 = DIRECTION( '', ( 1.00000000000000, 0.00000000000000, 0.00000000000000 ) );
#1378 = DIRECTION( '', ( 0.707106781186547, -0.707106781186548, 0.00000000000000 ) );
#1379 = DIRECTION( '', ( 1.00000000000000, 0.00000000000000, 0.00000000000000 ) );
#1380 = CARTESIAN_POINT( '', ( -0.00667157287525380, -0.00950000000000000, 0.00000000000000 ) );
#1381 = DIRECTION( '', ( 0.00000000000000, 0.00000000000000, 1.00000000000000 ) );
#1382 = DIRECTION( '', ( 1.00000000000000, 0.00000000000000, 0.00000000000000 ) );
#1383 = DIRECTION( '', ( 0.707106781186548, -0.707106781186548, 0.00000000000000 ) );
#1384 = CARTESIAN_POINT( '', ( -0.0161715728752538, -1.73472347597680E-18, 0.00000000000000 ) );
#1385 = DIRECTION( '', ( 0.00000000000000, 0.00000000000000, 1.00000000000000 ) );
#1386 = DIRECTION( '', ( 1.00000000000000, 0.00000000000000, 0.00000000000000 ) );
#1387 = DIRECTION( '', ( 0.00000000000000, 0.00000000000000, -1.00000000000000 ) );
#1388 = DIRECTION( '', ( 0.00000000000000, 0.00000000000000, -1.00000000000000 ) );
#1389 = DIRECTION( '', ( 0.00000000000000, 0.00000000000000, -1.00000000000000 ) );
#1390 = CARTESIAN_POINT( '', ( -0.0128357864376269, -0.00616421356237308, 0.00340000000000000 ) );
#1391 = DIRECTION( '', ( 0.707106781186548, 0.707106781186548, 0.00000000000000 ) );
#1392 = DIRECTION( '', ( -0.707106781186547, 0.707106781186547, 0.00000000000000 ) );
#1393 = DIRECTION( '', ( 0.00000000000000, 0.00000000000000, -1.00000000000000 ) );
#1394 = DIRECTION( '', ( 0.00000000000000, 0.00000000000000, -1.00000000000000 ) );
#1395 = CARTESIAN_POINT( '', ( -0.0128357864376269, 0.00616421356237309, 0.00340000000000000 ) );
#1396 = DIRECTION( '', ( 0.707106781186548, -0.707106781186548, 0.00000000000000 ) );
#1397 = DIRECTION( '', ( 0.707106781186547, 0.707106781186547, 0.00000000000000 ) );
#1398 = DIRECTION( '', ( 0.00000000000000, 0.00000000000000, -1.00000000000000 ) );
#1399 = DIRECTION( '', ( 0.00000000000000, 0.00000000000000, -1.00000000000000 ) );
#1400 = DIRECTION( '', ( 0.00000000000000, 0.00000000000000, -1.00000000000000 ) );
#1401 = DIRECTION( '', ( 0.00000000000000, 0.00000000000000, -1.00000000000000 ) );
#1402 = DIRECTION( '', ( 0.00000000000000, 0.00000000000000, -1.00000000000000 ) );
#1403 = DIRECTION( '', ( 0.00000000000000, 0.00000000000000, 1.00000000000000 ) );
#1404 = DIRECTION( '', ( 0.00000000000000, -0.707106781186548, 0.707106781186548 ) );
#1405 = DIRECTION( '', ( 0.00000000000000, 0.707106781186548, -0.707106781186547 ) );
#1406 = DIRECTION( '', ( 0.00000000000000, 0.00000000000000, 1.00000000000000 ) );
#1407 = DIRECTION( '', ( 0.00000000000000, 0.00000000000000, 1.00000000000000 ) );
#1408 = DIRECTION( '', ( 0.00000000000000, -0.707106781186548, -0.707106781186548 ) );
#1409 = DIRECTION( '', ( 0.00000000000000, -0.707106781186548, -0.707106781186548 ) );
#1410 = DIRECTION( '', ( -0.577350269189626, 0.577350269189626, 0.577350269189626 ) );
#1411 = CARTESIAN_POINT( '', ( -0.00667157287525380, -0.00950000000000000, 0.00740000000000000 ) );
#1412 = DIRECTION( '', ( 0.00000000000000, -0.707106781186548, 0.707106781186548 ) );
#1413 = DIRECTION( '', ( 0.00000000000000, -0.707106781186548, -0.707106781186548 ) );
#1414 = DIRECTION( '', ( 1.00000000000000, 0.00000000000000, 0.00000000000000 ) );
#1415 = CARTESIAN_POINT( '', ( -0.00667157287525379, 0.00950000000000000, 0.00580000000000000 ) );
#1416 = DIRECTION( '', ( 0.00000000000000, -0.707106781186547, -0.707106781186548 ) );
#1417 = DIRECTION( '', ( 0.00000000000000, -0.707106781186548, 0.707106781186547 ) );
#1418 = DIRECTION( '', ( 1.00000000000000, 0.00000000000000, 0.00000000000000 ) );
#1419 = DIRECTION( '', ( 1.00000000000000, 0.00000000000000, 0.00000000000000 ) );
#1420 = DIRECTION( '', ( 0.00000000000000, 0.00000000000000, -1.00000000000000 ) );
#1421 = CARTESIAN_POINT( '', ( 0.00000000000000, 0.00000000000000, 0.00200000000000000 ) );
#1422 = DIRECTION( '', ( 0.00000000000000, 0.00000000000000, 1.00000000000000 ) );
#1423 = DIRECTION( '', ( -0.667157287525380, -0.744916877041847, 0.00000000000000 ) );
#1424 = DIRECTION( '', ( 0.00000000000000, 0.00000000000000, -1.00000000000000 ) );
#1425 = DIRECTION( '', ( -1.83697019872103E-16, 1.00000000000000, 0.00000000000000 ) );
#1426 = DIRECTION( '', ( 0.00000000000000, 0.00000000000000, -1.00000000000000 ) );
#1427 = DIRECTION( '', ( -1.83697019872103E-16, 1.00000000000000, 0.00000000000000 ) );
#1428 = DIRECTION( '', ( 1.00000000000000, 0.00000000000000, 0.00000000000000 ) );
#1429 = DIRECTION( '', ( 0.00000000000000, 0.00000000000000, -1.00000000000000 ) );
#1430 = CARTESIAN_POINT( '', ( 0.00000000000000, 0.00000000000000, 0.00200000000000000 ) );
#1431 = DIRECTION( '', ( 0.00000000000000, -0.00000000000000, 1.00000000000000 ) );
#1432 = DIRECTION( '', ( 0.532842712474621, 0.846214301322477, 0.00000000000000 ) );
#1433 = DIRECTION( '', ( 0.00000000000000, 0.00000000000000, -1.00000000000000 ) );
#1434 = DIRECTION( '', ( 0.00000000000000, 0.00000000000000, -1.00000000000000 ) );
#1435 = DIRECTION( '', ( -1.83697019872103E-16, 1.00000000000000, 0.00000000000000 ) );
#1436 = DIRECTION( '', ( -1.83697019872103E-16, 1.00000000000000, 0.00000000000000 ) );
#1437 = DIRECTION( '', ( 0.00000000000000, 0.00000000000000, 1.00000000000000 ) );
#1438 = DIRECTION( '', ( 1.00000000000000, 0.00000000000000, 0.00000000000000 ) );
#1439 = DIRECTION( '', ( 0.00000000000000, 0.00000000000000, 1.00000000000000 ) );
#1440 = DIRECTION( '', ( 0.00000000000000, 0.00000000000000, 1.00000000000000 ) );
ENDSEC;
END-ISO-10303-21;
